<svg width="66" height="62" viewBox="0 0 66 62" fill="none" xmlns="http://www.w3.org/2000/svg">
<path d="M31.3265 4.8115C31.9639 2.86101 34.7392 2.86101 35.3766 4.8115L40.8809 21.6549C41.166 22.5272 41.9835 23.1178 42.906 23.1178H60.7182C62.7809 23.1178 63.6385 25.7421 61.9698 26.9476L47.5594 37.3574C46.8131 37.8965 46.5008 38.8521 46.7859 39.7244L52.2901 56.5677C52.9275 58.5182 50.6823 60.1402 49.0135 58.9347L34.6031 48.5249C33.8568 47.9858 32.8463 47.9858 32.1 48.5249L17.6896 58.9347C16.0209 60.1402 13.7756 58.5182 14.413 56.5677L19.9173 39.7244C20.2023 38.8521 19.89 37.8965 19.1438 37.3574L4.73337 26.9476C3.06462 25.7421 3.92224 23.1178 5.98493 23.1178H23.7971C24.7196 23.1178 25.5372 22.5272 25.8222 21.6549L31.3265 4.8115Z" fill="#FBBD2B"/>
</svg>
