<svg width="66" height="62" viewBox="0 0 66 62" fill="none" xmlns="http://www.w3.org/2000/svg">
<path d="M60.4396 43.045L44.5451 43.3425C44.0093 43.3425 43.4736 43.6402 43.1163 44.1165C41.5091 46.6763 36.5086 53.82 32.0436 58.8205C31.0913 59.7134 29.5434 59.4753 28.8886 58.3442C28.7696 58.1061 28.591 57.868 28.591 57.8084C27.6385 55.6057 24.7215 42.8664 23.4118 41.2591C21.8046 39.3541 7.99354 35.9014 5.85046 35.187C4.30267 34.6512 3.88595 32.6272 5.07656 31.4961C8.58884 28.1624 14.2442 23.4595 18.2922 20.7807C18.828 20.483 19.1852 19.8877 19.1852 19.2923L18.9471 4.17175C18.9471 2.98114 20.1377 2.08819 21.2687 2.62397C24.6619 4.0527 30.734 7.86262 34.544 11.1963C34.9607 11.6725 35.6155 11.8511 36.2109 11.6725C38.9493 10.8987 46.6286 8.69604 54.1295 8.27933C55.1416 8.21981 55.9748 9.05323 55.8558 10.1248C55.4987 13.6966 54.4866 21.3759 52.8197 26.4361C52.6412 26.9718 52.7006 27.5076 53.1174 27.9838C54.7247 30.0674 58.5346 35.306 61.8683 40.5447C62.4636 41.6758 61.7492 43.045 60.4396 43.045Z" fill="white"/>
<path d="M42.4019 24.412C42.4019 26.3765 40.7947 28.0434 38.8301 28.0434C36.8657 28.0434 35.2584 26.4361 35.2584 24.412C35.2584 22.4475 36.8657 20.7807 38.8301 20.7807C40.7947 20.7807 42.4019 22.4475 42.4019 24.412ZM60.4396 43.045L44.5451 43.3425C44.0093 43.3425 43.4734 43.6402 43.1163 44.1165C41.5091 46.6763 36.5086 53.82 32.0436 58.8205C31.0913 59.7134 29.5434 59.4753 28.8886 58.3442C28.7696 58.1061 28.591 57.868 28.591 57.8084C27.6385 55.6057 24.7215 42.8664 23.4118 41.2591C21.8046 39.3541 7.99354 35.9014 5.85046 35.187C4.30267 34.6512 3.88595 32.6272 5.07656 31.4961C8.58884 28.1624 14.2442 23.4595 18.2922 20.7807C18.828 20.483 19.1852 19.8877 19.1852 19.2923L18.9471 4.17175C18.9471 2.98114 20.1377 2.08819 21.2687 2.62397C24.6619 4.0527 30.734 7.86262 34.544 11.1963C34.9607 11.6725 35.6155 11.8511 36.2109 11.6725C38.9493 10.8987 46.6286 8.69604 54.1295 8.27933C55.1416 8.21981 55.9748 9.05323 55.8558 10.1248C55.4987 13.6966 54.4866 21.3759 52.8197 26.4361C52.6412 26.9718 52.7006 27.5076 53.1174 27.9838C54.7247 30.0674 58.5346 35.306 61.8683 40.5447C62.4636 41.6758 61.7492 43.045 60.4396 43.045ZM51.0933 13.5775C51.2125 13.1608 50.7958 12.7441 50.3195 12.8037C34.2463 14.4705 19.5424 26.198 14.78 30.4245C14.0061 31.0793 14.2442 32.3295 15.1967 32.6868C15.1967 32.6868 25.4358 34.3535 27.8767 36.4372C29.6625 37.9849 31.389 47.2715 31.389 47.2715C31.7461 48.1646 32.8773 48.3431 33.5321 47.6883C47.4024 33.4606 50.5576 17.5065 51.0933 13.5775Z" fill="url(#paint0_linear_2512_14384)"/>
<path d="M23.8878 52.2719C23.7688 51.7361 23.5901 51.2004 23.4115 50.605L18.2917 56.0224C17.9344 56.4391 17.7559 56.9749 17.7559 57.5108C17.7559 58.106 17.994 58.642 18.4107 58.9991C18.7679 59.3562 19.3037 59.5349 19.8395 59.5349C20.4348 59.5349 20.9707 59.2968 21.3874 58.8801L24.7807 55.308C24.4832 54.4746 24.1855 53.4625 23.8878 52.2719Z" fill="url(#paint1_linear_2512_14384)"/>
<path d="M21.0902 43.1629C20.6734 42.8653 19.84 42.5677 18.8875 42.2104L6.14804 55.1881C5.73133 55.6048 5.55273 56.1406 5.55273 56.6763C5.55273 57.2121 5.73133 57.8075 6.14804 58.1646C6.56475 58.5217 7.10051 58.76 7.6363 58.76C8.17207 58.76 8.70783 58.5813 9.18408 58.1646L21.8044 45.306C21.5663 44.4131 21.3282 43.6393 21.0902 43.1629Z" fill="url(#paint2_linear_2512_14384)"/>
<path d="M9.59949 39.2939L5.37267 43.5802C5.01547 43.997 4.77734 44.5329 4.77734 45.0687C4.77734 45.6044 4.95594 46.1998 5.37267 46.5569C5.7894 46.9142 6.32518 47.1523 6.86098 47.1523C7.39677 47.1523 7.9921 46.9142 8.34929 46.5569L14.243 40.6037C12.5761 40.187 10.9092 39.7107 9.59949 39.2939Z" fill="url(#paint3_linear_2512_14384)"/>
<path d="M23.8878 52.2719C23.7688 51.7361 23.5901 51.2004 23.4115 50.605L18.2917 56.0224C17.9344 56.4391 17.7559 56.9749 17.7559 57.5108C17.7559 58.106 17.994 58.642 18.4107 58.9991C18.7679 59.3562 19.3037 59.5349 19.8395 59.5349C20.4348 59.5349 20.9707 59.2968 21.3874 58.8801L24.7807 55.308C24.4832 54.4746 24.1855 53.4625 23.8878 52.2719Z" fill="url(#paint4_linear_2512_14384)" stroke="url(#paint5_linear_2512_14384)" stroke-width="1.17121"/>
<path d="M9.59949 39.2939L5.37267 43.5802C5.01547 43.997 4.77734 44.5329 4.77734 45.0687C4.77734 45.6044 4.95594 46.1998 5.37267 46.5569C5.7894 46.9142 6.32518 47.1523 6.86098 47.1523C7.39677 47.1523 7.9921 46.9142 8.34929 46.5569L14.243 40.6037C12.5761 40.187 10.9092 39.7107 9.59949 39.2939Z" stroke="url(#paint6_linear_2512_14384)" stroke-width="1.17121"/>
<path d="M21.0902 43.1629C20.6734 42.8653 19.84 42.5677 18.8875 42.2104L6.14804 55.1881C5.73133 55.6048 5.55273 56.1406 5.55273 56.6763C5.55273 57.2121 5.73133 57.8075 6.14804 58.1646C6.56475 58.5217 7.10051 58.76 7.6363 58.76C8.17207 58.76 8.70783 58.5813 9.18408 58.1646L21.8044 45.306C21.5663 44.4131 21.3282 43.6393 21.0902 43.1629Z" stroke="url(#paint7_linear_2512_14384)" stroke-opacity="0.5" stroke-width="1.17121"/>
<g filter="url(#filter0_ii_2512_14384)">
<path d="M60.4396 43.045L44.5451 43.3425C44.0093 43.3425 43.4736 43.6402 43.1163 44.1165C41.5091 46.6763 36.5086 53.82 32.0436 58.8205C31.0913 59.7134 29.5434 59.4753 28.8886 58.3442C28.7696 58.1061 28.591 57.868 28.591 57.8084C27.6385 55.6057 24.7215 42.8664 23.4118 41.2591C21.8046 39.3541 7.99354 35.9014 5.85046 35.187C4.30267 34.6512 3.88595 32.6272 5.07656 31.4961C8.58884 28.1624 14.2442 23.4595 18.2922 20.7807C18.828 20.483 19.1852 19.8877 19.1852 19.2925L18.9471 4.17175C18.9471 2.98114 20.1377 2.08819 21.2687 2.62397C24.6619 4.0527 30.734 7.86262 34.544 11.1963C34.9607 11.6725 35.6155 11.8511 36.2109 11.6725C38.9493 10.8987 46.6286 8.69604 54.1295 8.27933C55.1416 8.21981 55.9748 9.05323 55.8558 10.1248C55.4987 13.6966 54.4866 21.3759 52.8197 26.4361C52.6412 26.9718 52.7006 27.5076 53.1174 27.9838C54.7248 30.0674 58.5346 35.306 61.8683 40.5447C62.4636 41.6758 61.7492 43.045 60.4396 43.045Z" stroke="url(#paint8_linear_2512_14384)" stroke-width="1.17121"/>
</g>
<defs>
<filter id="filter0_ii_2512_14384" x="3.80273" y="1.87451" width="58.8594" height="58.3104" filterUnits="userSpaceOnUse" color-interpolation-filters="sRGB">
<feFlood flood-opacity="0" result="BackgroundImageFix"/>
<feBlend mode="normal" in="SourceGraphic" in2="BackgroundImageFix" result="shape"/>
<feColorMatrix in="SourceAlpha" type="matrix" values="0 0 0 0 0 0 0 0 0 0 0 0 0 0 0 0 0 0 127 0" result="hardAlpha"/>
<feOffset dy="0.234242"/>
<feGaussianBlur stdDeviation="0.117121"/>
<feComposite in2="hardAlpha" operator="arithmetic" k2="-1" k3="1"/>
<feColorMatrix type="matrix" values="0 0 0 0 1 0 0 0 0 1 0 0 0 0 1 0 0 0 0.8 0"/>
<feBlend mode="normal" in2="shape" result="effect1_innerShadow_2512_14384"/>
<feColorMatrix in="SourceAlpha" type="matrix" values="0 0 0 0 0 0 0 0 0 0 0 0 0 0 0 0 0 0 127 0" result="hardAlpha"/>
<feOffset dy="0.117121"/>
<feGaussianBlur stdDeviation="0.117121"/>
<feComposite in2="hardAlpha" operator="arithmetic" k2="-1" k3="1"/>
<feColorMatrix type="matrix" values="0 0 0 0 0.441667 0 0 0 0 0.441667 0 0 0 0 0.441667 0 0 0 0.4 0"/>
<feBlend mode="normal" in2="effect1_innerShadow_2512_14384" result="effect2_innerShadow_2512_14384"/>
</filter>
<linearGradient id="paint0_linear_2512_14384" x1="53.4604" y1="9.80181" x2="18.3729" y2="44.8892" gradientUnits="userSpaceOnUse">
<stop offset="0.1745" stop-color="#52BFCA"/>
<stop offset="0.9163" stop-color="#7238DF"/>
</linearGradient>
<linearGradient id="paint1_linear_2512_14384" x1="13.159" y1="63.8294" x2="26.9162" y2="50.3065" gradientUnits="userSpaceOnUse">
<stop offset="0.1875" stop-color="#25E2EA"/>
<stop offset="1" stop-color="#19A6D1"/>
</linearGradient>
<linearGradient id="paint2_linear_2512_14384" x1="-5.19484" y1="69.152" x2="25.4957" y2="38.9839" gradientUnits="userSpaceOnUse">
<stop stop-color="#A443FD"/>
<stop offset="1" stop-color="#A959F3"/>
</linearGradient>
<linearGradient id="paint3_linear_2512_14384" x1="-0.261254" y1="52.0547" x2="14.9504" y2="37.1021" gradientUnits="userSpaceOnUse">
<stop offset="0.3958" stop-color="#E55EC4"/>
<stop offset="1" stop-color="#8225D0"/>
</linearGradient>
<linearGradient id="paint4_linear_2512_14384" x1="13.159" y1="63.8294" x2="26.9162" y2="50.3065" gradientUnits="userSpaceOnUse">
<stop offset="0.1875" stop-color="#25E2EA"/>
<stop offset="1" stop-color="#19A6D1"/>
</linearGradient>
<linearGradient id="paint5_linear_2512_14384" x1="17.7559" y1="59.9664" x2="22.9938" y2="54.5337" gradientUnits="userSpaceOnUse">
<stop/>
<stop offset="0.0001" stop-color="#E4FCFF"/>
<stop offset="1" stop-color="#E4FCFF" stop-opacity="0"/>
</linearGradient>
<linearGradient id="paint6_linear_2512_14384" x1="4.77734" y1="46.9372" x2="11.6467" y2="39.918" gradientUnits="userSpaceOnUse">
<stop stop-color="#FFF5FE"/>
<stop offset="0.769332" stop-color="#FFF5FE" stop-opacity="0"/>
</linearGradient>
<linearGradient id="paint7_linear_2512_14384" x1="6.21539" y1="58.2349" x2="20.9749" y2="43.1388" gradientUnits="userSpaceOnUse">
<stop stop-color="#F6EDFE"/>
<stop offset="0.850896" stop-color="#A851F8" stop-opacity="0"/>
</linearGradient>
<linearGradient id="paint8_linear_2512_14384" x1="56.2152" y1="7.89961" x2="18.0424" y2="47.9474" gradientUnits="userSpaceOnUse">
<stop offset="0.00924772" stop-color="#2D9FAB"/>
<stop offset="0.0885417" stop-color="#2D9FAB" stop-opacity="0.823892"/>
<stop offset="0.171875" stop-color="#2D9FAB" stop-opacity="0.8"/>
<stop offset="0.302083" stop-color="#2D9FAB" stop-opacity="0.8"/>
<stop offset="1" stop-color="white" stop-opacity="0.5"/>
</linearGradient>
</defs>
</svg>
