<svg width="87" height="20" viewBox="0 0 87 20" fill="none" xmlns="http://www.w3.org/2000/svg">
<g clip-path="url(#clip0_2527_14012)">
<path d="M5.05165 19.6208C4.87454 19.6208 4.71193 19.5587 4.59386 19.4345C4.46077 19.3103 4.38672 19.1398 4.38672 18.9377C4.38672 18.7508 4.44627 18.5798 4.56434 18.4403L7.04488 15.7066C7.17849 15.5666 7.34058 15.4893 7.5327 15.4893C7.70981 15.4893 7.87241 15.5514 7.99049 15.6756C8.12358 15.7998 8.19763 15.9861 8.19763 16.1724C8.19763 16.3587 8.13808 16.5303 8.02 16.6698L5.53895 19.4035C5.40586 19.5435 5.24377 19.6208 5.05165 19.6208Z" fill="url(#paint0_linear_2527_14012)"/>
<path d="M0.943707 15.5217C0.7666 15.5217 0.603993 15.4443 0.470904 15.3201C0.338333 15.1959 0.279297 15.0096 0.279297 14.8227C0.279297 14.6364 0.352833 14.4653 0.470904 14.3259L2.80437 11.8559C2.92244 11.7164 3.09955 11.6543 3.27717 11.6543C3.45428 11.6543 3.61637 11.7317 3.74946 11.8559C3.88255 11.9801 3.94106 12.1664 3.94106 12.3532C3.94106 12.5396 3.86753 12.7101 3.74946 12.8501L1.41599 15.3206C1.29792 15.4448 1.12081 15.5217 0.943707 15.5217Z" fill="url(#paint1_linear_2527_14012)"/>
<path d="M1.17585 19.5822C0.997703 19.5822 0.834578 19.5043 0.700971 19.3796C0.567363 19.2549 0.507812 19.068 0.507812 18.8812C0.507812 18.6943 0.567363 18.5233 0.700971 18.3828L5.39173 13.3828C5.52533 13.2428 5.68846 13.1807 5.8666 13.1807C6.04474 13.1807 6.20839 13.2586 6.34148 13.3828C6.60869 13.6475 6.60869 14.0991 6.35649 14.3796L1.66574 19.3796C1.53504 19.51 1.35902 19.5829 1.17585 19.5822Z" fill="url(#paint2_linear_2527_14012)"/>
<path d="M4.01154 9.38015C5.52524 7.99383 10.201 4.08436 15.307 3.5391C15.3411 3.5358 15.3754 3.5406 15.4074 3.55311C15.4393 3.56561 15.4678 3.58549 15.4909 3.61116C15.514 3.63684 15.5308 3.66761 15.5402 3.70105C15.5495 3.73449 15.5511 3.76967 15.5447 3.80383C15.3666 5.11225 14.3718 10.408 9.96379 15.1275C9.91584 15.1789 9.85582 15.217 9.78938 15.2383C9.72294 15.2596 9.65225 15.2635 9.584 15.2494C9.51569 15.2354 9.45205 15.2039 9.39902 15.158C9.34599 15.1121 9.30529 15.0533 9.28074 14.987L8.27092 12.5575L7.00994 12.8996C6.95188 12.914 6.89109 12.9125 6.83381 12.8952C6.77654 12.8778 6.72486 12.8453 6.68405 12.8009C6.64324 12.7566 6.61481 12.7019 6.60161 12.6427C6.58845 12.5835 6.59104 12.5217 6.60911 12.4638L6.95038 11.2333L4.13013 10.1123C3.84789 10.0028 3.77384 9.59804 4.01102 9.38015H4.01154Z" fill="url(#paint3_linear_2527_14012)"/>
<path d="M18.1125 13.9746L13.066 14.0683C12.8878 14.0683 12.7242 14.1614 12.6206 14.333C12.1157 15.1893 10.4238 17.993 9.10227 19.2235C8.79104 19.5198 8.31565 19.4419 8.09297 19.0677C8.05703 19.0063 8.02249 18.944 7.9894 18.8809C7.67765 18.1493 7.44047 17.7125 7.02463 16.9651C6.66834 16.3267 5.95577 15.423 5.53993 14.8783C5.03554 14.2393 3.96669 13.2425 3.41724 12.8377C2.39344 12.0588 1.44317 11.6072 0.760634 11.3583C0.27074 11.1709 0.137133 10.5014 0.522937 10.1277C1.63633 9.02141 3.53635 7.19931 4.72379 6.57615C4.90194 6.48299 5.00551 6.28036 5.00551 6.07773L4.91644 1.07773C4.91644 0.672989 5.30275 0.392463 5.65904 0.564042C6.72738 1.04667 8.73149 2.07457 9.8744 3.41457C10.008 3.57036 10.2162 3.63246 10.4088 3.57036C11.2695 3.30509 13.719 2.58878 16.0939 2.44878C16.4201 2.43299 16.6873 2.71352 16.6428 3.05615C16.5242 4.24036 16.213 6.79404 15.678 8.47667C15.619 8.64773 15.6485 8.83457 15.7671 8.99036C16.2865 9.67562 17.8157 11.763 18.5428 13.1646C18.751 13.523 18.5133 13.9751 18.113 13.9751L18.1125 13.9746Z" fill="url(#paint4_linear_2527_14012)"/>
<path d="M7.66317 12.7292L7.00964 12.9003C6.95153 12.9147 6.89068 12.9132 6.83336 12.8958C6.77603 12.8785 6.72425 12.8459 6.68344 12.8015C6.64263 12.757 6.6142 12.7023 6.60105 12.643C6.58794 12.5837 6.59064 12.5219 6.60881 12.4639L6.9506 11.2339L4.13036 10.1124C3.83311 9.98763 3.75905 9.58289 3.99675 9.365C5.50992 7.97816 10.1862 4.06868 15.2922 3.52342C15.3263 3.52021 15.3605 3.52507 15.3923 3.53762C15.4242 3.55017 15.4527 3.57006 15.4757 3.59572C15.4987 3.62138 15.5155 3.65212 15.5249 3.68552C15.5342 3.71891 15.5357 3.75405 15.5294 3.78816C15.3513 5.09658 14.357 10.3918 9.94848 15.1113C9.90057 15.1627 9.84055 15.2008 9.77416 15.2222C9.70777 15.2435 9.63709 15.2474 9.56883 15.2334C9.50058 15.2194 9.43688 15.188 9.38386 15.1422C9.33078 15.0963 9.29002 15.0375 9.26542 14.9713L8.25612 12.5413L7.66265 12.7287L7.66317 12.7292Z" fill="#FFFFFC"/>
<path d="M11.5528 9.05237C12.3891 9.05237 13.067 8.34132 13.067 7.46395C13.067 6.58605 12.3891 5.875 11.5528 5.875C10.7169 5.875 10.0391 6.58605 10.0391 7.46395C10.0391 8.34132 10.7169 9.05237 11.5528 9.05237Z" fill="url(#paint5_linear_2527_14012)"/>
<path d="M27.1073 8.28831C26.5926 7.78883 26.0266 7.6462 25.3917 7.6462C24.5512 7.62883 24.0023 7.91357 24.0023 8.4662C24.0193 9.03673 24.5854 9.25041 25.4264 9.33989C26.6273 9.44673 28.2057 9.73199 28.1881 11.4788C28.171 12.7446 27.1073 13.6178 25.4088 13.6178C24.3451 13.6178 23.2814 13.3683 22.4238 12.3704L23.1442 11.372C23.762 12.0667 24.6713 12.3704 25.4435 12.3704C26.0954 12.3704 26.8158 12.1209 26.8329 11.4967C26.85 10.8909 26.2839 10.6588 25.3233 10.552C24.0877 10.4273 22.6812 10.0173 22.6641 8.51989C22.6641 7.02252 24.1566 6.45199 25.3746 6.45199C26.387 6.45199 27.1591 6.68357 27.8965 7.36147L27.1073 8.28831ZM31.0705 4.6162C31.0705 5.79252 29.3719 5.79252 29.3719 4.6162C29.3719 3.47515 31.0705 3.47515 31.0705 4.6162ZM29.5438 6.59515V13.4041H30.9162V6.59462L29.5438 6.59515ZM34.8622 4.66989V6.63041H36.7664V7.86041H34.8452V11.0867C34.8452 11.7999 35.1538 12.2099 35.7887 12.2099C36.0461 12.2099 36.3547 12.1204 36.6292 11.9783L37.0238 13.1904C36.5779 13.4041 36.1833 13.4936 35.7198 13.4936C34.2957 13.5288 33.4899 12.6915 33.4899 11.1046V7.87831H32.2372V6.64831H33.4899V4.81199L34.8622 4.66989ZM39.1687 10.5341C39.2884 11.5683 40.1123 12.2457 41.2961 12.2457C41.9652 12.2457 42.7886 11.9783 43.1832 11.5146L44.0754 12.4057C43.4064 13.1725 42.2738 13.5646 41.2614 13.5646C39.1175 13.5646 37.7446 12.1383 37.7446 9.98147C37.7446 7.91357 39.134 6.45199 41.176 6.45199C43.2862 6.45199 44.7103 7.78883 44.453 10.552L39.1687 10.5341ZM43.149 9.33989C43.063 8.27041 42.308 7.69989 41.2101 7.69989C40.2153 7.69989 39.3914 8.27041 39.1853 9.33989H43.149ZM47.2147 6.59462V14.2062C47.2147 15.9178 46.614 16.8088 45.1562 16.8088C44.6667 16.8106 44.1882 16.6614 43.7839 16.3809L44.281 15.2583C44.5555 15.4004 44.8476 15.472 45.1215 15.472C45.774 15.4541 45.8765 14.9904 45.8765 14.2062V6.59462H47.2147ZM45.688 4.59831C45.688 5.77462 47.3866 5.77462 47.3866 4.59831C47.3866 3.43989 45.688 3.43989 45.688 4.59831ZM54.3176 6.61252H55.6387V13.4046H54.3347L54.2663 12.2994C53.837 13.173 52.8251 13.5836 52.0188 13.5836C50.1142 13.6009 48.6735 12.3173 48.6735 9.99989C48.6735 7.73673 50.166 6.47041 52.053 6.47041C52.9795 6.47041 53.8717 6.9162 54.2834 7.70041L54.3176 6.61304V6.61252ZM50.0453 9.99936C50.0453 11.4078 51.0064 12.2636 52.1732 12.2636C54.9867 12.2636 54.9867 7.77147 52.1732 7.77147C50.9893 7.77147 50.0453 8.60936 50.0453 9.99936ZM58.8639 3.77831V7.6641C59.2932 6.86199 60.3569 6.45199 61.1632 6.45199C63.0502 6.45199 64.4743 7.68199 64.4743 9.98147C64.4743 12.2278 63.0331 13.5109 61.129 13.5109C60.2538 13.5109 59.3786 13.1725 58.8639 12.2988L58.7784 13.3683H57.4916V3.74252L58.8639 3.77831ZM58.9328 9.99936C58.9328 11.3362 59.8763 12.2099 61.0259 12.2099C62.158 12.2099 63.0844 11.3541 63.0844 9.99936C63.0844 8.60883 62.158 7.78883 61.0259 7.78883C59.8934 7.80673 58.9328 8.69831 58.9328 9.99936ZM67.2879 3.77831V7.6641C67.7167 6.86199 68.7803 6.45199 69.5866 6.45199C71.4742 6.45199 72.8983 7.68199 72.8983 9.98147C72.8983 12.2278 71.4571 13.5109 69.5525 13.5109C68.6778 13.5109 67.8026 13.1725 67.2879 12.2988L67.2019 13.3683H65.9155V3.74252L67.2879 3.77831ZM67.3567 9.99936C67.3567 11.3362 68.3003 12.2099 69.4494 12.2099C70.582 12.2099 71.5084 11.3541 71.5084 9.99936C71.5084 8.60883 70.582 7.78883 69.4494 7.78883C68.3174 7.80673 67.3567 8.69831 67.3567 9.99936ZM75.3685 10.5341C75.4887 11.5683 76.3126 12.2457 77.4959 12.2457C78.1655 12.2457 78.9888 11.9783 79.3834 11.5146L80.2752 12.4057C79.6061 13.1725 78.4741 13.5646 77.4617 13.5646C75.3172 13.5646 73.9449 12.1383 73.9449 9.98147C73.9449 7.91357 75.3343 6.45199 77.3762 6.45199C79.4865 6.45199 80.9101 7.78883 80.6527 10.552L75.3685 10.5341ZM79.3488 9.33989C79.2633 8.27041 78.5083 7.69989 77.4104 7.69989C76.4151 7.69989 75.5917 8.27041 75.3861 9.33989H79.3488ZM83.3295 6.61252L83.415 7.5041C83.8955 6.63041 84.633 6.45199 85.3367 6.45199C85.9716 6.45199 86.5889 6.68357 86.9493 7.02252L86.3315 8.25252C86.0058 7.98515 85.6796 7.84252 85.1824 7.84252C84.2384 7.84252 83.415 8.44883 83.415 9.6962V13.3683H82.0427V6.57673L83.3295 6.61252Z" fill="black"/>
</g>
<defs>
<linearGradient id="paint0_linear_2527_14012" x1="4.0615" y1="20.1624" x2="7.25176" y2="17.0146" gradientUnits="userSpaceOnUse">
<stop offset="0.188" stop-color="#25E2EA"/>
<stop offset="1" stop-color="#19A6D1"/>
</linearGradient>
<linearGradient id="paint1_linear_2527_14012" x1="-0.23856" y1="16.2232" x2="3.66033" y2="12.359" gradientUnits="userSpaceOnUse">
<stop offset="0.396" stop-color="#E55EC4"/>
<stop offset="1" stop-color="#8225D0"/>
</linearGradient>
<linearGradient id="paint2_linear_2527_14012" x1="4.5414" y1="15.5112" x2="1.72707" y2="17.6188" gradientUnits="userSpaceOnUse">
<stop stop-color="#A443FD"/>
<stop offset="1" stop-color="#A959F3"/>
</linearGradient>
<linearGradient id="paint3_linear_2527_14012" x1="3.51543" y1="16.7023" x2="32.6821" y2="-16.8034" gradientUnits="userSpaceOnUse">
<stop offset="0.102" stop-color="white" stop-opacity="0.7"/>
<stop offset="0.481" stop-color="white" stop-opacity="0"/>
</linearGradient>
<linearGradient id="paint4_linear_2527_14012" x1="18.0819" y1="1.65352" x2="4.21815" y2="12.8181" gradientUnits="userSpaceOnUse">
<stop offset="0.174" stop-color="#52BFCA"/>
<stop offset="0.916" stop-color="#7238DF"/>
</linearGradient>
<linearGradient id="paint5_linear_2527_14012" x1="16.5677" y1="1.24026" x2="5.28079" y2="13.9243" gradientUnits="userSpaceOnUse">
<stop stop-color="#52BFCA"/>
<stop offset="1" stop-color="#7238DF"/>
</linearGradient>
<clipPath id="clip0_2527_14012">
<rect width="87" height="20" fill="white"/>
</clipPath>
</defs>
</svg>
