<svg width="74" height="19" viewBox="0 0 74 19" fill="none" xmlns="http://www.w3.org/2000/svg">
<g clip-path="url(#clip0_2512_14005)">
<path d="M19.4479 6.73438H26.9407V8.19591H23.9945V16.4119H22.3745V8.19591H19.4414V6.73438H19.4479ZM26.6206 9.40476H28.0055V10.757H28.0316C28.0774 10.5658 28.1623 10.3814 28.2864 10.2038C28.4105 10.0263 28.5608 9.85551 28.7371 9.71209C28.9135 9.56184 29.1095 9.44573 29.3251 9.35012C29.5406 9.26133 29.7627 9.21353 29.9848 9.21353C30.1547 9.21353 30.2788 9.22036 30.3441 9.22719C30.4094 9.23402 30.4748 9.24767 30.5466 9.2545V10.7434C30.4421 10.7229 30.3376 10.7092 30.2265 10.6956C30.1155 10.6819 30.011 10.6751 29.9064 10.6751C29.6582 10.6751 29.423 10.7297 29.2009 10.8321C28.9788 10.9346 28.7894 11.0917 28.6261 11.2897C28.4628 11.4946 28.3321 11.7405 28.2341 12.041C28.1361 12.3415 28.0904 12.683 28.0904 13.0723V16.4051H26.6141V9.40476H26.6206ZM37.3339 16.4119H35.8837V15.4353H35.8575C35.6746 15.7904 35.4068 16.0705 35.0475 16.2822C34.6882 16.4939 34.3224 16.6032 33.9501 16.6032C33.0682 16.6032 32.428 16.3778 32.036 15.9202C31.6441 15.4626 31.4481 14.7728 31.4481 13.8508V9.40476H32.9245V13.7006C32.9245 14.3153 33.0355 14.7523 33.2641 15.005C33.4863 15.2577 33.8063 15.3875 34.2114 15.3875C34.5249 15.3875 34.7797 15.3397 34.9887 15.2373C35.1978 15.1348 35.3676 15.005 35.4917 14.8343C35.6224 14.6704 35.7138 14.4655 35.7726 14.2333C35.8314 14.0011 35.8575 13.7484 35.8575 13.4752V9.41159H37.3339V16.4119ZM39.8489 14.165C39.8946 14.6158 40.0579 14.9299 40.3388 15.1143C40.6263 15.2919 40.9659 15.3875 41.3644 15.3875C41.5016 15.3875 41.6584 15.3738 41.8348 15.3534C42.0111 15.3329 42.181 15.2851 42.3312 15.2236C42.488 15.1621 42.6121 15.0665 42.7167 14.9436C42.8146 14.8206 42.8604 14.6636 42.8538 14.4655C42.8473 14.2674 42.7754 14.1035 42.6448 13.9806C42.5141 13.8508 42.3508 13.7552 42.1483 13.6733C41.9458 13.5981 41.7172 13.5298 41.4559 13.4752C41.1946 13.4206 40.9333 13.3591 40.6655 13.2976C40.3911 13.2362 40.1233 13.1542 39.8685 13.0654C39.6137 12.9766 39.3851 12.8537 39.1826 12.6966C38.9801 12.5464 38.8168 12.3483 38.6992 12.1093C38.5751 11.8702 38.5163 11.5766 38.5163 11.2214C38.5163 10.839 38.6077 10.5248 38.7841 10.2653C38.9605 10.0058 39.1891 9.80087 39.4569 9.64379C39.7313 9.48671 40.0318 9.37744 40.365 9.30914C40.6981 9.24767 41.0182 9.21353 41.3187 9.21353C41.6649 9.21353 41.9981 9.2545 42.3116 9.32963C42.6252 9.40476 42.9126 9.52769 43.1674 9.70526C43.4222 9.876 43.6312 10.1014 43.801 10.3746C43.9709 10.6477 44.0754 10.9824 44.1211 11.3717H42.5795C42.5076 11.0029 42.3508 10.7502 42.0961 10.6273C41.8413 10.4975 41.5473 10.436 41.2207 10.436C41.1162 10.436 40.9921 10.4429 40.8484 10.4633C40.7046 10.4838 40.574 10.518 40.4433 10.5658C40.3192 10.6136 40.2147 10.6887 40.1233 10.7843C40.0383 10.88 39.9926 11.0029 39.9926 11.16C39.9926 11.3512 40.0579 11.5014 40.182 11.6176C40.3062 11.7337 40.4695 11.8293 40.672 11.9112C40.8745 11.9864 41.1031 12.0546 41.3644 12.1093C41.6257 12.1639 41.8936 12.2254 42.1679 12.2869C42.4358 12.3483 42.6971 12.4303 42.9584 12.5191C43.2197 12.6078 43.4483 12.7308 43.6508 12.8879C43.8533 13.0449 44.0166 13.2362 44.1407 13.4684C44.2649 13.7006 44.3302 13.9943 44.3302 14.3357C44.3302 14.7523 44.2387 15.1007 44.0558 15.3943C43.8729 15.6812 43.6377 15.9202 43.3503 16.0978C43.0629 16.2754 42.7362 16.4119 42.3835 16.4939C42.0307 16.5759 41.678 16.6168 41.3318 16.6168C40.9072 16.6168 40.5152 16.569 40.1559 16.4666C39.7966 16.3641 39.4831 16.2139 39.2218 16.0158C38.9605 15.8109 38.7514 15.5582 38.6012 15.2577C38.4509 14.9572 38.3726 14.5953 38.3595 14.1787H39.8489V14.165ZM44.7221 9.40476H45.8392V7.30123H47.3155V9.40476H48.6482V10.559H47.3155V14.3016C47.3155 14.4655 47.3221 14.6021 47.3351 14.725C47.3482 14.8411 47.3808 14.9436 47.4266 15.0255C47.4723 15.1075 47.5442 15.169 47.6421 15.2099C47.7401 15.2509 47.8643 15.2714 48.0341 15.2714C48.1386 15.2714 48.2431 15.2714 48.3477 15.2646C48.4522 15.2577 48.5567 15.2441 48.6612 15.2168V16.4119C48.4979 16.4324 48.3346 16.4461 48.1843 16.4666C48.0276 16.4871 47.8708 16.4939 47.7075 16.4939C47.3155 16.4939 47.002 16.4529 46.7668 16.3778C46.5316 16.3027 46.3422 16.1866 46.2115 16.0363C46.0744 15.8861 45.9894 15.7017 45.9372 15.4763C45.8914 15.2509 45.8588 14.9914 45.8522 14.7045V10.5726H44.7352V9.40476H44.7221ZM49.6933 9.40476H51.0913V10.3541H51.1174C51.3265 9.9443 51.6139 9.65745 51.9862 9.47988C52.3586 9.30231 52.7571 9.21353 53.1948 9.21353C53.7239 9.21353 54.1812 9.30914 54.5731 9.5072C54.9651 9.69843 55.2917 9.96478 55.553 10.3063C55.8143 10.6477 56.0037 11.0439 56.1344 11.4946C56.265 11.9454 56.3303 12.4303 56.3303 12.9425C56.3303 13.4137 56.2716 13.8713 56.154 14.3084C56.0364 14.7523 55.86 15.1416 55.6248 15.4831C55.3897 15.8246 55.0892 16.091 54.7234 16.2958C54.3575 16.5007 53.9329 16.6032 53.4365 16.6032C53.2209 16.6032 53.0053 16.5827 52.7897 16.5417C52.5742 16.5007 52.3651 16.4324 52.1692 16.3436C51.9732 16.2549 51.7837 16.1388 51.6204 15.9953C51.4506 15.8519 51.3134 15.688 51.1958 15.5036H51.1697V19.0004H49.6933V9.40476ZM54.854 12.9152C54.854 12.601 54.8148 12.2937 54.7364 11.9932C54.658 11.6927 54.5405 11.4332 54.3837 11.2009C54.2269 10.9687 54.0309 10.7843 53.8023 10.6477C53.5671 10.5112 53.2993 10.436 52.9988 10.436C52.3782 10.436 51.9079 10.6614 51.5943 11.1122C51.2807 11.5629 51.124 12.1639 51.124 12.9152C51.124 13.2703 51.1632 13.5981 51.2481 13.8986C51.333 14.1991 51.4506 14.4587 51.6204 14.6772C51.7837 14.8958 51.9797 15.0665 52.2084 15.1894C52.437 15.3192 52.7048 15.3807 53.0053 15.3807C53.345 15.3807 53.6259 15.3055 53.8611 15.1621C54.0962 15.0187 54.2857 14.8275 54.4359 14.6021C54.5862 14.3699 54.6972 14.1104 54.7626 13.8167C54.8213 13.523 54.854 13.2225 54.854 12.9152ZM57.4605 6.73438H58.9368V8.19591H57.4605V6.73438ZM57.4605 9.40476H58.9368V16.4119H57.4605V9.40476ZM60.2564 6.73438H61.7327V16.4119H60.2564V6.73438ZM66.2597 16.6032C65.7241 16.6032 65.2472 16.5076 64.8291 16.3232C64.411 16.1388 64.0583 15.8792 63.7643 15.5582C63.4769 15.2304 63.2548 14.8411 63.1045 14.3904C62.9543 13.9396 62.8759 13.4411 62.8759 12.9015C62.8759 12.3688 62.9543 11.8771 63.1045 11.4263C63.2548 10.9756 63.4769 10.5863 63.7643 10.2585C64.0518 9.93064 64.411 9.67794 64.8291 9.49354C65.2472 9.30914 65.7241 9.21353 66.2597 9.21353C66.7954 9.21353 67.2723 9.30914 67.6903 9.49354C68.1084 9.67794 68.4612 9.93747 68.7551 10.2585C69.0426 10.5863 69.2647 10.9756 69.4149 11.4263C69.5652 11.8771 69.6436 12.3688 69.6436 12.9015C69.6436 13.4411 69.5652 13.9396 69.4149 14.3904C69.2647 14.8411 69.0426 15.2304 68.7551 15.5582C68.4677 15.8861 68.1084 16.1388 67.6903 16.3232C67.2723 16.5076 66.7954 16.6032 66.2597 16.6032ZM66.2597 15.3807C66.5864 15.3807 66.8738 15.3055 67.1155 15.1621C67.3572 15.0187 67.5532 14.8275 67.7099 14.5953C67.8667 14.3631 67.9778 14.0967 68.0562 13.803C68.128 13.5094 68.1672 13.2089 68.1672 12.9015C68.1672 12.601 68.128 12.3073 68.0562 12.0068C67.9843 11.7063 67.8667 11.4468 67.7099 11.2146C67.5532 10.9824 67.3572 10.798 67.1155 10.6546C66.8738 10.5112 66.5864 10.436 66.2597 10.436C65.9331 10.436 65.6457 10.5112 65.404 10.6546C65.1623 10.798 64.9663 10.9892 64.8095 11.2146C64.6527 11.4468 64.5417 11.7063 64.4633 12.0068C64.3914 12.3073 64.3522 12.601 64.3522 12.9015C64.3522 13.2089 64.3914 13.5094 64.4633 13.803C64.5352 14.0967 64.6527 14.3631 64.8095 14.5953C64.9663 14.8275 65.1623 15.0187 65.404 15.1621C65.6457 15.3124 65.9331 15.3807 66.2597 15.3807ZM70.0747 9.40476H71.1918V7.30123H72.6681V9.40476H74.0007V10.559H72.6681V14.3016C72.6681 14.4655 72.6746 14.6021 72.6877 14.725C72.7008 14.8411 72.7334 14.9436 72.7792 15.0255C72.8249 15.1075 72.8967 15.169 72.9947 15.2099C73.0927 15.2509 73.2168 15.2714 73.3867 15.2714C73.4912 15.2714 73.5957 15.2714 73.7002 15.2646C73.8048 15.2577 73.9093 15.2441 74.0138 15.2168V16.4119C73.8505 16.4324 73.6872 16.4461 73.5369 16.4666C73.3801 16.4871 73.2234 16.4939 73.0601 16.4939C72.6681 16.4939 72.3545 16.4529 72.1194 16.3778C71.8842 16.3027 71.6948 16.1866 71.5641 16.0363C71.4269 15.8861 71.342 15.7017 71.2897 15.4763C71.244 15.2509 71.2114 14.9914 71.2048 14.7045V10.5726H70.0878V9.40476H70.0747Z" fill="#191919"/>
<path d="M17.7226 6.734H10.955L8.86458 0L6.76766 6.734L0 6.72717L5.48076 10.8932L3.38383 17.6204L8.86458 13.4612L14.3388 17.6204L12.2484 10.8932L17.7226 6.734Z" fill="#00B67A"/>
<path d="M12.7194 12.4166L12.2491 10.8936L8.86523 13.4615L12.7194 12.4166Z" fill="#005128"/>
</g>
<defs>
<clipPath id="clip0_2512_14005">
<rect width="74" height="19" fill="white"/>
</clipPath>
</defs>
</svg>
