<svg width="40" height="41" viewBox="0 0 40 41" fill="none" xmlns="http://www.w3.org/2000/svg">
<g id="socials">
<rect id="Rectangle 1" y="0.855408" width="40" height="40" rx="20" fill="url(#paint0_radial_26_1166)"/>
<g id="instagram">
<path d="M20 12.6626C22.6506 12.6626 23.0121 12.6626 24.0964 12.6626C25.0602 12.6626 25.5422 12.9036 25.9036 13.0241C26.3855 13.265 26.747 13.3855 27.1084 13.747C27.4699 14.1084 27.7108 14.4699 27.8313 14.9518C27.9518 15.3132 28.0723 15.7952 28.1928 16.759C28.1928 17.8434 28.1928 18.0843 28.1928 20.8554C28.1928 23.6265 28.1928 23.8675 28.1928 24.9518C28.1928 25.9157 27.9518 26.3976 27.8313 26.759C27.5904 27.241 27.4699 27.6024 27.1084 27.9638C26.747 28.3253 26.3855 28.5663 25.9036 28.6867C25.5422 28.8072 25.0602 28.9277 24.0964 29.0482C23.0121 29.0482 22.7711 29.0482 20 29.0482C17.2289 29.0482 16.988 29.0482 15.9036 29.0482C14.9398 29.0482 14.4578 28.8072 14.0964 28.6867C13.6145 28.4458 13.253 28.3253 12.8916 27.9638C12.5301 27.6024 12.2892 27.241 12.1687 26.759C12.0482 26.3976 11.9277 25.9157 11.8072 24.9518C11.8072 23.8675 11.8072 23.6265 11.8072 20.8554C11.8072 18.0843 11.8072 17.8434 11.8072 16.759C11.8072 15.7952 12.0482 15.3132 12.1687 14.9518C12.4096 14.4699 12.5301 14.1084 12.8916 13.747C13.253 13.3855 13.6145 13.1446 14.0964 13.0241C14.4578 12.9036 14.9398 12.7831 15.9036 12.6626C16.988 12.6626 17.3494 12.6626 20 12.6626ZM20 10.8554C17.2289 10.8554 16.988 10.8554 15.9036 10.8554C14.8193 10.8554 14.0964 11.0964 13.494 11.3373C12.8916 11.5783 12.2892 11.9397 11.6867 12.5422C11.0843 13.1446 10.8434 13.6265 10.4819 14.3494C10.241 14.9518 10.1205 15.6747 10 16.759C10 17.8434 10 18.2048 10 20.8554C10 23.6265 10 23.8675 10 24.9518C10 26.0361 10.241 26.759 10.4819 27.3614C10.7229 27.9638 11.0843 28.5663 11.6867 29.1687C12.2892 29.7711 12.7711 30.012 13.494 30.3735C14.0964 30.6144 14.8193 30.7349 15.9036 30.8554C16.988 30.8554 17.3494 30.8554 20 30.8554C22.6506 30.8554 23.0121 30.8554 24.0964 30.8554C25.1807 30.8554 25.9036 30.6144 26.506 30.3735C27.1084 30.1325 27.7108 29.7711 28.3133 29.1687C28.9157 28.5663 29.1566 28.0843 29.5181 27.3614C29.759 26.759 29.8795 26.0361 30 24.9518C30 23.8675 30 23.506 30 20.8554C30 18.2048 30 17.8434 30 16.759C30 15.6747 29.759 14.9518 29.5181 14.3494C29.2771 13.747 28.9157 13.1446 28.3133 12.5422C27.7108 11.9397 27.2289 11.6988 26.506 11.3373C25.9036 11.0964 25.1807 10.9759 24.0964 10.8554C23.0121 10.8554 22.7711 10.8554 20 10.8554Z" fill="white"/>
<path d="M20 15.6747C17.1084 15.6747 14.8193 17.9638 14.8193 20.8554C14.8193 23.747 17.1084 26.0361 20 26.0361C22.8916 26.0361 25.1807 23.747 25.1807 20.8554C25.1807 17.9638 22.8916 15.6747 20 15.6747ZM20 24.2289C18.1928 24.2289 16.6265 22.7831 16.6265 20.8554C16.6265 19.0482 18.0723 17.4819 20 17.4819C21.8072 17.4819 23.3735 18.9277 23.3735 20.8554C23.3735 22.6626 21.8072 24.2289 20 24.2289Z" fill="white"/>
<path d="M25.3012 16.759C25.9666 16.759 26.506 16.2196 26.506 15.5542C26.506 14.8888 25.9666 14.3494 25.3012 14.3494C24.6358 14.3494 24.0964 14.8888 24.0964 15.5542C24.0964 16.2196 24.6358 16.759 25.3012 16.759Z" fill="white"/>
</g>
</g>
<defs>
<radialGradient id="paint0_radial_26_1166" cx="0" cy="0" r="1" gradientUnits="userSpaceOnUse" gradientTransform="translate(40.8047 1.66791) scale(92.3719)">
<stop stop-color="#F9ED32"/>
<stop offset="0.36" stop-color="#EE2A7B"/>
<stop offset="0.44" stop-color="#D22A8A"/>
<stop offset="0.6" stop-color="#8B2AB2"/>
<stop offset="0.83" stop-color="#1B2AF0"/>
<stop offset="0.88" stop-color="#002AFF"/>
</radialGradient>
</defs>
</svg>
