<svg width="41" height="41" viewBox="0 0 41 41" fill="none" xmlns="http://www.w3.org/2000/svg">
<g id="socials" clip-path="url(#clip0_26_1235)">
<rect id="Rectangle 1" x="0.333252" y="0.855408" width="40" height="40" rx="20" fill="#111111"/>
<g id="Group 3">
<path id="Vector" d="M30.3016 16.1314C29.6117 16.1314 28.9285 15.9956 28.2912 15.7316C27.6538 15.4676 27.0746 15.0806 26.5868 14.5927C26.0989 14.1049 25.7119 13.5258 25.4479 12.8884C25.1839 12.251 25.048 11.5678 25.048 10.8779H21.2947V25.5753C21.294 26.2454 21.0824 26.8983 20.6899 27.4414C20.2974 27.9845 19.7439 28.3903 19.1079 28.6013C18.4719 28.8123 17.7857 28.8177 17.1464 28.6169C16.5071 28.4161 15.9472 28.0191 15.5462 27.4823C15.1451 26.9456 14.9231 26.2961 14.9117 25.6262C14.9003 24.9562 15.1001 24.2996 15.4827 23.7495C15.8653 23.1994 16.4114 22.7836 17.0435 22.5612C17.6756 22.3388 18.3616 22.3209 19.0044 22.5102V18.8616C17.6384 18.6774 16.2486 18.9144 15.0207 19.5408C13.7928 20.1673 12.7853 21.1534 12.1326 22.3675C11.48 23.5817 11.2132 24.966 11.3681 26.3357C11.5229 27.7055 12.0919 28.9954 12.9991 30.0332C13.9063 31.071 15.1086 31.8073 16.4453 32.1439C17.782 32.4805 19.1896 32.4012 20.4801 31.9167C21.7706 31.4322 22.8826 30.5656 23.6675 29.4325C24.4525 28.2994 24.8731 26.9538 24.8732 25.5753L24.9821 18.1462C26.5243 19.2783 28.3881 19.8875 30.3012 19.8846L30.3016 16.1314Z" fill="url(#paint0_linear_26_1235)"/>
<path id="Vector_2" d="M29.3095 15.109C27.9162 15.109 26.5799 14.5555 25.5947 13.5702C24.6095 12.585 24.0561 11.2487 24.0561 9.85544H20.3028V24.5528C20.3021 25.2229 20.0905 25.8758 19.698 26.4189C19.3055 26.962 18.7521 27.3678 18.1161 27.5788C17.4801 27.7898 16.7938 27.7953 16.1545 27.5945C15.5152 27.3937 14.9553 26.9967 14.5542 26.4599C14.1532 25.9232 13.9312 25.2737 13.9198 24.6038C13.9084 23.9338 14.1082 23.2772 14.4908 22.7271C14.8734 22.1769 15.4194 21.7612 16.0515 21.5388C16.6836 21.3163 17.3697 21.2985 18.0125 21.4877V17.8392C16.6464 17.6549 15.2567 17.8919 14.0288 18.5183C12.8009 19.1448 11.7934 20.1309 11.1407 21.345C10.488 22.5592 10.2213 23.9435 10.3761 25.3132C10.5309 26.683 11.1 27.9728 12.0072 29.0107C12.9144 30.0485 14.1166 30.7848 15.4533 31.1214C16.7901 31.458 18.1977 31.3787 19.4882 30.8942C20.7786 30.4097 21.8906 29.5431 22.6756 28.41C23.4606 27.2769 23.8812 25.9313 23.8813 24.5528L23.9908 17.1238C25.5329 18.2559 27.3968 18.865 29.3098 18.8621L29.3095 15.109Z" fill="url(#paint1_linear_26_1235)"/>
<path id="Vector_3" d="M29.3095 16.0375C28.0108 15.7876 26.8542 15.0572 26.0705 13.992C25.0799 13.2167 24.4005 12.1117 24.1557 10.8779H21.295V25.5753C21.2949 26.2729 21.0666 26.9512 20.6449 27.5069C20.2232 28.0625 19.6313 28.4649 18.9595 28.6526C18.2877 28.8403 17.5729 28.803 16.9242 28.5465C16.2756 28.2899 15.7287 27.8281 15.3671 27.2317C14.724 26.8131 14.253 26.1771 14.0402 25.4399C13.8273 24.7027 13.8868 23.9135 14.2078 23.2166C14.5288 22.5196 15.0898 21.9615 15.7884 21.644C16.487 21.3266 17.2764 21.2711 18.0125 21.4877V18.8028C16.7499 18.8191 15.517 19.188 14.453 19.8678C13.3889 20.5476 12.5361 21.5113 11.9907 22.6502C11.4453 23.789 11.2291 25.0576 11.3665 26.3128C11.5039 27.568 11.9895 28.7598 12.7683 29.7537C13.7571 30.5787 14.9605 31.1048 16.2377 31.2702C17.5148 31.4357 18.8126 31.2336 19.9789 30.6878C21.1453 30.1419 22.1319 29.2749 22.8231 28.1883C23.5142 27.1017 23.8813 25.8406 23.8813 24.5529L23.9908 17.1238C25.5329 18.2559 27.3968 18.865 29.3098 18.8622L29.3095 16.0375Z" fill="url(#paint2_linear_26_1235)"/>
</g>
</g>
<defs>
<linearGradient id="paint0_linear_26_1235" x1="12.8294" y1="29.8842" x2="28.4419" y2="14.2717" gradientUnits="userSpaceOnUse">
<stop stop-color="#B5053C"/>
<stop offset="0.233" stop-color="#C90441"/>
<stop offset="0.737" stop-color="#F0014B"/>
<stop offset="1" stop-color="#FF004F"/>
</linearGradient>
<linearGradient id="paint1_linear_26_1235" x1="11.6049" y1="29.0941" x2="28.0506" y2="12.6484" gradientUnits="userSpaceOnUse">
<stop stop-color="#00B2C9"/>
<stop offset="0.283" stop-color="#00C8D4"/>
<stop offset="0.741" stop-color="#00E6E4"/>
<stop offset="1" stop-color="#00F1EA"/>
</linearGradient>
<linearGradient id="paint2_linear_26_1235" x1="2.39124" y1="39.3152" x2="38.7939" y2="2.91252" gradientUnits="userSpaceOnUse">
<stop stop-color="#DDE3E4"/>
<stop offset="1" stop-color="#FCF7F7"/>
</linearGradient>
<clipPath id="clip0_26_1235">
<rect width="40" height="40" fill="white" transform="translate(0.333252 0.855408)"/>
</clipPath>
</defs>
</svg>
