<svg width="38" height="25" viewBox="0 0 38 25" fill="none" xmlns="http://www.w3.org/2000/svg">
<g clip-path="url(#clip0_69_6874)">
<path d="M34.6604 0.783203H3.11159C2.87304 0.783203 2.63448 0.783203 2.39593 0.842842C2.15737 0.90248 1.91882 0.962119 1.68027 1.0814C1.50135 1.20067 1.2628 1.31995 1.08388 1.49887C0.904965 1.67778 0.785688 1.8567 0.726049 2.03561C0.606772 2.27417 0.547134 2.45308 0.487495 2.69164C0.427856 2.93019 0.427856 3.16875 0.427856 3.4073V22.0145C0.427856 22.2531 0.427856 22.4916 0.487495 22.7302C0.547134 22.9687 0.606772 23.2073 0.726049 23.3862C0.845326 23.5651 0.964603 23.8037 1.14352 23.923C1.32243 24.1019 1.50135 24.2212 1.7399 24.3404C1.91882 24.4597 2.15737 24.5193 2.39593 24.579C2.63448 24.6386 2.87304 24.6386 3.11159 24.6386H35.376C35.6146 24.6386 35.8532 24.6386 36.0917 24.579C36.3303 24.5193 36.5688 24.4597 36.7477 24.3404C36.9267 24.2212 37.1652 24.1019 37.3441 23.923C37.523 23.744 37.6423 23.5651 37.7616 23.3862C37.8809 23.2073 37.9405 22.9687 38.0001 22.7302C38.0001 22.4916 38.0001 22.2531 38.0001 22.0145V21.7163V4.12296V3.70549V3.4073C38.0001 3.16875 38.0001 2.93019 37.9405 2.69164C37.8809 2.45308 37.8212 2.21453 37.702 2.03561C37.5827 1.8567 37.4634 1.61814 37.2845 1.49887C37.1056 1.37959 36.9267 1.20067 36.6881 1.0814C36.5092 0.962119 36.2706 0.90248 36.0321 0.842842C35.7935 0.783203 35.555 0.783203 35.3164 0.783203H34.6604Z" fill="black"/>
<path d="M10.6857 8.77466C10.9839 8.35719 11.2224 7.82044 11.1628 7.28369C10.6857 7.28369 10.0893 7.58188 9.79109 7.99935C9.4929 8.35719 9.19471 8.89393 9.31398 9.43068C9.85073 9.49032 10.3278 9.19213 10.6857 8.77466ZM11.1628 9.54996C10.3875 9.49032 9.73145 9.96743 9.37362 9.96743C9.01579 9.96743 8.41941 9.54996 7.82302 9.54996C7.04772 9.54996 6.27242 10.0271 5.91459 10.7427C5.07965 12.1741 5.67603 14.2614 6.51097 15.3945C6.8688 15.9313 7.34591 16.5873 8.00194 16.5873C8.59832 16.5873 8.83688 16.2295 9.55254 16.2295C10.2682 16.2295 10.4471 16.5873 11.1031 16.5873C11.7592 16.5873 12.1766 16.0506 12.5345 15.4542C13.0116 14.7981 13.1905 14.1421 13.1905 14.1421C13.1905 14.1421 11.9381 13.665 11.9381 12.2933C11.9381 11.1006 12.8923 10.5638 12.9519 10.5638C12.2959 9.66923 11.461 9.6096 11.1628 9.54996Z" fill="white"/>
<path d="M17.8424 7.93994C19.5122 7.93994 20.705 9.13271 20.705 10.743C20.705 12.4128 19.5122 13.546 17.8424 13.546H15.9339V16.4683H14.6219V7.93994H17.8424ZM15.9339 12.4725H17.4845C18.6177 12.4725 19.2737 11.8164 19.2737 10.8026C19.2737 9.7291 18.6177 9.13271 17.4845 9.13271H15.9339V12.4725ZM21.0032 14.7387C21.0032 13.6652 21.8382 13.0092 23.3291 12.8899L25.0586 12.7707V12.2936C25.0586 11.5779 24.5815 11.1604 23.8062 11.1604C23.0309 11.1604 22.6135 11.5183 22.4942 12.055H21.3014C21.361 10.9219 22.3749 10.0869 23.8659 10.0869C25.4165 10.0869 26.3707 10.8622 26.3707 12.1146V16.4086H25.1183V15.3948C24.7604 16.1104 23.9851 16.5279 23.1502 16.5279C21.8978 16.6472 21.0032 15.8719 21.0032 14.7387ZM25.0586 14.202V13.7249L23.508 13.8442C22.7327 13.9038 22.3153 14.202 22.3153 14.7387C22.3153 15.2755 22.7924 15.6333 23.4484 15.6333C24.4026 15.6333 25.0586 14.9773 25.0586 14.202ZM27.5038 18.7942V17.7803C27.6231 17.7803 27.802 17.7803 27.9213 17.7803C28.5177 17.7803 28.8159 17.5417 29.0544 16.8857L29.1737 16.5279L26.8478 10.3255H28.2195L29.8297 15.3948L31.44 10.3255H32.8116L30.4857 16.8857C29.949 18.3767 29.3526 18.8538 28.0406 18.8538C27.9213 18.8538 27.6231 18.8538 27.5038 18.7942Z" fill="white"/>
</g>
<defs>
<clipPath id="clip0_69_6874">
<rect width="37.5723" height="23.8554" fill="white" transform="translate(0.427795 0.783203)"/>
</clipPath>
</defs>
</svg>
