<svg width="45" height="19" viewBox="0 0 45 19" fill="none" xmlns="http://www.w3.org/2000/svg">
<path d="M8.22235 2.57365C7.69495 3.19701 6.8511 3.68868 6.00725 3.61844C5.90177 2.77559 6.3149 1.88005 6.79836 1.32692C7.32576 0.686002 8.24872 0.229455 8.99588 0.194336C9.08378 1.07231 8.74096 1.93273 8.22235 2.57365ZM8.98709 3.78526C7.76527 3.71502 6.71925 4.47886 6.1391 4.47886C5.55017 4.47886 4.66237 3.82038 3.69546 3.83794C2.43848 3.8555 1.2694 4.56666 0.627729 5.69925C-0.690781 7.96442 0.284917 11.3183 1.55948 13.162C2.18357 14.0751 2.93073 15.076 3.91522 15.0409C4.84696 15.0058 5.21615 14.4351 6.34127 14.4351C7.47519 14.4351 7.80043 15.0409 8.78491 15.0233C9.80456 15.0058 10.4462 14.1103 11.0703 13.1972C11.7823 12.1611 12.0724 11.1515 12.09 11.0988C12.0724 11.0812 10.121 10.335 10.1034 8.08734C10.0858 6.20847 11.6417 5.31294 11.712 5.26026C10.833 3.96085 9.46175 3.82038 8.98709 3.78526ZM16.0455 1.23913V14.9268H18.1727V10.2472H21.1174C23.8071 10.2472 25.697 8.40341 25.697 5.73436C25.697 3.06532 23.8423 1.23913 21.1877 1.23913H16.0455ZM18.1727 3.0302H20.6251C22.4711 3.0302 23.5259 4.01353 23.5259 5.74314C23.5259 7.47276 22.4711 8.46487 20.6163 8.46487H18.1727V3.0302ZM29.5822 15.0321C30.9183 15.0321 32.1577 14.3561 32.7203 13.285H32.7642V14.9268H34.7332V8.11368C34.7332 6.13823 33.151 4.86517 30.7161 4.86517C28.4571 4.86517 26.787 6.15579 26.7254 7.9293H28.6417C28.7999 7.08645 29.5822 6.53332 30.6546 6.53332C31.9555 6.53332 32.6851 7.13913 32.6851 8.25416V9.00921L30.0305 9.16725C27.5605 9.31651 26.2244 10.3262 26.2244 12.0821C26.2244 13.8556 27.6045 15.0321 29.5822 15.0321ZM30.1536 13.4079C29.0197 13.4079 28.2989 12.8635 28.2989 12.0295C28.2989 11.169 28.9933 10.6686 30.3206 10.5896L32.6851 10.4403V11.2129C32.6851 12.4948 31.5951 13.4079 30.1536 13.4079ZM37.3614 18.6494C39.4359 18.6494 40.4116 17.8592 41.2642 15.4623L45 4.99686H42.8376L40.3325 13.083H40.2885L37.7834 4.99686H35.5595L39.1634 14.9619L38.97 15.5677C38.6448 16.5949 38.1174 16.99 37.1768 16.99C37.0098 16.99 36.6846 16.9725 36.5527 16.9549V18.5967C36.6758 18.6318 37.2032 18.6494 37.3614 18.6494Z" fill="black"/>
</svg>
