<svg width="25" height="25" viewBox="0 0 25 25" fill="none" xmlns="http://www.w3.org/2000/svg">
<g clip-path="url(#clip0_69_6855)">
<path d="M23.8292 15.5735C22.2189 21.9549 15.778 25.8314 9.39664 24.2808C3.01531 22.6705 -0.920834 16.2296 0.689407 9.84823C2.29965 3.46691 8.74061 -0.469235 15.1219 1.14101C21.5033 2.75125 25.4394 9.19221 23.8292 15.5735Z" fill="#F7931A"/>
<path d="M17.2093 11.4587C17.3882 10.087 16.3744 9.31172 14.9431 8.83461L15.4202 6.98582L14.287 6.68763L13.8099 8.53642C13.5117 8.47678 13.2135 8.41714 12.9154 8.29787L13.3925 6.44907L12.1997 6.15088L11.7226 7.99967C11.484 7.94004 11.2455 7.8804 11.0069 7.82076L9.45631 7.40329L9.15812 8.59606L9.99306 8.77498C10.4702 8.89425 10.5298 9.19245 10.5298 9.431L9.99306 11.578C10.0527 11.578 10.0527 11.578 10.1123 11.6376L9.99306 11.578L9.2774 14.5599C9.21776 14.6792 9.09848 14.9177 8.74065 14.7985L7.90571 14.6196L7.30933 15.9316L8.80029 16.2894C9.09848 16.3491 9.33704 16.4087 9.63523 16.4683L9.15812 18.3768L10.2913 18.675L10.7684 16.8262C11.0666 16.8858 11.3647 17.0051 11.6629 17.0647L11.1858 18.9135L12.2593 19.2714L12.7364 17.3629C14.7045 17.7208 16.1358 17.6015 16.7919 15.8123C17.269 14.381 16.7919 13.6057 15.7184 13.069C16.4937 12.9497 17.09 12.4129 17.2093 11.4587ZM14.5852 15.0967C14.2274 16.528 11.8419 15.7527 11.0666 15.5738L11.7226 13.069C12.4979 13.2479 15.0027 13.6057 14.5852 15.0967ZM14.9431 11.3991C14.6449 12.7111 12.6172 12.0551 11.9611 11.8762L12.5575 9.60992C13.2135 9.78883 15.3009 10.087 14.9431 11.3991Z" fill="white"/>
</g>
<defs>
<clipPath id="clip0_69_6855">
<rect width="23.8554" height="23.8554" fill="white" transform="translate(0.331238 0.783203)"/>
</clipPath>
</defs>
</svg>
