<svg width="25" height="25" viewBox="0 0 25 25" fill="none" xmlns="http://www.w3.org/2000/svg">
<g clip-path="url(#clip0_69_6858)">
<path d="M12.8312 24.6386C19.4297 24.6386 24.7589 19.2985 24.7589 12.7109C24.7589 6.12332 19.4297 0.783203 12.8312 0.783203C6.23261 0.783203 0.903442 6.12332 0.903442 12.7109C0.903442 19.2985 6.24356 24.6386 12.8312 24.6386Z" fill="#627EEA"/>
<path d="M12.7873 3.9458V10.2379L7.55658 12.6344L12.7873 3.9458Z" fill="white"/>
<path d="M12.7873 10.2378V15.6983L7.55658 12.6343L12.7873 10.2378Z" fill="#C0CCF7"/>
<path d="M12.7873 16.6833V20.9511L7.55658 13.6084L12.7873 16.6833Z" fill="white"/>
<path d="M12.7874 3.9458V10.2379L18.018 12.6344L12.7874 3.9458Z" fill="#C0CCF7"/>
<path d="M12.7874 10.2378V15.6983L18.018 12.6343L12.7874 10.2378Z" fill="#8198EE"/>
<path d="M12.7874 16.6831V20.9508L18.018 13.5972L12.7874 16.6831Z" fill="#C0CCF7"/>
</g>
<defs>
<clipPath id="clip0_69_6858">
<rect width="23.8554" height="23.8554" fill="white" transform="translate(0.903442 0.783203)"/>
</clipPath>
</defs>
</svg>
