<svg width="47" height="19" viewBox="0 0 47 19" fill="none" xmlns="http://www.w3.org/2000/svg">
<g clip-path="url(#clip0_2510_21645)">
<path d="M22.2298 9.21576V14.4921H20.4941V1.46181H25.0974C25.6469 1.45074 26.1932 1.54473 26.7048 1.73834C27.2164 1.93195 27.6832 2.22136 28.0783 2.58987C28.4773 2.936 28.7948 3.36049 29.0096 3.83481C29.2244 4.30914 29.3314 4.82231 29.3234 5.33982C29.3348 5.86011 29.2295 6.37663 29.0146 6.85397C28.7996 7.33132 28.4803 7.75821 28.0783 8.10538C27.2733 8.84563 26.2797 9.21541 25.0974 9.21472H22.2298V9.21576ZM22.2298 3.06604V7.61465H25.1406C25.4597 7.62377 25.7772 7.56856 26.0729 7.45255C26.3687 7.33654 26.636 7.16229 26.8579 6.94093C27.0786 6.73397 27.2541 6.48643 27.3739 6.21293C27.4937 5.93944 27.5554 5.64556 27.5554 5.34866C27.5554 5.05176 27.4937 4.75788 27.3739 4.48439C27.2541 4.2109 27.0786 3.96335 26.8579 3.75639C26.6388 3.53037 26.3724 3.35185 26.0763 3.23265C25.7802 3.11345 25.4613 3.05631 25.1406 3.065H22.2298V3.06604Z" fill="#5F6368"/>
<path d="M33.3229 5.28516C34.6058 5.28516 35.6185 5.61577 36.3609 6.27701C37.1033 6.93825 37.4742 7.84485 37.4735 8.99682V14.4915H35.8133V13.2543H35.7378C35.0191 14.2732 34.0632 14.7826 32.8702 14.7826C31.8518 14.7826 30.9997 14.4915 30.3141 13.9093C29.9851 13.6421 29.722 13.3074 29.5441 12.9297C29.3661 12.552 29.2779 12.1408 29.2856 11.726C29.2856 10.8034 29.6471 10.0698 30.3702 9.52498C31.0932 8.98018 32.0584 8.70709 33.2658 8.70571C34.2964 8.70571 35.1452 8.88765 35.8122 9.25154V8.86894C35.8141 8.58616 35.7508 8.30651 35.6268 8.05026C35.5028 7.794 35.3213 7.56758 35.0953 7.38739C34.6363 6.98803 34.0381 6.77012 33.42 6.7771C32.4504 6.7771 31.6832 7.17148 31.1183 7.96026L29.5896 7.03182C30.4305 5.86738 31.675 5.28516 33.3229 5.28516ZM31.0774 11.7624C31.0762 11.9754 31.1278 12.1856 31.228 12.3755C31.3281 12.5654 31.4738 12.7295 31.653 12.854C32.0369 13.1452 32.5134 13.2995 33.0017 13.2907C33.7341 13.2895 34.4362 13.0084 34.954 12.5089C35.529 11.9869 35.8165 11.3746 35.8165 10.6717C35.2753 10.2559 34.5207 10.0479 33.5526 10.0479C32.8475 10.0479 32.2596 10.2119 31.7889 10.5397C31.3135 10.8724 31.0774 11.2768 31.0774 11.7624Z" fill="#5F6368"/>
<path d="M47.0034 5.57617L41.2078 18.4214H39.4161L41.5668 13.9269L37.7559 5.57617H39.6425L42.3969 11.9806H42.4346L45.1136 5.57617H47.0034Z" fill="#5F6368"/>
<path d="M15.2154 8.07776C15.216 7.56764 15.1713 7.05841 15.0817 6.55566H7.76172V9.4387H11.9543C11.8685 9.89916 11.6869 10.3381 11.4205 10.7291C11.154 11.12 10.8083 11.4549 10.404 11.7135V13.5849H12.9062C14.3713 12.2822 15.2154 10.3557 15.2154 8.07776Z" fill="#4285F4"/>
<path d="M7.7613 15.3929C9.85597 15.3929 11.6197 14.7296 12.9058 13.5859L10.4036 11.7145C9.7072 12.1699 8.81025 12.4298 7.7613 12.4298C5.73672 12.4298 4.0183 11.1135 3.4038 9.33984H0.826172V11.2685C1.47222 12.5082 2.46285 13.5505 3.68748 14.2788C4.91212 15.0071 6.32255 15.3928 7.7613 15.3929Z" fill="#34A853"/>
<path d="M3.40415 9.33987C3.07929 8.41044 3.07929 7.40394 3.40415 6.47451V4.5459H0.826515C0.283041 5.58886 0 6.73994 0 7.90719C0 9.07444 0.283041 10.2255 0.826515 11.2685L3.40415 9.33987Z" fill="#FBBC04"/>
<path d="M7.7613 3.38448C8.86824 3.36704 9.93783 3.77038 10.7389 4.50734L12.9543 2.37079C11.5495 1.0983 9.68846 0.399682 7.7613 0.42139C6.32255 0.421453 4.91212 0.807168 3.68748 1.53547C2.46285 2.26378 1.47222 3.30601 0.826172 4.5458L3.4038 6.47441C4.0183 4.70072 5.73672 3.38448 7.7613 3.38448Z" fill="#EA4335"/>
</g>
<defs>
<clipPath id="clip0_2510_21645">
<rect width="47" height="18" fill="white" transform="translate(0 0.421875)"/>
</clipPath>
</defs>
</svg>
