<svg width="61" height="25" viewBox="0 0 61 25" fill="none" xmlns="http://www.w3.org/2000/svg">
<g clip-path="url(#clip0_69_6866)">
<path d="M28.9833 12.4127V19.3904H26.717V2.09521H32.6213C34.0526 2.09521 35.4243 2.63196 36.4381 3.58618C37.452 4.48076 38.0484 5.85244 38.0484 7.22413C38.0484 8.59582 37.5116 9.9675 36.4381 10.8621C35.4243 11.8163 34.1122 12.353 32.6213 12.353H28.9833V12.4127ZM28.9833 4.30184V10.3253H32.6809C33.5158 10.3253 34.2911 10.0271 34.8875 9.43076C36.0803 8.29762 36.0803 6.44883 34.9472 5.25606L34.8875 5.19642C34.3508 4.60003 33.5158 4.2422 32.6809 4.30184H28.9833Z" fill="#5F6368"/>
<path d="M43.1773 7.22412C44.8471 7.22412 46.0996 7.64159 47.0538 8.53617C48.008 9.43075 48.4851 10.6235 48.4851 12.1741V19.45H46.3977V17.8398H46.2785C45.3243 19.2115 44.1315 19.8675 42.5809 19.8675C41.2688 19.8675 40.1953 19.5097 39.3008 18.7344C38.4658 18.0187 37.9887 16.9452 37.9887 15.8717C37.9887 14.6193 38.4658 13.6651 39.3604 12.9494C40.3146 12.2338 41.5074 11.8759 43.058 11.8759C44.37 11.8759 45.4435 12.1145 46.3381 12.5916V12.0548C46.3381 11.2795 45.9803 10.5639 45.4435 10.0868C44.8471 9.55002 44.0718 9.25183 43.2965 9.25183C42.0441 9.25183 41.0899 9.78858 40.3146 10.8024L38.3465 9.55002C39.4797 7.99942 41.0899 7.22412 43.1773 7.22412ZM40.3146 15.8121C40.3146 16.4085 40.6128 16.9452 41.0303 17.2434C41.5074 17.6012 42.1634 17.8398 42.7598 17.8398C43.714 17.8398 44.6086 17.482 45.2646 16.8259C45.9803 16.1103 46.3977 15.335 46.3977 14.3807C45.6821 13.844 44.7279 13.5458 43.4755 13.5458C42.5809 13.5458 41.8056 13.7844 41.2092 14.2018C40.6128 14.6193 40.3146 15.156 40.3146 15.8121Z" fill="#5F6368"/>
<path d="M60.711 7.6416L53.2562 24.6386H50.9899L53.7333 18.6747L48.843 7.6416H51.2881L54.8068 16.1103H54.8664L58.3255 7.6416H60.711Z" fill="#5F6368"/>
<path d="M19.9777 10.9218C19.9777 10.2657 19.918 9.55007 19.7987 8.89404H10.4355V12.7109H15.803C15.5644 13.9633 14.8487 15.0368 13.8349 15.7525V18.2573H17.0554C18.9042 16.5278 19.9777 13.9633 19.9777 10.9218Z" fill="#4285F4"/>
<path d="M10.4358 20.643C13.1195 20.643 15.3858 19.7484 16.996 18.2575L13.7755 15.7526C12.8809 16.349 11.7478 16.7069 10.3761 16.7069C7.75203 16.7069 5.60504 14.9773 4.7701 12.5918H1.54962V15.1563C3.2195 18.496 6.67854 20.643 10.4358 20.643Z" fill="#34A853"/>
<path d="M4.82969 12.5917C4.41222 11.3393 4.41222 10.0272 4.82969 8.77484V6.27002H1.54957C0.118243 9.07303 0.118243 12.3532 1.54957 15.1562L4.82969 12.5917Z" fill="#FBBC04"/>
<path d="M10.4358 4.71948C11.8671 4.71948 13.2388 5.25622 14.2526 6.21044L17.0556 3.40743C15.2665 1.73755 12.8809 0.783332 10.4358 0.842971C6.67854 0.783332 3.2195 2.93032 1.54962 6.27008L4.82974 8.83454C5.60504 6.449 7.81167 4.71948 10.4358 4.71948Z" fill="#EA4335"/>
</g>
<defs>
<clipPath id="clip0_69_6866">
<rect width="60.2349" height="23.8554" fill="white" transform="translate(0.476074 0.783203)"/>
</clipPath>
</defs>
</svg>
