<svg width="32" height="25" viewBox="0 0 32 25" fill="none" xmlns="http://www.w3.org/2000/svg">
<g clip-path="url(#clip0_69_6839)">
<path d="M19.7774 2.81104H11.4877V17.7207H19.7774V2.81104Z" fill="#6C6BBD"/>
<path d="M12.0244 10.2657C12.0244 7.22417 13.4557 4.54043 15.6623 2.81091C14.0521 1.5585 12.0244 0.783203 9.81774 0.783203C4.56955 0.783203 0.275574 5.01754 0.275574 10.2657C0.275574 15.5139 4.50991 19.7483 9.75811 19.7483C11.9647 19.7483 13.9924 18.973 15.6027 17.7206C13.4557 16.0507 12.0244 13.3073 12.0244 10.2657Z" fill="#EB001B"/>
<path d="M31.049 10.2657C31.049 15.5139 26.8147 19.7483 21.5665 19.7483C19.3599 19.7483 17.3322 18.973 15.7219 17.7206C17.9286 15.991 19.3599 13.3073 19.3599 10.2657C19.3599 7.22417 17.8689 4.54043 15.6623 2.81091C17.2725 1.5585 19.3002 0.783203 21.5069 0.783203C26.7551 0.783203 31.049 5.07718 31.049 10.2657Z" fill="#0099DF"/>
<path d="M5.40463 22.6111C5.40463 22.3129 5.40463 22.2533 5.40463 22.0147H6.00102V22.3129C6.1203 22.0744 6.29921 21.9551 6.71668 21.9551C7.07451 21.9551 7.31307 22.0744 7.55162 22.4322C7.84981 22.0147 8.20764 21.9551 8.4462 21.9551C8.80403 21.9551 9.46005 22.0744 9.46005 22.9689V24.5792L8.74439 24.5195L8.68475 23.0286C8.68475 22.7304 8.56548 22.4322 8.20764 22.4322C7.90945 22.4322 7.79017 22.5515 7.6709 22.7304C7.6709 22.79 7.61126 22.9093 7.61126 23.0286V24.5195H7.07451V22.9689C7.01487 22.5515 6.83596 22.4322 6.53776 22.4322C6.29921 22.4322 6.23957 22.4918 6.06066 22.6111C6.00102 22.6707 5.94138 22.9093 5.94138 22.9689V24.5195H5.40463V22.6111Z" fill="black"/>
<path d="M12.0243 24.5195V24.2213C11.905 24.4002 11.7261 24.5791 11.3087 24.5791C10.1755 24.5791 10.0562 23.6249 10.0562 23.2671V23.2074C10.0562 22.9689 10.1755 22.5514 10.4141 22.3725C10.5334 22.2532 10.7123 22.0146 11.3683 22.0146C11.905 22.0146 12.084 22.3725 12.084 22.3725C12.084 22.1936 12.084 22.3128 12.084 22.0743H12.6207C12.6207 22.3128 12.6207 24.4002 12.6207 24.5791H12.0243V24.5195ZM11.3683 22.4321C10.8912 22.4321 10.593 22.79 10.593 23.2671C10.593 23.8634 11.1894 24.102 11.3683 24.102C11.6068 24.102 12.1436 23.9827 12.1436 23.2671C12.084 22.9689 11.905 22.4321 11.3683 22.4321Z" fill="black"/>
<path d="M13.575 23.446C13.6347 23.7442 13.8732 24.0424 14.3503 24.0424C14.7082 24.0424 14.8871 23.8634 15.066 23.8038L15.3045 24.2213C15.0063 24.4598 14.7082 24.5791 14.2907 24.5791C13.5154 24.5791 12.9786 24.0424 12.9786 23.2671C12.9786 22.4918 13.4557 22.0146 14.231 22.0146C15.066 22.0146 15.4835 22.7303 15.4238 23.5056H13.575V23.446ZM14.8871 23.0285C14.8274 22.7303 14.6485 22.4321 14.231 22.4321C13.8136 22.4321 13.6347 22.7303 13.575 23.0285H14.8871Z" fill="black"/>
<path d="M16.08 23.8634C16.1993 23.9827 16.736 24.102 16.9746 24.102C17.2131 24.102 17.5113 24.0424 17.5113 23.8038C17.5113 23.6249 16.8553 23.5653 16.7957 23.5653C16.3782 23.5653 15.9011 23.3267 15.9011 22.8496C15.9011 22.2532 16.3782 22.0146 16.9746 22.0146C17.2728 22.0146 17.6903 22.0743 17.9884 22.2532L17.7499 22.611C17.6306 22.5514 17.2131 22.4321 16.9746 22.4321C16.6764 22.4321 16.4975 22.5514 16.4975 22.7303C16.4975 22.9689 16.736 22.9689 17.1535 22.9689C17.6903 22.9689 18.0481 23.3267 18.0481 23.7442C18.0481 24.2213 17.6903 24.5791 16.915 24.5791C16.6168 24.5791 16.2589 24.5195 15.8415 24.2809L16.08 23.8634Z" fill="black"/>
<path d="M19.5985 21.3585V22.1338H20.5528V22.5512H19.6582V23.744C19.7178 23.9229 19.7775 24.1018 20.016 24.1018C20.1353 24.1018 20.4335 23.9826 20.4931 23.9826L20.672 24.4597C20.3738 24.5789 20.1949 24.6386 19.9564 24.6386C19.7178 24.6386 19.4793 24.5789 19.3003 24.4597C19.1811 24.3404 19.0618 24.1615 19.0618 23.8036V22.5512H18.5847V22.0741H19.0618V21.2988H19.5985V21.3585Z" fill="black"/>
<path d="M21.2088 22.0743H21.7455V22.3725C21.7455 22.3725 21.9244 22.0743 22.3419 22.0146C22.4015 22.0146 22.7594 22.0146 22.819 22.0146L22.6401 22.5514C22.5208 22.4918 22.4015 22.4918 22.2823 22.4918C21.7455 22.4918 21.7455 23.0881 21.7455 23.1478V24.5791H21.2088C21.2088 24.5791 21.2088 22.4321 21.2088 22.0743Z" fill="black"/>
<path d="M25.6818 23.3268C25.6818 24.281 25.0258 24.6389 24.3697 24.6389C23.6541 24.6389 22.998 24.281 22.998 23.3268C22.998 22.4323 23.5944 21.8955 24.4294 21.8955C25.2047 21.8955 25.6818 22.4919 25.6818 23.3268ZM23.5944 23.3268C23.5944 23.8039 23.8926 24.1021 24.3101 24.1021C24.7872 24.1021 25.0854 23.8039 25.0854 23.3268C25.0854 22.9094 24.8468 22.4323 24.3697 22.4323C23.8926 22.4323 23.5944 22.7901 23.5944 23.3268Z" fill="black"/>
</g>
<defs>
<clipPath id="clip0_69_6839">
<rect width="31.012" height="23.8554" fill="white" transform="translate(0.156586 0.783203)"/>
</clipPath>
</defs>
</svg>
