<svg width="32" height="25" viewBox="0 0 32 25" fill="none" xmlns="http://www.w3.org/2000/svg">
<g clip-path="url(#clip0_69_6834)">
<path d="M6.15296 24.5792V22.969C6.15296 22.3726 5.79512 21.9551 5.1391 21.9551C4.84091 21.9551 4.48308 22.0744 4.24452 22.4322C4.06561 22.134 3.76741 21.9551 3.40958 21.9551C3.17103 21.9551 2.87284 22.0148 2.69392 22.313V22.0148H2.09753V24.5196H2.63428V23.0883C2.63428 22.6112 2.87284 22.4322 3.23067 22.4322C3.5885 22.4322 3.76741 22.6708 3.76741 23.0883V24.5196H4.30416V23.0883C4.30416 22.6112 4.54271 22.4322 4.90055 22.4322C5.25838 22.4322 5.43729 22.6708 5.43729 23.0883V24.5196L6.15296 24.5792ZM14.3831 22.0744H13.4885V21.2991H12.9518V22.0744H12.4746V22.5515H12.9518V23.6846C12.9518 24.281 13.1903 24.5792 13.8463 24.5792C14.0849 24.5792 14.3234 24.5196 14.562 24.4003L14.3831 23.9232C14.2042 24.0425 14.0252 24.0425 13.906 24.0425C13.6674 24.0425 13.5481 23.8636 13.5481 23.625V22.4919H14.4427V22.0744H14.3831ZM19.0945 22.0148C18.7963 22.0148 18.5578 22.1937 18.4385 22.3726V22.0744H17.9018V24.5792H18.4385V23.1479C18.4385 22.7304 18.6174 22.4919 18.9752 22.4919C19.0945 22.4919 19.2138 22.4919 19.3331 22.5515L19.512 22.0148C19.3331 22.0148 19.1542 22.0148 19.0945 22.0148ZM11.9975 22.2533C11.759 22.0744 11.3415 22.0148 10.9837 22.0148C10.3277 22.0148 9.91018 22.313 9.91018 22.8497C9.91018 23.2672 10.2084 23.5057 10.8048 23.5654H11.0433C11.3415 23.625 11.5204 23.6846 11.5204 23.8039C11.5204 23.9828 11.3415 24.1021 10.924 24.1021C10.5066 24.1021 10.268 23.9828 10.0891 23.8636L9.85055 24.281C10.1487 24.4599 10.5662 24.5792 10.924 24.5792C11.6397 24.5792 12.0572 24.2214 12.0572 23.7443C12.0572 23.2672 11.6993 23.0286 11.1626 22.969H10.924C10.6855 22.969 10.5066 22.9093 10.5066 22.7304C10.5066 22.5515 10.6855 22.4322 10.9837 22.4322C11.2819 22.4322 11.6397 22.5515 11.759 22.6111L11.9975 22.2533ZM26.6686 22.0148C26.3704 22.0148 26.1319 22.1937 26.0126 22.3726V22.0744H25.4758V24.5792H26.0126V23.1479C26.0126 22.7304 26.1915 22.4919 26.5493 22.4919C26.6686 22.4919 26.7879 22.4919 26.9072 22.5515L27.0861 22.0148C26.9668 22.0148 26.7879 22.0148 26.6686 22.0148ZM19.6313 23.3268C19.6313 24.1021 20.168 24.6389 21.003 24.6389C21.3608 24.6389 21.659 24.5792 21.8975 24.3407L21.659 23.8636C21.4801 24.0425 21.2415 24.1021 21.003 24.1021C20.5258 24.1021 20.2277 23.8039 20.2277 23.2672C20.2277 22.7901 20.5258 22.4919 21.003 22.4322C21.2415 22.4322 21.4801 22.4919 21.659 22.6708L21.8975 22.1937C21.659 22.0148 21.3608 21.8955 21.003 21.8955C20.168 22.0148 19.6313 22.5515 19.6313 23.3268ZM24.7005 23.3268V22.0744H24.1638V22.3726C23.9849 22.134 23.6867 22.0148 23.3885 22.0148C22.6728 22.0148 22.1361 22.5515 22.1361 23.3268C22.1361 24.1021 22.6728 24.6389 23.3885 24.6389C23.7463 24.6389 24.0445 24.5196 24.1638 24.281V24.5792H24.7005V23.3268ZM22.6728 23.3268C22.6728 22.8497 22.971 22.4919 23.4481 22.4919C23.9252 22.4919 24.2234 22.8497 24.2234 23.3268C24.2234 23.8039 23.9252 24.1618 23.4481 24.1618C22.971 24.1021 22.6728 23.7443 22.6728 23.3268ZM16.053 22.0148C15.3373 22.0148 14.8005 22.5515 14.8005 23.3268C14.8005 24.1021 15.3373 24.6389 16.1126 24.6389C16.4704 24.6389 16.8283 24.5196 17.1265 24.281L16.8879 23.8636C16.709 24.0425 16.4108 24.1021 16.1722 24.1021C15.8144 24.1021 15.4566 23.9232 15.3969 23.5057H17.2457V23.3268C17.2457 22.5515 16.7686 22.0148 16.053 22.0148ZM16.053 22.4919C16.4108 22.4919 16.6493 22.6708 16.709 23.0883H15.3969C15.4566 22.7304 15.6951 22.4919 16.053 22.4919ZM29.8295 23.3268V21.0605H29.2927V22.3726C29.1138 22.134 28.8156 22.0148 28.5174 22.0148C27.8018 22.0148 27.265 22.5515 27.265 23.3268C27.265 24.1021 27.8018 24.6389 28.5174 24.6389C28.8752 24.6389 29.1734 24.5196 29.2927 24.281V24.5792H29.8295V23.3268ZM27.8018 23.3268C27.8018 22.8497 28.0999 22.4919 28.5771 22.4919C29.0542 22.4919 29.3524 22.8497 29.3524 23.3268C29.3524 23.8039 29.0542 24.1618 28.5771 24.1618C28.0999 24.1021 27.8018 23.7443 27.8018 23.3268ZM9.25416 23.3268V22.0744H8.71741V22.3726C8.5385 22.134 8.24031 22.0148 7.94211 22.0148C7.22645 22.0148 6.6897 22.5515 6.6897 23.3268C6.6897 24.1021 7.22645 24.6389 7.94211 24.6389C8.29994 24.6389 8.59814 24.5196 8.71741 24.281V24.5792H9.25416V23.3268ZM7.22645 23.3268C7.22645 22.8497 7.52464 22.4919 8.00175 22.4919C8.47886 22.4919 8.77705 22.8497 8.77705 23.3268C8.77705 23.8039 8.47886 24.1618 8.00175 24.1618C7.52464 24.1021 7.22645 23.7443 7.22645 23.3268Z" fill="black"/>
<path d="M20.0489 2.81104H11.7591V17.7207H20.0489V2.81104Z" fill="#FF5F00"/>
<path d="M12.2958 10.2657C12.2958 7.22417 13.7271 4.54043 15.9337 2.81091C14.3235 1.5585 12.2958 0.783203 10.0892 0.783203C4.84097 0.783203 0.546997 5.01754 0.546997 10.2657C0.546997 15.5139 4.78133 19.7483 10.0295 19.7483C12.2362 19.7483 14.2639 18.973 15.8741 17.7206C13.7271 16.0507 12.2958 13.3073 12.2958 10.2657Z" fill="#EB001B"/>
<path d="M31.3205 10.2657C31.3205 15.5139 27.0861 19.7483 21.8379 19.7483C19.6313 19.7483 17.6036 18.973 15.9934 17.7206C18.2 15.991 19.6313 13.3073 19.6313 10.2657C19.6313 7.22417 18.1403 4.54043 15.9337 2.81091C17.544 1.5585 19.5717 0.783203 21.7783 0.783203C27.0265 0.783203 31.3205 5.07718 31.3205 10.2657Z" fill="#F79E1B"/>
</g>
<defs>
<clipPath id="clip0_69_6834">
<rect width="31.012" height="23.8554" fill="white" transform="translate(0.427795 0.783203)"/>
</clipPath>
</defs>
</svg>
