<svg width="72" height="25" viewBox="0 0 72 25" fill="none" xmlns="http://www.w3.org/2000/svg">
<path d="M13.1303 15.155H10.1649V10.5091C10.1649 10.2455 10.088 10.0313 9.93425 9.8666C9.79147 9.70185 9.56632 9.61948 9.25879 9.61948C8.80848 9.61948 8.4021 9.82816 8.03966 10.2455V15.155H5.07421V10.5091C5.07421 9.91602 4.77217 9.61948 4.1681 9.61948C3.72878 9.61948 3.32789 9.82816 2.96545 10.2455V15.155H0V7.1977H2.96545V8.10381C3.17413 7.84021 3.5201 7.59309 4.00335 7.36244C4.48661 7.12081 5.01929 7 5.6014 7C6.78758 7 7.55091 7.46678 7.89139 8.40035C8.144 8.01594 8.51743 7.68645 9.01167 7.41187C9.51689 7.13729 10.0715 7 10.6756 7C11.4334 7 12.032 7.1977 12.4714 7.59309C12.9107 7.98848 13.1303 8.58706 13.1303 9.38883V15.155Z" fill="white"/>
<path d="M21.9684 14.1335C21.1556 14.9463 20.0683 15.3527 18.7064 15.3527C17.3445 15.3527 16.2571 14.9463 15.4444 14.1335C14.6426 13.3208 14.2417 12.3323 14.2417 11.1681C14.2417 10.0039 14.6426 9.0209 15.4444 8.21913C16.2571 7.40638 17.3445 7 18.7064 7C20.0683 7 21.1556 7.40638 21.9684 8.21913C22.7811 9.0209 23.1875 10.0039 23.1875 11.1681C23.1875 12.3323 22.7811 13.3208 21.9684 14.1335ZM18.7064 12.7332C19.1567 12.7332 19.5082 12.5904 19.7608 12.3049C20.0134 12.0083 20.1397 11.6294 20.1397 11.1681C20.1397 10.7178 20.0134 10.3499 19.7608 10.0643C19.5082 9.76775 19.1567 9.61948 18.7064 9.61948C18.2671 9.61948 17.9211 9.76775 17.6685 10.0643C17.4159 10.3499 17.2896 10.7178 17.2896 11.1681C17.2896 11.6294 17.4159 12.0083 17.6685 12.3049C17.9211 12.5904 18.2671 12.7332 18.7064 12.7332Z" fill="white"/>
<path d="M32.6464 15.155H29.681V10.7562C29.681 9.9984 29.2966 9.61948 28.5278 9.61948C28.0555 9.61948 27.6326 9.82816 27.2592 10.2455V15.155H24.2938V7.1977H27.2592V8.10381C27.9072 7.36794 28.8188 7 29.994 7C30.8727 7 31.5317 7.23614 31.971 7.70841C32.4213 8.1697 32.6464 8.76829 32.6464 9.50416V15.155Z" fill="white"/>
<path d="M41.4838 14.1335C40.6711 14.9463 39.5838 15.3527 38.2218 15.3527C36.8599 15.3527 35.7726 14.9463 34.9598 14.1335C34.1581 13.3208 33.7572 12.3323 33.7572 11.1681C33.7572 10.0039 34.1581 9.0209 34.9598 8.21913C35.7726 7.40638 36.8599 7 38.2218 7C39.5838 7 40.6711 7.40638 41.4838 8.21913C42.2966 9.0209 42.703 10.0039 42.703 11.1681C42.703 12.3323 42.2966 13.3208 41.4838 14.1335ZM38.2218 12.7332C38.6721 12.7332 39.0236 12.5904 39.2762 12.3049C39.5288 12.0083 39.6551 11.6294 39.6551 11.1681C39.6551 10.7178 39.5288 10.3499 39.2762 10.0643C39.0236 9.76775 38.6721 9.61948 38.2218 9.61948C37.7825 9.61948 37.4365 9.76775 37.1839 10.0643C36.9313 10.3499 36.805 10.7178 36.805 11.1681C36.805 11.6294 36.9313 12.0083 37.1839 12.3049C37.4365 12.5904 37.7825 12.7332 38.2218 12.7332Z" fill="white"/>
<path d="M49.0152 15.3527C48.1256 15.3527 47.3787 15.0067 46.7747 14.3148V18.1863H43.8092V7.1977H46.7747V8.03791C47.3568 7.34597 48.1036 7 49.0152 7C50.0367 7 50.8714 7.36794 51.5194 8.10381C52.1784 8.82869 52.5079 9.85012 52.5079 11.1681C52.5079 12.4971 52.1784 13.5295 51.5194 14.2653C50.8714 14.9902 50.0367 15.3527 49.0152 15.3527ZM47.9938 12.7332C48.4112 12.7332 48.7626 12.5959 49.0482 12.3213C49.3337 12.0358 49.4765 11.6514 49.4765 11.1681C49.4765 10.6958 49.3337 10.3224 49.0482 10.0478C48.7626 9.76226 48.4112 9.61948 47.9938 9.61948C47.7851 9.61948 47.56 9.6689 47.3183 9.76775C47.0877 9.8666 46.9065 9.9984 46.7747 10.1631V12.1895C46.8955 12.3433 47.0767 12.4751 47.3183 12.5849C47.5709 12.6838 47.7961 12.7332 47.9938 12.7332Z" fill="white"/>
<path d="M61.1691 15.155H58.2036V14.3971C57.9839 14.6827 57.649 14.9134 57.1986 15.0891C56.7593 15.2648 56.2925 15.3527 55.7983 15.3527C55.1173 15.3527 54.4913 15.1275 53.9202 14.6772C53.3491 14.2159 53.0635 13.5679 53.0635 12.7332C53.0635 12.1181 53.2118 11.6129 53.5083 11.2175C53.8158 10.8111 54.1618 10.5421 54.5462 10.4103C54.9306 10.2675 55.348 10.1961 55.7983 10.1961C56.9405 10.1961 57.7423 10.4871 58.2036 11.0693V10.2455C58.2036 9.95996 58.0718 9.72382 57.8082 9.53711C57.5556 9.35039 57.1932 9.25704 56.7209 9.25704C55.9301 9.25704 55.1942 9.51514 54.5133 10.0313L53.5083 8.20265C54.5078 7.40088 55.7599 7 57.2645 7C57.7917 7 58.275 7.05492 58.7143 7.16475C59.1536 7.2636 59.5655 7.43383 59.9499 7.67546C60.3343 7.90611 60.6309 8.25208 60.8396 8.71337C61.0592 9.16368 61.1691 9.70734 61.1691 10.3444V15.155ZM57.0339 13.4251C57.616 13.4251 58.0059 13.2824 58.2036 12.9968V12.552C58.0059 12.2664 57.616 12.1236 57.0339 12.1236C56.342 12.1236 55.996 12.3433 55.996 12.7826C55.996 13.211 56.342 13.4251 57.0339 13.4251Z" fill="white"/>
<path d="M62.7275 18.2522L63.1393 15.6163C63.3151 15.7151 63.5237 15.7645 63.7654 15.7645C64.3585 15.7645 64.7044 15.6602 64.8033 15.4515L64.8692 15.2868L61.739 7.1977H64.8692L66.3848 11.7447L67.917 7.1977H71.0472L67.5875 16.1435C67.258 17.0001 66.7967 17.5768 66.2036 17.8733C65.6105 18.1808 64.8362 18.3511 63.8807 18.384C63.4084 18.384 63.024 18.3401 62.7275 18.2522Z" fill="white"/>
</svg>
