<svg width="48" height="25" viewBox="0 0 48 25" fill="none" xmlns="http://www.w3.org/2000/svg">
<g clip-path="url(#clip0_69_6827)">
<path d="M6.26207 10.087C6.08315 11.578 5.0693 11.578 4.05544 11.578H3.51869L3.93616 8.77498C3.93616 8.59606 4.11508 8.47678 4.23436 8.47678H4.47291C5.12893 8.47678 5.78496 8.47678 6.08315 8.89425C6.26207 9.13281 6.32171 9.55028 6.26207 10.087ZM5.8446 6.15088H2.14701C1.90845 6.15088 1.6699 6.32979 1.6699 6.62799L0.178935 17.3629C0.119296 17.6015 0.298212 17.7804 0.477127 17.7804H2.20665C2.4452 17.7804 2.68375 17.6015 2.68375 17.3033L3.10122 14.4406C3.16086 14.0828 3.39942 13.9039 3.63797 13.9039H4.83074C7.27592 13.9039 8.64761 12.5918 9.00544 9.90811C9.18436 8.77498 9.00544 7.82076 8.52833 7.22437C7.99159 6.50871 7.09701 6.15088 5.8446 6.15088Z" fill="#253B80"/>
<path d="M14.4325 13.9036C14.2536 15.0367 13.4783 15.812 12.4644 15.812C11.9277 15.812 11.5699 15.6331 11.2717 15.2753C11.0331 14.9174 10.9138 14.4403 10.9735 13.8439C11.1524 12.7108 11.9277 11.9355 12.9415 11.9355C13.4186 11.9355 13.8361 12.1144 14.1343 12.4722C14.3729 12.8301 14.4921 13.3668 14.4325 13.9036ZM16.8777 10.0271H15.0885C14.9693 10.0271 14.7903 10.1463 14.7903 10.3253L14.7307 10.862L14.6114 10.6831C14.2536 10.0867 13.359 9.84814 12.5241 9.84814C10.556 9.84814 8.88612 11.518 8.58792 13.9036C8.40901 15.0963 8.64756 16.1698 9.24395 16.9451C9.7807 17.6608 10.556 17.959 11.4506 17.959C13.0012 17.959 13.8958 16.8259 13.8958 16.8259L13.8361 17.3626C13.7765 17.6012 13.9554 17.7801 14.1343 17.7801H15.7446C15.9831 17.7801 16.2217 17.6012 16.2217 17.303L17.1759 10.4445C17.1759 10.206 17.0566 10.0271 16.8777 10.0271Z" fill="#253B80"/>
<path d="M26.2409 10.0274H24.4518C24.2729 10.0274 24.094 10.0871 24.0343 10.266L21.5891 14.3214L20.5753 10.3852C20.5156 10.1467 20.2771 9.96777 20.0982 9.96777H18.3687C18.1301 9.96777 18.0108 10.2063 18.0705 10.4449L20.0385 16.9455L18.1897 19.8678C18.0705 20.1063 18.1897 20.4045 18.4283 20.4045H20.2175C20.3964 20.4045 20.5753 20.3449 20.6349 20.166L26.5391 10.5045C26.6584 10.3256 26.5391 10.0274 26.2409 10.0274Z" fill="#253B80"/>
<path d="M32.5626 10.087C32.3837 11.578 31.3698 11.578 30.356 11.578H29.8192L30.2367 8.77498C30.2367 8.59606 30.356 8.47678 30.5349 8.47678H30.7734C31.4295 8.47678 32.0855 8.47678 32.3837 8.89425C32.6222 9.13281 32.6222 9.55028 32.5626 10.087ZM32.1451 6.15088H28.4475C28.209 6.15088 27.9704 6.32979 27.9704 6.62799L26.4795 17.3629C26.4198 17.6015 26.5987 17.7804 26.7777 17.7804H28.6265C28.8054 17.7804 28.9843 17.6611 28.9843 17.4226L29.4018 14.381C29.4614 14.0828 29.6403 13.9039 29.8789 13.9039H31.0716C33.5168 13.9039 34.8885 12.5918 35.2463 9.90811C35.4253 8.77498 35.2463 7.82076 34.7692 7.22437C34.2921 6.50871 33.3975 6.15088 32.1451 6.15088Z" fill="#179BD7"/>
<path d="M40.733 13.9036C40.5541 15.0367 39.7788 15.812 38.765 15.812C38.2879 15.812 37.8704 15.6331 37.5722 15.2753C37.3336 14.9174 37.2144 14.4403 37.274 13.8439C37.4529 12.7108 38.2282 11.9355 39.2421 11.9355C39.7192 11.9355 40.1367 12.1144 40.4348 12.4722C40.6734 12.8301 40.7927 13.3668 40.733 13.9036ZM43.1782 10.0271H41.3891C41.2698 10.0271 41.0909 10.1463 41.0909 10.3253L41.0312 10.862L40.912 10.6831C40.5541 10.0867 39.6595 9.84814 38.8246 9.84814C36.8565 9.84814 35.1867 11.518 34.8885 13.9036C34.7095 15.0963 34.9481 16.1698 35.5445 16.9451C36.0812 17.6608 36.8565 17.959 37.7511 17.959C39.3017 17.959 40.1963 16.8259 40.1963 16.8259L40.1367 17.3626C40.077 17.6012 40.2559 17.7801 40.4348 17.7801H42.0451C42.2836 17.7801 42.5222 17.6012 42.5222 17.303L43.4764 10.4445C43.5361 10.206 43.3571 10.0271 43.1782 10.0271Z" fill="#179BD7"/>
<path d="M45.2656 6.44907L43.715 17.3629C43.6554 17.6015 43.8343 17.7804 44.0132 17.7804H45.5638C45.8024 17.7804 46.0409 17.6015 46.0409 17.3033L47.5319 6.56835C47.5915 6.32979 47.4723 6.15088 47.2337 6.15088H45.5638C45.3849 6.15088 45.2656 6.27016 45.2656 6.44907Z" fill="#179BD7"/>
</g>
<defs>
<clipPath id="clip0_69_6827">
<rect width="47.7108" height="23.8554" fill="white" transform="translate(0 0.783203)"/>
</clipPath>
</defs>
</svg>
