<svg width="46" height="25" viewBox="0 0 46 25" fill="none" xmlns="http://www.w3.org/2000/svg">
<g clip-path="url(#clip0_69_6850)">
<mask id="mask0_69_6850" style="mask-type:luminance" maskUnits="userSpaceOnUse" x="0" y="5" width="46" height="15">
<path d="M14.0656 5.43498L10.3084 14.9175L8.75779 6.80667C8.57887 5.91209 7.86321 5.37534 7.08791 5.37534H0.945137L0.885498 5.85245C2.13791 6.15064 3.56923 6.56811 4.46381 7.04522C5.00056 7.34341 5.11983 7.58197 5.35839 8.29763L8.22104 19.45H12.0379L17.8825 5.49462L14.0656 5.43498ZM19.4331 5.43498L16.4512 19.3904H20.0891L23.071 5.43498C23.0114 5.43498 19.4331 5.43498 19.4331 5.43498ZM40.1277 9.19221L41.2012 14.4404H38.2192L40.1277 9.19221ZM39.5909 5.43498C38.8753 5.43498 38.3385 5.85245 38.0403 6.44884L32.6132 19.3904H36.4301L37.2054 17.3031H41.8572L42.2747 19.3904H45.6144L42.6921 5.43498H39.5909ZM24.0253 9.78859C24.0253 11.8163 25.8144 12.9494 27.1861 13.6055C28.6174 14.3211 29.0945 14.7386 29.0349 15.335C29.0349 16.2892 27.9018 16.7067 26.8879 16.7067C25.0987 16.7663 24.0253 16.2296 23.1903 15.8121L22.5343 18.8537C23.3692 19.2115 24.9198 19.5693 26.5301 19.5693C30.3469 19.5693 32.7921 17.7205 32.7921 14.7982C32.7921 11.1006 27.7228 10.9217 27.7228 9.25185C27.7228 8.77474 28.2 8.23799 29.2734 8.05908C29.8102 7.99944 31.2415 7.9398 32.8518 8.65546L33.5078 5.67353C32.6132 5.37534 31.5397 5.07715 30.1084 5.07715C26.5301 5.19643 24.0253 7.04522 24.0253 9.78859Z" fill="white"/>
</mask>
<g mask="url(#mask0_69_6850)">
<path d="M45.6145 5.19629H0.88562V19.6288H45.6145V5.19629Z" fill="url(#paint0_linear_69_6850)"/>
</g>
</g>
<defs>
<linearGradient id="paint0_linear_69_6850" x1="0.883148" y1="12.3923" x2="45.6142" y2="12.3923" gradientUnits="userSpaceOnUse">
<stop stop-color="#241F5D"/>
<stop offset="1" stop-color="#034EA1"/>
</linearGradient>
<clipPath id="clip0_69_6850">
<rect width="44.7289" height="23.8554" fill="white" transform="translate(0.885376 0.783203)"/>
</clipPath>
</defs>
</svg>
