<svg width="48" height="48" viewBox="0 0 48 48" fill="none" xmlns="http://www.w3.org/2000/svg">
<g id="Frame" clip-path="url(#clip0_30_7238)">
<g id="Group">
<path id="Vector" d="M7.5 3.85472L7.12397 3.68653C6.65116 3.48037 6.1408 3.3743 5.625 3.375C3.55397 3.375 1.875 5.05397 1.875 7.125V33.375C1.875 34.9542 2.85122 36.3054 4.23291 36.8581L7.5 38.1917V3.85472Z" fill="#CEE1F2"/>
<g id="Group_2">
<path id="Vector_2" d="M3.53109 38.5969L21.8994 46.0942L21.9118 46.0991C23.2569 46.6358 24.7569 46.634 26.1007 46.0942L44.4691 38.5969C46.6144 37.7362 48.0002 35.6873 48.0002 33.3754V7.125C48.0002 4.02337 45.4768 1.5 42.3752 1.5C41.5944 1.5 40.8378 1.6575 40.126 1.96809L40.1105 1.97494L24.7425 8.84775C24.2747 9.04987 23.725 9.04978 23.2572 8.84766L7.88944 1.97494C7.88435 1.97267 7.87926 1.97042 7.87416 1.96819C7.16259 1.6575 6.40594 1.5 5.625 1.5C2.52338 1.5 0 4.02337 0 7.125V33.375C0 35.6872 1.38581 37.7362 3.53109 38.5969ZM3.75 7.125C3.75 6.09112 4.59113 5.25 5.625 5.25C5.88394 5.25 6.1335 5.30109 6.36703 5.40197L21.7357 12.2751L21.7512 12.2819C22.4633 12.5921 23.2319 12.7516 24.0086 12.7504C24.7853 12.7492 25.5534 12.5873 26.2645 12.275L41.6324 5.40216C41.8669 5.30103 42.1197 5.24921 42.3751 5.24991C43.409 5.24991 44.2501 6.09103 44.2501 7.12491V33.3752C44.2501 34.1467 43.7872 34.8306 43.0708 35.1172L43.0586 35.122L24.6904 42.6193C24.2528 42.7927 23.7473 42.7927 23.3098 42.6193L4.94147 35.1222L4.92928 35.1173C4.21284 34.8307 3.75 34.1468 3.75 33.375V7.125Z" fill="#7A4AF7"/>
<path id="Vector_3" d="M31.8212 35.5774L39.3212 32.5781C40.2827 32.1935 40.7504 31.1024 40.3659 30.1409C39.9814 29.1795 38.8903 28.7116 37.9287 29.0961L30.4287 32.0954C29.4672 32.48 28.9995 33.5711 29.384 34.5326C29.7667 35.4894 30.8552 35.9637 31.8212 35.5774ZM8.62462 14.5709L16.1246 17.8461C17.0695 18.2588 18.1772 17.8311 18.5933 16.8782C19.0077 15.9291 18.5744 14.8239 17.6254 14.4095L10.1254 11.1342C9.17652 10.7198 8.07112 11.1531 7.65665 12.1022C7.24227 13.0512 7.67568 14.1564 8.62462 14.5709ZM30.0738 26.014C30.3275 26.1858 30.6195 26.2927 30.9241 26.3256C31.2287 26.3584 31.5368 26.3161 31.8213 26.2024L39.3213 23.2031C39.6692 23.064 39.9675 22.8237 40.1777 22.5134C40.3878 22.2031 40.5001 21.8369 40.5001 21.4622V12.8525C40.5001 12.5412 40.4225 12.2347 40.2745 11.9608C40.1264 11.6869 39.9125 11.4542 39.6519 11.2837C39.3914 11.1132 39.0925 11.0103 38.7823 10.9841C38.472 10.958 38.1601 11.0096 37.8748 11.1342L30.3748 14.4088C30.0405 14.5547 29.756 14.7951 29.5562 15.1003C29.3564 15.4055 29.25 15.7623 29.25 16.1271V24.4614C29.25 25.0835 29.5586 25.6652 30.0738 26.014ZM33 17.3544L36.75 15.7172V20.1926L33 21.6922V17.3544ZM17.5712 22.7205L10.0712 19.7212C9.78667 19.6075 9.47864 19.5652 9.174 19.598C8.86937 19.6309 8.57742 19.7378 8.32368 19.9096C8.07 20.0814 7.86228 20.3127 7.71869 20.5834C7.57509 20.8541 7.50001 21.1558 7.49999 21.4622V30.8372C7.49997 31.2119 7.61227 31.5781 7.82239 31.8884C8.03252 32.1988 8.33082 32.439 8.67881 32.5781L16.1788 35.5774C16.4633 35.6911 16.7713 35.7334 17.076 35.7006C17.3806 35.6677 17.6726 35.5608 17.9263 35.389C18.18 35.2172 18.3877 34.9859 18.5313 34.7152C18.675 34.4445 18.7501 34.1428 18.7501 33.8364V24.4614C18.7501 24.0866 18.6378 23.7205 18.4276 23.4102C18.2175 23.0998 17.9192 22.8596 17.5712 22.7205ZM15 31.0672L11.25 29.5676V24.2314L15 25.731V31.0672Z" fill="#7A4AF7"/>
</g>
<path id="Vector_4" d="M25.875 18.375C25.875 17.3394 25.0356 16.5 24 16.5C22.9644 16.5 22.125 17.3394 22.125 18.375V37.125C22.125 38.1606 22.9644 39 24 39C25.0356 39 25.875 38.1606 25.875 37.125V18.375Z" fill="#B4E730"/>
</g>
</g>
<defs>
<clipPath id="clip0_30_7238">
<rect width="48" height="48" fill="white"/>
</clipPath>
</defs>
</svg>
