<svg width="49" height="49" viewBox="0 0 49 49" fill="none" xmlns="http://www.w3.org/2000/svg">
<g id="Frame" clip-path="url(#clip0_39_2049)">
<g id="Group">
<path id="Vector" d="M8.25 41.375V18.875C8.25 14.75 11.625 11.375 15.75 11.375H10.125C6 11.375 2.625 14.75 2.625 18.875V41.375C2.625 43.4375 4.3125 45.125 6.375 45.125H12C9.9375 45.125 8.25 43.4375 8.25 41.375Z" fill="#CEE1F2"/>
<path id="Vector_2" d="M46.875 30.125V41.375C46.875 43.4375 45.1875 45.125 43.125 45.125H6.375C4.3125 45.125 2.625 43.4375 2.625 41.375V18.875C2.625 14.75 6 11.375 10.125 11.375H39.375C43.5 11.375 46.875 14.75 46.875 18.875C46.875 20.4542 45.8989 21.8054 44.517 22.3582L32.25 27.415M13.5 11.375L13.8959 10.5832C15.9515 6.47197 20.1535 3.875 24.75 3.875C29.3465 3.875 33.5485 6.47197 35.6041 10.5832L36 11.375" stroke="#7A4AF7" stroke-width="3.75" stroke-miterlimit="10" stroke-linecap="round" stroke-linejoin="round"/>
<path id="Vector_3" d="M17.25 27.415L4.983 22.3582C3.60113 21.8054 2.625 20.4542 2.625 18.875" stroke="#7A4AF7" stroke-width="3.75" stroke-miterlimit="10" stroke-linecap="round" stroke-linejoin="round"/>
<path id="Vector_4" d="M24.75 26.375V33.875" stroke="#B4E730" stroke-width="3.75" stroke-miterlimit="10" stroke-linecap="round" stroke-linejoin="round"/>
</g>
</g>
<defs>
<clipPath id="clip0_39_2049">
<rect width="48" height="48" fill="white" transform="translate(0.75 0.5)"/>
</clipPath>
</defs>
</svg>
