<svg width="49" height="48" viewBox="0 0 49 48" fill="none" xmlns="http://www.w3.org/2000/svg">
<path d="M18.8505 28.4299L15.2646 8.99951H9.63965L13.2256 28.4299C13.5537 30.2093 15.1043 31.4993 16.9127 31.4993H22.5376C20.7292 31.4993 19.1786 30.2093 18.8505 28.4299Z" fill="#CEE1F2"/>
<path d="M39.8649 33.375H16.913C14.2002 33.375 11.8739 31.4387 11.3815 28.7709L6.96449 5.21259C6.77296 4.36388 6.00694 3.75 5.13535 3.75H2.54197C1.50642 3.75 0.666992 2.91056 0.666992 1.875C0.666992 0.839438 1.50642 0 2.54197 0H5.13535C7.77017 0 10.0833 1.87003 10.6354 4.44638C10.6388 4.46213 10.642 4.47788 10.645 4.49372L11.1384 7.12491H46.7915C47.9457 7.12491 48.832 8.16178 48.641 9.30816L45.4132 28.6747C44.9595 31.3982 42.626 33.375 39.8649 33.375ZM11.8414 10.875L15.0682 28.0851C15.2333 28.9795 16.0087 29.625 16.913 29.625H39.8649C40.309 29.6262 40.7391 29.4692 41.078 29.1821C41.4169 28.895 41.6425 28.4966 41.7143 28.0583L44.5782 10.875H11.8414Z" fill="#7A4AF7"/>
<path d="M18.1898 24.3405L16.8037 16.8405C16.3531 14.4027 20.04 13.7179 20.4913 16.159L21.8773 23.6589C22.328 26.097 18.6413 26.7837 18.1898 24.3405ZM34.8381 23.6913L36.0888 16.1914C36.4964 13.7465 40.1959 14.3594 39.7876 16.8082L38.537 24.3081C38.122 26.7973 34.4332 26.1201 34.8381 23.6913Z" fill="#B4E730"/>
<path d="M17.1669 47.9999C14.0653 47.9999 11.542 45.4765 11.542 42.3749C11.542 39.2734 14.0653 36.75 17.1669 36.75C20.2685 36.75 22.7919 39.2734 22.7919 42.3749C22.7919 45.4765 20.2685 47.9999 17.1669 47.9999ZM17.1669 40.5C16.1331 40.5 15.292 41.3411 15.292 42.3749C15.292 43.4088 16.1331 44.2499 17.1669 44.2499C18.2008 44.2499 19.0419 43.4088 19.0419 42.3749C19.0419 41.3411 18.2008 40.5 17.1669 40.5ZM39.6667 47.9999C36.5651 47.9999 34.0418 45.4765 34.0418 42.3749C34.0418 39.2734 36.5651 36.75 39.6667 36.75C42.7683 36.75 45.2917 39.2734 45.2917 42.3749C45.2917 45.4765 42.7683 47.9999 39.6667 47.9999ZM39.6667 40.5C38.6329 40.5 37.7917 41.3411 37.7917 42.3749C37.7917 43.4088 38.6329 44.2499 39.6667 44.2499C40.7006 44.2499 41.5417 43.4088 41.5417 42.3749C41.5417 41.3411 40.7006 40.5 39.6667 40.5Z" fill="#7A4AF7"/>
<path d="M26.542 23.9996V16.4997C26.542 14.0208 30.292 14.0172 30.292 16.4997V23.9996C30.292 26.4784 26.542 26.4821 26.542 23.9996Z" fill="#B4E730"/>
</svg>
