<svg width="49" height="48" viewBox="0 0 49 48" fill="none" xmlns="http://www.w3.org/2000/svg">
<g id="Frame" clip-path="url(#clip0_50_3165)">
<g id="Group">
<path id="Vector" d="M27.2849 23.0892C27.2849 22.4697 27.116 21.8619 26.7963 21.3312C26.4766 20.8006 26.0182 20.3671 25.4705 20.0776C22.6386 18.5812 19.05 19.0248 16.6667 21.408L4.73717 33.3377C1.80896 36.2659 1.80896 41.0134 4.73717 43.9416C5.41824 44.6236 6.22476 45.1674 7.1123 45.5431C5.95628 42.8136 6.48883 39.5391 8.71363 37.3142L20.6432 25.3848C22.3935 23.6344 24.7937 22.9316 27.0668 23.2743C27.1813 23.2914 27.2849 23.205 27.2849 23.0892Z" fill="#CEE1F2"/>
<path id="Vector_2" d="M24.6197 13.4551L33.9919 4.08288C36.9201 1.15467 41.6677 1.15467 44.5959 4.08288C47.5241 7.01109 47.5241 11.7586 44.5959 14.6868L32.5727 26.7101C29.6445 29.6383 24.897 29.6383 21.9688 26.7101" stroke="#7A4AF7" stroke-width="3.74907" stroke-miterlimit="10" stroke-linecap="round" stroke-linejoin="round"/>
<path id="Vector_3" d="M24.6197 34.663L15.4077 43.8749C12.4842 46.7985 7.7226 46.8833 4.77752 43.9815C1.80901 41.0567 1.79561 36.279 4.73713 33.3375L16.6666 21.4081C19.5948 18.4799 24.3423 18.4799 27.2705 21.4081" stroke="#7A4AF7" stroke-width="3.74907" stroke-miterlimit="10" stroke-linecap="round" stroke-linejoin="round"/>
<path id="Vector_4" d="M7.63037 16.1368L11.0282 17.7211M38.2107 30.3965L41.6085 31.981M16.6973 7.06982L18.2818 10.4676M30.9571 37.6501L32.5415 41.0479" stroke="#B4E730" stroke-width="3.74907" stroke-miterlimit="10" stroke-linecap="round" stroke-linejoin="round"/>
</g>
</g>
<defs>
<clipPath id="clip0_50_3165">
<rect width="48" height="48" fill="white" transform="translate(0.666504)"/>
</clipPath>
</defs>
</svg>
