<svg width="48" height="48" viewBox="0 0 48 48" fill="none" xmlns="http://www.w3.org/2000/svg">
<path d="M14.625 34.875V1.875H9V34.875C9 36.946 10.679 38.625 12.75 38.625C13.6722 38.6263 14.5624 38.2865 15.2491 37.6709L15.5803 37.3747C14.9865 36.7112 14.625 35.8355 14.625 34.875Z" fill="#CEE1F2"/>
<path d="M27.5358 24.6023L23.9999 22.7434L20.4641 24.6023C20.1544 24.765 19.8054 24.8379 19.4564 24.8126C19.1075 24.7873 18.7726 24.665 18.4896 24.4594C18.2066 24.2538 17.9867 23.9731 17.8549 23.649C17.723 23.325 17.6845 22.9705 17.7435 22.6257L18.4188 18.6885L15.5582 15.9001C15.3077 15.6559 15.1306 15.3465 15.0468 15.0068C14.963 14.6672 14.9759 14.3108 15.084 13.9781C15.1921 13.6454 15.3911 13.3496 15.6585 13.124C15.926 12.8985 16.2512 12.7523 16.5973 12.7019L20.5506 12.1274L22.3185 8.54524C22.4734 8.23149 22.7129 7.96732 23.01 7.78261C23.3072 7.59789 23.6501 7.5 23.9999 7.5C24.3498 7.5 24.6927 7.59789 24.9898 7.78261C25.287 7.96732 25.5265 8.23149 25.6813 8.54524L27.4493 12.1274L31.4025 12.7019C31.7487 12.7523 32.074 12.8985 32.3414 13.124C32.6089 13.3495 32.8079 13.6454 32.916 13.9781C33.0241 14.3108 33.037 14.6671 32.9532 15.0068C32.8693 15.3465 32.6922 15.6559 32.4417 15.9001L29.5811 18.6885L30.2563 22.6257C30.3155 22.9706 30.2769 23.3251 30.1451 23.6491C30.0133 23.9732 29.7934 24.2539 29.5104 24.4596C29.2273 24.6652 28.8924 24.7876 28.5435 24.8128C28.1945 24.838 27.8455 24.7651 27.5358 24.6023ZM23.9999 18.75C24.2997 18.75 24.5994 18.8218 24.8725 18.9654L25.9182 19.5151L25.7185 18.3508C25.6671 18.0512 25.6893 17.7436 25.7832 17.4545C25.8771 17.1653 26.04 16.9034 26.2576 16.6912L27.1035 15.8666L25.9345 15.6968C25.6336 15.6531 25.3479 15.5369 25.102 15.3582C24.856 15.1795 24.6572 14.9437 24.5227 14.6711L23.9999 13.6117L23.4771 14.671C23.3426 14.9436 23.1438 15.1794 22.8978 15.3581C22.6519 15.5368 22.3662 15.653 22.0653 15.6967L20.8962 15.8666L21.7422 16.6911C21.9598 16.9033 22.1226 17.1653 22.2165 17.4544C22.3105 17.7435 22.3327 18.0511 22.2813 18.3507L22.0816 19.515L23.1273 18.9653C23.3965 18.8239 23.6959 18.75 23.9999 18.75Z" fill="#B4E730"/>
<path d="M42.75 0H5.25C4.21444 0 3.375 0.839438 3.375 1.875C3.375 2.91056 4.21444 3.75 5.25 3.75H7.125V34.875C7.125 37.9766 9.64838 40.5 12.75 40.5C14.1334 40.5009 15.4684 39.9911 16.4992 39.0684L22.7511 33.4765C23.0946 33.1692 23.5381 33 24 33C24.4619 33 24.9055 33.1692 25.2491 33.4766L31.5008 39.0684C32.5316 39.9911 33.8666 40.5009 35.25 40.5C38.3516 40.5 40.875 37.9766 40.875 34.875V3.75H42.75C43.7856 3.75 44.625 2.91056 44.625 1.875C44.625 0.839438 43.7856 0 42.75 0ZM37.125 34.875C37.125 35.9089 36.2839 36.75 35.25 36.75C34.7892 36.7504 34.3444 36.5807 34.001 36.2734L27.7492 30.6816C26.7171 29.7584 25.3856 29.25 24 29.25C22.6144 29.25 21.2828 29.7584 20.2509 30.6816L13.999 36.2735C13.6556 36.5807 13.2108 36.7504 12.75 36.75C11.7161 36.75 10.875 35.9089 10.875 34.875V3.75H37.125V34.875Z" fill="#7A4AF7"/>
<path d="M24 36.75C22.9644 36.75 22.125 37.5894 22.125 38.625V46.125C22.125 47.1606 22.9644 48 24 48C25.0356 48 25.875 47.1606 25.875 46.125V38.625C25.875 37.5894 25.0356 36.75 24 36.75Z" fill="#7A4AF7"/>
</svg>
