<svg width="49" height="49" viewBox="0 0 49 49" fill="none" xmlns="http://www.w3.org/2000/svg">
<g id="Frame" clip-path="url(#clip0_39_2037)">
<g id="Group">
<path id="Vector" d="M8.16528 37.25V11.75C8.16528 6.57228 12.3626 2.375 17.5403 2.375H11.75C6.57237 2.375 2.375 6.57228 2.375 11.75V37.25C2.375 42.4276 6.57237 46.625 11.75 46.625H17.5403C12.3626 46.625 8.16528 42.4276 8.16528 37.25Z" fill="#CEE1F2"/>
<path id="Vector_2" d="M10.0625 38.2812V19.4375C10.0625 15.2953 13.4203 11.9375 17.5625 11.9375H39.125C43.2672 11.9375 46.625 15.2953 46.625 19.4375V21.4062M21.0312 46.625H11.75C6.57237 46.625 2.375 42.4276 2.375 37.25V11.75C2.375 6.57237 6.57237 2.375 11.75 2.375H19.5312C22.2927 2.375 24.8468 3.56891 26.5625 5.46875" stroke="#7A4AF7" stroke-width="3.75" stroke-miterlimit="10" stroke-linecap="round" stroke-linejoin="round"/>
<path id="Vector_3" d="M45.9892 39.5C44.4916 43.6547 40.5146 46.625 35.8438 46.625C29.8894 46.625 25.0625 41.7981 25.0625 35.8438C25.0625 29.8894 29.8894 25.0625 35.8438 25.0625C37.45 25.0625 38.9743 25.4638 40.3438 26.0938M32.5625 34.25L35.1984 36.9486C35.4661 37.2221 35.7858 37.4394 36.1386 37.5877C36.4914 37.7361 36.8703 37.8125 37.253 37.8125C37.6358 37.8125 38.0147 37.7361 38.3675 37.5877C38.7203 37.4394 39.04 37.2221 39.3077 36.9486L46.625 29.5625" stroke="#B4E730" stroke-width="3.75" stroke-miterlimit="10" stroke-linecap="round" stroke-linejoin="round"/>
</g>
</g>
<defs>
<clipPath id="clip0_39_2037">
<rect width="48" height="48" fill="white" transform="translate(0.5 0.5)"/>
</clipPath>
</defs>
</svg>
