<svg width="48" height="48" viewBox="0 0 48 48" fill="none" xmlns="http://www.w3.org/2000/svg">
<g clip-path="url(#clip0_19_7198)">
<path d="M9.5625 45.272C8.75803 45.8106 7.97831 46.125 6.9375 46.125C4.1415 46.125 1.875 43.8584 1.875 41.0625V33.375C1.875 30.5791 4.1415 28.3125 6.9375 28.3125C7.97831 28.3125 8.75803 28.6269 9.5625 29.1655C8.20594 30.0738 7.3125 31.6199 7.3125 33.375V41.0625C7.3125 42.8176 8.20594 44.3637 9.5625 45.272ZM24.375 41.0625V19.9688C24.375 18.2137 25.2684 16.6675 26.625 15.7593C25.8205 15.2207 25.0408 14.9062 24 14.9062C21.204 14.9062 18.9375 17.1728 18.9375 19.9688V41.0625C18.9375 43.8584 21.204 46.125 24 46.125C25.0408 46.125 25.8205 45.8106 26.625 45.272C25.2684 44.3637 24.375 42.8176 24.375 41.0625ZM41.4375 41.0625V6.9375C41.4375 5.18241 42.3309 3.63628 43.6875 2.72803C42.883 2.18944 42.1033 1.875 41.0625 1.875C38.2666 1.875 36 4.1415 36 6.9375V41.0625C36 43.8584 38.2666 46.125 41.0625 46.125C42.1033 46.125 42.883 45.8106 43.6875 45.272C42.3309 44.3637 41.4375 42.8176 41.4375 41.0625Z" fill="#CEE1F2"/>
<path d="M41.0625 48C37.2371 48 34.125 44.8879 34.125 41.0625V6.9375C34.125 3.11212 37.2371 0 41.0625 0C44.8879 0 48 3.11212 48 6.9375V41.0625C48 44.8879 44.8879 48 41.0625 48ZM41.0625 3.75C39.3049 3.75 37.875 5.17987 37.875 6.9375V41.0625C37.875 42.8201 39.3049 44.25 41.0625 44.25C42.8201 44.25 44.25 42.8201 44.25 41.0625V6.9375C44.25 5.17987 42.8201 3.75 41.0625 3.75ZM6.9375 48C3.11212 48 0 44.8879 0 41.0625V33.375C0 29.5496 3.11212 26.4375 6.9375 26.4375C10.7629 26.4375 13.875 29.5496 13.875 33.375V41.0625C13.875 44.8879 10.7629 48 6.9375 48ZM6.9375 30.1875C5.17987 30.1875 3.75 31.6174 3.75 33.375V41.0625C3.75 42.8201 5.17987 44.25 6.9375 44.25C8.69512 44.25 10.125 42.8201 10.125 41.0625V33.375C10.125 31.6174 8.69512 30.1875 6.9375 30.1875ZM24 48C20.1746 48 17.0625 44.8879 17.0625 41.0625V19.9688C17.0625 16.1434 20.1746 13.0312 24 13.0312C27.8254 13.0312 30.9375 16.1434 30.9375 19.9688V41.0625C30.9375 44.8879 27.8254 48 24 48ZM24 16.7812C22.2424 16.7812 20.8125 18.2111 20.8125 19.9688V41.0625C20.8125 42.8201 22.2424 44.25 24 44.25C25.7576 44.25 27.1875 42.8201 27.1875 41.0625V19.9688C27.1875 18.2111 25.7576 16.7812 24 16.7812Z" fill="#7A4AF7"/>
<path d="M13.0308 15.2187C13.0308 12.2894 10.4257 9.90628 7.22355 9.90628C5.86249 9.90628 4.87455 9.24909 4.87455 8.34375C4.87455 7.48219 5.56849 6.78122 6.42143 6.78122C7.2813 6.78122 8.40143 6.87497 10.1897 7.57041C11.1548 7.94578 12.2415 7.46747 12.6168 6.5025C12.9921 5.53734 12.514 4.45069 11.5489 4.07541C10.6181 3.71344 9.80637 3.47597 9.0933 3.31969V1.875C9.0933 0.839438 8.25387 0 7.2183 0C6.18274 0 5.3433 0.839438 5.3433 1.875V3.14212C2.93787 3.64294 1.12455 5.78484 1.12455 8.34375C1.12455 11.3724 3.74655 13.6563 7.22355 13.6563C8.33871 13.6563 9.2808 14.3718 9.2808 15.2187C9.2808 16.0511 8.5069 16.7812 7.62452 16.7812C6.93612 16.7812 5.20887 16.5289 3.50459 15.8513C2.54224 15.4689 1.45202 15.9389 1.06962 16.9012C0.687117 17.8635 1.15718 18.9537 2.11943 19.3362C3.20524 19.7678 4.33802 20.0757 5.34321 20.2708V21.375C5.34321 22.4106 6.18265 23.25 7.21821 23.25C8.25377 23.25 9.09321 22.4106 9.09321 21.375V20.3279C9.95055 20.0868 10.7428 19.6358 11.4031 18.9996C12.4527 17.9881 13.0308 16.6454 13.0308 15.2187Z" fill="#B4E730"/>
</g>
<defs>
<clipPath id="clip0_19_7198">
<rect width="48" height="48" fill="white"/>
</clipPath>
</defs>
</svg>
