<svg width="49" height="48" viewBox="0 0 49 48" fill="none" xmlns="http://www.w3.org/2000/svg">
<g clip-path="url(#clip0_6_6303)">
<path d="M11.4754 17.7925C11.0812 17.9556 10.6729 18.0827 10.2557 18.1722C10.6364 17.974 11.0495 17.8454 11.4754 17.7925ZM11.917 37.0779H6.29199C4.22105 37.0779 2.54199 35.3988 2.54199 33.3279V22.0779C2.54199 20.0069 4.22105 18.3279 6.29199 18.3279H8.77918C9.27887 18.3279 9.77293 18.2754 10.2548 18.1722C9.0173 18.8125 8.16699 20.1354 8.16699 21.6091V33.3279C8.16699 35.3987 9.84605 37.0779 11.917 37.0779Z" fill="#CEE1F2"/>
<path d="M20.0167 7.56732L18.7341 4.04344C18.38 3.07032 17.3038 2.56866 16.3309 2.92276C15.3578 3.27694 14.8561 4.35291 15.2102 5.32594L16.4928 8.84982C16.8465 9.82144 17.9214 10.3252 18.896 9.97051C19.869 9.61632 20.3708 8.54035 20.0167 7.56732ZM33.0044 2.92276C32.0311 2.56857 30.9554 3.07041 30.6012 4.04344L29.3186 7.56732C28.9645 8.54035 29.4661 9.61632 30.4393 9.97051C31.4142 10.3253 32.4889 9.82107 32.8425 8.84982L34.125 5.32594C34.4791 4.35291 33.9775 3.27694 33.0044 2.92276ZM24.6676 8.95285C25.7032 8.95285 26.5426 8.11341 26.5426 7.07785V3.32785C26.5426 2.29229 25.7032 1.45285 24.6676 1.45285C23.6321 1.45285 22.7926 2.29229 22.7926 3.32785V7.07785C22.7926 8.11332 23.6321 8.95285 24.6676 8.95285Z" fill="#B4E730"/>
<path d="M43.042 16.4528H38.543C37.4047 16.4528 36.251 15.9254 35.1138 14.885C31.8076 11.8603 26.7342 11.9746 23.5635 15.1451L16.738 21.9706C14.5448 24.1638 14.5448 27.7323 16.738 29.9256C18.9362 32.1237 22.4944 32.1242 24.6931 29.9256L29.6972 24.9214C30.4294 24.1891 30.4294 23.0019 29.6972 22.2697C28.965 21.5375 27.7777 21.5375 27.0455 22.2697L22.0413 27.2739C21.3086 28.0067 20.1226 28.0067 19.3898 27.2739C18.6586 26.5429 18.6586 25.3534 19.3898 24.6223L26.2153 17.7968C27.9633 16.0485 30.7603 15.9847 32.5827 17.6518C34.4069 19.3207 36.4679 20.2028 38.5431 20.2028H43.0421C44.076 20.2028 44.9171 21.044 44.9171 22.0778V33.3278C44.9171 34.3617 44.076 35.2028 43.0421 35.2028H37.6036C38.4897 33.1478 38.0961 30.6687 36.42 28.9924L35 27.5724C34.2677 26.8402 33.0806 26.8402 32.3484 27.5724C31.6162 28.3046 31.6162 29.4919 32.3485 30.2242L33.7684 31.644C34.4995 32.3751 34.4995 33.5647 33.7685 34.2957L32.3126 35.7516L32.3118 35.7523L25.8134 42.2506C25.4593 42.6047 24.9884 42.7998 24.4876 42.7998C23.9867 42.7998 23.5159 42.6047 23.1617 42.2506L18.8596 37.9486C17.089 36.1778 14.7347 35.2027 12.2306 35.2027H6.29199C5.25812 35.2027 4.41699 34.3615 4.41699 33.3277V22.0777C4.41699 21.0438 5.25812 20.2027 6.29199 20.2027H8.77899C11.0338 20.2027 13.1876 19.3599 14.8438 17.8297C15.8014 16.9431 17.0587 16.4512 18.3637 16.4527C19.3993 16.4527 20.2387 15.6132 20.2387 14.5777C20.2387 13.5421 19.3993 12.7027 18.3637 12.7027C16.1088 12.7027 13.955 13.5454 12.299 15.0755C11.3414 15.9621 10.0841 16.4541 8.77899 16.4527H6.29199C3.19037 16.4527 0.666992 18.976 0.666992 22.0777V33.3277C0.666992 36.4293 3.19037 38.9527 6.29199 38.9527H12.2306C13.733 38.9527 15.1456 39.5377 16.208 40.6002L20.51 44.9022C21.6066 45.9988 23.0471 46.5471 24.4876 46.5471C25.928 46.5471 27.3684 45.9988 28.465 44.9022L34.4146 38.9527H43.042C46.1436 38.9527 48.667 36.4294 48.667 33.3277V22.0777C48.667 18.9762 46.1436 16.4528 43.042 16.4528Z" fill="#7A4AF7"/>
</g>
<defs>
<clipPath id="clip0_6_6303">
<rect width="48" height="48" fill="white" transform="translate(0.666992)"/>
</clipPath>
</defs>
</svg>
