<svg width="49" height="48" viewBox="0 0 49 48" fill="none" xmlns="http://www.w3.org/2000/svg">
<g id="Frame" clip-path="url(#clip0_11_2434)">
<g id="Group">
<path id="Vector" d="M18.4233 37.5005C18.6925 37.0722 18.9583 36.6417 19.2205 36.2091C12.904 30.6872 8.16663 22.4142 8.16663 13.8172C8.16663 9.48497 10.915 5.81991 14.6987 4.60219C13.7666 4.31743 12.7975 4.17241 11.8229 4.17188C6.697 4.17188 2.54163 8.49019 2.54163 13.8172C2.54163 23.0853 8.67681 30.6101 15.7317 36.0837C16.5391 36.7098 17.4501 37.1893 18.4233 37.5005Z" fill="#CEE1F2"/>
<path id="Vector_2" d="M39.3547 17.1094C39.5409 16.0213 39.6451 14.9208 39.6666 13.8172C39.6666 8.49028 35.5113 4.17188 30.3854 4.17188C25.2595 4.17188 21.1041 7.9905 21.1041 11.9531C21.1041 8.18428 16.9488 4.17188 11.8229 4.17188C6.697 4.17188 2.54163 8.49019 2.54163 13.8172C2.54163 23.0863 8.67813 30.6117 15.734 36.0855L15.7312 36.0833C16.6321 36.7829 17.6611 37.2994 18.7604 37.6037" stroke="#7A4AF7" stroke-width="3.75" stroke-miterlimit="10" stroke-linecap="round" stroke-linejoin="round"/>
<path id="Vector_3" d="M35.2604 29.3156C35.2604 26.1354 32.679 23.6719 29.4948 23.6719C26.3105 23.6719 23.7291 26.2499 23.7291 29.4301C23.8414 34.9627 27.5412 39.4565 31.9244 42.7242C33.8986 44.1961 36.6222 44.1961 38.5965 42.7242C42.9797 39.4564 46.6794 34.9627 46.7917 29.4301C46.7917 26.2499 44.2103 23.6719 41.0261 23.6719C37.8419 23.6719 35.2604 26.1354 35.2604 29.3156Z" stroke="#B4E730" stroke-width="3.75" stroke-miterlimit="10" stroke-linecap="round" stroke-linejoin="round"/>
</g>
</g>
<defs>
<clipPath id="clip0_11_2434">
<rect width="48" height="48" fill="white" transform="translate(0.666626)"/>
</clipPath>
</defs>
</svg>
