<svg width="49" height="48" viewBox="0 0 49 48" fill="none" xmlns="http://www.w3.org/2000/svg">
<g clip-path="url(#clip0_19_5493)">
<path d="M19.417 27.375H13.792C11.721 27.375 10.042 29.054 10.042 31.125V46.125H15.667V31.125C15.667 29.054 17.346 27.375 19.417 27.375Z" fill="#CEE1F2"/>
<path d="M46.792 46.125H6.29199C4.22096 46.125 2.54199 44.446 2.54199 42.375V1.875" stroke="#7A4AF7" stroke-width="3.75" stroke-miterlimit="10" stroke-linecap="round" stroke-linejoin="round"/>
<path d="M10.042 46.125V31.125C10.042 29.054 11.721 27.375 13.792 27.375H20.542V19.875C20.542 17.804 22.221 16.125 24.292 16.125H31.792V8.625C31.792 6.55397 33.471 4.875 35.542 4.875H39.292C41.363 4.875 43.042 6.55397 43.042 8.625V46.125" stroke="#7A4AF7" stroke-width="3.75" stroke-miterlimit="10" stroke-linecap="round" stroke-linejoin="round"/>
<path d="M31.792 38.625V23.625M20.542 38.625V34.875" stroke="#B4E730" stroke-width="3.75" stroke-miterlimit="10" stroke-linecap="round" stroke-linejoin="round"/>
</g>
<defs>
<clipPath id="clip0_19_5493">
<rect width="48" height="48" fill="white" transform="translate(0.666992)"/>
</clipPath>
</defs>
</svg>
