<svg width="48" height="48" viewBox="0 0 48 48" fill="none" xmlns="http://www.w3.org/2000/svg">
<g clip-path="url(#clip0_213_9155)">
<path d="M7.5 42.375V24.375C7.5 23.4205 7.85719 22.5499 8.44444 21.8879L8.21081 21.6591C7.53797 21.0184 6.62747 20.625 5.625 20.625C3.55397 20.625 1.875 22.304 1.875 24.375V42.375C1.875 44.446 3.55397 46.125 5.625 46.125H11.25C9.17897 46.125 7.5 44.446 7.5 42.375Z" fill="#CEE1F2"/>
<path d="M46.125 24.375V42.375C46.125 44.446 44.446 46.125 42.375 46.125H5.625C3.55397 46.125 1.875 44.446 1.875 42.375V24.375C1.875 22.304 3.55397 20.625 5.625 20.625C6.62747 20.625 7.53797 21.0184 8.21081 21.6591L21.4142 34.5909C22.087 35.2316 22.9975 35.625 24 35.625C25.0025 35.625 25.913 35.2316 26.5858 34.5909L39.7892 21.6591C40.462 21.0184 41.3725 20.625 42.375 20.625C44.446 20.625 46.125 22.304 46.125 24.375Z" stroke="#7A4AF7" stroke-width="3.75" stroke-miterlimit="10" stroke-linecap="round" stroke-linejoin="round"/>
<path d="M9.375 22.7678V6.16312C9.375 3.79481 11.2948 1.875 13.6631 1.875H34.3369C36.7052 1.875 38.625 3.79481 38.625 6.16312V13.5093" stroke="#7A4AF7" stroke-width="3.75" stroke-miterlimit="10" stroke-linecap="round" stroke-linejoin="round"/>
<path d="M16.875 9.375H31.125M16.875 16.875H31.125" stroke="#B4E730" stroke-width="3.75" stroke-miterlimit="10" stroke-linecap="round" stroke-linejoin="round"/>
</g>
<defs>
<clipPath id="clip0_213_9155">
<rect width="48" height="48" fill="white"/>
</clipPath>
</defs>
</svg>
