<svg width="48" height="48" viewBox="0 0 48 48" fill="none" xmlns="http://www.w3.org/2000/svg">
<g id="Frame" clip-path="url(#clip0_30_3854)">
<g id="Group">
<path id="Vector" d="M7.65961 10.9156C8.45043 6.42113 12.1382 3.06786 17.0093 2.13832C16.0714 1.96569 15.1197 1.87894 14.166 1.87915C7.95993 1.87915 2.97122 5.5992 2.03577 10.9155C0.904425 17.3035 5.94806 23.029 13.0016 24.2761C15.1941 24.6623 17.0595 24.537 18.5108 24.2545C11.5176 22.9658 6.53455 17.2687 7.65961 10.9156Z" fill="#CEE1F2"/>
<path id="Vector_2" d="M5.2537 26.9744C4.21834 26.9744 3.37906 27.8136 3.37906 28.849V46.121C3.37906 47.1563 4.21834 47.9956 5.2537 47.9956C6.28907 47.9956 7.12835 47.1563 7.12835 46.121V28.849C7.12835 27.8136 6.28907 26.9744 5.2537 26.9744Z" fill="#B4E730"/>
<g id="Group_2">
<path id="Vector_3" d="M33.8332 0.00463867C31.1453 0.00463867 28.4692 0.62749 26.0942 1.80589C24.5674 2.56353 23.4321 2.56362 21.9053 1.80617C20.249 0.984328 17.5618 0.00463867 14.166 0.00463867C7.03358 0.00463867 1.28629 4.35785 0.189904 10.5888C-1.14241 18.1119 4.70189 24.7126 12.6766 26.1224C16.8935 26.8651 20.1673 25.9531 22.1711 25.0571C23.5385 24.4457 24.4616 24.4456 25.8287 25.0571C28.5661 26.2813 31.8289 26.7381 35.3261 26.1222C43.3108 24.7096 49.1372 18.0953 47.8117 10.598C46.7134 4.36075 40.9653 0.00463867 33.8332 0.00463867ZM34.6743 22.4299C31.3909 23.008 28.8843 22.3164 27.3592 21.6344C25.0049 20.5815 22.9955 20.5813 20.6405 21.6343C19.1154 22.3163 16.6084 23.0078 13.328 22.4301C7.37429 21.3775 2.92323 16.6535 3.88192 11.2405C4.65756 6.83247 8.88657 3.75393 14.1659 3.75393C16.8353 3.75393 18.9417 4.52113 20.2389 5.16479C22.8045 6.43776 25.1947 6.43776 27.7607 5.1645C29.0576 4.52103 31.1639 3.75393 33.8332 3.75393C39.1125 3.75393 43.3422 6.83566 44.119 11.248L44.1193 11.2496C45.0604 16.5676 40.7197 21.3604 34.6743 22.4299Z" fill="#7A4AF7"/>
<path id="Vector_4" d="M15.9334 7.66006C11.2619 6.83625 8.04569 9.21077 7.57216 11.8964C7.04848 14.8661 9.67429 17.9778 13.9803 18.7371C17.6263 19.3802 21.7324 17.9548 22.3415 14.5006C22.889 11.3949 20.0744 8.39014 15.9334 7.66006ZM14.6313 15.0448C12.6202 14.6902 11.1128 13.4082 11.2646 12.5475C11.4174 11.6804 13.2803 10.9995 15.2824 11.3525C17.5363 11.7499 18.7819 13.097 18.6492 13.8497C18.5088 14.6455 16.7771 15.423 14.6313 15.0448ZM32.0658 7.66006C27.9248 8.39024 25.1101 11.3949 25.6577 14.5006C26.1575 17.3351 29.5352 19.5278 34.0189 18.7371C38.1599 18.0069 40.9746 15.0022 40.427 11.8965C39.9011 8.91373 36.3552 6.90374 32.0658 7.66006ZM33.3679 15.0448C31.3565 15.3993 29.5018 14.7104 29.3501 13.8497C29.2174 13.0969 30.463 11.7499 32.7169 11.3525C35.0922 10.9338 36.6162 11.8756 36.7347 12.5475C36.8674 13.3002 35.6218 14.6472 33.3679 15.0448Z" fill="#7A4AF7"/>
</g>
</g>
</g>
<defs>
<clipPath id="clip0_30_3854">
<rect width="48" height="48" fill="white"/>
</clipPath>
</defs>
</svg>
