<svg width="49" height="48" viewBox="0 0 49 48" fill="none" xmlns="http://www.w3.org/2000/svg">
<g clip-path="url(#clip0_6_9180)">
<path d="M7.83301 18.375C7.83301 14.2328 11.1909 10.875 15.333 10.875H9.70801C5.56585 10.875 2.20801 14.2328 2.20801 18.375C2.20801 22.5172 5.56585 25.875 9.70801 25.875H15.333C11.1909 25.875 7.83301 22.5172 7.83301 18.375Z" fill="#CEE1F2"/>
<path d="M46.458 14.625C45.4224 14.625 44.583 15.4644 44.583 16.5V20.25C44.583 21.2856 45.4224 22.125 46.458 22.125C47.4936 22.125 48.333 21.2856 48.333 20.25V16.5C48.333 15.4644 47.4936 14.625 46.458 14.625Z" fill="#B4E730"/>
<path d="M9.70801 27.75H21.458C22.6671 27.75 23.8658 28.1496 24.833 28.8751L31.8352 34.127C32.8149 34.8616 33.9812 35.25 35.208 35.25C38.3096 35.25 40.833 32.7266 40.833 29.625V7.125C40.833 4.02338 38.3096 1.5 35.208 1.5C33.9812 1.5 32.8149 1.88841 31.8351 2.62312L24.833 7.875C23.8658 8.60053 22.6671 9 21.458 9H9.70801C4.53863 9 0.333008 13.2056 0.333008 18.375C0.333008 23.5444 4.53863 27.75 9.70801 27.75ZM9.70801 12.75H11.208V18.375C11.208 19.4106 12.0474 20.25 13.083 20.25C14.1186 20.25 14.958 19.4106 14.958 18.375V12.75H21.458C23.4732 12.75 25.4709 12.0841 27.0831 10.8749L34.0851 5.62322C34.4107 5.379 34.7989 5.25 35.208 5.25C36.2419 5.25 37.083 6.09113 37.083 7.125V29.625C37.083 30.6589 36.2419 31.5 35.208 31.5C34.7989 31.5 34.4107 31.371 34.0852 31.1269L27.0831 25.8751C25.4709 24.6659 23.4732 24 21.458 24H9.70801C6.60638 24 4.08301 21.4766 4.08301 18.375C4.08301 15.2734 6.60638 12.75 9.70801 12.75ZM14.958 35.25H16.833C17.8686 35.25 18.708 34.4106 18.708 33.375C18.708 32.3394 17.8686 31.5 16.833 31.5H13.083C12.0474 31.5 11.208 32.3394 11.208 33.375V40.875C11.208 41.9089 10.3669 42.75 9.33301 42.75C8.29913 42.75 7.45801 41.9089 7.45801 40.875V33.375C7.45801 32.3394 6.61857 31.5 5.58301 31.5C4.54745 31.5 3.70801 32.3394 3.70801 33.375V40.875C3.70801 43.9766 6.23138 46.5 9.33301 46.5C12.4346 46.5 14.958 43.9766 14.958 40.875V35.25Z" fill="#7A4AF7"/>
</g>
<defs>
<clipPath id="clip0_6_9180">
<rect width="48" height="48" fill="white" transform="translate(0.333008)"/>
</clipPath>
</defs>
</svg>
