<svg width="49" height="48" viewBox="0 0 49 48" fill="none" xmlns="http://www.w3.org/2000/svg">
<g id="Frame">
<g id="Group">
<path id="Vector" d="M22.2452 42.2224C18.3013 38.2282 12.6896 32.4782 12.1419 31.5509C11.2861 30.0633 10.9373 28.5735 11.5403 27.2196C11.1796 26.8407 10.7977 26.4525 10.3924 26.1215C8.36948 24.4692 6.41025 24.4297 4.85379 26.063C3.29733 27.6961 3.55711 29.6255 4.66488 31.551C5.21258 32.4782 10.8482 38.2282 14.792 42.2225C16.0131 43.459 17.4675 44.4407 19.071 45.1107C20.6745 45.7806 22.3951 46.1254 24.1329 46.1251L29.7762 46.1242L29.7021 45.9888C26.8725 45.5792 24.2542 44.2567 22.2452 42.2224Z" fill="#CEE1F2"/>
<path id="Vector_2" d="M6.36405 24.3651C8.01521 25.3866 10.182 24.8762 11.2035 23.2249C11.2658 23.1197 11.3339 23.0179 11.4074 22.9202C10.8955 21.8715 10.9158 20.5914 11.5751 19.5255C12.9423 17.299 15.159 15.5916 17.7441 14.8106C16.7047 14.5011 15.6259 14.3439 14.5414 14.3438C10.6563 14.3438 7.12166 16.4348 5.22394 19.5254C4.20242 21.1768 4.7129 23.3435 6.36405 24.3651Z" fill="#CEE1F2"/>
<path id="Vector_3" d="M31.1355 20.1566L26.8857 4.46024C26.3713 2.58793 24.4365 1.48709 22.5643 2.00151C20.692 2.51593 19.5912 4.45068 20.1056 6.3229L23.3542 18.5628" stroke="#7A4AF7" stroke-width="3.75007" stroke-miterlimit="10" stroke-linecap="round" stroke-linejoin="round"/>
<path id="Vector_4" d="M24.7604 21.1879C23.2088 17.1354 19.133 14.3441 14.5414 14.3441C10.6563 14.3441 7.12174 16.4351 5.22392 19.5257C4.2024 21.177 4.71279 23.3437 6.36404 24.3652C8.01528 25.3867 10.182 24.8763 11.2035 23.2251C11.8561 22.105 13.1916 21.3754 14.5838 21.3754C16.662 21.3754 18.2916 23.0576 18.2916 25.1254C18.2916 27.1932 16.662 28.8755 14.5838 28.8755C12.5501 28.8755 11.709 27.1968 10.3925 26.1215C8.36948 24.4693 6.41025 24.4298 4.85379 26.063C3.29733 27.6962 3.55711 29.6256 4.66488 31.5511C5.21258 32.4783 10.8482 38.2282 14.792 42.2225C16.0131 43.4591 17.4675 44.4408 19.071 45.1108C20.6745 45.7807 22.3951 46.1255 24.1329 46.1251L28.8855 46.1243M45.5732 34.8742V10.5453C45.5783 8.60357 43.8648 7.02545 41.9231 7.02039C39.9814 7.01532 38.3594 8.58519 38.3543 10.5269V20.1567L37.0079 6.33759C36.9631 4.39646 35.3532 2.85922 33.412 2.90403C31.4709 2.94884 29.9337 4.55875 29.9785 6.49988L31.323 21.1879" stroke="#7A4AF7" stroke-width="3.75007" stroke-miterlimit="10" stroke-linecap="round" stroke-linejoin="round"/>
<path id="Vector_5" d="M36.1014 46.1239C39.4919 46.1239 42.5236 44.3241 44.17 41.6277" stroke="#B4E730" stroke-width="3.75007" stroke-miterlimit="10" stroke-linecap="round" stroke-linejoin="round"/>
</g>
</g>
</svg>
