<svg width="49" height="48" viewBox="0 0 49 48" fill="none" xmlns="http://www.w3.org/2000/svg">
<g id="Frame" clip-path="url(#clip0_11_2505)">
<g id="Group">
<path id="Vector" d="M7.29228 27.8C7.77126 27.3196 8.37217 26.9787 9.03038 26.8143L30.2375 21.5124C30.456 21.4582 30.6789 21.4237 30.9036 21.4093C30.9718 20.3693 30.6095 19.3065 29.8146 18.5116C28.8485 17.5455 27.4864 17.2169 26.2509 17.5258L5.04377 22.8278C4.38558 22.9923 3.78468 23.3331 3.30568 23.8135C1.84163 25.2776 1.84163 27.6513 3.30568 29.1154C3.63985 29.4503 4.03453 29.7188 4.46878 29.9067L6.20013 30.6544C6.14483 29.6282 6.50848 28.5839 7.29228 27.8Z" fill="#CEE1F2"/>
<path id="Vector_2" d="M10.5093 32.5152L5.95664 37.0679C4.49259 38.5319 4.49259 40.9056 5.95664 42.3697C7.42068 43.8337 9.79441 43.8337 11.2585 42.3697L15.8111 37.817L18.4198 43.8574C18.6076 44.2917 18.8761 44.6864 19.2111 45.0205C20.6752 46.4846 23.0489 46.4846 24.513 45.0205C24.9935 44.5416 25.3343 43.9406 25.4987 43.2824L30.8006 22.0753C31.1095 20.8398 30.7809 19.4777 29.8148 18.5116C28.8487 17.5455 27.4866 17.2169 26.2511 17.5258L5.04377 22.8277C4.38558 22.9922 3.78468 23.333 3.30568 23.8134C1.84163 25.2775 1.84163 27.6512 3.30568 29.1153C3.63985 29.4502 4.03453 29.7187 4.46878 29.9066L10.5093 32.5152Z" stroke="#7A4AF7" stroke-width="3.74892" stroke-miterlimit="10" stroke-linecap="round" stroke-linejoin="round"/>
<path id="Vector_3" d="M38.961 19.6423H46.4588M35.6669 27.5949L40.9687 32.8968M15.3193 7.37146L20.6212 12.6733M28.5737 1.88135V9.37919M41.8283 7.37146L36.5264 12.6733" stroke="#B4E730" stroke-width="3.74892" stroke-miterlimit="10" stroke-linecap="round" stroke-linejoin="round"/>
</g>
</g>
<defs>
<clipPath id="clip0_11_2505">
<rect width="48" height="48" fill="white" transform="translate(0.333252)"/>
</clipPath>
</defs>
</svg>
