<svg width="48" height="48" viewBox="0 0 48 48" fill="none" xmlns="http://www.w3.org/2000/svg">
<g clip-path="url(#clip0_19_8086)">
<path d="M45.8498 5.951C45.9382 5.93704 46.026 5.9271 46.1135 5.91941C46.3222 3.53919 44.2261 1.54091 41.8205 1.92182C36.2213 2.80832 26.831 5.26269 20.0625 12.0313C16.1158 15.9779 13.6455 20.8118 12.0879 25.2699L16.1172 29.2992C17.6747 24.841 20.145 20.0072 24.0917 16.0605C30.8603 9.29188 40.2506 6.83741 45.8498 5.951Z" fill="#CEE1F2"/>
<path d="M12.1078 41.1994C10.6433 42.6639 1.87891 46.1249 1.87891 46.1249C1.87891 46.1249 5.34006 37.3605 6.80453 35.8962C8.269 34.4318 10.6434 34.4317 12.1079 35.8962C13.5723 37.3606 13.5722 39.7349 12.1078 41.1994Z" stroke="#B4E730" stroke-width="3.75" stroke-miterlimit="10" stroke-linecap="round" stroke-linejoin="round"/>
<path d="M41.5391 20.2838C44.229 15.1883 45.486 9.91626 46.0718 6.24633C46.4741 3.72586 44.3405 1.52283 41.8196 1.92201C36.2203 2.80861 26.8306 5.26317 20.0625 12.0314C16.1158 15.978 13.6455 20.8119 12.0879 25.27L22.7337 35.9158M22.7337 35.9158C27.1919 34.3582 32.0256 31.888 35.9723 27.9412C36.5597 32.0746 35.7676 36.3656 33.594 40.071C32.3439 42.2019 29.4131 42.595 27.6661 40.8481L22.7337 35.9158Z" stroke="#7A4AF7" stroke-width="3.75" stroke-miterlimit="10" stroke-linecap="round" stroke-linejoin="round"/>
<path d="M12.0887 25.2699L7.15621 20.3374C5.40927 18.5905 5.80236 15.6595 7.9333 14.4095C11.6388 12.2359 15.9307 11.4428 20.0642 12.0302" stroke="#7A4AF7" stroke-width="3.75" stroke-miterlimit="10" stroke-linecap="round" stroke-linejoin="round"/>
<path d="M30.6689 21.0845C32.74 21.0845 34.4189 19.4055 34.4189 17.3345C34.4189 15.2634 32.74 13.5845 30.6689 13.5845C28.5979 13.5845 26.9189 15.2634 26.9189 17.3345C26.9189 19.4055 28.5979 21.0845 30.6689 21.0845Z" stroke="#7A4AF7" stroke-width="3.75" stroke-miterlimit="10" stroke-linecap="round" stroke-linejoin="round"/>
<path d="M33.2949 4.05078L43.9527 14.7087" stroke="#7A4AF7" stroke-width="3.75" stroke-miterlimit="10" stroke-linecap="round" stroke-linejoin="round"/>
</g>
<defs>
<clipPath id="clip0_19_8086">
<rect width="48" height="48" fill="white"/>
</clipPath>
</defs>
</svg>
