<svg width="48" height="48" viewBox="0 0 48 48" fill="none" xmlns="http://www.w3.org/2000/svg">
<g clip-path="url(#clip0_19_2995)">
<path d="M7.5 38.625V9.375C7.5 5.23284 10.8578 1.875 15 1.875H9.375C5.23284 1.875 1.875 5.23284 1.875 9.375V38.625C1.875 42.7672 5.23284 46.125 9.375 46.125H15C10.8578 46.125 7.5 42.7672 7.5 38.625Z" fill="#CEE1F2"/>
<path d="M38.625 46.125H9.375C5.23284 46.125 1.875 42.7672 1.875 38.625V9.375C1.875 5.23284 5.23284 1.875 9.375 1.875H38.625C42.7672 1.875 46.125 5.23284 46.125 9.375V38.625C46.125 42.7672 42.7672 46.125 38.625 46.125Z" stroke="#7A4AF7" stroke-width="3.75" stroke-miterlimit="10" stroke-linecap="round" stroke-linejoin="round"/>
<path d="M15.6188 20.8446L22.2377 17.3141C22.78 17.0249 23.3854 16.874 24 16.875C24.6146 16.874 25.22 17.0249 25.7623 17.3141L32.3812 20.8446C32.9725 21.1599 33.375 21.783 33.375 22.5V27.375C33.375 30.1764 32.1462 32.6909 30.1983 34.4088L26.4793 37.6885C25.7951 38.2932 24.9131 38.6263 24 38.625C23.0869 38.6263 22.2049 38.2932 21.5207 37.6885L17.8029 34.4099C15.8542 32.6919 14.625 30.177 14.625 27.375V22.5C14.625 21.783 15.0275 21.1599 15.6188 20.8446Z" stroke="#B4E730" stroke-width="3.75" stroke-miterlimit="10" stroke-linecap="round" stroke-linejoin="round"/>
<path d="M9.375 9.375H23.625" stroke="#7A4AF7" stroke-width="3.75" stroke-miterlimit="10" stroke-linecap="round" stroke-linejoin="round"/>
</g>
<defs>
<clipPath id="clip0_19_2995">
<rect width="48" height="48" fill="white"/>
</clipPath>
</defs>
</svg>
