<svg width="48" height="48" viewBox="0 0 48 48" fill="none" xmlns="http://www.w3.org/2000/svg">
<g id="Frame">
<g id="Group">
<path id="Vector" d="M10.886 18.7899V15.5582C10.886 14.0966 11.759 12.8208 13.0732 12.1812C15.7686 10.8697 17.857 8.26324 18.3007 5.07382C18.5563 3.23617 20.1302 1.87363 21.9855 1.87354H16.3653C14.51 1.87354 12.9359 3.23608 12.6803 5.07382C12.2367 8.26324 10.1483 10.8697 7.45286 12.1812C6.13855 12.8207 5.26562 14.0965 5.26562 15.5582V18.7899C5.26562 30.4089 12.0102 40.9119 22.445 45.7876C23.4188 46.2425 24.5811 46.2425 25.5548 45.7876C25.978 45.5894 26.3966 45.3813 26.8101 45.1635C17.0932 40.054 10.886 29.9358 10.886 18.7899Z" fill="#CEE1F2"/>
<path id="Vector_2" d="M41.37 10.495C39.1171 9.39357 37.5097 7.21411 37.1752 4.80722C36.7943 2.06658 34.4129 0 31.6359 0H16.3653C13.5885 0 11.2067 2.07033 10.8249 4.81565C10.4846 7.26132 8.9178 9.38504 6.63343 10.4965C4.6342 11.4693 3.3923 13.4087 3.3923 15.5581V18.7898C3.3923 31.1098 10.5309 42.2884 21.6521 47.4847C22.3873 47.8282 23.1935 47.9999 24 47.9999C24.8064 47.9999 25.613 47.8281 26.348 47.4847C37.4654 42.2901 44.6078 31.1143 44.6078 18.7898V15.5584C44.6078 13.4116 43.3671 11.4714 41.37 10.495ZM40.8609 18.7898C40.8609 29.5895 34.5416 39.5206 24.7619 44.0901C24.292 44.3098 23.7081 44.3097 23.2382 44.0901C13.4584 39.5206 7.13916 29.5896 7.13916 18.7898V15.5581C7.13916 14.8544 7.57352 14.2059 8.27278 13.8657C11.682 12.2068 14.0236 9.01654 14.536 5.33178C14.6615 4.42823 15.4481 3.74686 16.3653 3.74686H31.6359C32.5532 3.74686 33.3392 4.42439 33.464 5.32298C33.9756 9.00277 36.3158 12.1945 39.7242 13.861C40.4253 14.2039 40.8609 14.8542 40.8609 15.5585V18.7898Z" fill="#7A4AF7"/>
<path id="Vector_3" d="M22.1266 14.9351C19.9461 15.7084 18.3798 17.7908 18.3798 20.2331C18.3798 23.3321 20.901 25.8534 24.0001 25.8534C25.0331 25.8534 25.8735 26.6938 25.8735 27.7268C25.8735 28.7598 25.0331 29.6003 24.0001 29.6003H20.2532C19.2185 29.6003 18.3798 30.439 18.3798 31.4737C18.3798 32.5084 19.2185 33.3471 20.2532 33.3471H22.1266V35.2206C22.1266 36.2553 22.9654 37.094 24.0001 37.094C25.0347 37.094 25.8735 36.2553 25.8735 35.2206V33.0249C28.054 32.2515 29.6203 30.1691 29.6203 27.7268C29.6203 24.6278 27.0991 22.1065 24.0001 22.1065C22.967 22.1065 22.1266 21.2661 22.1266 20.2331C22.1266 19.2001 22.967 18.3597 24.0001 18.3597H27.7469C28.7816 18.3597 29.6203 17.521 29.6203 16.4863C29.6203 15.4516 28.7816 14.6128 27.7469 14.6128H25.8735V12.7394C25.8735 11.7047 25.0347 10.866 24.0001 10.866C22.9654 10.866 22.1266 11.7047 22.1266 12.7394V14.9351Z" fill="#B4E730"/>
</g>
</g>
</svg>
