<svg width="48" height="48" viewBox="0 0 48 48" fill="none" xmlns="http://www.w3.org/2000/svg">
<g id="Frame" clip-path="url(#clip0_30_3736)">
<g id="Group">
<path id="Vector" d="M26.8116 45.9563C25.8928 46.0678 24.9544 46.125 24 46.125C11.5734 46.125 1.875 36.4266 1.875 24C1.875 11.5734 11.5734 1.875 24 1.875C24.9544 1.875 25.8928 1.93219 26.8116 2.04375C15.7659 3.3825 7.5 12.5287 7.5 24C7.5 35.4713 15.7659 44.6175 26.8116 45.9563Z" fill="#CEE1F2"/>
<path id="Vector_2" d="M14.0758 17.826L15.1742 16.7276C15.9052 15.9966 17.0947 15.9966 17.8258 16.7276L18.9242 17.826C19.2903 18.1921 19.7701 18.3752 20.25 18.3752C20.7299 18.3752 21.2097 18.1921 21.5758 17.826C22.3081 17.0937 22.3081 15.9066 21.5758 15.1744L20.4774 14.076C18.2843 11.8829 14.7157 11.8828 12.5225 14.076L11.4241 15.1744C10.6918 15.9066 10.6918 17.0938 11.4241 17.826C12.1564 18.5582 13.3435 18.5583 14.0758 17.826ZM29.0758 17.826L30.1742 16.7276C30.9053 15.9966 32.0947 15.9966 32.8259 16.7276L33.9243 17.826C34.2904 18.1921 34.7702 18.3752 35.25 18.3752C35.7298 18.3752 36.2097 18.1921 36.5759 17.826C37.3082 17.0937 37.3081 15.9066 36.5758 15.1744L35.4774 14.076C33.2842 11.8828 29.7157 11.8829 27.5226 14.076L26.4242 15.1744C25.6919 15.9066 25.6919 17.0938 26.4241 17.826C27.1566 18.5583 28.3437 18.5582 29.0758 17.826Z" fill="#B4E730"/>
<g id="Group_2">
<path id="Vector_3" d="M24 48C37.4679 48 48 37.4455 48 24C48 18.0209 45.8741 12.3306 42.014 7.97719C37.6699 3.07791 31.2494 0 24 0C10.5421 0 0 10.5421 0 24C0 37.4579 10.5421 48 24 48ZM24 3.75C35.469 3.75 44.25 12.6741 44.25 24C44.25 35.3309 35.464 44.25 24 44.25C12.6448 44.25 3.75 35.3551 3.75 24C3.75 12.6449 12.6448 3.75 24 3.75Z" fill="#7A4AF7"/>
<path id="Vector_4" d="M24 40.875C33.3049 40.875 40.875 33.3049 40.875 24C40.875 22.9644 40.0356 22.125 39 22.125C38.4822 22.125 38.0135 22.3349 37.6742 22.6742C37.3349 23.0135 37.6816 22.6663 37.6971 22.6518C37.6625 22.684 34.1255 25.875 24 25.875C13.8746 25.875 10.3375 22.684 10.3029 22.6518C10.3183 22.6661 10.3255 22.6738 10.3257 22.674C10.1518 22.4997 9.94514 22.3615 9.71763 22.2672C9.49012 22.173 9.24624 22.1247 9 22.125C7.96444 22.125 7.125 22.9644 7.125 24C7.125 33.3049 14.6951 40.875 24 40.875ZM24 29.625C28.9052 29.625 33.0822 28.9491 36.4151 27.6159C36.4928 27.5848 36.5692 27.5537 36.6443 27.5226C35.1012 33.0545 30.0173 37.125 24 37.125C17.9827 37.125 12.8988 33.0545 11.3557 27.5226C11.4309 27.5537 11.5072 27.5848 11.585 27.6159C14.9178 28.9491 19.0948 29.625 24 29.625Z" fill="#7A4AF7"/>
</g>
</g>
</g>
<defs>
<clipPath id="clip0_30_3736">
<rect width="48" height="48" fill="white"/>
</clipPath>
</defs>
</svg>
