<svg width="49" height="48" viewBox="0 0 49 48" fill="none" xmlns="http://www.w3.org/2000/svg">
<g clip-path="url(#clip0_19_10201)">
<path d="M7.83301 27.375C7.83301 24.431 9.53016 21.8845 11.9987 20.657C11.3432 20.1491 10.5372 19.8739 9.70801 19.875C5.56585 19.875 2.20801 23.2328 2.20801 27.375C2.20801 31.5172 5.56585 34.875 9.70801 34.875C10.5372 34.8761 11.3432 34.6009 11.9987 34.093C9.53016 32.8655 7.83301 30.319 7.83301 27.375Z" fill="#CEE1F2"/>
<path d="M38.958 34.875C36.887 34.875 35.208 33.196 35.208 31.125V23.625C35.208 21.554 36.887 19.875 38.958 19.875C43.1002 19.875 46.458 23.2328 46.458 27.375C46.458 31.5172 43.1002 34.875 38.958 34.875ZM38.958 34.875V38.625C38.958 40.696 37.279 42.375 35.208 42.375H28.083M9.70801 34.875C5.56585 34.875 2.20801 31.5172 2.20801 27.375C2.20801 23.2328 5.56585 19.875 9.70801 19.875C11.779 19.875 13.458 21.554 13.458 23.625V31.125C13.458 33.196 11.779 34.875 9.70801 34.875Z" stroke="#7A4AF7" stroke-width="3.75" stroke-miterlimit="10" stroke-linecap="round" stroke-linejoin="round"/>
<path d="M26.9843 45.0265C28.4487 43.562 28.4487 41.1877 26.9842 39.7232C25.5197 38.2588 23.1453 38.2588 21.6809 39.7233C20.2165 41.1878 20.2165 43.5622 21.681 45.0266C23.1455 46.491 25.5199 46.491 26.9843 45.0265Z" stroke="#7A4AF7" stroke-width="3.75" stroke-miterlimit="10" stroke-linecap="round" stroke-linejoin="round"/>
<path d="M10.1807 13.125C11.8458 6.65541 17.3436 1.875 24.3331 1.875C31.3225 1.875 36.8204 6.65541 38.4855 13.125" stroke="#B4E730" stroke-width="3.75" stroke-miterlimit="10" stroke-linecap="round" stroke-linejoin="round"/>
</g>
<defs>
<clipPath id="clip0_19_10201">
<rect width="48" height="48" fill="white" transform="translate(0.333008)"/>
</clipPath>
</defs>
</svg>
