<svg width="48" height="48" viewBox="0 0 48 48" fill="none" xmlns="http://www.w3.org/2000/svg">
<g id="Frame">
<g id="Group">
<path id="Vector" d="M5.625 44.625H9.64256C10.6781 44.625 11.5176 43.7856 11.5176 42.75C11.5176 41.7144 10.6781 40.875 9.64256 40.875H5.625C4.59113 40.875 3.75 40.0339 3.75 39V24C3.75 22.9661 4.59113 22.125 5.625 22.125H9.64256C10.6781 22.125 11.5176 21.2856 11.5176 20.25C11.5176 19.2144 10.6781 18.375 9.64256 18.375H5.625C2.52338 18.375 0 20.8984 0 24V39C0 42.1016 2.52338 44.625 5.625 44.625Z" fill="#7A4AF7"/>
<path id="Vector_2" d="M22.125 39V24C22.125 22.8692 22.6259 21.8558 23.4175 21.1685C23.7035 20.9202 23.9217 20.6034 24.0577 20.25H20.25C18.179 20.25 16.5 21.929 16.5 24V39C16.5 41.071 18.179 42.75 20.25 42.75H25.875C23.804 42.75 22.125 41.071 22.125 39Z" fill="#CEE1F2"/>
<path id="Vector_3" d="M47.6163 28.2481C47.8712 27.4829 48.0007 26.6815 48 25.875C48 21.7395 44.6355 18.375 40.5 18.375H35.25C34.2161 18.375 33.375 17.5339 33.375 16.5V9C33.375 5.89838 30.8516 3.375 27.75 3.375H24C22.9644 3.375 22.125 4.21444 22.125 5.25V16.5C22.125 17.5339 21.2839 18.375 20.25 18.375C17.1484 18.375 14.625 20.8984 14.625 24V39C14.625 42.1016 17.1484 44.625 20.25 44.625H36.75C38.3245 44.6267 39.8595 44.1323 41.137 43.2119C42.4145 42.2915 43.3695 40.992 43.8663 39.4979L47.6163 28.2481ZM40.3087 38.3121C40.0602 39.0591 39.5826 39.7088 38.9437 40.1689C38.3049 40.6289 37.5373 40.876 36.75 40.875H20.25C19.2161 40.875 18.375 40.0339 18.375 39V24C18.375 22.9661 19.2161 22.125 20.25 22.125C23.3516 22.125 25.875 19.6016 25.875 16.5V7.125H27.75C28.7839 7.125 29.625 7.96613 29.625 9V16.5C29.625 19.6016 32.1484 22.125 35.25 22.125H40.5C42.5677 22.125 44.25 23.8073 44.25 25.875C44.25 26.2822 44.1857 26.6814 44.0587 27.0621L40.3087 38.3121Z" fill="#7A4AF7"/>
<path id="Vector_4" d="M9 37.125C10.0355 37.125 10.875 36.2855 10.875 35.25C10.875 34.2145 10.0355 33.375 9 33.375C7.96447 33.375 7.125 34.2145 7.125 35.25C7.125 36.2855 7.96447 37.125 9 37.125Z" fill="#B4E730"/>
</g>
</g>
</svg>
