<svg width="49" height="48" viewBox="0 0 49 48" fill="none" xmlns="http://www.w3.org/2000/svg">
<g id="Frame" clip-path="url(#clip0_50_3979)">
<g id="Group">
<path id="Vector" d="M7.83301 42.375V19.875H5.95801C3.89551 19.875 2.20801 18.1875 2.20801 16.125V42.375C2.20801 44.4375 3.89551 46.125 5.95801 46.125H11.583C9.52051 46.125 7.83301 44.4375 7.83301 42.375Z" fill="#CEE1F2"/>
<path id="Vector_2" d="M13.083 12.375V5.625C13.083 3.55397 14.762 1.875 16.833 1.875H31.833C33.904 1.875 35.583 3.55397 35.583 5.625V12.375M20.583 12.375V1.875M28.083 12.375V9.375" stroke="#B4E730" stroke-width="3.75" stroke-miterlimit="10" stroke-linecap="round" stroke-linejoin="round"/>
<path id="Vector_3" d="M2.20801 16.125C2.20801 18.196 3.88698 19.875 5.95801 19.875H38.958C41.029 19.875 42.708 21.554 42.708 23.625V27.375" stroke="#7A4AF7" stroke-width="3.75" stroke-miterlimit="10" stroke-linecap="round" stroke-linejoin="round"/>
<path id="Vector_4" d="M42.708 38.625V42.375C42.708 44.446 41.029 46.125 38.958 46.125H5.95801C3.88698 46.125 2.20801 44.446 2.20801 42.375V16.125C2.20801 14.054 3.88698 12.375 5.95801 12.375" stroke="#7A4AF7" stroke-width="3.75" stroke-miterlimit="10" stroke-linecap="round" stroke-linejoin="round"/>
<path id="Vector_5" d="M42.708 38.625H37.083C33.9764 38.625 31.458 36.1066 31.458 33C31.458 29.8934 33.9764 27.375 37.083 27.375H42.708C44.779 27.375 46.458 29.054 46.458 31.125V34.875C46.458 36.946 44.779 38.625 42.708 38.625Z" stroke="#7A4AF7" stroke-width="3.75" stroke-miterlimit="10" stroke-linecap="round" stroke-linejoin="round"/>
</g>
</g>
<defs>
<clipPath id="clip0_50_3979">
<rect width="48" height="48" fill="white" transform="translate(0.333008)"/>
</clipPath>
</defs>
</svg>
