<svg width="29" height="29" viewBox="0 0 29 29" fill="none" xmlns="http://www.w3.org/2000/svg">
<path d="M20.7215 17C19.9062 17.0008 19.1037 17.2037 18.3848 17.5908C17.666 17.9779 17.053 18.5373 16.6 19.2195L16.481 19.3952H11.8676L11.7486 19.2195C11.0894 18.2328 10.1019 17.5152 8.96388 17.1957C7.82583 16.8762 6.61185 16.9759 5.54027 17.4767C4.46868 17.9775 3.60981 18.8466 3.11812 19.9277C2.62642 21.0089 2.53417 22.2311 2.85794 23.3746C3.18172 24.518 3.90028 25.5078 4.8844 26.1657C5.86852 26.8236 7.05361 27.1067 8.22656 26.9638C9.3995 26.821 10.4833 26.2617 11.2831 25.3865C12.0829 24.5114 12.5461 23.3778 12.5896 22.1896V21.7904H15.763V22.1896C15.8027 23.1659 16.1265 24.1089 16.6943 24.9016C17.262 25.6942 18.0487 26.3015 18.9566 26.648C19.8645 26.9944 20.8535 27.0648 21.8008 26.8504C22.7481 26.636 23.6118 26.1461 24.2848 25.4418C24.9578 24.7375 25.4103 23.8497 25.5861 22.8887C25.7619 21.9277 25.6532 20.9359 25.2736 20.0366C24.894 19.1373 24.2602 18.37 23.4509 17.8301C22.6416 17.2903 21.6925 17.0016 20.7215 17ZM7.63106 24.5848C7.1211 24.5848 6.62259 24.4326 6.19857 24.1475C5.77455 23.8623 5.44406 23.4571 5.24891 22.983C5.05375 22.5088 5.00269 21.9871 5.10218 21.4838C5.20167 20.9804 5.44724 20.5181 5.80784 20.1552C6.16844 19.7923 6.62787 19.5452 7.12804 19.445C7.6282 19.3449 8.14664 19.3963 8.61778 19.5927C9.08893 19.7891 9.49162 20.1217 9.77494 20.5484C10.0583 20.9751 10.2095 21.4768 10.2095 21.99C10.2095 22.3307 10.1428 22.6681 10.0132 22.983C9.88364 23.2978 9.69371 23.5838 9.45428 23.8248C9.21485 24.0657 8.93061 24.2568 8.61778 24.3872C8.30495 24.5176 7.96966 24.5848 7.63106 24.5848ZM20.7215 24.5848C20.2116 24.5848 19.713 24.4326 19.289 24.1475C18.865 23.8623 18.5345 23.4571 18.3394 22.983C18.1442 22.5088 18.0932 21.9871 18.1926 21.4838C18.2921 20.9804 18.5377 20.5181 18.8983 20.1552C19.2589 19.7923 19.7183 19.5452 20.2185 19.445C20.7187 19.3449 21.2371 19.3963 21.7082 19.5927C22.1794 19.7891 22.5821 20.1217 22.8654 20.5484C23.1487 20.9751 23.2999 21.4768 23.2999 21.99C23.2999 22.3307 23.2333 22.6681 23.1037 22.983C22.9741 23.2978 22.7842 23.5838 22.5447 23.8248C22.3053 24.0657 22.0211 24.2568 21.7082 24.3872C21.3954 24.5176 21.0601 24.5848 20.7215 24.5848Z" fill="#7A4AF7"/>
<path d="M24.518 11.5172H22.0033L20.7536 4.97517C20.5939 4.13545 20.1707 3.38091 19.5555 2.8389C18.9402 2.29688 18.1706 2.00058 17.3765 2H10.9595C10.1647 1.99963 9.39414 2.2955 8.7781 2.83759C8.16206 3.37968 7.73831 4.13475 7.57847 4.97517L6.33264 11.5172H3.81797C3.51297 11.5172 3.22046 11.648 3.0048 11.8808C2.78913 12.1136 2.66797 12.4294 2.66797 12.7586C2.66797 13.0879 2.78913 13.4036 3.0048 13.6364C3.22046 13.8692 3.51297 14 3.81797 14H24.518C24.823 14 25.1155 13.8692 25.3311 13.6364C25.5468 13.4036 25.668 13.0879 25.668 12.7586C25.668 12.4294 25.5468 12.1136 25.3311 11.8808C25.1155 11.648 24.823 11.5172 24.518 11.5172ZM8.68247 11.5172L9.83247 5.47586C9.88549 5.19547 10.0266 4.94346 10.232 4.76249C10.4374 4.58152 10.6944 4.4827 10.9595 4.48276H17.3765C17.6416 4.4827 17.8986 4.58152 18.1039 4.76249C18.3093 4.94346 18.4504 5.19547 18.5035 5.47586L19.6535 11.5172H8.68247Z" fill="#7A4AF7"/>
</svg>
