<svg width="28" height="29" viewBox="0 0 28 29" fill="none" xmlns="http://www.w3.org/2000/svg">
<g clip-path="url(#clip0_2508_18692)">
<path d="M27.9285 13.6928C27.8588 13.5256 27.7407 13.3827 27.5893 13.282C27.4379 13.1813 27.2598 13.1273 27.0775 13.127H22.3247L22.4159 12.5272L23.6317 4.07321C23.6495 3.94326 23.6392 3.81102 23.6014 3.68535C23.5636 3.55968 23.4992 3.44348 23.4125 3.34454C23.3258 3.24559 23.2188 3.16619 23.0987 3.11164C22.9786 3.05709 22.8481 3.02866 22.716 3.02825C22.5953 3.02817 22.4758 3.05179 22.3643 3.09775C22.2528 3.14372 22.1515 3.21113 22.0664 3.29609L10.4409 14.8396C10.3128 14.968 10.2258 15.1312 10.1908 15.3085C10.1558 15.4859 10.1744 15.6695 10.2442 15.8364C10.3141 16.0033 10.432 16.146 10.5833 16.2465C10.7345 16.347 10.9123 16.4009 11.0943 16.4014H15.8433L15.7559 17.0012L14.5402 25.4552C14.5217 25.5849 14.5315 25.7171 14.5688 25.8427C14.6061 25.9684 14.6702 26.0847 14.7566 26.1837C14.843 26.2827 14.9498 26.3622 15.0697 26.4168C15.1897 26.4714 15.32 26.4998 15.452 26.5001C15.6968 26.4996 15.9316 26.4034 16.1055 26.2323L27.7348 14.6887C27.8631 14.5606 27.95 14.3975 27.9845 14.2201C28.019 14.0427 27.9995 13.8592 27.9285 13.6928ZM23.9356 15.8582L17.8569 21.894L16.7171 23.0257L16.9413 21.4564L17.8189 15.613C17.8368 15.4835 17.8266 15.3518 17.789 15.2266C17.7514 15.1014 17.6872 14.9856 17.6009 14.887C17.5146 14.7884 17.408 14.7092 17.2883 14.6549C17.1687 14.6005 17.0387 14.5722 16.9071 14.5718H13.3169L14.2249 13.6702L20.3036 7.65321L21.4433 6.52149L21.2154 8.09081L20.3795 13.9041C20.3612 14.0326 20.3706 14.1635 20.407 14.2881C20.4435 14.4127 20.5062 14.5282 20.5909 14.627C20.6757 14.7258 20.7806 14.8056 20.8987 14.8611C21.0168 14.9166 21.1455 14.9466 21.2762 14.949H24.8664L23.9356 15.8582ZM9.63925 24.6705H0.901119C0.667 24.6854 0.447389 24.7883 0.286906 24.9582C0.126424 25.1282 0.0371094 25.3524 0.0371094 25.5853C0.0371094 25.8183 0.126424 26.0425 0.286906 26.2124C0.447389 26.3823 0.667 26.4852 0.901119 26.5001H9.63925C9.76521 26.5082 9.89149 26.4905 10.0103 26.4481C10.1291 26.4058 10.2379 26.3397 10.33 26.254C10.422 26.1682 10.4954 26.0647 10.5456 25.9497C10.5958 25.8346 10.6216 25.7106 10.6216 25.5853C10.6216 25.46 10.5958 25.336 10.5456 25.221C10.4954 25.106 10.422 25.0024 10.33 24.9167C10.2379 24.8309 10.1291 24.7648 10.0103 24.7225C9.89149 24.6802 9.76521 24.6625 9.63925 24.6705ZM6.73287 17.4539H2.3752C2.24924 17.4459 2.12296 17.4636 2.00415 17.5059C1.88535 17.5482 1.77655 17.6143 1.68448 17.7001C1.59241 17.7858 1.51903 17.8894 1.46886 18.0044C1.41869 18.1194 1.39281 18.2434 1.39281 18.3687C1.39281 18.494 1.41869 18.618 1.46886 18.7331C1.51903 18.8481 1.59241 18.9516 1.68448 19.0374C1.77655 19.1231 1.88535 19.1892 2.00415 19.2315C2.12296 19.2739 2.24924 19.2916 2.3752 19.2835H6.73287C6.85883 19.2916 6.98512 19.2739 7.10392 19.2315C7.22272 19.1892 7.33152 19.1231 7.42359 19.0374C7.51566 18.9516 7.58905 18.8481 7.63921 18.7331C7.68938 18.618 7.71527 18.494 7.71527 18.3687C7.71527 18.2434 7.68938 18.1194 7.63921 18.0044C7.58905 17.8894 7.51566 17.7858 7.42359 17.7001C7.33152 17.6143 7.22272 17.5482 7.10392 17.5059C6.98512 17.4636 6.85883 17.4459 6.73287 17.4539ZM15.471 3.02825H5.28158C5.15562 3.02022 5.02933 3.03791 4.91053 3.08025C4.79173 3.12259 4.68293 3.18867 4.59086 3.2744C4.49879 3.36014 4.4254 3.46371 4.37524 3.57872C4.32507 3.69373 4.29919 3.81773 4.29919 3.94306C4.29919 4.06839 4.32507 4.19239 4.37524 4.3074C4.4254 4.42241 4.49879 4.52598 4.59086 4.61172C4.68293 4.69745 4.79173 4.76353 4.91053 4.80587C5.02933 4.84821 5.15562 4.8659 5.28158 4.85787H15.452C15.6861 4.84293 15.9057 4.74005 16.0662 4.57014C16.2267 4.40022 16.316 4.17601 16.316 3.94306C16.316 3.71011 16.2267 3.4859 16.0662 3.31598C15.9057 3.14607 15.6861 3.04319 15.452 3.02825H15.471ZM8.18796 10.2411H3.82649C3.59237 10.256 3.37276 10.3589 3.21228 10.5288C3.0518 10.6987 2.96248 10.9229 2.96248 11.1559C2.96248 11.3888 3.0518 11.613 3.21228 11.783C3.37276 11.9529 3.59237 12.0558 3.82649 12.0707H8.18796C8.42208 12.0558 8.64169 11.9529 8.80217 11.783C8.96265 11.613 9.05197 11.3888 9.05197 11.1559C9.05197 10.9229 8.96265 10.6987 8.80217 10.5288C8.64169 10.3589 8.42208 10.256 8.18796 10.2411Z" fill="#7A4AF7"/>
</g>
<defs>
<clipPath id="clip0_2508_18692">
<rect width="28" height="28" fill="white" transform="translate(0 0.5)"/>
</clipPath>
</defs>
</svg>
