<svg width="28" height="29" viewBox="0 0 28 29" fill="none" xmlns="http://www.w3.org/2000/svg">
<path d="M19.5936 16.3907H15.9459C15.7162 16.3912 15.4961 16.4839 15.3338 16.6486C15.2539 16.7281 15.1903 16.8229 15.1466 16.9273C15.1029 17.0318 15.0799 17.144 15.0791 17.2574V26.6045C15.0789 26.7203 15.1012 26.8349 15.145 26.9419C15.1887 27.0488 15.2529 27.1459 15.3338 27.2277C15.4136 27.31 15.5088 27.3753 15.614 27.4195C15.7191 27.4638 15.832 27.4863 15.9459 27.4855H19.5936C19.8239 27.4846 20.0443 27.3913 20.2068 27.2262C20.3692 27.0611 20.4605 26.8376 20.4605 26.6045V17.2574C20.4567 17.0269 20.3639 16.807 20.2018 16.645C20.0398 16.4829 19.8214 16.3917 19.5936 16.3907ZM18.7233 25.7414H16.8163V18.1491H18.7233V25.7414ZM12.0541 13.9233H8.40991C8.29531 13.9233 8.18184 13.9462 8.07602 13.9907C7.97019 14.0352 7.87408 14.1004 7.79322 14.1826C7.71235 14.2647 7.64832 14.3623 7.60478 14.4696C7.56125 14.5769 7.53908 14.6918 7.53955 14.8078V26.626C7.53718 26.857 7.6249 27.0796 7.78367 27.2456C7.94798 27.4088 8.16908 27.5001 8.39929 27.4998H12.0435C12.2743 27.4998 12.4957 27.407 12.6589 27.2418C12.8221 27.0766 12.9138 26.8525 12.9138 26.6188V14.8007C12.9138 14.5689 12.8236 14.3464 12.6627 14.1815C12.5017 14.0166 12.2831 13.9225 12.0541 13.9197V13.9233ZM11.1837 25.7414H9.27672V15.6781H11.1837V25.7414ZM4.51453 19.8682H0.870356C0.640135 19.8682 0.419291 19.9605 0.256169 20.1249C0.0930468 20.2894 0.000935858 20.5125 0 20.7456V26.6188C0 26.8525 0.091698 27.0766 0.254921 27.2418C0.418145 27.407 0.639524 27.4998 0.870356 27.4998H4.51453C4.74536 27.4998 4.96674 27.407 5.12997 27.2418C5.29319 27.0766 5.38489 26.8525 5.38489 26.6188V20.7456C5.38395 20.5125 5.29184 20.2894 5.12872 20.1249C4.9656 19.9605 4.74475 19.8682 4.51453 19.8682ZM3.64418 25.7414H1.73717V21.6266H3.64418V25.7414ZM27.1296 10.7789H23.4855C23.3709 10.7789 23.2574 10.8018 23.1516 10.8463C23.0458 10.8908 22.9496 10.956 22.8688 11.0382C22.7879 11.1204 22.7239 11.2179 22.6803 11.3252C22.6368 11.4325 22.6146 11.5475 22.6151 11.6635V26.6188C22.6154 26.8525 22.707 27.0765 22.8699 27.242C22.9505 27.3241 23.0464 27.3892 23.1521 27.4334C23.2578 27.4777 23.3711 27.5003 23.4855 27.4998H27.1296C27.3605 27.4998 27.5819 27.407 27.7451 27.2418C27.9083 27.0766 28 26.8525 28 26.6188V11.6599C28 11.4262 27.9083 11.2022 27.7451 11.0369C27.5819 10.8717 27.3605 10.7789 27.1296 10.7789ZM26.2593 25.7414H24.3558V12.5373H26.2593V25.7414ZM27.7205 2.16595C27.6796 2.0122 27.6004 1.87163 27.4905 1.75769C27.3309 1.59564 27.1151 1.50311 26.8891 1.49984H22.2896C22.1709 1.49216 22.0519 1.50921 21.9399 1.54992C21.8279 1.59063 21.7254 1.65415 21.6386 1.73654C21.5519 1.81893 21.4827 1.91846 21.4355 2.02897C21.3882 2.13947 21.3638 2.25862 21.3638 2.37904C21.3638 2.49946 21.3882 2.6186 21.4355 2.72911C21.4827 2.83962 21.5519 2.93914 21.6386 3.02154C21.7254 3.10393 21.8279 3.16744 21.9399 3.20816C22.0519 3.24887 22.1709 3.26591 22.2896 3.25824H24.7662L24.6141 3.41223L16.3422 11.7817L16.2785 11.8425L16.2148 11.7817L10.791 6.29157C10.7105 6.20982 10.6148 6.14496 10.5095 6.1007C10.4041 6.05644 10.2912 6.03366 10.1772 6.03366C10.0631 6.03366 9.95018 6.05644 9.84484 6.1007C9.7395 6.14496 9.64383 6.20982 9.56331 6.29157C9.55269 6.30948 0.601466 15.3665 0.601466 15.3665C0.5207 15.448 0.456618 15.5449 0.412894 15.6515C0.36917 15.7581 0.346663 15.8724 0.346663 15.9879C0.346663 16.1033 0.36917 16.2176 0.412894 16.3242C0.456618 16.4309 0.5207 16.5277 0.601466 16.6092C0.681728 16.6918 0.777599 16.7572 0.883365 16.8015C0.98913 16.8458 1.10263 16.8681 1.21708 16.8671C1.33146 16.8675 1.44477 16.8449 1.55046 16.8007C1.65614 16.7564 1.75208 16.6913 1.8327 16.6092L10.1152 8.22188L10.1789 8.16099L10.2426 8.22188L15.67 13.7155C15.8329 13.8787 16.0528 13.9702 16.282 13.9702C16.5112 13.9702 16.7312 13.8787 16.8941 13.7155L25.856 4.65493L26.0081 4.50094V7.00783C26.0081 7.24148 26.0998 7.46556 26.263 7.63078C26.4262 7.796 26.6476 7.88882 26.8784 7.88882C27.1093 7.88882 27.3307 7.796 27.4939 7.63078C27.6571 7.46556 27.7488 7.24148 27.7488 7.00783V2.35218C27.7456 2.2893 27.7361 2.22691 27.7205 2.16595Z" fill="#7A4AF7"/>
</svg>
