<svg width="29" height="29" viewBox="0 0 29 29" fill="none" xmlns="http://www.w3.org/2000/svg">
<g clip-path="url(#clip0_2508_18716)">
<path d="M9.25031 24.282L14.1321 27.3655C14.2915 27.4674 14.477 27.521 14.6662 27.5198C14.8516 27.5109 15.0309 27.4502 15.1836 27.3446L20.082 24.282C22.1068 23.0121 23.7741 21.2467 24.9262 19.1527C26.0784 17.0587 26.6772 14.7054 26.6662 12.3154V4.27506C26.6656 4.05277 26.591 3.837 26.4543 3.66174C26.3176 3.48648 26.1264 3.36169 25.911 3.30705L14.9123 0.528189C14.7504 0.490604 14.582 0.490604 14.42 0.528189L3.42138 3.30705C3.20591 3.36169 3.01475 3.48648 2.87802 3.66174C2.74129 3.837 2.66675 4.05277 2.66617 4.27506V12.3154C2.65511 14.7054 3.25397 17.0587 4.40611 19.1527C5.55824 21.2467 7.22555 23.0121 9.25031 24.282ZM4.6606 5.08869L14.6745 2.58521L24.6884 5.10955V12.3696C24.6825 14.4112 24.1588 16.4179 23.1664 18.202C22.174 19.9862 20.7453 21.4895 19.0139 22.5713L14.6662 25.3168L10.3185 22.5713C8.58316 21.4821 7.15365 19.9691 6.16456 18.1749C5.17546 16.3807 4.65933 14.3642 4.66478 12.3154V5.05531L4.6606 5.08869Z" fill="#7A4AF7"/>
<path d="M12.3744 16.2795C12.5621 16.4668 12.8164 16.5719 13.0816 16.5719C13.3468 16.5719 13.6011 16.4668 13.7888 16.2795L20.1185 9.95405C20.2911 9.76356 20.3838 9.51399 20.3775 9.25702C20.3711 9.00004 20.2662 8.75534 20.0845 8.57357C19.9027 8.39181 19.658 8.2869 19.401 8.28058C19.144 8.27425 18.8945 8.36699 18.704 8.53959L13.0962 14.1599L10.6386 11.7023C10.4481 11.5297 10.1986 11.437 9.94159 11.4433C9.68461 11.4496 9.43991 11.5545 9.25814 11.7363C9.07638 11.9181 8.97147 12.1628 8.96515 12.4197C8.95882 12.6767 9.05156 12.9263 9.22416 13.1168L12.3744 16.2795Z" fill="#7A4AF7"/>
</g>
<defs>
<clipPath id="clip0_2508_18716">
<rect width="28" height="28" fill="white" transform="translate(0.666016 0.5)"/>
</clipPath>
</defs>
</svg>
