<svg width="30" height="30" viewBox="0 0 30 30" fill="none" xmlns="http://www.w3.org/2000/svg">
<g clip-path="url(#clip0_2508_17324)">
<path d="M29.5939 6.35031C29.4383 6.25478 29.2584 6.20593 29.0758 6.20956C28.8894 6.20991 28.7069 6.26302 28.5494 6.36272L22.1043 10.2085L21.5945 10.5106L21.3002 9.99733L15.8664 0.49685C15.7802 0.341043 15.6525 0.212096 15.4975 0.124282C15.2718 -0.00145847 15.0055 -0.0332966 14.7565 0.035668C14.5074 0.104633 14.2956 0.268844 14.167 0.49271L8.72902 10.0139L8.44303 10.5189L7.93736 10.2292L1.47563 6.50347C1.31933 6.4008 1.13633 6.34611 0.949244 6.34617C0.764052 6.33264 0.578781 6.37137 0.414566 6.45794C0.259652 6.56261 0.138188 6.70962 0.064688 6.88139C-0.00881165 7.05317 -0.0312386 7.24245 8.69222e-05 7.42661L3.12941 24.5358C3.17028 24.7605 3.28902 24.9637 3.46483 25.1098C3.64064 25.2558 3.86231 25.3355 4.091 25.3347H25.9175C26.1542 25.3291 26.3809 25.2379 26.5555 25.0781C26.7301 24.9182 26.8406 24.7005 26.8666 24.4654V24.424L29.9794 7.31484C30.0134 7.13411 29.9953 6.94743 29.927 6.77662C29.8587 6.60582 29.7432 6.45795 29.5939 6.35031ZM27.451 10.4651L25.1963 22.9089L25.1092 23.3849H4.9241L4.83706 22.9089L2.57815 10.4651L2.35433 9.22322L3.44441 9.85658L8.28967 12.6922C8.44189 12.7851 8.61697 12.8338 8.79533 12.833C8.87639 12.8338 8.9572 12.8241 9.03573 12.804C9.16267 12.7715 9.28189 12.7141 9.38648 12.6352C9.49107 12.5564 9.57894 12.4575 9.64502 12.3445L14.5069 3.8541L15.0125 2.97236L15.514 3.8541L20.3925 12.419C20.5268 12.644 20.744 12.8075 20.9976 12.8744C21.2495 12.9365 21.5157 12.8979 21.7395 12.7668L26.5848 9.869L27.679 9.21494L27.451 10.4651Z" fill="#7A4AF7"/>
<path d="M0.924216 5.72906H0.849609C1.03992 5.71861 1.23061 5.74102 1.4133 5.79529C1.25537 5.74499 1.08986 5.72257 0.924216 5.72906Z" fill="#91D1D9"/>
<path d="M26.8917 29.0269C26.8917 29.1546 26.8665 29.2811 26.8175 29.3992C26.7686 29.5172 26.6968 29.6244 26.6064 29.7148C26.5159 29.8051 26.4086 29.8768 26.2904 29.9256C26.1722 29.9745 26.0455 29.9997 25.9176 29.9997H4.11603C3.9825 30.0084 3.8486 29.9896 3.72262 29.9446C3.59663 29.8995 3.48125 29.8291 3.3836 29.7377C3.28595 29.6464 3.2081 29.5359 3.15489 29.4133C3.10168 29.2907 3.07422 29.1585 3.07422 29.0248C3.07422 28.8912 3.10168 28.7589 3.15489 28.6363C3.2081 28.5137 3.28595 28.4033 3.3836 28.3119C3.48125 28.2205 3.59663 28.1501 3.72262 28.105C3.8486 28.06 3.9825 28.0412 4.11603 28.0499H25.9176C26.1763 28.051 26.4241 28.1544 26.6066 28.3375C26.7892 28.5206 26.8917 28.7685 26.8917 29.0269Z" fill="#667198"/>
</g>
<defs>
<clipPath id="clip0_2508_17324">
<rect width="30" height="30" fill="white"/>
</clipPath>
</defs>
</svg>
