<svg width="29" height="30" viewBox="0 0 29 30" fill="none" xmlns="http://www.w3.org/2000/svg">
<g clip-path="url(#clip0_2508_17297)">
<path d="M21.3156 26.6703C21.7291 26.668 22.1363 26.5667 22.5041 26.3746C22.8719 26.1826 23.1901 25.9051 23.4329 25.5647C23.6756 25.2243 23.8361 24.8306 23.9014 24.4155C23.9666 24.0003 23.9348 23.5753 23.8085 23.175L21.8392 17.0021C21.8263 16.9591 21.8267 16.9132 21.8403 16.8704C21.8538 16.8276 21.88 16.7901 21.9151 16.7629L27.0678 12.9705C27.5154 12.6398 27.8486 12.1736 28.0198 11.6386C28.191 11.1036 28.1913 10.5273 28.0208 9.99215C27.8503 9.45697 27.5176 8.99036 27.0704 8.6591C26.6232 8.32785 26.0844 8.14893 25.5311 8.14795H19.1604C19.1162 8.14737 19.0732 8.133 19.0372 8.10678C19.0013 8.08057 18.9741 8.04377 18.9594 8.00135L16.9939 1.82851C16.8214 1.29409 16.4873 0.82872 16.0393 0.498785C15.5913 0.168851 15.0523 -0.00878906 14.4991 -0.00878906C13.946 -0.00878906 13.4069 0.168851 12.9589 0.498785C12.5109 0.82872 12.1768 1.29409 12.0044 1.82851L10.0389 8.00135C10.0242 8.04377 9.99697 8.08057 9.96101 8.10678C9.92505 8.133 9.88205 8.14737 9.8378 8.14795H3.46713C2.91547 8.15296 2.37942 8.33477 1.93527 8.66752C1.49113 9.00026 1.16153 9.46698 0.993385 10.0012C0.825245 10.5355 0.827131 11.1101 0.998779 11.6432C1.17043 12.1763 1.50309 12.6408 1.94941 12.9705L7.07933 16.7745C7.11517 16.8012 7.14205 16.8385 7.15631 16.8813C7.17056 16.9241 7.17151 16.9703 7.15901 17.0137L5.18976 23.1865C5.0197 23.7216 5.02041 24.2977 5.19179 24.8324C5.36316 25.367 5.69643 25.8329 6.14392 26.1633C6.59141 26.4938 7.13021 26.6719 7.68327 26.6722C8.23632 26.6724 8.7753 26.4949 9.22312 26.1649L14.3758 22.3455C14.4118 22.3194 14.4549 22.3054 14.4991 22.3054C14.5433 22.3054 14.5864 22.3194 14.6224 22.3455L19.7751 26.1534C20.2211 26.4886 20.761 26.6698 21.3156 26.6703ZM25.5273 9.90335C25.7156 9.90415 25.8988 9.96527 26.051 10.078C26.2031 10.1908 26.3165 10.3494 26.3749 10.5314C26.4333 10.7134 26.4338 10.9095 26.3763 11.0918C26.3188 11.2741 26.2063 11.4333 26.0547 11.5469L20.902 15.3547C20.5694 15.598 20.3217 15.9427 20.1948 16.3388C20.0678 16.7349 20.0684 17.1619 20.1963 17.5577L22.1693 23.7151C22.2268 23.8973 22.2263 24.0933 22.1679 24.2753C22.1096 24.4572 21.9963 24.6158 21.8442 24.7286C21.6922 24.8413 21.509 24.9025 21.3208 24.9034C21.1326 24.9043 20.9489 24.8449 20.7958 24.7336L15.6393 20.9257C15.3092 20.6794 14.9105 20.5465 14.501 20.5465C14.0916 20.5465 13.6928 20.6794 13.3627 20.9257L8.20624 24.7336C8.05314 24.8449 7.86944 24.9043 7.68123 24.9034C7.49302 24.9025 7.30988 24.8413 7.15781 24.7286C7.00574 24.6158 6.89248 24.4572 6.83412 24.2753C6.77576 24.0933 6.77526 23.8973 6.8327 23.7151L8.80195 17.5422C8.92986 17.1465 8.9304 16.7195 8.8035 16.3234C8.67659 15.9273 8.42884 15.5826 8.09621 15.3393L2.94352 11.5314C2.79219 11.4181 2.67978 11.2592 2.62221 11.0773C2.56464 10.8953 2.56483 10.6996 2.62275 10.5178C2.68068 10.336 2.7934 10.1773 2.94494 10.0643C3.09649 9.95121 3.27918 9.88952 3.46713 9.88792H9.8378C10.2475 9.88914 10.647 9.75786 10.9785 9.51305C11.3099 9.26823 11.5563 8.92257 11.6818 8.52604L13.6511 2.3532C13.7093 2.1711 13.8227 2.01241 13.975 1.89987C14.1273 1.78732 14.3108 1.72671 14.4991 1.72671C14.6874 1.72671 14.8709 1.78732 15.0232 1.89987C15.1756 2.01241 15.289 2.1711 15.3472 2.3532L17.3164 8.52604C17.4421 8.92217 17.6886 9.26733 18.0201 9.51149C18.3517 9.75566 18.7511 9.88615 19.1604 9.88406L25.5273 9.90335Z" fill="#7A4AF7"/>
<path d="M21.503 5.62506C21.6398 5.62507 21.7747 5.59223 21.8967 5.52922C22.0187 5.4662 22.1243 5.37478 22.2049 5.2624L23.6278 3.26781C23.7627 3.07902 23.8182 2.84351 23.7823 2.61306C23.7464 2.38262 23.6219 2.17614 23.4362 2.03903C23.2505 1.90191 23.0189 1.84541 22.7923 1.88195C22.5656 1.91849 22.3626 2.04507 22.2277 2.23386L20.8048 4.24389C20.7105 4.37443 20.6537 4.52914 20.641 4.69064C20.6282 4.85215 20.66 5.01407 20.7327 5.15824C20.8043 5.30105 20.9127 5.42138 21.0464 5.50634C21.1801 5.59129 21.334 5.63766 21.4916 5.64049L21.503 5.62506Z" fill="black"/>
<path d="M7.49799 5.62519C7.6556 5.62236 7.80949 5.57599 7.94317 5.49103C8.07685 5.40608 8.18528 5.28575 8.25685 5.14294C8.32819 5.00168 8.36025 4.8433 8.34955 4.68488C8.33885 4.52647 8.2858 4.37403 8.19614 4.24402L6.77327 2.24942C6.63615 2.06291 6.43372 1.9372 6.20792 1.89834C6.03909 1.87139 5.86619 1.89589 5.71104 1.96875C5.55589 2.0416 5.42543 2.15955 5.33614 2.30771C5.24684 2.45587 5.20271 2.62761 5.2093 2.80124C5.21589 2.97488 5.27291 3.14265 5.37317 3.28337L6.79604 5.27797C6.8783 5.3875 6.98462 5.47595 7.10651 5.53624C7.22839 5.59653 7.36246 5.62699 7.49799 5.62519Z" fill="black"/>
<path d="M0.864744 19.9306C0.955191 19.9302 1.04495 19.9146 1.13035 19.8843L3.4335 19.1127C3.63798 19.0304 3.80399 18.8721 3.89779 18.6699C3.9916 18.4677 4.00616 18.2368 3.93851 18.0241C3.87087 17.8113 3.72609 17.6328 3.53361 17.5247C3.34114 17.4166 3.1154 17.3871 2.9023 17.4421L0.595348 18.2137C0.398813 18.2782 0.231422 18.4119 0.123426 18.5909C0.0154297 18.7699 -0.0260491 18.9822 0.00648618 19.1895C0.039021 19.3969 0.143424 19.5855 0.300827 19.7214C0.45823 19.8574 0.658251 19.9315 0.864744 19.9306Z" fill="black"/>
<path d="M14.4982 29.9996C14.612 30.0001 14.7247 29.9777 14.8299 29.9337C14.9351 29.8897 15.0306 29.8249 15.1111 29.7431C15.1915 29.6613 15.2552 29.5642 15.2985 29.4572C15.3418 29.3502 15.3638 29.2356 15.3633 29.12V26.6586C15.3712 26.5384 15.3547 26.4179 15.3148 26.3045C15.275 26.1911 15.2127 26.0872 15.1318 25.9993C15.0508 25.9114 14.953 25.8413 14.8444 25.7933C14.7357 25.7454 14.6186 25.7207 14.5001 25.7207C14.3817 25.7207 14.2645 25.7454 14.1559 25.7933C14.0472 25.8413 13.9494 25.9114 13.8685 25.9993C13.7876 26.0872 13.7253 26.1911 13.6854 26.3045C13.6456 26.4179 13.6291 26.5384 13.6369 26.6586V29.12C13.6364 29.2353 13.6583 29.3496 13.7014 29.4563C13.7445 29.563 13.8078 29.66 13.8878 29.7417C13.9679 29.8235 14.063 29.8883 14.1677 29.9326C14.2725 29.9768 14.3848 29.9996 14.4982 29.9996Z" fill="black"/>
<path d="M28.1348 19.9306C28.3413 19.9315 28.5414 19.8574 28.6988 19.7214C28.8562 19.5855 28.9606 19.3969 28.9931 19.1895C29.0256 18.9822 28.9842 18.7699 28.8762 18.5909C28.7682 18.4119 28.6008 18.2782 28.4042 18.2137L26.0973 17.4421C25.8842 17.3871 25.6584 17.4166 25.466 17.5247C25.2735 17.6328 25.1287 17.8113 25.0611 18.0241C24.9934 18.2368 25.008 18.4677 25.1018 18.6699C25.1956 18.8721 25.3616 19.0304 25.5661 19.1127L27.8616 19.8843C27.947 19.9149 28.0368 19.9306 28.1273 19.9306H28.1348Z" fill="black"/>
</g>
<defs>
<clipPath id="clip0_2508_17297">
<rect width="29" height="30" fill="white" transform="matrix(-1 0 0 1 29 0)"/>
</clipPath>
</defs>
</svg>
