<svg width="232" height="24" viewBox="0 0 232 24" fill="none" xmlns="http://www.w3.org/2000/svg">
<path d="M8.00852 1.32866V18.7832H4.31818V4.8315H4.21591L0.21875 7.33718V4.06445L4.53977 1.32866H8.00852ZM19.0007 19.1667C17.5348 19.161 16.2734 18.8002 15.2166 18.0843C14.1655 17.3684 13.3558 16.3315 12.7876 14.9735C12.2251 13.6156 11.9467 11.9821 11.9524 10.073C11.9524 8.16957 12.2337 6.54741 12.7962 5.2065C13.3643 3.86559 14.174 2.8457 15.2251 2.14684C16.282 1.44229 17.5405 1.09002 19.0007 1.09002C20.4609 1.09002 21.7166 1.44229 22.7678 2.14684C23.8246 2.85138 24.6371 3.87411 25.2053 5.21502C25.7734 6.55025 26.0547 8.16957 26.049 10.073C26.049 11.9877 25.7649 13.6241 25.1967 14.9821C24.6342 16.34 23.8274 17.377 22.7763 18.0929C21.7251 18.8088 20.4666 19.1667 19.0007 19.1667ZM19.0007 16.1071C20.0007 16.1071 20.799 15.6042 21.3956 14.5985C21.9922 13.5929 22.2876 12.0843 22.282 10.073C22.282 8.74911 22.1456 7.64684 21.8729 6.76616C21.6058 5.88548 21.2251 5.22354 20.7308 4.78036C20.2422 4.33718 19.6655 4.11559 19.0007 4.11559C18.0064 4.11559 17.2109 4.61275 16.6143 5.60707C16.0178 6.60138 15.7166 8.09002 15.7109 10.073C15.7109 11.4139 15.8445 12.5332 16.1115 13.4309C16.3842 14.323 16.7678 14.9934 17.2621 15.4423C17.7564 15.8855 18.3359 16.1071 19.0007 16.1071ZM35.5241 19.1667C34.0582 19.161 32.7969 18.8002 31.7401 18.0843C30.6889 17.3684 29.8793 16.3315 29.3111 14.9735C28.7486 13.6156 28.4702 11.9821 28.4759 10.073C28.4759 8.16957 28.7571 6.54741 29.3196 5.2065C29.8878 3.86559 30.6974 2.8457 31.7486 2.14684C32.8054 1.44229 34.0639 1.09002 35.5241 1.09002C36.9844 1.09002 38.2401 1.44229 39.2912 2.14684C40.348 2.85138 41.1605 3.87411 41.7287 5.21502C42.2969 6.55025 42.5781 8.16957 42.5724 10.073C42.5724 11.9877 42.2884 13.6241 41.7202 14.9821C41.1577 16.34 40.3509 17.377 39.2997 18.0929C38.2486 18.8088 36.9901 19.1667 35.5241 19.1667ZM35.5241 16.1071C36.5241 16.1071 37.3224 15.6042 37.919 14.5985C38.5156 13.5929 38.8111 12.0843 38.8054 10.073C38.8054 8.74911 38.669 7.64684 38.3963 6.76616C38.1293 5.88548 37.7486 5.22354 37.2543 4.78036C36.7656 4.33718 36.1889 4.11559 35.5241 4.11559C34.5298 4.11559 33.7344 4.61275 33.1378 5.60707C32.5412 6.60138 32.2401 8.09002 32.2344 10.073C32.2344 11.4139 32.3679 12.5332 32.6349 13.4309C32.9077 14.323 33.2912 14.9934 33.7855 15.4423C34.2798 15.8855 34.8594 16.1071 35.5241 16.1071Z" fill="#7A4AF7"/>
<path d="M56.13 9.42525L52.8061 9.62979C52.7493 9.3457 52.6271 9.09002 52.4396 8.86275C52.2521 8.62979 52.005 8.44513 51.6982 8.30877C51.397 8.16673 51.0362 8.0957 50.6158 8.0957C50.0533 8.0957 49.5788 8.21502 49.1925 8.45366C48.8061 8.68661 48.6129 8.99911 48.6129 9.39116C48.6129 9.70366 48.7379 9.96786 48.9879 10.1838C49.2379 10.3997 49.6669 10.573 50.2749 10.7037L52.6442 11.1809C53.9169 11.4423 54.8658 11.8627 55.4908 12.4423C56.1158 13.0218 56.4283 13.7832 56.4283 14.7264C56.4283 15.5843 56.1754 16.3372 55.6697 16.9849C55.1697 17.6326 54.4822 18.1383 53.6072 18.502C52.7379 18.8599 51.7351 19.0389 50.5987 19.0389C48.8658 19.0389 47.4851 18.6781 46.4567 17.9565C45.4339 17.2292 44.8345 16.2406 44.6584 14.9906L48.2294 14.8031C48.3374 15.3315 48.5987 15.7349 49.0135 16.0133C49.4283 16.286 49.9595 16.4224 50.6072 16.4224C51.2436 16.4224 51.755 16.3002 52.1413 16.0559C52.5334 15.8059 52.7322 15.4849 52.7379 15.0929C52.7322 14.7633 52.593 14.4934 52.3203 14.2832C52.0476 14.0673 51.6271 13.9025 51.0589 13.7889L48.7919 13.3372C47.5135 13.0815 46.5618 12.6383 45.9368 12.0076C45.3175 11.377 45.0078 10.573 45.0078 9.5957C45.0078 8.75479 45.2351 8.03036 45.6896 7.42241C46.1499 6.81445 46.7947 6.3457 47.6243 6.01616C48.4595 5.68661 49.4368 5.52184 50.5561 5.52184C52.2095 5.52184 53.5107 5.87127 54.4595 6.57013C55.4141 7.269 55.9709 8.2207 56.13 9.42525ZM64.6804 19.0389C63.3338 19.0389 62.1747 18.7662 61.2031 18.2207C60.2372 17.6696 59.4929 16.8912 58.9702 15.8855C58.4474 14.8741 58.1861 13.6781 58.1861 12.2974C58.1861 10.9508 58.4474 9.769 58.9702 8.75195C59.4929 7.73491 60.2287 6.94229 61.1776 6.37411C62.1321 5.80593 63.2514 5.52184 64.5355 5.52184C65.3991 5.52184 66.2031 5.66104 66.9474 5.93945C67.6974 6.21218 68.3509 6.62411 68.9077 7.17525C69.4702 7.72638 69.9077 8.41957 70.2202 9.25479C70.5327 10.0843 70.6889 11.0559 70.6889 12.1696V13.1667H59.6349V10.9167H67.2713C67.2713 10.394 67.1577 9.93093 66.9304 9.52752C66.7031 9.12411 66.3878 8.80877 65.9844 8.5815C65.5866 8.34854 65.1236 8.23207 64.5952 8.23207C64.044 8.23207 63.5554 8.35991 63.1293 8.61559C62.7088 8.86559 62.3793 9.20366 62.1406 9.62979C61.902 10.0502 61.7798 10.519 61.7741 11.036V13.1752C61.7741 13.823 61.8935 14.3826 62.1321 14.8542C62.3764 15.3258 62.7202 15.6895 63.1634 15.9451C63.6065 16.2008 64.1321 16.3287 64.7401 16.3287C65.1435 16.3287 65.5128 16.2718 65.848 16.1582C66.1832 16.0446 66.4702 15.8741 66.7088 15.6468C66.9474 15.4196 67.1293 15.1412 67.2543 14.8116L70.6122 15.0332C70.4418 15.84 70.0923 16.5446 69.5639 17.1468C69.0412 17.7434 68.3651 18.2093 67.5355 18.5446C66.7116 18.8741 65.7599 19.0389 64.6804 19.0389ZM78.956 23.965C77.7798 23.965 76.7713 23.8031 75.9304 23.4792C75.0952 23.161 74.4304 22.7264 73.9361 22.1752C73.4418 21.6241 73.1207 21.0048 72.973 20.3173L76.331 19.8656C76.4332 20.127 76.5952 20.3713 76.8168 20.5985C77.0384 20.8258 77.331 21.0076 77.6946 21.144C78.0639 21.286 78.5128 21.3571 79.0412 21.3571C79.831 21.3571 80.4815 21.1639 80.9929 20.7775C81.5099 20.3968 81.7685 19.7576 81.7685 18.8599V16.465H81.6151C81.456 16.8287 81.2173 17.1724 80.8991 17.4963C80.581 17.8201 80.1719 18.0843 79.6719 18.2889C79.1719 18.4934 78.5753 18.5957 77.8821 18.5957C76.8991 18.5957 76.0043 18.3684 75.1974 17.9139C74.3963 17.4537 73.7571 16.752 73.2798 15.8088C72.8082 14.8599 72.5724 13.661 72.5724 12.2122C72.5724 10.7292 72.8139 9.49059 73.2969 8.49627C73.7798 7.50195 74.4219 6.75763 75.223 6.26332C76.0298 5.769 76.9134 5.52184 77.8736 5.52184C78.6065 5.52184 79.2202 5.64684 79.7145 5.89684C80.2088 6.14116 80.6065 6.44798 80.9077 6.81729C81.2145 7.18093 81.4503 7.53888 81.6151 7.89116H81.7514V5.69229H85.3565V18.911C85.3565 20.0247 85.0838 20.9565 84.5384 21.7065C83.9929 22.4565 83.2372 23.019 82.2713 23.394C81.3111 23.7747 80.206 23.965 78.956 23.965ZM79.0327 15.8684C79.6179 15.8684 80.1122 15.7235 80.5156 15.4338C80.9247 15.1383 81.2372 14.7179 81.4531 14.1724C81.6747 13.6213 81.7855 12.9622 81.7855 12.1951C81.7855 11.4281 81.6776 10.7633 81.4616 10.2008C81.2457 9.63263 80.9332 9.19229 80.5241 8.87979C80.1151 8.56729 79.6179 8.41104 79.0327 8.41104C78.4361 8.41104 77.9332 8.57298 77.5241 8.89684C77.1151 9.21502 76.8054 9.6582 76.5952 10.2264C76.3849 10.7946 76.2798 11.4508 76.2798 12.1951C76.2798 12.9508 76.3849 13.6042 76.5952 14.1554C76.8111 14.7008 77.1207 15.1241 77.5241 15.4252C77.9332 15.7207 78.4361 15.8684 79.0327 15.8684ZM96.6406 13.2093V5.69229H100.271V18.7832H96.7855V16.4054H96.6491C96.3537 17.1724 95.8622 17.7889 95.1747 18.2548C94.4929 18.7207 93.6605 18.9537 92.6776 18.9537C91.8026 18.9537 91.0327 18.7548 90.3679 18.3571C89.7031 17.9593 89.1832 17.394 88.8082 16.661C88.4389 15.9281 88.2514 15.0502 88.2457 14.0275V5.69229H91.8764V13.3798C91.8821 14.1525 92.0895 14.7633 92.4986 15.2122C92.9077 15.661 93.456 15.8855 94.1435 15.8855C94.581 15.8855 94.9901 15.786 95.3707 15.5872C95.7514 15.3826 96.0582 15.0815 96.2912 14.6838C96.5298 14.286 96.6463 13.7946 96.6406 13.2093ZM103.175 18.7832V5.69229H106.806V18.7832H103.175ZM104.999 4.00479C104.46 4.00479 103.996 3.82582 103.61 3.46786C103.229 3.10423 103.039 2.66957 103.039 2.16388C103.039 1.66388 103.229 1.23491 103.61 0.876953C103.996 0.513316 104.46 0.331498 104.999 0.331498C105.539 0.331498 105.999 0.513316 106.38 0.876953C106.766 1.23491 106.96 1.66388 106.96 2.16388C106.96 2.66957 106.766 3.10423 106.38 3.46786C105.999 3.82582 105.539 4.00479 104.999 4.00479ZM114.538 18.9963C113.544 18.9963 112.643 18.7406 111.837 18.2292C111.036 17.7122 110.399 16.9537 109.928 15.9537C109.462 14.948 109.229 13.715 109.229 12.2548C109.229 10.7548 109.47 9.50763 109.953 8.51332C110.436 7.51332 111.078 6.76616 111.879 6.27184C112.686 5.77184 113.57 5.52184 114.53 5.52184C115.263 5.52184 115.874 5.64684 116.362 5.89684C116.857 6.14116 117.254 6.44798 117.555 6.81729C117.862 7.18093 118.095 7.53888 118.254 7.89116H118.365V1.32866H121.987V18.7832H118.408V16.6866H118.254C118.084 17.0502 117.842 17.411 117.53 17.769C117.223 18.1213 116.822 18.4139 116.328 18.6468C115.839 18.8798 115.243 18.9963 114.538 18.9963ZM115.689 16.1071C116.274 16.1071 116.768 15.948 117.172 15.6298C117.581 15.3059 117.893 14.8542 118.109 14.2747C118.331 13.6951 118.442 13.0162 118.442 12.2377C118.442 11.4593 118.334 10.7832 118.118 10.2093C117.902 9.63548 117.589 9.19229 117.18 8.87979C116.771 8.56729 116.274 8.41104 115.689 8.41104C115.092 8.41104 114.589 8.57298 114.18 8.89684C113.771 9.2207 113.462 9.66957 113.251 10.2434C113.041 10.8173 112.936 11.4821 112.936 12.2377C112.936 12.9991 113.041 13.6724 113.251 14.2576C113.467 14.8372 113.777 15.2917 114.18 15.6213C114.589 15.9451 115.092 16.1071 115.689 16.1071ZM130.887 19.0389C129.563 19.0389 128.418 18.7576 127.452 18.1951C126.492 17.627 125.751 16.8372 125.228 15.8258C124.705 14.8088 124.444 13.6298 124.444 12.2889C124.444 10.9366 124.705 9.75479 125.228 8.74343C125.751 7.72638 126.492 6.93661 127.452 6.37411C128.418 5.80593 129.563 5.52184 130.887 5.52184C132.211 5.52184 133.353 5.80593 134.313 6.37411C135.279 6.93661 136.023 7.72638 136.546 8.74343C137.069 9.75479 137.33 10.9366 137.33 12.2889C137.33 13.6298 137.069 14.8088 136.546 15.8258C136.023 16.8372 135.279 17.627 134.313 18.1951C133.353 18.7576 132.211 19.0389 130.887 19.0389ZM130.904 16.2264C131.506 16.2264 132.009 16.0559 132.413 15.715C132.816 15.3684 133.12 14.8968 133.325 14.3002C133.535 13.7037 133.64 13.0247 133.64 12.2633C133.64 11.502 133.535 10.823 133.325 10.2264C133.12 9.62979 132.816 9.1582 132.413 8.81161C132.009 8.46502 131.506 8.29173 130.904 8.29173C130.296 8.29173 129.785 8.46502 129.37 8.81161C128.961 9.1582 128.651 9.62979 128.441 10.2264C128.237 10.823 128.134 11.502 128.134 12.2633C128.134 13.0247 128.237 13.7037 128.441 14.3002C128.651 14.8968 128.961 15.3684 129.37 15.715C129.785 16.0559 130.296 16.2264 130.904 16.2264ZM139.691 18.7832V5.69229H143.211V7.97638H143.347C143.586 7.16388 143.987 6.55025 144.549 6.13548C145.112 5.71502 145.759 5.50479 146.492 5.50479C146.674 5.50479 146.87 5.51616 147.08 5.53888C147.29 5.56161 147.475 5.59286 147.634 5.63263V8.85423C147.464 8.80309 147.228 8.75763 146.927 8.71786C146.626 8.67809 146.35 8.6582 146.1 8.6582C145.566 8.6582 145.089 8.77468 144.668 9.00763C144.254 9.23491 143.924 9.55309 143.68 9.96218C143.441 10.3713 143.322 10.8429 143.322 11.377V18.7832H139.691ZM154.868 19.0389C153.521 19.0389 152.362 18.7662 151.391 18.2207C150.425 17.6696 149.68 16.8912 149.158 15.8855C148.635 14.8741 148.374 13.6781 148.374 12.2974C148.374 10.9508 148.635 9.769 149.158 8.75195C149.68 7.73491 150.416 6.94229 151.365 6.37411C152.32 5.80593 153.439 5.52184 154.723 5.52184C155.587 5.52184 156.391 5.66104 157.135 5.93945C157.885 6.21218 158.538 6.62411 159.095 7.17525C159.658 7.72638 160.095 8.41957 160.408 9.25479C160.72 10.0843 160.876 11.0559 160.876 12.1696V13.1667H149.822V10.9167H157.459C157.459 10.394 157.345 9.93093 157.118 9.52752C156.891 9.12411 156.575 8.80877 156.172 8.5815C155.774 8.34854 155.311 8.23207 154.783 8.23207C154.232 8.23207 153.743 8.35991 153.317 8.61559C152.896 8.86559 152.567 9.20366 152.328 9.62979C152.089 10.0502 151.967 10.519 151.962 11.036V13.1752C151.962 13.823 152.081 14.3826 152.32 14.8542C152.564 15.3258 152.908 15.6895 153.351 15.9451C153.794 16.2008 154.32 16.3287 154.928 16.3287C155.331 16.3287 155.7 16.2718 156.036 16.1582C156.371 16.0446 156.658 15.8741 156.896 15.6468C157.135 15.4196 157.317 15.1412 157.442 14.8116L160.8 15.0332C160.629 15.84 160.28 16.5446 159.751 17.1468C159.229 17.7434 158.553 18.2093 157.723 18.5446C156.899 18.8741 155.947 19.0389 154.868 19.0389ZM174.138 9.42525L170.814 9.62979C170.757 9.3457 170.635 9.09002 170.447 8.86275C170.26 8.62979 170.013 8.44513 169.706 8.30877C169.405 8.16673 169.044 8.0957 168.624 8.0957C168.061 8.0957 167.587 8.21502 167.2 8.45366C166.814 8.68661 166.621 8.99911 166.621 9.39116C166.621 9.70366 166.746 9.96786 166.996 10.1838C167.246 10.3997 167.675 10.573 168.283 10.7037L170.652 11.1809C171.925 11.4423 172.874 11.8627 173.499 12.4423C174.124 13.0218 174.436 13.7832 174.436 14.7264C174.436 15.5843 174.183 16.3372 173.678 16.9849C173.178 17.6326 172.49 18.1383 171.615 18.502C170.746 18.8599 169.743 19.0389 168.607 19.0389C166.874 19.0389 165.493 18.6781 164.464 17.9565C163.442 17.2292 162.842 16.2406 162.666 14.9906L166.237 14.8031C166.345 15.3315 166.607 15.7349 167.021 16.0133C167.436 16.286 167.967 16.4224 168.615 16.4224C169.251 16.4224 169.763 16.3002 170.149 16.0559C170.541 15.8059 170.74 15.4849 170.746 15.0929C170.74 14.7633 170.601 14.4934 170.328 14.2832C170.055 14.0673 169.635 13.9025 169.067 13.7889L166.8 13.3372C165.521 13.0815 164.57 12.6383 163.945 12.0076C163.325 11.377 163.016 10.573 163.016 9.5957C163.016 8.75479 163.243 8.03036 163.697 7.42241C164.158 6.81445 164.803 6.3457 165.632 6.01616C166.467 5.68661 167.445 5.52184 168.564 5.52184C170.217 5.52184 171.518 5.87127 172.467 6.57013C173.422 7.269 173.979 8.2207 174.138 9.42525Z" fill="#C7F74A"/>
<path d="M178.844 19.0048C178.282 19.0048 177.799 18.8059 177.396 18.4082C176.998 18.0048 176.799 17.5218 176.799 16.9593C176.799 16.4025 176.998 15.9252 177.396 15.5275C177.799 15.1298 178.282 14.9309 178.844 14.9309C179.39 14.9309 179.867 15.1298 180.276 15.5275C180.685 15.9252 180.89 16.4025 180.89 16.9593C180.89 17.3343 180.793 17.6781 180.6 17.9906C180.413 18.2974 180.165 18.5446 179.859 18.7321C179.552 18.9139 179.214 19.0048 178.844 19.0048ZM189.786 19.0389C188.445 19.0389 187.291 18.7548 186.325 18.1866C185.365 17.6127 184.626 16.8173 184.109 15.8002C183.598 14.7832 183.342 13.6127 183.342 12.2889C183.342 10.948 183.601 9.77184 184.118 8.76048C184.641 7.74343 185.382 6.95082 186.342 6.38263C187.303 5.80877 188.445 5.52184 189.768 5.52184C190.911 5.52184 191.911 5.72923 192.768 6.144C193.626 6.55877 194.305 7.14116 194.805 7.89116C195.305 8.64116 195.581 9.52184 195.632 10.5332H192.206C192.109 9.87979 191.854 9.35423 191.439 8.9565C191.03 8.55309 190.493 8.35138 189.828 8.35138C189.266 8.35138 188.774 8.50479 188.354 8.81161C187.939 9.11275 187.615 9.55309 187.382 10.1326C187.149 10.7122 187.033 11.4139 187.033 12.2377C187.033 13.073 187.146 13.7832 187.374 14.3684C187.607 14.9537 187.933 15.3997 188.354 15.7065C188.774 16.0133 189.266 16.1667 189.828 16.1667C190.243 16.1667 190.615 16.0815 190.945 15.911C191.28 15.7406 191.555 15.4934 191.771 15.1696C191.993 14.84 192.138 14.4451 192.206 13.9849H195.632C195.575 14.9849 195.303 15.8656 194.814 16.627C194.331 17.3826 193.663 17.9735 192.811 18.3997C191.959 18.8258 190.95 19.0389 189.786 19.0389ZM203.871 19.0389C202.548 19.0389 201.403 18.7576 200.437 18.1951C199.477 17.627 198.735 16.8372 198.212 15.8258C197.69 14.8088 197.428 13.6298 197.428 12.2889C197.428 10.9366 197.69 9.75479 198.212 8.74343C198.735 7.72638 199.477 6.93661 200.437 6.37411C201.403 5.80593 202.548 5.52184 203.871 5.52184C205.195 5.52184 206.337 5.80593 207.298 6.37411C208.263 6.93661 209.008 7.72638 209.531 8.74343C210.053 9.75479 210.315 10.9366 210.315 12.2889C210.315 13.6298 210.053 14.8088 209.531 15.8258C209.008 16.8372 208.263 17.627 207.298 18.1951C206.337 18.7576 205.195 19.0389 203.871 19.0389ZM203.888 16.2264C204.491 16.2264 204.994 16.0559 205.397 15.715C205.8 15.3684 206.104 14.8968 206.309 14.3002C206.519 13.7037 206.624 13.0247 206.624 12.2633C206.624 11.502 206.519 10.823 206.309 10.2264C206.104 9.62979 205.8 9.1582 205.397 8.81161C204.994 8.46502 204.491 8.29173 203.888 8.29173C203.281 8.29173 202.769 8.46502 202.354 8.81161C201.945 9.1582 201.636 9.62979 201.425 10.2264C201.221 10.823 201.119 11.502 201.119 12.2633C201.119 13.0247 201.221 13.7037 201.425 14.3002C201.636 14.8968 201.945 15.3684 202.354 15.715C202.769 16.0559 203.281 16.2264 203.888 16.2264ZM212.675 18.7832V5.69229H216.136V8.00195H216.289C216.562 7.23491 217.016 6.62979 217.653 6.18661C218.289 5.74343 219.05 5.52184 219.937 5.52184C220.835 5.52184 221.599 5.74627 222.229 6.19513C222.86 6.63832 223.281 7.24059 223.491 8.00195H223.627C223.894 7.25195 224.377 6.65252 225.076 6.20366C225.781 5.74911 226.613 5.52184 227.573 5.52184C228.795 5.52184 229.786 5.91104 230.548 6.68945C231.315 7.46218 231.698 8.55877 231.698 9.97923V18.7832H228.076V10.6951C228.076 9.96786 227.883 9.42241 227.496 9.05877C227.11 8.69513 226.627 8.51332 226.048 8.51332C225.388 8.51332 224.874 8.72354 224.505 9.144C224.136 9.55877 223.951 10.1071 223.951 10.7889V18.7832H220.431V10.6184C220.431 9.97638 220.246 9.46502 219.877 9.08434C219.513 8.70366 219.033 8.51332 218.437 8.51332C218.033 8.51332 217.67 8.61559 217.346 8.82013C217.028 9.019 216.775 9.30025 216.587 9.66388C216.4 10.0218 216.306 10.4423 216.306 10.9252V18.7832H212.675Z" fill="white"/>
</svg>
