<svg width="232" height="25" viewBox="0 0 232 25" fill="none" xmlns="http://www.w3.org/2000/svg">
<path d="M8.00852 1.54545V19H4.31818V5.04829H4.21591L0.21875 7.55398V4.28125L4.53977 1.54545H8.00852ZM19.0007 19.3835C17.5348 19.3778 16.2734 19.017 15.2166 18.3011C14.1655 17.5852 13.3558 16.5483 12.7876 15.1903C12.2251 13.8324 11.9467 12.1989 11.9524 10.2898C11.9524 8.38636 12.2337 6.7642 12.7962 5.42329C13.3643 4.08239 14.174 3.0625 15.2251 2.36364C16.282 1.65909 17.5405 1.30682 19.0007 1.30682C20.4609 1.30682 21.7166 1.65909 22.7678 2.36364C23.8246 3.06818 24.6371 4.09091 25.2053 5.43182C25.7734 6.76705 26.0547 8.38636 26.049 10.2898C26.049 12.2045 25.7649 13.8409 25.1967 15.1989C24.6342 16.5568 23.8274 17.5937 22.7763 18.3097C21.7251 19.0256 20.4666 19.3835 19.0007 19.3835ZM19.0007 16.3239C20.0007 16.3239 20.799 15.821 21.3956 14.8153C21.9922 13.8097 22.2876 12.3011 22.282 10.2898C22.282 8.96591 22.1456 7.86364 21.8729 6.98295C21.6058 6.10227 21.2251 5.44034 20.7308 4.99716C20.2422 4.55398 19.6655 4.33239 19.0007 4.33239C18.0064 4.33239 17.2109 4.82955 16.6143 5.82386C16.0178 6.81818 15.7166 8.30682 15.7109 10.2898C15.7109 11.6307 15.8445 12.75 16.1115 13.6477C16.3842 14.5398 16.7678 15.2102 17.2621 15.6591C17.7564 16.1023 18.3359 16.3239 19.0007 16.3239ZM35.5241 19.3835C34.0582 19.3778 32.7969 19.017 31.7401 18.3011C30.6889 17.5852 29.8793 16.5483 29.3111 15.1903C28.7486 13.8324 28.4702 12.1989 28.4759 10.2898C28.4759 8.38636 28.7571 6.7642 29.3196 5.42329C29.8878 4.08239 30.6974 3.0625 31.7486 2.36364C32.8054 1.65909 34.0639 1.30682 35.5241 1.30682C36.9844 1.30682 38.2401 1.65909 39.2912 2.36364C40.348 3.06818 41.1605 4.09091 41.7287 5.43182C42.2969 6.76705 42.5781 8.38636 42.5724 10.2898C42.5724 12.2045 42.2884 13.8409 41.7202 15.1989C41.1577 16.5568 40.3509 17.5937 39.2997 18.3097C38.2486 19.0256 36.9901 19.3835 35.5241 19.3835ZM35.5241 16.3239C36.5241 16.3239 37.3224 15.821 37.919 14.8153C38.5156 13.8097 38.8111 12.3011 38.8054 10.2898C38.8054 8.96591 38.669 7.86364 38.3963 6.98295C38.1293 6.10227 37.7486 5.44034 37.2543 4.99716C36.7656 4.55398 36.1889 4.33239 35.5241 4.33239C34.5298 4.33239 33.7344 4.82955 33.1378 5.82386C32.5412 6.81818 32.2401 8.30682 32.2344 10.2898C32.2344 11.6307 32.3679 12.75 32.6349 13.6477C32.9077 14.5398 33.2912 15.2102 33.7855 15.6591C34.2798 16.1023 34.8594 16.3239 35.5241 16.3239Z" fill="black"/>
<path d="M56.13 9.64205L52.8061 9.84659C52.7493 9.5625 52.6271 9.30682 52.4396 9.07955C52.2521 8.84659 52.005 8.66193 51.6982 8.52557C51.397 8.38352 51.0362 8.3125 50.6158 8.3125C50.0533 8.3125 49.5788 8.43182 49.1925 8.67045C48.8061 8.90341 48.6129 9.21591 48.6129 9.60795C48.6129 9.92045 48.7379 10.1847 48.9879 10.4006C49.2379 10.6165 49.6669 10.7898 50.2749 10.9205L52.6442 11.3977C53.9169 11.6591 54.8658 12.0795 55.4908 12.6591C56.1158 13.2386 56.4283 14 56.4283 14.9432C56.4283 15.8011 56.1754 16.554 55.6697 17.2017C55.1697 17.8494 54.4822 18.3551 53.6072 18.7188C52.7379 19.0767 51.7351 19.2557 50.5987 19.2557C48.8658 19.2557 47.4851 18.8949 46.4567 18.1733C45.4339 17.446 44.8345 16.4574 44.6584 15.2074L48.2294 15.0199C48.3374 15.5483 48.5987 15.9517 49.0135 16.2301C49.4283 16.5028 49.9595 16.6392 50.6072 16.6392C51.2436 16.6392 51.755 16.517 52.1413 16.2727C52.5334 16.0227 52.7322 15.7017 52.7379 15.3097C52.7322 14.9801 52.593 14.7102 52.3203 14.5C52.0476 14.2841 51.6271 14.1193 51.0589 14.0057L48.7919 13.554C47.5135 13.2983 46.5618 12.8551 45.9368 12.2244C45.3175 11.5937 45.0078 10.7898 45.0078 9.8125C45.0078 8.97159 45.2351 8.24716 45.6896 7.6392C46.1499 7.03125 46.7947 6.5625 47.6243 6.23295C48.4595 5.90341 49.4368 5.73864 50.5561 5.73864C52.2095 5.73864 53.5107 6.08807 54.4595 6.78693C55.4141 7.4858 55.9709 8.4375 56.13 9.64205ZM64.6804 19.2557C63.3338 19.2557 62.1747 18.983 61.2031 18.4375C60.2372 17.8864 59.4929 17.108 58.9702 16.1023C58.4474 15.0909 58.1861 13.8949 58.1861 12.5142C58.1861 11.1676 58.4474 9.9858 58.9702 8.96875C59.4929 7.9517 60.2287 7.15909 61.1776 6.59091C62.1321 6.02273 63.2514 5.73864 64.5355 5.73864C65.3991 5.73864 66.2031 5.87784 66.9474 6.15625C67.6974 6.42898 68.3509 6.84091 68.9077 7.39205C69.4702 7.94318 69.9077 8.63636 70.2202 9.47159C70.5327 10.3011 70.6889 11.2727 70.6889 12.3864V13.3835H59.6349V11.1335H67.2713C67.2713 10.6108 67.1577 10.1477 66.9304 9.74432C66.7031 9.34091 66.3878 9.02557 65.9844 8.7983C65.5866 8.56534 65.1236 8.44886 64.5952 8.44886C64.044 8.44886 63.5554 8.5767 63.1293 8.83239C62.7088 9.08239 62.3793 9.42045 62.1406 9.84659C61.902 10.267 61.7798 10.7358 61.7741 11.2528V13.392C61.7741 14.0398 61.8935 14.5994 62.1321 15.071C62.3764 15.5426 62.7202 15.9062 63.1634 16.1619C63.6065 16.4176 64.1321 16.5455 64.7401 16.5455C65.1435 16.5455 65.5128 16.4886 65.848 16.375C66.1832 16.2614 66.4702 16.0909 66.7088 15.8636C66.9474 15.6364 67.1293 15.358 67.2543 15.0284L70.6122 15.25C70.4418 16.0568 70.0923 16.7614 69.5639 17.3636C69.0412 17.9602 68.3651 18.4261 67.5355 18.7614C66.7116 19.0909 65.7599 19.2557 64.6804 19.2557ZM78.956 24.1818C77.7798 24.1818 76.7713 24.0199 75.9304 23.696C75.0952 23.3778 74.4304 22.9432 73.9361 22.392C73.4418 21.8409 73.1207 21.2216 72.973 20.5341L76.331 20.0824C76.4332 20.3438 76.5952 20.5881 76.8168 20.8153C77.0384 21.0426 77.331 21.2244 77.6946 21.3608C78.0639 21.5028 78.5128 21.5739 79.0412 21.5739C79.831 21.5739 80.4815 21.3807 80.9929 20.9943C81.5099 20.6136 81.7685 19.9744 81.7685 19.0767V16.6818H81.6151C81.456 17.0455 81.2173 17.3892 80.8991 17.7131C80.581 18.0369 80.1719 18.3011 79.6719 18.5057C79.1719 18.7102 78.5753 18.8125 77.8821 18.8125C76.8991 18.8125 76.0043 18.5852 75.1974 18.1307C74.3963 17.6705 73.7571 16.9687 73.2798 16.0256C72.8082 15.0767 72.5724 13.8778 72.5724 12.429C72.5724 10.946 72.8139 9.70739 73.2969 8.71307C73.7798 7.71875 74.4219 6.97443 75.223 6.48011C76.0298 5.9858 76.9134 5.73864 77.8736 5.73864C78.6065 5.73864 79.2202 5.86364 79.7145 6.11364C80.2088 6.35795 80.6065 6.66477 80.9077 7.03409C81.2145 7.39773 81.4503 7.75568 81.6151 8.10795H81.7514V5.90909H85.3565V19.1278C85.3565 20.2415 85.0838 21.1733 84.5384 21.9233C83.9929 22.6733 83.2372 23.2358 82.2713 23.6108C81.3111 23.9915 80.206 24.1818 78.956 24.1818ZM79.0327 16.0852C79.6179 16.0852 80.1122 15.9403 80.5156 15.6506C80.9247 15.3551 81.2372 14.9347 81.4531 14.3892C81.6747 13.8381 81.7855 13.179 81.7855 12.4119C81.7855 11.6449 81.6776 10.9801 81.4616 10.4176C81.2457 9.84943 80.9332 9.40909 80.5241 9.09659C80.1151 8.78409 79.6179 8.62784 79.0327 8.62784C78.4361 8.62784 77.9332 8.78977 77.5241 9.11364C77.1151 9.43182 76.8054 9.875 76.5952 10.4432C76.3849 11.0114 76.2798 11.6676 76.2798 12.4119C76.2798 13.1676 76.3849 13.821 76.5952 14.3722C76.8111 14.9176 77.1207 15.3409 77.5241 15.642C77.9332 15.9375 78.4361 16.0852 79.0327 16.0852ZM96.6406 13.4261V5.90909H100.271V19H96.7855V16.6222H96.6491C96.3537 17.3892 95.8622 18.0057 95.1747 18.4716C94.4929 18.9375 93.6605 19.1705 92.6776 19.1705C91.8026 19.1705 91.0327 18.9716 90.3679 18.5739C89.7031 18.1761 89.1832 17.6108 88.8082 16.8778C88.4389 16.1449 88.2514 15.267 88.2457 14.2443V5.90909H91.8764V13.5966C91.8821 14.3693 92.0895 14.9801 92.4986 15.429C92.9077 15.8778 93.456 16.1023 94.1435 16.1023C94.581 16.1023 94.9901 16.0028 95.3707 15.804C95.7514 15.5994 96.0582 15.2983 96.2912 14.9006C96.5298 14.5028 96.6463 14.0114 96.6406 13.4261ZM103.175 19V5.90909H106.806V19H103.175ZM104.999 4.22159C104.46 4.22159 103.996 4.04261 103.61 3.68466C103.229 3.32102 103.039 2.88636 103.039 2.38068C103.039 1.88068 103.229 1.4517 103.61 1.09375C103.996 0.730113 104.46 0.548295 104.999 0.548295C105.539 0.548295 105.999 0.730113 106.38 1.09375C106.766 1.4517 106.96 1.88068 106.96 2.38068C106.96 2.88636 106.766 3.32102 106.38 3.68466C105.999 4.04261 105.539 4.22159 104.999 4.22159ZM114.538 19.2131C113.544 19.2131 112.643 18.9574 111.837 18.446C111.036 17.929 110.399 17.1705 109.928 16.1705C109.462 15.1648 109.229 13.9318 109.229 12.4716C109.229 10.9716 109.47 9.72443 109.953 8.73011C110.436 7.73011 111.078 6.98295 111.879 6.48864C112.686 5.98864 113.57 5.73864 114.53 5.73864C115.263 5.73864 115.874 5.86364 116.362 6.11364C116.857 6.35795 117.254 6.66477 117.555 7.03409C117.862 7.39773 118.095 7.75568 118.254 8.10795H118.365V1.54545H121.987V19H118.408V16.9034H118.254C118.084 17.267 117.842 17.6278 117.53 17.9858C117.223 18.3381 116.822 18.6307 116.328 18.8636C115.839 19.0966 115.243 19.2131 114.538 19.2131ZM115.689 16.3239C116.274 16.3239 116.768 16.1648 117.172 15.8466C117.581 15.5227 117.893 15.071 118.109 14.4915C118.331 13.9119 118.442 13.233 118.442 12.4545C118.442 11.6761 118.334 11 118.118 10.4261C117.902 9.85227 117.589 9.40909 117.18 9.09659C116.771 8.78409 116.274 8.62784 115.689 8.62784C115.092 8.62784 114.589 8.78977 114.18 9.11364C113.771 9.4375 113.462 9.88636 113.251 10.4602C113.041 11.0341 112.936 11.6989 112.936 12.4545C112.936 13.2159 113.041 13.8892 113.251 14.4744C113.467 15.054 113.777 15.5085 114.18 15.8381C114.589 16.1619 115.092 16.3239 115.689 16.3239ZM130.887 19.2557C129.563 19.2557 128.418 18.9744 127.452 18.4119C126.492 17.8437 125.751 17.054 125.228 16.0426C124.705 15.0256 124.444 13.8466 124.444 12.5057C124.444 11.1534 124.705 9.97159 125.228 8.96023C125.751 7.94318 126.492 7.15341 127.452 6.59091C128.418 6.02273 129.563 5.73864 130.887 5.73864C132.211 5.73864 133.353 6.02273 134.313 6.59091C135.279 7.15341 136.023 7.94318 136.546 8.96023C137.069 9.97159 137.33 11.1534 137.33 12.5057C137.33 13.8466 137.069 15.0256 136.546 16.0426C136.023 17.054 135.279 17.8437 134.313 18.4119C133.353 18.9744 132.211 19.2557 130.887 19.2557ZM130.904 16.4432C131.506 16.4432 132.009 16.2727 132.413 15.9318C132.816 15.5852 133.12 15.1136 133.325 14.517C133.535 13.9205 133.64 13.2415 133.64 12.4801C133.64 11.7188 133.535 11.0398 133.325 10.4432C133.12 9.84659 132.816 9.375 132.413 9.02841C132.009 8.68182 131.506 8.50852 130.904 8.50852C130.296 8.50852 129.785 8.68182 129.37 9.02841C128.961 9.375 128.651 9.84659 128.441 10.4432C128.237 11.0398 128.134 11.7188 128.134 12.4801C128.134 13.2415 128.237 13.9205 128.441 14.517C128.651 15.1136 128.961 15.5852 129.37 15.9318C129.785 16.2727 130.296 16.4432 130.904 16.4432ZM139.691 19V5.90909H143.211V8.19318H143.347C143.586 7.38068 143.987 6.76705 144.549 6.35227C145.112 5.93182 145.759 5.72159 146.492 5.72159C146.674 5.72159 146.87 5.73295 147.08 5.75568C147.29 5.77841 147.475 5.80966 147.634 5.84943V9.07102C147.464 9.01989 147.228 8.97443 146.927 8.93466C146.626 8.89489 146.35 8.875 146.1 8.875C145.566 8.875 145.089 8.99148 144.668 9.22443C144.254 9.4517 143.924 9.76989 143.68 10.179C143.441 10.5881 143.322 11.0597 143.322 11.5938V19H139.691ZM154.868 19.2557C153.521 19.2557 152.362 18.983 151.391 18.4375C150.425 17.8864 149.68 17.108 149.158 16.1023C148.635 15.0909 148.374 13.8949 148.374 12.5142C148.374 11.1676 148.635 9.9858 149.158 8.96875C149.68 7.9517 150.416 7.15909 151.365 6.59091C152.32 6.02273 153.439 5.73864 154.723 5.73864C155.587 5.73864 156.391 5.87784 157.135 6.15625C157.885 6.42898 158.538 6.84091 159.095 7.39205C159.658 7.94318 160.095 8.63636 160.408 9.47159C160.72 10.3011 160.876 11.2727 160.876 12.3864V13.3835H149.822V11.1335H157.459C157.459 10.6108 157.345 10.1477 157.118 9.74432C156.891 9.34091 156.575 9.02557 156.172 8.7983C155.774 8.56534 155.311 8.44886 154.783 8.44886C154.232 8.44886 153.743 8.5767 153.317 8.83239C152.896 9.08239 152.567 9.42045 152.328 9.84659C152.089 10.267 151.967 10.7358 151.962 11.2528V13.392C151.962 14.0398 152.081 14.5994 152.32 15.071C152.564 15.5426 152.908 15.9062 153.351 16.1619C153.794 16.4176 154.32 16.5455 154.928 16.5455C155.331 16.5455 155.7 16.4886 156.036 16.375C156.371 16.2614 156.658 16.0909 156.896 15.8636C157.135 15.6364 157.317 15.358 157.442 15.0284L160.8 15.25C160.629 16.0568 160.28 16.7614 159.751 17.3636C159.229 17.9602 158.553 18.4261 157.723 18.7614C156.899 19.0909 155.947 19.2557 154.868 19.2557ZM174.138 9.64205L170.814 9.84659C170.757 9.5625 170.635 9.30682 170.447 9.07955C170.26 8.84659 170.013 8.66193 169.706 8.52557C169.405 8.38352 169.044 8.3125 168.624 8.3125C168.061 8.3125 167.587 8.43182 167.2 8.67045C166.814 8.90341 166.621 9.21591 166.621 9.60795C166.621 9.92045 166.746 10.1847 166.996 10.4006C167.246 10.6165 167.675 10.7898 168.283 10.9205L170.652 11.3977C171.925 11.6591 172.874 12.0795 173.499 12.6591C174.124 13.2386 174.436 14 174.436 14.9432C174.436 15.8011 174.183 16.554 173.678 17.2017C173.178 17.8494 172.49 18.3551 171.615 18.7188C170.746 19.0767 169.743 19.2557 168.607 19.2557C166.874 19.2557 165.493 18.8949 164.464 18.1733C163.442 17.446 162.842 16.4574 162.666 15.2074L166.237 15.0199C166.345 15.5483 166.607 15.9517 167.021 16.2301C167.436 16.5028 167.967 16.6392 168.615 16.6392C169.251 16.6392 169.763 16.517 170.149 16.2727C170.541 16.0227 170.74 15.7017 170.746 15.3097C170.74 14.9801 170.601 14.7102 170.328 14.5C170.055 14.2841 169.635 14.1193 169.067 14.0057L166.8 13.554C165.521 13.2983 164.57 12.8551 163.945 12.2244C163.325 11.5937 163.016 10.7898 163.016 9.8125C163.016 8.97159 163.243 8.24716 163.697 7.6392C164.158 7.03125 164.803 6.5625 165.632 6.23295C166.467 5.90341 167.445 5.73864 168.564 5.73864C170.217 5.73864 171.518 6.08807 172.467 6.78693C173.422 7.4858 173.979 8.4375 174.138 9.64205Z" fill="#C7F74A"/>
<path d="M178.844 19.2216C178.282 19.2216 177.799 19.0227 177.396 18.625C176.998 18.2216 176.799 17.7386 176.799 17.1761C176.799 16.6193 176.998 16.142 177.396 15.7443C177.799 15.3466 178.282 15.1477 178.844 15.1477C179.39 15.1477 179.867 15.3466 180.276 15.7443C180.685 16.142 180.89 16.6193 180.89 17.1761C180.89 17.5511 180.793 17.8949 180.6 18.2074C180.413 18.5142 180.165 18.7614 179.859 18.9489C179.552 19.1307 179.214 19.2216 178.844 19.2216ZM189.786 19.2557C188.445 19.2557 187.291 18.9716 186.325 18.4034C185.365 17.8295 184.626 17.0341 184.109 16.017C183.598 15 183.342 13.8295 183.342 12.5057C183.342 11.1648 183.601 9.98864 184.118 8.97727C184.641 7.96023 185.382 7.16761 186.342 6.59943C187.303 6.02557 188.445 5.73864 189.768 5.73864C190.911 5.73864 191.911 5.94602 192.768 6.36079C193.626 6.77557 194.305 7.35795 194.805 8.10795C195.305 8.85795 195.581 9.73864 195.632 10.75H192.206C192.109 10.0966 191.854 9.57102 191.439 9.1733C191.03 8.76989 190.493 8.56818 189.828 8.56818C189.266 8.56818 188.774 8.72159 188.354 9.02841C187.939 9.32955 187.615 9.76989 187.382 10.3494C187.149 10.929 187.033 11.6307 187.033 12.4545C187.033 13.2898 187.146 14 187.374 14.5852C187.607 15.1705 187.933 15.6165 188.354 15.9233C188.774 16.2301 189.266 16.3835 189.828 16.3835C190.243 16.3835 190.615 16.2983 190.945 16.1278C191.28 15.9574 191.555 15.7102 191.771 15.3864C191.993 15.0568 192.138 14.6619 192.206 14.2017H195.632C195.575 15.2017 195.303 16.0824 194.814 16.8438C194.331 17.5994 193.663 18.1903 192.811 18.6165C191.959 19.0426 190.95 19.2557 189.786 19.2557ZM203.871 19.2557C202.548 19.2557 201.403 18.9744 200.437 18.4119C199.477 17.8437 198.735 17.054 198.212 16.0426C197.69 15.0256 197.428 13.8466 197.428 12.5057C197.428 11.1534 197.69 9.97159 198.212 8.96023C198.735 7.94318 199.477 7.15341 200.437 6.59091C201.403 6.02273 202.548 5.73864 203.871 5.73864C205.195 5.73864 206.337 6.02273 207.298 6.59091C208.263 7.15341 209.008 7.94318 209.531 8.96023C210.053 9.97159 210.315 11.1534 210.315 12.5057C210.315 13.8466 210.053 15.0256 209.531 16.0426C209.008 17.054 208.263 17.8437 207.298 18.4119C206.337 18.9744 205.195 19.2557 203.871 19.2557ZM203.888 16.4432C204.491 16.4432 204.994 16.2727 205.397 15.9318C205.8 15.5852 206.104 15.1136 206.309 14.517C206.519 13.9205 206.624 13.2415 206.624 12.4801C206.624 11.7188 206.519 11.0398 206.309 10.4432C206.104 9.84659 205.8 9.375 205.397 9.02841C204.994 8.68182 204.491 8.50852 203.888 8.50852C203.281 8.50852 202.769 8.68182 202.354 9.02841C201.945 9.375 201.636 9.84659 201.425 10.4432C201.221 11.0398 201.119 11.7188 201.119 12.4801C201.119 13.2415 201.221 13.9205 201.425 14.517C201.636 15.1136 201.945 15.5852 202.354 15.9318C202.769 16.2727 203.281 16.4432 203.888 16.4432ZM212.675 19V5.90909H216.136V8.21875H216.289C216.562 7.4517 217.016 6.84659 217.653 6.40341C218.289 5.96023 219.05 5.73864 219.937 5.73864C220.835 5.73864 221.599 5.96307 222.229 6.41193C222.86 6.85511 223.281 7.45739 223.491 8.21875H223.627C223.894 7.46875 224.377 6.86932 225.076 6.42045C225.781 5.96591 226.613 5.73864 227.573 5.73864C228.795 5.73864 229.786 6.12784 230.548 6.90625C231.315 7.67898 231.698 8.77557 231.698 10.196V19H228.076V10.9119C228.076 10.1847 227.883 9.6392 227.496 9.27557C227.11 8.91193 226.627 8.73011 226.048 8.73011C225.388 8.73011 224.874 8.94034 224.505 9.3608C224.136 9.77557 223.951 10.3239 223.951 11.0057V19H220.431V10.8352C220.431 10.1932 220.246 9.68182 219.877 9.30114C219.513 8.92045 219.033 8.73011 218.437 8.73011C218.033 8.73011 217.67 8.83239 217.346 9.03693C217.028 9.2358 216.775 9.51705 216.587 9.88068C216.4 10.2386 216.306 10.6591 216.306 11.142V19H212.675Z" fill="white"/>
</svg>
