<svg width="48" height="48" viewBox="0 0 48 48" fill="none" xmlns="http://www.w3.org/2000/svg">
<path d="M14.625 16.875C14.625 9.55219 19.8728 3.456 26.8125 2.13938C25.8853 1.96342 24.9437 1.8749 24 1.875C15.7158 1.875 9 8.59069 9 16.875C9 25.1047 17.027 33.5877 21.337 37.9522C21.6842 38.3064 22.0985 38.5879 22.5558 38.7801C23.013 38.9722 23.504 39.0712 24 39.0712C24.496 39.0712 24.9871 38.9722 25.4443 38.7801C25.9016 38.5879 26.3159 38.3064 26.6631 37.9522L26.8126 37.8006C22.4693 33.3936 14.625 25.0107 14.625 16.875Z" fill="#CEE1F2"/>
<path d="M39 16.875C39 25.1047 30.973 33.5877 26.663 37.9522C26.3158 38.3065 25.9015 38.5879 25.4442 38.7801C24.987 38.9722 24.496 39.0712 24 39.0712C23.5039 39.0712 23.0129 38.9722 22.5557 38.7801C22.0984 38.5879 21.6841 38.3065 21.3369 37.9522C17.027 33.5877 9 25.1047 9 16.875C9 8.59069 15.7157 1.875 24 1.875C32.2843 1.875 39 8.59069 39 16.875Z" stroke="#7A4AF7" stroke-width="3.75" stroke-miterlimit="10" stroke-linecap="round" stroke-linejoin="round"/>
<path d="M39.499 34.403C41.5506 35.6056 42.75 37.0593 42.75 38.625C42.75 42.7672 34.3553 46.125 24 46.125C13.6447 46.125 5.25 42.7672 5.25 38.625C5.25 37.0591 6.44972 35.6053 8.50153 34.4027" stroke="#7A4AF7" stroke-width="3.75" stroke-miterlimit="10" stroke-linecap="round" stroke-linejoin="round"/>
<path d="M24 24.375C28.1421 24.375 31.5 21.0171 31.5 16.875C31.5 12.7329 28.1421 9.375 24 9.375C19.8579 9.375 16.5 12.7329 16.5 16.875C16.5 21.0171 19.8579 24.375 24 24.375Z" stroke="#B4E730" stroke-width="3.75" stroke-miterlimit="10" stroke-linecap="round" stroke-linejoin="round"/>
</svg>
