<?xml version="1.0" encoding="utf-8"?><svg viewBox="0 0 60 60" xmlns="http://www.w3.org/2000/svg" xmlns:xlink="http://www.w3.org/1999/xlink"><style>:root>svg{display:none}:root>svg:target{display:block}</style><svg fill="currentColor" viewBox="0 0 16 16" id="arrow-left" xmlns="http://www.w3.org/2000/svg"><path fill-rule="evenodd" clip-rule="evenodd" d="M15 8a1 1 0 01-1 1H2a1 1 0 010-2h12a1 1 0 011 1z"/><path fill-rule="evenodd" clip-rule="evenodd" d="M8.707 14.707a1 1 0 01-1.414 0l-6-6a1 1 0 010-1.414l6-6a1 1 0 011.414 1.414L3.414 8l5.293 5.293a1 1 0 010 1.414z"/></svg><svg fill="currentColor" viewBox="0 0 16 16" id="arrow-right" xmlns="http://www.w3.org/2000/svg"><path fill-rule="evenodd" clip-rule="evenodd" d="M1 8a1 1 0 001 1h12a1 1 0 100-2H2a1 1 0 00-1 1z"/><path fill-rule="evenodd" clip-rule="evenodd" d="M7.293 14.707a1 1 0 001.414 0l6-6a1 1 0 000-1.414l-6-6a1 1 0 00-1.414 1.414L12.586 8l-5.293 5.293a1 1 0 000 1.414z"/></svg><svg fill="currentColor" viewBox="0 0 16 16" id="check" xmlns="http://www.w3.org/2000/svg"><path d="M8 1.333A6.67 6.67 0 001.333 8 6.67 6.67 0 008 14.667 6.67 6.67 0 0014.667 8 6.67 6.67 0 008 1.333zm0 12A5.34 5.34 0 012.667 8 5.34 5.34 0 018 2.667 5.34 5.34 0 0113.334 8 5.34 5.34 0 018 13.333zm2.587-7.806l-3.92 3.92-1.253-1.254a.664.664 0 10-.94.94L6.2 10.86c.26.26.68.26.94 0l4.394-4.393c.26-.26.26-.68 0-.94a.672.672 0 00-.947 0z"/></svg><svg fill="currentColor" viewBox="0 0 12 12" id="check2" xmlns="http://www.w3.org/2000/svg"><path fill-rule="evenodd" clip-rule="evenodd" d="M5.573.186A.577.577 0 016 0c.163 0 .319.068.426.186l.713.786c.126.138.287.24.47.297.181.056.376.064.562.023l1.06-.235a.582.582 0 01.46.09.533.533 0 01.23.389l.094 1.036a.98.98 0 00.197.504c.112.148.264.263.44.335l1.003.405a.55.55 0 01.317.33.52.52 0 01-.053.445l-.562.89a.97.97 0 00-.001 1.037l.562.89a.52.52 0 01.053.446.548.548 0 01-.317.33l-1.002.405a1.047 1.047 0 00-.441.335.98.98 0 00-.197.503l-.094 1.037a.532.532 0 01-.23.39.587.587 0 01-.46.089l-1.06-.236a1.105 1.105 0 00-.562.023c-.182.057-.344.16-.47.297l-.713.787a.577.577 0 01-.852 0l-.713-.786a1.052 1.052 0 00-.47-.297 1.104 1.104 0 00-.562-.023l-1.06.235a.583.583 0 01-.46-.09.533.533 0 01-.23-.389l-.094-1.036a.98.98 0 00-.196-.504 1.044 1.044 0 00-.441-.335L.344 8.184a.55.55 0 01-.317-.33.524.524 0 01.054-.445l.562-.89a.97.97 0 000-1.036L.081 4.59a.52.52 0 01-.053-.445.548.548 0 01.317-.33l1.003-.405c.176-.071.328-.187.44-.335a.98.98 0 00.197-.503l.094-1.036a.532.532 0 01.23-.39.587.587 0 01.46-.09l1.06.236c.186.04.38.033.563-.023.181-.057.344-.16.469-.297l.712-.787zM3.09 6.208l1.794 1.714a.31.31 0 00.423 0l3.601-3.44a.277.277 0 000-.405.31.31 0 00-.423 0l-3.39 3.24-1.582-1.513a.31.31 0 00-.423 0 .278.278 0 000 .404z"/></svg><svg fill="currentColor" viewBox="0 0 32 32" id="eye" xmlns="http://www.w3.org/2000/svg"><g fill-rule="evenodd" clip-rule="evenodd"><path d="M7.112 16a13.388 13.388 0 001.996 2.82C10.615 20.443 12.868 22 16 22c3.132 0 5.385-1.557 6.892-3.18A13.386 13.386 0 0024.888 16a13.386 13.386 0 00-1.996-2.82C21.385 11.558 19.132 10 16 10c-3.132 0-5.385 1.557-6.892 3.18A13.388 13.388 0 007.112 16zM26 16c.92-.394.919-.394.919-.395l-.002-.003-.003-.007-.01-.021a9.013 9.013 0 00-.153-.322c-.105-.21-.26-.506-.47-.857a15.381 15.381 0 00-1.923-2.575C22.615 9.942 19.868 8 16 8c-3.868 0-6.615 1.943-8.358 3.82a15.388 15.388 0 00-1.923 2.575 13.448 13.448 0 00-.591 1.107l-.033.072-.01.02-.002.008-.001.002v.001c-.001 0-.001.001.918.395l-.919-.395a1.002 1.002 0 000 .789L6 16l-.92.394.002.002v.002l.004.007.009.021.033.072a13.448 13.448 0 00.591 1.107 15.388 15.388 0 001.923 2.575C9.385 22.057 12.132 24 16 24c3.868 0 6.615-1.943 8.358-3.82a15.381 15.381 0 001.923-2.575 13.466 13.466 0 00.591-1.107l.033-.072.01-.02.002-.008.002-.003-.92-.395zm0 0l.919.395a1.004 1.004 0 000-.79l-.92.395z"/><path d="M16 14a2 2 0 100 4 2 2 0 000-4zm-4 2a4 4 0 118 0 4 4 0 01-8 0z"/></g></svg><svg fill="currentColor" viewBox="0 0 12 23" id="fb" xmlns="http://www.w3.org/2000/svg"><path d="M7.657 12.365h3.722l.585-3.804H7.656V6.48c0-1.58.514-2.981 1.983-2.981H12V.18C11.585.123 10.708 0 9.05 0 5.588 0 3.559 1.84 3.559 6.03v2.53H0v3.805h3.559V22.82A14.33 14.33 0 005.71 23c.662 0 1.309-.06 1.947-.148V12.365z"/></svg><svg fill="currentColor" viewBox="0 0 32 32" id="forward" xmlns="http://www.w3.org/2000/svg"><g fill-rule="evenodd" clip-rule="evenodd"><path d="M18.293 10.293a1 1 0 011.414 0l5 5a1 1 0 010 1.414l-5 5a1 1 0 01-1.414-1.414L22.586 16l-4.293-4.293a1 1 0 010-1.414z"/><path d="M12 17a3 3 0 00-3 3v2a1 1 0 11-2 0v-2a5 5 0 015-5h12a1 1 0 110 2H12z"/></g></svg><svg fill="currentColor" viewBox="0 0 32 32" id="heart" xmlns="http://www.w3.org/2000/svg"><path fill-rule="evenodd" clip-rule="evenodd" d="M6.904 7.904A6.5 6.5 0 0111.5 6c.98 0 1.873.14 2.747.52.613.268 1.185.64 1.753 1.12.568-.48 1.14-.852 1.753-1.12C18.627 6.14 19.52 6 20.5 6a6.5 6.5 0 016.5 6.5c0 2.742-1.81 4.753-3.297 6.21l-6.996 6.997a1 1 0 01-1.414 0l-6.994-6.994C6.794 17.258 5 15.25 5 12.5a6.5 6.5 0 011.904-4.596zM11.5 8A4.5 4.5 0 007 12.5c0 1.847 1.2 3.336 2.695 4.781l.012.012L16 23.586l6.3-6.3c1.492-1.463 2.7-2.95 2.7-4.786A4.5 4.5 0 0020.5 8c-.78 0-1.387.11-1.948.354-.568.248-1.152.66-1.845 1.353a1 1 0 01-1.414 0c-.693-.693-1.277-1.105-1.845-1.353C12.887 8.11 12.28 8 11.5 8z"/></svg><svg fill="currentColor" viewBox="0 0 32 32" id="hourglass" xmlns="http://www.w3.org/2000/svg"><g fill-rule="evenodd" clip-rule="evenodd"><path d="M8 26a1 1 0 011-1h14a1 1 0 110 2H9a1 1 0 01-1-1zM8 6a1 1 0 011-1h14a1 1 0 110 2H9a1 1 0 01-1-1z"/><path d="M15.293 15.293a1 1 0 011.414 0l4.414 4.414a3 3 0 01.879 2.12V26a1 1 0 11-2 0v-4.172a1 1 0 00-.293-.707L16 17.414l-3.707 3.707a1 1 0 00-.293.707V26a1 1 0 11-2 0v-4.172a3 3 0 01.879-2.121l4.414-4.414z"/><path d="M11 5a1 1 0 011 1v4.172a1 1 0 00.293.707L16 14.586l3.707-3.707a1 1 0 00.293-.707V6a1 1 0 112 0v4.172a3 3 0 01-.879 2.121l-4.414 4.414a1 1 0 01-1.414 0l-4.414-4.414a3 3 0 01-.879-2.12V6a1 1 0 011-1z"/></g></svg><svg fill="currentColor" viewBox="0 0 10 9" id="in" xmlns="http://www.w3.org/2000/svg"><path d="M9.95 5.447v3.309H8.013V5.648c0-.766-.283-1.291-.969-1.291-.524 0-.847.363-.968.686-.04.121-.081.283-.081.484v3.229H4.058s.04-5.247 0-5.771h1.937v.807c.242-.404.726-.969 1.735-.969 1.252 0 2.22.848 2.22 2.624zM2.04.2C1.394.2.95.644.95 1.209S1.354 2.218 2 2.218c.686 0 1.09-.444 1.09-1.01C3.13.605 2.725.2 2.04.2zM1.07 8.756h1.937V2.985H1.071v5.771z"/></svg><svg fill="currentColor" viewBox="0 0 20 20" id="instg" xmlns="http://www.w3.org/2000/svg"><path d="M10 1.807h4.096c.964 0 1.446.241 1.808.362.482.24.843.361 1.204.723.362.361.603.722.723 1.204.12.362.241.844.362 1.808v8.192c0 .964-.241 1.446-.362 1.808-.24.482-.361.843-.723 1.204-.361.362-.723.603-1.204.723-.362.12-.844.241-1.808.362H5.904c-.964 0-1.446-.241-1.808-.362-.482-.24-.843-.361-1.204-.723-.362-.361-.603-.723-.723-1.204-.12-.362-.241-.844-.362-1.808V10 5.904c0-.964.241-1.446.362-1.808.24-.482.361-.843.723-1.204.361-.362.722-.603 1.204-.723.362-.12.844-.241 1.808-.362H10zM10 0H5.904c-1.085 0-1.808.241-2.41.482a5.26 5.26 0 00-1.807 1.205C1.084 2.289.843 2.77.482 3.494.24 4.096.12 4.819 0 5.904v8.192c0 1.085.241 1.808.482 2.41a5.262 5.262 0 001.205 1.807c.602.603 1.084.844 1.807 1.205.602.241 1.325.361 2.41.482h8.192c1.085 0 1.808-.241 2.41-.482a5.263 5.263 0 001.807-1.205c.603-.602.844-1.084 1.205-1.807.241-.602.361-1.325.482-2.41V10 5.904c0-1.085-.241-1.808-.482-2.41a5.261 5.261 0 00-1.205-1.807c-.602-.603-1.084-.844-1.807-1.205C15.904.24 15.181.12 14.096 0H10z"/><path d="M10 4.82A5.142 5.142 0 004.82 10c0 2.892 2.288 5.18 5.18 5.18s5.18-2.288 5.18-5.18S12.893 4.82 10 4.82zm0 8.553A3.368 3.368 0 016.627 10 3.368 3.368 0 0110 6.627 3.368 3.368 0 0113.373 10c0 1.807-1.566 3.373-3.373 3.373zM15.301 5.904a1.205 1.205 0 100-2.41 1.205 1.205 0 000 2.41z"/></svg><svg fill="currentColor" viewBox="0 0 16 12" id="mail" xmlns="http://www.w3.org/2000/svg"><path d="M13.867 0h-12C1.042 0 .375.675.375 1.5l-.008 9c0 .825.675 1.5 1.5 1.5h12c.825 0 1.5-.675 1.5-1.5v-9c0-.825-.675-1.5-1.5-1.5zm-.75 10.5h-10.5a.752.752 0 01-.75-.75V3l5.205 3.255a1.486 1.486 0 001.59 0L13.867 3v6.75c0 .412-.337.75-.75.75zm-5.25-5.25l-6-3.75h12l-6 3.75z"/></svg><svg fill="currentColor" viewBox="0 0 32 32" id="message-square" xmlns="http://www.w3.org/2000/svg"><path fill-rule="evenodd" clip-rule="evenodd" d="M9 8a1 1 0 00-1 1v13.586l2.293-2.293A1 1 0 0111 20h12a1 1 0 001-1V9a1 1 0 00-1-1H9zM6.879 6.879A3 3 0 019 6h14a3 3 0 013 3v10a3 3 0 01-3 3H11.414l-3.707 3.707A1 1 0 016 25V9a3 3 0 01.879-2.121z"/></svg><svg fill="currentColor" viewBox="0 0 20 20" id="pint" xmlns="http://www.w3.org/2000/svg"><path d="M10 0C4.5 0 0 4.5 0 10a9.92 9.92 0 006 9.125c0-.75 0-1.5.125-2.25.25-.875 1.25-5.5 1.25-5.5S7 10.75 7 9.75c0-1.5.875-2.625 1.875-2.625.875 0 1.375.625 1.375 1.5s-.625 2.25-.875 3.5c-.25 1 .5 1.875 1.625 1.875 1.875 0 3.125-2.375 3.125-5.375 0-2.25-1.5-3.875-4.125-3.875C7 4.75 5.125 7 5.125 9.5c0 .875.25 1.5.625 2 .125.25.25.25.125.5 0 .125-.125.625-.25.75-.125.25-.25.375-.5.25-1.375-.625-2-2.125-2-3.875 0-2.875 2.375-6.25 7.125-6.25 3.875 0 6.375 2.75 6.375 5.75 0 3.875-2.125 6.875-5.375 6.875-1.125 0-2.125-.625-2.5-1.25 0 0-.625 2.25-.75 2.75-.25.75-.625 1.5-1 2.125.875.25 1.875.375 2.875.375 5.5 0 10-4.5 10-10C20 4.5 15.5 0 10 0z"/></svg><svg fill="currentColor" viewBox="0 0 32 32" id="play" xmlns="http://www.w3.org/2000/svg"><path fill-rule="evenodd" clip-rule="evenodd" d="M10.52 6.122a1 1 0 011.02.037l14 9a1 1 0 010 1.682l-14 9A1 1 0 0110 25V7a1 1 0 01.52-.878zM12 8.832v14.336L23.15 16 12 8.832z"/></svg><svg fill="currentColor" viewBox="0 0 6 10" id="question-mark" xmlns="http://www.w3.org/2000/svg"><path d="M.922 2.65C.54 2.49.376 2.02.607 1.68 1.07.996 1.848.5 2.875.5c1.127 0 1.9.507 2.293 1.142.336.544.532 1.563.014 2.32-.575.839-1.127 1.095-1.424 1.635a1.085 1.085 0 00-.144.445.696.696 0 01-.686.616c-.418 0-.758-.355-.71-.767.028-.242.086-.493.22-.73.37-.658 1.08-1.047 1.492-1.63.437-.61.192-1.752-1.046-1.752-.56 0-.925.289-1.15.635-.169.27-.519.355-.811.237zM3.84 8.554a.956.956 0 01-.96.947.956.956 0 01-.959-.947c0-.521.432-.948.96-.948.527 0 .96.427.96.948z"/></svg><svg fill="currentColor" viewBox="0 0 32 32" id="repeat" xmlns="http://www.w3.org/2000/svg"><g fill-rule="evenodd" clip-rule="evenodd"><path d="M8.293 9.293a1 1 0 011.414 0l3 3a1 1 0 01-1.414 1.414L9 11.414l-2.293 2.293a1 1 0 01-1.414-1.414l3-3z"/><path d="M9 9a1 1 0 011 1v10a1 1 0 001 1h6a1 1 0 110 2h-6a3 3 0 01-3-3V10a1 1 0 011-1zM19.293 18.293a1 1 0 011.414 0L23 20.586l2.293-2.293a1 1 0 011.414 1.414l-3 3a1 1 0 01-1.414 0l-3-3a1 1 0 010-1.414z"/><path d="M14 10a1 1 0 011-1h6a3 3 0 013 3v10a1 1 0 11-2 0V12a1 1 0 00-1-1h-6a1 1 0 01-1-1z"/></g></svg><svg fill="currentColor" viewBox="0 0 32 32" id="saves" xmlns="http://www.w3.org/2000/svg"><path fill-rule="evenodd" clip-rule="evenodd" d="M21.333 6h-11.11C9 6 8 7 8 8.222V26l7.778-3.333L23.556 26V8.222C23.556 7 22.556 6 21.333 6zm0 16.667l-5.555-2.445-5.556 2.445V8.222h11.111v14.445z"/></svg><svg fill="currentColor" viewBox="0 0 60 60" id="slider-arrow-right" xmlns="http://www.w3.org/2000/svg"><path fill-rule="evenodd" clip-rule="evenodd" d="M19 30a1 1 0 011-1h20a1 1 0 110 2H20a1 1 0 01-1-1z"/><path fill-rule="evenodd" clip-rule="evenodd" d="M29.293 19.293a1 1 0 011.414 0l10 10a1 1 0 010 1.414l-10 10a1 1 0 11-1.414-1.414L38.586 30l-9.293-9.293a1 1 0 010-1.414z"/></svg><svg fill="currentColor" viewBox="0 0 32 32" id="star" xmlns="http://www.w3.org/2000/svg"><path fill-rule="evenodd" clip-rule="evenodd" d="M16 5a1 1 0 01.897.557l2.857 5.79 6.39.934a1 1 0 01.554 1.705l-4.623 4.503 1.09 6.362a1 1 0 01-1.45 1.054L16 22.9l-5.714 3.005a1 1 0 01-1.452-1.054l1.092-6.362-4.624-4.503a1 1 0 01.553-1.706l6.39-.933 2.858-5.79A1 1 0 0116 5zm0 3.26l-2.193 4.443a1 1 0 01-.752.546l-4.907.718 3.55 3.457a1 1 0 01.288.885l-.838 4.883 4.387-2.307a1 1 0 01.93 0l4.387 2.307-.838-4.883a1 1 0 01.288-.885l3.55-3.457-4.907-.718a1 1 0 01-.752-.546L16 8.259z"/></svg><svg fill="currentColor" viewBox="0 0 32 32" id="statistics-up" xmlns="http://www.w3.org/2000/svg"><path d="M25.625 10h-5.5a1.375 1.375 0 000 2.75h2.18l-4.931 4.932-4.529-4.529a1.374 1.374 0 00-1.944 0l-5.501 5.5A1.375 1.375 0 007.345 20.6l4.528-4.529 4.528 4.529a1.373 1.373 0 001.945 0l5.904-5.904v2.18a1.375 1.375 0 002.75 0v-5.5A1.374 1.374 0 0025.625 10z"/></svg><svg fill="currentColor" viewBox="0 0 32 32" id="thumbs-up" xmlns="http://www.w3.org/2000/svg"><g fill-rule="evenodd" clip-rule="evenodd"><path d="M11 13a1 1 0 011 1v12a1 1 0 11-2 0V14a1 1 0 011-1z"/><path d="M15.106 5.552A1 1 0 0116.012 5a4.13 4.13 0 013.96 5.118l-.001.002-.7 2.88h4.559a3 3 0 012.88 3.84l-2.33 8A3 3 0 0121.5 27H8a3 3 0 01-3-3v-8a3 3 0 013-3h2.76a1 1 0 00.895-.555v-.003l3.45-6.89zm1.467 1.537l-3.128 6.246v.001A3.001 3.001 0 0110.76 15H8a1 1 0 00-1 1v8a1 1 0 001 1h13.5a1 1 0 00.96-.72l2.33-8a1.002 1.002 0 00-.513-1.174.999.999 0 00-.447-.106H18a1 1 0 01-.972-1.236l1-4.12.001-.004a2.13 2.13 0 00-1.456-2.55z"/></g></svg><svg fill="currentColor" viewBox="0 0 20 16" id="twt" xmlns="http://www.w3.org/2000/svg"><path d="M19.6 1.9c-.7.3-1.5.5-2.3.6.8-.5 1.5-1.3 1.8-2.2-.8.5-1.6.8-2.6 1C15.8.5 14.7 0 13.6 0c-2.2 0-4 1.8-4 4 0 .3 0 .6.1.9C6.4 4.7 3.4 3.1 1.4.7c-.3.6-.5 1.3-.5 2 0 1.4.7 2.6 1.8 3.3C2 6 1.4 5.8.9 5.5c0 1.9 1.4 3.6 3.2 3.9-.3.1-.7.1-1.1.1-.3 0-.5 0-.8-.1.5 1.6 2 2.8 3.8 2.8-1.4 1.1-3.1 1.7-5 1.7-.3 0-.6 0-1-.1 1.8 1.1 3.9 1.8 6.2 1.8 7.4 0 11.4-6.1 11.4-11.4v-.5c.8-.3 1.5-1 2-1.8z"/></svg><svg fill="currentColor" viewBox="0 0 32 32" id="user" xmlns="http://www.w3.org/2000/svg"><g fill-rule="evenodd" clip-rule="evenodd"><path d="M16 8a4 4 0 100 8 4 4 0 000-8zm-6 4a6 6 0 1112 0 6 6 0 01-12 0z"/><path d="M9.636 18.636A9 9 0 0125 25a1 1 0 11-2 0 7 7 0 10-14 0 1 1 0 11-2 0 9 9 0 012.636-6.364z"/></g></svg><svg fill="currentColor" viewBox="0 0 32 32" id="users" xmlns="http://www.w3.org/2000/svg"><g fill-rule="evenodd" clip-rule="evenodd"><path d="M7.05 18.05A7 7 0 0119 23a1 1 0 11-2 0 5 5 0 10-10 0 1 1 0 11-2 0 7 7 0 012.05-4.95z"/><path d="M12 10a3 3 0 100 6 3 3 0 000-6zm-5 3a5 5 0 1110 0 5 5 0 01-10 0zM19 9a1 1 0 011-1 5 5 0 013.25 8.8A6.995 6.995 0 0127 23a1 1 0 11-2 0 5 5 0 00-5-5 1 1 0 110-2 3 3 0 000-6 1 1 0 01-1-1z"/></g></svg><svg fill="currentColor" viewBox="0 0 13 13" id="vb" xmlns="http://www.w3.org/2000/svg"><path d="M10.756 2.238A6.257 6.257 0 006.322.4C2.854.4.044 3.2.044 6.656c0 1.094.307 2.188.834 3.107L0 13l3.337-.875a6.418 6.418 0 002.985.744c3.468 0 6.278-2.8 6.278-6.256-.044-1.62-.659-3.194-1.844-4.375zm-1.405 6.65c-.131.35-.746.7-1.053.743a2.462 2.462 0 01-.966-.043c-.22-.088-.527-.175-.878-.35-1.58-.657-2.59-2.232-2.678-2.363-.088-.087-.659-.831-.659-1.619 0-.787.395-1.137.527-1.312.132-.175.307-.175.439-.175h.307c.088 0 .22-.044.351.262.132.307.44 1.094.483 1.138a.278.278 0 010 .262.915.915 0 01-.175.263c-.088.087-.176.219-.22.262-.088.088-.175.175-.088.307.088.175.396.656.879 1.093.614.525 1.097.7 1.273.788.175.087.263.044.35-.044.089-.087.396-.437.484-.612.088-.175.22-.132.351-.088.132.044.922.438 1.054.525.175.088.263.131.307.175.044.131.044.438-.088.788z"/></svg><svg fill="currentColor" viewBox="0 0 32 32" id="vote" xmlns="http://www.w3.org/2000/svg"><g fill-rule="evenodd" clip-rule="evenodd"><path d="M19.707 13.293a1 1 0 010 1.414l-4 4a1 1 0 01-1.414 0l-2-2a1 1 0 011.414-1.414L15 16.586l3.293-3.293a1 1 0 011.414 0z"/><path d="M11 10c-.548 0-1 .452-1 1v11h12V11a1 1 0 00-1-1H11zm-3 1c0-1.652 1.348-3 3-3h10a3 3 0 013 3v12a1 1 0 01-1 1H9a1 1 0 01-1-1V11z"/><path d="M5 23a1 1 0 011-1h20a1 1 0 110 2H6a1 1 0 01-1-1z"/></g></svg><svg fill="currentColor" viewBox="0 0 13 15" id="wa" xmlns="http://www.w3.org/2000/svg"><path d="M9.752.728a18.59 18.59 0 00-6.948 0C1.792.946.517 2.168.297 3.13a13.721 13.721 0 000 5.677c.264.96 1.54 2.184 2.507 2.402.044 0 .088.044.088.088v2.75c0 .132.176.22.264.088l1.319-1.354s1.055-1.091 1.231-1.266c0 0 .044-.044.088-.044 1.32.044 2.683-.087 4.002-.306 1.012-.218 2.287-1.44 2.507-2.402.396-1.878.396-3.8 0-5.677-.264-.917-1.54-2.14-2.55-2.358zm.044 8.21c-.22.437-.483.786-.923 1.005l-.396.13a5.58 5.58 0 01-.44-.13C6.63 9.375 5.31 8.589 4.255 7.453A10.504 10.504 0 012.804 5.27c-.176-.393-.352-.743-.484-1.136-.132-.35.088-.699.308-.96.22-.263.484-.437.791-.568.22-.131.44-.044.616.13.352.437.704.874.968 1.354.176.306.132.655-.176.874a.771.771 0 00-.22.175c-.044.043-.132.087-.176.174a.422.422 0 00-.044.393c.352 1.005 1.011 1.79 2.023 2.228.176.087.308.13.528.13.308-.043.44-.392.66-.567.22-.175.483-.175.747-.044.22.131.44.306.704.48.22.175.44.306.66.481.131.087.175.306.087.524zM7.95 5.663c-.088 0-.044 0 0 0-.176 0-.22-.088-.264-.219 0-.087 0-.218-.044-.305a.83.83 0 00-.307-.48l-.264-.132c-.132-.044-.22-.044-.352-.044-.132-.043-.176-.13-.176-.262 0-.087.132-.174.22-.174.703.043 1.231.436 1.32 1.266v.175c0 .087-.045.175-.133.175zM7.51 3.74a3.312 3.312 0 00-.703-.218c-.088 0-.22-.044-.308-.044-.132 0-.22-.087-.176-.218 0-.131.088-.219.22-.175.44.044.835.13 1.231.306.792.393 1.232 1.048 1.364 1.921V5.881c-.044.175-.352.218-.396 0 0-.044-.044-.131-.044-.175 0-.393-.088-.786-.264-1.135a2.359 2.359 0 00-.924-.83zm2.375 2.62c-.132 0-.22-.13-.22-.262 0-.262-.044-.524-.088-.786-.175-1.397-1.319-2.533-2.682-2.751-.22-.044-.44-.044-.616-.087-.132 0-.308 0-.352-.175-.044-.131.088-.262.22-.262h.088c.088 0 1.803.043 0 0 1.847.043 3.386 1.266 3.694 3.1.044.306.088.612.088.961.088.131 0 .262-.132.262z"/></svg></svg>