<?xml version="1.0" encoding="utf-8"?><svg viewBox="0 0 32 32" xmlns="http://www.w3.org/2000/svg" xmlns:xlink="http://www.w3.org/1999/xlink"><style>:root>svg{display:none}:root>svg:target{display:block}</style><svg fill="currentColor" viewBox="0 0 32 32" id="eye" xmlns="http://www.w3.org/2000/svg"><g fill-rule="evenodd" clip-rule="evenodd"><path d="M7.112 16a13.388 13.388 0 001.996 2.82C10.615 20.443 12.868 22 16 22c3.132 0 5.385-1.557 6.892-3.18A13.386 13.386 0 0024.888 16a13.386 13.386 0 00-1.996-2.82C21.385 11.558 19.132 10 16 10c-3.132 0-5.385 1.557-6.892 3.18A13.388 13.388 0 007.112 16zM26 16c.92-.394.919-.394.919-.395l-.002-.003-.003-.007-.01-.021a9.013 9.013 0 00-.153-.322c-.105-.21-.26-.506-.47-.857a15.381 15.381 0 00-1.923-2.575C22.615 9.942 19.868 8 16 8c-3.868 0-6.615 1.943-8.358 3.82a15.388 15.388 0 00-1.923 2.575 13.448 13.448 0 00-.591 1.107l-.033.072-.01.02-.002.008-.001.002v.001c-.001 0-.001.001.918.395l-.919-.395a1.002 1.002 0 000 .789L6 16l-.92.394.002.002v.002l.004.007.009.021.033.072a13.448 13.448 0 00.591 1.107 15.388 15.388 0 001.923 2.575C9.385 22.057 12.132 24 16 24c3.868 0 6.615-1.943 8.358-3.82a15.381 15.381 0 001.923-2.575 13.466 13.466 0 00.591-1.107l.033-.072.01-.02.002-.008.002-.003-.92-.395zm0 0l.919.395a1.004 1.004 0 000-.79l-.92.395z"/><path d="M16 14a2 2 0 100 4 2 2 0 000-4zm-4 2a4 4 0 118 0 4 4 0 01-8 0z"/></g></svg><svg fill="currentColor" viewBox="0 0 12 23" id="fb" xmlns="http://www.w3.org/2000/svg"><path d="M7.657 12.365h3.722l.585-3.804H7.656V6.48c0-1.58.514-2.981 1.983-2.981H12V.18C11.585.123 10.708 0 9.05 0 5.588 0 3.559 1.84 3.559 6.03v2.53H0v3.805h3.559V22.82A14.33 14.33 0 005.71 23c.662 0 1.309-.06 1.947-.148V12.365z"/></svg><svg fill="currentColor" viewBox="0 0 32 32" id="forward" xmlns="http://www.w3.org/2000/svg"><g fill-rule="evenodd" clip-rule="evenodd"><path d="M18.293 10.293a1 1 0 011.414 0l5 5a1 1 0 010 1.414l-5 5a1 1 0 01-1.414-1.414L22.586 16l-4.293-4.293a1 1 0 010-1.414z"/><path d="M12 17a3 3 0 00-3 3v2a1 1 0 11-2 0v-2a5 5 0 015-5h12a1 1 0 110 2H12z"/></g></svg><svg fill="currentColor" viewBox="0 0 32 32" id="heart" xmlns="http://www.w3.org/2000/svg"><path fill-rule="evenodd" clip-rule="evenodd" d="M6.904 7.904A6.5 6.5 0 0111.5 6c.98 0 1.873.14 2.747.52.613.268 1.185.64 1.753 1.12.568-.48 1.14-.852 1.753-1.12C18.627 6.14 19.52 6 20.5 6a6.5 6.5 0 016.5 6.5c0 2.742-1.81 4.753-3.297 6.21l-6.996 6.997a1 1 0 01-1.414 0l-6.994-6.994C6.794 17.258 5 15.25 5 12.5a6.5 6.5 0 011.904-4.596zM11.5 8A4.5 4.5 0 007 12.5c0 1.847 1.2 3.336 2.695 4.781l.012.012L16 23.586l6.3-6.3c1.492-1.463 2.7-2.95 2.7-4.786A4.5 4.5 0 0020.5 8c-.78 0-1.387.11-1.948.354-.568.248-1.152.66-1.845 1.353a1 1 0 01-1.414 0c-.693-.693-1.277-1.105-1.845-1.353C12.887 8.11 12.28 8 11.5 8z"/></svg><svg fill="currentColor" viewBox="0 0 32 32" id="hourglass" xmlns="http://www.w3.org/2000/svg"><g fill-rule="evenodd" clip-rule="evenodd"><path d="M8 26a1 1 0 011-1h14a1 1 0 110 2H9a1 1 0 01-1-1zM8 6a1 1 0 011-1h14a1 1 0 110 2H9a1 1 0 01-1-1z"/><path d="M15.293 15.293a1 1 0 011.414 0l4.414 4.414a3 3 0 01.879 2.12V26a1 1 0 11-2 0v-4.172a1 1 0 00-.293-.707L16 17.414l-3.707 3.707a1 1 0 00-.293.707V26a1 1 0 11-2 0v-4.172a3 3 0 01.879-2.121l4.414-4.414z"/><path d="M11 5a1 1 0 011 1v4.172a1 1 0 00.293.707L16 14.586l3.707-3.707a1 1 0 00.293-.707V6a1 1 0 112 0v4.172a3 3 0 01-.879 2.121l-4.414 4.414a1 1 0 01-1.414 0l-4.414-4.414a3 3 0 01-.879-2.12V6a1 1 0 011-1z"/></g></svg><svg fill="currentColor" viewBox="0 0 20 20" id="instg" xmlns="http://www.w3.org/2000/svg"><path d="M10 1.807h4.096c.964 0 1.446.241 1.808.362.482.24.843.361 1.204.723.362.361.603.722.723 1.204.12.362.241.844.362 1.808v8.192c0 .964-.241 1.446-.362 1.808-.24.482-.361.843-.723 1.204-.361.362-.723.603-1.204.723-.362.12-.844.241-1.808.362H5.904c-.964 0-1.446-.241-1.808-.362-.482-.24-.843-.361-1.204-.723-.362-.361-.603-.723-.723-1.204-.12-.362-.241-.844-.362-1.808V10 5.904c0-.964.241-1.446.362-1.808.24-.482.361-.843.723-1.204.361-.362.722-.603 1.204-.723.362-.12.844-.241 1.808-.362H10zM10 0H5.904c-1.085 0-1.808.241-2.41.482a5.26 5.26 0 00-1.807 1.205C1.084 2.289.843 2.77.482 3.494.24 4.096.12 4.819 0 5.904v8.192c0 1.085.241 1.808.482 2.41a5.262 5.262 0 001.205 1.807c.602.603 1.084.844 1.807 1.205.602.241 1.325.361 2.41.482h8.192c1.085 0 1.808-.241 2.41-.482a5.263 5.263 0 001.807-1.205c.603-.602.844-1.084 1.205-1.807.241-.602.361-1.325.482-2.41V10 5.904c0-1.085-.241-1.808-.482-2.41a5.261 5.261 0 00-1.205-1.807c-.602-.603-1.084-.844-1.807-1.205C15.904.24 15.181.12 14.096 0H10z"/><path d="M10 4.82A5.142 5.142 0 004.82 10c0 2.892 2.288 5.18 5.18 5.18s5.18-2.288 5.18-5.18S12.893 4.82 10 4.82zm0 8.553A3.368 3.368 0 016.627 10 3.368 3.368 0 0110 6.627 3.368 3.368 0 0113.373 10c0 1.807-1.566 3.373-3.373 3.373zM15.301 5.904a1.205 1.205 0 100-2.41 1.205 1.205 0 000 2.41z"/></svg><svg fill="currentColor" viewBox="0 0 32 32" id="message-square" xmlns="http://www.w3.org/2000/svg"><path fill-rule="evenodd" clip-rule="evenodd" d="M9 8a1 1 0 00-1 1v13.586l2.293-2.293A1 1 0 0111 20h12a1 1 0 001-1V9a1 1 0 00-1-1H9zM6.879 6.879A3 3 0 019 6h14a3 3 0 013 3v10a3 3 0 01-3 3H11.414l-3.707 3.707A1 1 0 016 25V9a3 3 0 01.879-2.121z"/></svg><svg fill="currentColor" viewBox="0 0 20 20" id="pint" xmlns="http://www.w3.org/2000/svg"><path d="M10 0C4.5 0 0 4.5 0 10a9.92 9.92 0 006 9.125c0-.75 0-1.5.125-2.25.25-.875 1.25-5.5 1.25-5.5S7 10.75 7 9.75c0-1.5.875-2.625 1.875-2.625.875 0 1.375.625 1.375 1.5s-.625 2.25-.875 3.5c-.25 1 .5 1.875 1.625 1.875 1.875 0 3.125-2.375 3.125-5.375 0-2.25-1.5-3.875-4.125-3.875C7 4.75 5.125 7 5.125 9.5c0 .875.25 1.5.625 2 .125.25.25.25.125.5 0 .125-.125.625-.25.75-.125.25-.25.375-.5.25-1.375-.625-2-2.125-2-3.875 0-2.875 2.375-6.25 7.125-6.25 3.875 0 6.375 2.75 6.375 5.75 0 3.875-2.125 6.875-5.375 6.875-1.125 0-2.125-.625-2.5-1.25 0 0-.625 2.25-.75 2.75-.25.75-.625 1.5-1 2.125.875.25 1.875.375 2.875.375 5.5 0 10-4.5 10-10C20 4.5 15.5 0 10 0z"/></svg><svg fill="currentColor" viewBox="0 0 32 32" id="play" xmlns="http://www.w3.org/2000/svg"><path fill-rule="evenodd" clip-rule="evenodd" d="M10.52 6.122a1 1 0 011.02.037l14 9a1 1 0 010 1.682l-14 9A1 1 0 0110 25V7a1 1 0 01.52-.878zM12 8.832v14.336L23.15 16 12 8.832z"/></svg><svg fill="currentColor" viewBox="0 0 32 32" id="repeat" xmlns="http://www.w3.org/2000/svg"><g fill-rule="evenodd" clip-rule="evenodd"><path d="M8.293 9.293a1 1 0 011.414 0l3 3a1 1 0 01-1.414 1.414L9 11.414l-2.293 2.293a1 1 0 01-1.414-1.414l3-3z"/><path d="M9 9a1 1 0 011 1v10a1 1 0 001 1h6a1 1 0 110 2h-6a3 3 0 01-3-3V10a1 1 0 011-1zM19.293 18.293a1 1 0 011.414 0L23 20.586l2.293-2.293a1 1 0 011.414 1.414l-3 3a1 1 0 01-1.414 0l-3-3a1 1 0 010-1.414z"/><path d="M14 10a1 1 0 011-1h6a3 3 0 013 3v10a1 1 0 11-2 0V12a1 1 0 00-1-1h-6a1 1 0 01-1-1z"/></g></svg><svg fill="currentColor" viewBox="0 0 32 32" id="star" xmlns="http://www.w3.org/2000/svg"><path fill-rule="evenodd" clip-rule="evenodd" d="M16 5a1 1 0 01.897.557l2.857 5.79 6.39.934a1 1 0 01.554 1.705l-4.623 4.503 1.09 6.362a1 1 0 01-1.45 1.054L16 22.9l-5.714 3.005a1 1 0 01-1.452-1.054l1.092-6.362-4.624-4.503a1 1 0 01.553-1.706l6.39-.933 2.858-5.79A1 1 0 0116 5zm0 3.26l-2.193 4.443a1 1 0 01-.752.546l-4.907.718 3.55 3.457a1 1 0 01.288.885l-.838 4.883 4.387-2.307a1 1 0 01.93 0l4.387 2.307-.838-4.883a1 1 0 01.288-.885l3.55-3.457-4.907-.718a1 1 0 01-.752-.546L16 8.259z"/></svg><svg fill="currentColor" viewBox="0 0 32 32" id="thumbs-up" xmlns="http://www.w3.org/2000/svg"><g fill-rule="evenodd" clip-rule="evenodd"><path d="M11 13a1 1 0 011 1v12a1 1 0 11-2 0V14a1 1 0 011-1z"/><path d="M15.106 5.552A1 1 0 0116.012 5a4.13 4.13 0 013.96 5.118l-.001.002-.7 2.88h4.559a3 3 0 012.88 3.84l-2.33 8A3 3 0 0121.5 27H8a3 3 0 01-3-3v-8a3 3 0 013-3h2.76a1 1 0 00.895-.555v-.003l3.45-6.89zm1.467 1.537l-3.128 6.246v.001A3.001 3.001 0 0110.76 15H8a1 1 0 00-1 1v8a1 1 0 001 1h13.5a1 1 0 00.96-.72l2.33-8a1.002 1.002 0 00-.513-1.174.999.999 0 00-.447-.106H18a1 1 0 01-.972-1.236l1-4.12.001-.004a2.13 2.13 0 00-1.456-2.55z"/></g></svg><svg fill="currentColor" viewBox="0 0 20 16" id="twt" xmlns="http://www.w3.org/2000/svg"><path d="M19.6 1.9c-.7.3-1.5.5-2.3.6.8-.5 1.5-1.3 1.8-2.2-.8.5-1.6.8-2.6 1C15.8.5 14.7 0 13.6 0c-2.2 0-4 1.8-4 4 0 .3 0 .6.1.9C6.4 4.7 3.4 3.1 1.4.7c-.3.6-.5 1.3-.5 2 0 1.4.7 2.6 1.8 3.3C2 6 1.4 5.8.9 5.5c0 1.9 1.4 3.6 3.2 3.9-.3.1-.7.1-1.1.1-.3 0-.5 0-.8-.1.5 1.6 2 2.8 3.8 2.8-1.4 1.1-3.1 1.7-5 1.7-.3 0-.6 0-1-.1 1.8 1.1 3.9 1.8 6.2 1.8 7.4 0 11.4-6.1 11.4-11.4v-.5c.8-.3 1.5-1 2-1.8z"/></svg><svg fill="currentColor" viewBox="0 0 32 32" id="user" xmlns="http://www.w3.org/2000/svg"><g fill-rule="evenodd" clip-rule="evenodd"><path d="M16 8a4 4 0 100 8 4 4 0 000-8zm-6 4a6 6 0 1112 0 6 6 0 01-12 0z"/><path d="M9.636 18.636A9 9 0 0125 25a1 1 0 11-2 0 7 7 0 10-14 0 1 1 0 11-2 0 9 9 0 012.636-6.364z"/></g></svg><svg fill="currentColor" viewBox="0 0 32 32" id="users" xmlns="http://www.w3.org/2000/svg"><g fill-rule="evenodd" clip-rule="evenodd"><path d="M7.05 18.05A7 7 0 0119 23a1 1 0 11-2 0 5 5 0 10-10 0 1 1 0 11-2 0 7 7 0 012.05-4.95z"/><path d="M12 10a3 3 0 100 6 3 3 0 000-6zm-5 3a5 5 0 1110 0 5 5 0 01-10 0zM19 9a1 1 0 011-1 5 5 0 013.25 8.8A6.995 6.995 0 0127 23a1 1 0 11-2 0 5 5 0 00-5-5 1 1 0 110-2 3 3 0 000-6 1 1 0 01-1-1z"/></g></svg><svg fill="currentColor" viewBox="0 0 32 32" id="vote" xmlns="http://www.w3.org/2000/svg"><g fill-rule="evenodd" clip-rule="evenodd"><path d="M19.707 13.293a1 1 0 010 1.414l-4 4a1 1 0 01-1.414 0l-2-2a1 1 0 011.414-1.414L15 16.586l3.293-3.293a1 1 0 011.414 0z"/><path d="M11 10c-.548 0-1 .452-1 1v11h12V11a1 1 0 00-1-1H11zm-3 1c0-1.652 1.348-3 3-3h10a3 3 0 013 3v12a1 1 0 01-1 1H9a1 1 0 01-1-1V11z"/><path d="M5 23a1 1 0 011-1h20a1 1 0 110 2H6a1 1 0 01-1-1z"/></g></svg></svg>