<svg width="156" height="48" viewBox="0 0 156 48" fill="none" xmlns="http://www.w3.org/2000/svg">
<g id="Frame" clip-path="url(#clip0_55_3204)">
<path id="Vector" d="M71.581 21.2712H66.0242L64.172 31.6741V21.2712H64.1122V15.5644H58.0177C54.5521 6.64754 45.9481 0.286865 35.7905 0.286865C25.6329 0.286865 17.0886 6.64754 13.6231 15.5644H7.40905V21.2712V31.6741L5.55679 21.2712H0L4.06303 28.1668L0 35.0625H14.7584C18.7616 42.6716 26.6487 47.8433 35.7905 47.8433C45.0518 47.8433 53.0584 42.5527 57.0019 34.8842L71.6408 35.0625L67.518 28.1668L71.581 21.2712ZM52.7596 10.9871C52.3414 11.3437 52.1621 11.5221 51.7439 11.8193C51.9829 11.8193 52.0426 11.8193 52.2816 11.8193C52.8194 11.8788 53.0584 11.8788 53.5961 11.9976C53.9546 12.4732 54.1339 12.711 54.4326 13.246C53.6559 13.0677 52.9986 12.9488 52.3414 12.8299C52.1621 13.5432 51.9231 14.2566 51.6841 14.9699C51.4451 14.5538 51.2659 14.316 50.9671 13.9593C51.1464 13.4243 51.2061 13.1866 51.3854 12.6515C51.2061 12.5921 51.0866 12.5921 50.9074 12.5327C50.6684 12.711 50.5489 12.8299 50.3099 13.0082C50.0709 12.711 49.8916 12.5327 49.6526 12.2354C50.4294 11.5221 51.2061 10.8087 51.9829 10.0954C52.2816 10.4521 52.4609 10.6304 52.7596 10.9871ZM23.0039 32.5064H48.4576C45.7091 36.6676 41.0485 39.4021 35.671 39.4021C30.2935 39.4021 25.7524 36.6676 23.0039 32.5064ZM28.4412 40.7099C28.4412 40.8288 28.4412 40.8882 28.3815 41.0071C28.3815 41.0665 28.3217 41.0665 28.3217 41.126C28.262 41.2449 28.2022 41.3043 28.1425 41.3638C28.0827 41.4232 27.9632 41.4232 27.8437 41.4232C27.7242 41.4232 27.5449 41.3638 27.4254 41.3043C27.2462 41.2449 27.1267 41.126 27.0669 41.0665C27.0072 40.9476 26.9474 40.8882 26.9474 40.7693C26.9474 40.6504 26.9474 40.591 27.0072 40.4721C27.0072 40.4126 27.0669 40.4126 27.0669 40.3532C27.0669 40.2343 27.1864 40.1749 27.2462 40.1154C27.3059 40.056 27.4254 40.056 27.5449 40.056C27.6644 40.056 27.784 40.1154 27.9632 40.1749C28.0827 40.2343 28.2022 40.2937 28.3217 40.4126C28.3815 40.5315 28.4412 40.591 28.4412 40.7099ZM26.0512 26.7402C25.8122 27.2752 25.4537 27.6318 25.0354 27.9291C24.6172 28.2263 24.0794 28.3452 23.5417 28.3452C22.9442 28.3452 22.4662 28.2263 21.9882 27.9291C21.5102 27.6318 21.2114 27.2752 20.9724 26.7996C20.7334 26.2646 20.6139 25.6701 20.6139 24.9568V23.3518C20.6139 22.6384 20.7334 21.9845 20.9724 21.4495C21.2114 20.9145 21.5699 20.5578 21.9882 20.2606C22.4064 20.0228 22.9442 19.8445 23.4819 19.8445C24.0794 19.8445 24.5574 19.9634 24.9757 20.2606C25.3939 20.5578 25.7524 20.9145 25.9914 21.4495C26.2304 21.9845 26.3499 22.579 26.3499 23.2923V24.8973C26.4097 25.6107 26.2902 26.2051 26.0512 26.7402ZM30.2935 28.2263V19.9634H32.9822C33.759 19.9634 34.4162 20.1417 35.0138 20.4984C35.6113 20.855 36.0295 21.3306 36.388 21.9251C36.7465 22.5195 36.866 23.2329 36.866 23.9462V24.2434C36.866 25.0162 36.6868 25.6701 36.388 26.2646C36.0295 26.859 35.6113 27.3346 35.0138 27.6913C34.4162 28.048 33.759 28.2263 33.042 28.2263C33.042 28.2263 30.2935 28.2263 30.2935 28.2263ZM37.1648 28.1668L40.1523 19.9634H42.1241L45.1116 28.1668H42.9606L42.4826 26.7996H39.8535L39.4353 28.1668H37.1648ZM48.5173 25.254V28.1668H46.3663V25.254L43.7373 19.9634H46.0078L47.4418 23.4112L48.8759 19.9634H51.1464L48.5173 25.254ZM47.4418 9.32259C47.5016 9.08481 47.5613 8.78758 47.8003 8.5498C47.8003 8.49036 47.8601 8.49036 47.8601 8.43091C48.0393 8.19313 48.2783 8.01479 48.5173 7.8959C48.7564 7.77701 49.0551 7.77701 49.3539 7.83645C49.6526 7.8959 49.9514 8.07424 50.2501 8.31202C50.5489 8.5498 50.7281 8.84703 50.9074 9.08481C51.0269 9.32259 51.0866 9.61982 51.0866 9.79816C51.0866 10.0359 50.9671 10.2143 50.8476 10.3926C50.5489 10.0954 50.3696 9.91705 50.0709 9.61982C50.1904 9.50093 50.2501 9.38204 50.1904 9.2037C50.1306 9.02537 50.0709 8.90647 49.8319 8.72814C49.7124 8.60925 49.5929 8.5498 49.4734 8.5498C49.3539 8.5498 49.2344 8.5498 49.1149 8.60925C48.9954 8.66869 48.8759 8.78758 48.6966 8.96592C48.6369 9.02537 48.6369 9.02537 48.6369 9.08481C48.5174 9.26315 48.3979 9.44149 48.3381 9.56038C48.2783 9.67927 48.2783 9.79816 48.3381 9.91705C48.3979 10.0359 48.4576 10.0954 48.5771 10.2143C48.7564 10.3332 48.8759 10.4521 48.9954 10.4521C49.1149 10.4521 49.2344 10.4521 49.3539 10.3332C49.6526 10.6304 49.8319 10.7493 50.0709 11.0465C49.9514 11.3437 49.7124 11.4032 49.5331 11.4032C49.2941 11.4032 49.1149 11.4032 48.8161 11.2843C48.5771 11.1654 48.3381 11.0465 48.0991 10.8087C47.8601 10.571 47.6808 10.3332 47.5613 10.0954C47.4418 9.8576 47.3821 9.56038 47.4418 9.32259ZM47.0236 6.17198C47.1431 6.23142 47.2028 6.29087 47.2626 6.35031C47.1431 7.53923 47.0236 8.66869 46.7846 9.79816C46.4261 9.56038 46.2468 9.44149 45.9481 9.2037C45.9481 8.90647 45.9481 8.78758 46.0078 8.60925C45.5896 8.37146 45.3506 8.25257 44.9323 8.01479C44.7531 8.13368 44.6933 8.25257 44.5141 8.37146C44.1556 8.19313 43.9763 8.07424 43.6178 7.95535C44.4543 7.18255 45.4103 6.46921 46.3663 5.8153C46.6053 5.9342 46.7846 6.05309 47.0236 6.17198ZM41.7058 3.8536C42.3033 4.03194 42.6021 4.09138 43.1996 4.32917C43.7373 4.5075 44.0958 4.74528 44.3348 4.98307C44.5738 5.22085 44.5738 5.51808 44.4543 5.75586C44.3946 5.87475 44.2751 5.99364 44.1556 6.05309C44.0361 6.11253 43.8568 6.17198 43.6776 6.11253C43.8568 6.29087 43.9763 6.46921 43.9763 6.5881C44.0361 6.76643 43.9763 6.88533 43.9763 7.00422C43.6776 7.65812 42.8411 7.53923 42.3033 7.36089C41.8851 7.18255 41.6461 7.12311 41.2278 7.00422C41.1083 6.94477 41.0485 6.94477 40.8693 6.88533C41.168 5.87475 41.4071 4.86418 41.7058 3.8536ZM37.4635 4.62639C38.0013 4.68584 38.5988 4.74528 39.1365 4.80473C39.0768 5.04251 39.0768 5.1614 39.017 5.39919C38.4793 5.39919 37.9415 5.33974 37.4038 5.28029C37.4038 5.04251 37.4038 4.92362 37.4635 4.62639ZM48.5173 15.5644H23.0637C25.8122 11.4626 30.4727 8.72814 35.7905 8.72814C41.1083 8.72814 45.7688 11.4626 48.5173 15.5644ZM32.9225 3.37804C33.281 3.8536 33.4602 4.09138 33.8187 4.56695C34.0577 3.97249 34.1772 3.73471 34.4162 3.1997C34.8943 3.14025 35.1333 3.14025 35.6113 3.14025C35.193 3.79415 34.7748 4.5075 34.4162 5.22085C34.476 5.69641 34.476 5.87475 34.476 6.35031C34.1175 6.35031 33.8785 6.40976 33.52 6.46921C33.4602 6.05309 33.4602 5.8153 33.4005 5.33974C32.9225 4.68584 32.325 4.15083 31.7872 3.55637C32.2652 3.49693 32.5042 3.43748 32.9225 3.37804ZM29.8752 3.91305C30.4727 3.73471 31.13 3.61582 31.7275 3.43748C31.7872 3.67526 31.7872 3.79415 31.847 4.09138C31.2495 4.26972 30.652 4.44806 30.0545 4.62639C30.1142 4.86418 30.174 4.98307 30.2337 5.1614C30.8312 4.98307 31.13 4.92362 31.6677 4.80473C31.7275 5.04251 31.7275 5.1614 31.7872 5.39919C31.1897 5.51808 30.9507 5.57752 30.3532 5.75586C30.413 5.99364 30.4727 6.11253 30.5325 6.35031C31.0702 6.17198 31.608 6.05309 32.1457 5.9342C32.2055 6.17198 32.2055 6.29087 32.2652 6.5881C31.608 6.70699 31.0105 6.88532 30.3532 7.06366C30.1142 7.12311 29.9947 7.18255 29.8155 7.242C29.457 6.23142 29.0985 5.28029 28.7997 4.26972C29.218 4.15083 29.457 4.03194 29.8752 3.91305ZM25.8719 5.57752C26.5889 5.87475 27.2462 6.23142 27.9035 6.64754L27.1864 4.98307C27.6047 4.80473 27.784 4.74528 28.2022 4.56695C28.5607 5.57752 28.979 6.52865 29.3375 7.53923C29.0387 7.59867 28.8595 7.65812 28.501 7.83645C27.8437 7.42034 27.1864 7.06366 26.5292 6.76643C26.8279 7.30144 27.0669 7.83645 27.3657 8.37146C27.0072 8.5498 26.8877 8.60925 26.5292 8.84703C25.9914 7.95535 25.4537 7.06366 24.9159 6.11253C25.3342 5.87475 25.5134 5.75586 25.8719 5.57752ZM22.2869 8.25257C22.4662 8.01479 22.6454 7.71756 22.9442 7.47978C23.2429 7.242 23.5417 7.12311 23.9002 7.06366C24.1989 7.00422 24.4977 7.06366 24.7367 7.12311C24.9757 7.242 25.2147 7.42034 25.3939 7.71756C25.3939 7.77701 25.4537 7.77701 25.4537 7.83645C25.6329 8.01479 25.6927 8.25257 25.6927 8.5498C25.6927 8.84703 25.6329 9.08481 25.5134 9.32259C25.3939 9.56038 25.1549 9.79816 24.9159 9.97649C24.6769 10.1548 24.3782 10.3332 24.0794 10.3926C23.7807 10.4521 23.5417 10.4521 23.2429 10.3926C22.9442 10.3332 22.7052 10.1548 22.5259 9.91705C22.5259 9.8576 22.4662 9.8576 22.4662 9.8576C22.2272 9.61982 22.1077 9.38204 22.1077 9.08481C22.0479 8.78758 22.1077 8.49036 22.2869 8.25257ZM18.5226 12.176C18.6421 11.9976 18.7019 11.8788 18.8811 11.7004C19.6579 11.8788 20.3749 12.0571 21.0919 12.2949C20.7334 11.641 20.4346 10.9276 20.1359 10.2143C20.5541 9.73871 20.7932 9.56038 21.2114 9.08481C21.8089 9.79816 22.5259 10.571 23.2429 11.3437C22.9442 11.641 22.8247 11.7599 22.5259 12.0571C22.3467 11.8788 22.2869 11.8193 22.1077 11.641C21.6894 11.1654 21.4504 10.9276 21.0322 10.4521C21.3309 11.1654 21.6894 11.9382 22.0479 12.6515C21.8687 12.8299 21.8089 12.9488 21.6297 13.1866C20.8529 12.9488 20.0761 12.7704 19.2994 12.6515C19.8371 13.0082 20.1359 13.1866 20.6736 13.4838C20.8529 13.6027 20.9724 13.7216 21.1517 13.8405C20.9127 14.1971 20.7932 14.3755 20.5541 14.7321C19.6579 14.1377 18.7616 13.6027 17.9251 13.0082C18.1641 12.6515 18.2836 12.4732 18.5226 12.176ZM18.2836 27.9885C17.8056 28.1668 17.2679 28.2857 16.6704 28.2857C16.1924 28.2857 15.7144 28.2263 15.2961 28.048C14.8779 27.8696 14.4596 27.6318 14.1609 27.2157C13.8621 26.859 13.7426 26.3835 13.7426 25.8485H15.7741C15.7741 25.9674 15.8339 26.1457 15.8936 26.2646C16.0131 26.3835 16.1326 26.5024 16.2521 26.5618C16.4314 26.6213 16.5509 26.6807 16.7301 26.6807C16.9691 26.6807 17.1484 26.6213 17.2679 26.5618C17.4471 26.5024 17.5666 26.3835 17.6264 26.2646C17.6861 26.1457 17.7459 26.0268 17.7459 25.8485C17.7459 25.4918 17.6264 25.1946 17.4471 25.0757C17.2679 24.8973 16.9691 24.8379 16.6106 24.8379H15.6546V23.2923H16.6106C16.9094 23.2923 17.1484 23.2329 17.3276 23.0545C17.5069 22.8762 17.5666 22.6384 17.5666 22.3412C17.5666 22.2223 17.5069 22.1034 17.4471 21.9845C17.3874 21.8656 17.2679 21.7467 17.1484 21.6873C17.0289 21.6278 16.8496 21.5684 16.6704 21.5684C16.5509 21.5684 16.3716 21.5684 16.2521 21.6278C16.1326 21.6873 16.0131 21.7467 15.9534 21.8062C15.8936 21.8656 15.8339 21.9845 15.8339 22.1034H13.8023C13.8023 21.6278 13.9219 21.2712 14.2206 20.9145C14.4596 20.5578 14.8181 20.32 15.2364 20.1417C15.6546 19.9634 16.1326 19.9039 16.6106 19.9039C17.2081 19.9039 17.7459 19.9634 18.1641 20.2011C18.6421 20.3795 19.0006 20.6767 19.2396 20.9739C19.4786 21.3306 19.5981 21.7467 19.5981 22.2817C19.5981 22.6384 19.4786 22.9951 19.2396 23.2923C19.0006 23.5895 18.7019 23.8273 18.3434 24.0057C18.8811 24.1245 19.2396 24.3623 19.4786 24.6596C19.7176 24.9568 19.8371 25.3729 19.8371 25.8485C19.8371 26.324 19.7176 26.7996 19.4189 27.1563C19.1201 27.5129 18.7616 27.8102 18.2836 27.9885ZM19.5384 37.1431C20.0761 36.727 20.5541 36.2514 21.0919 35.8353C20.8529 35.657 20.6736 35.5381 20.4346 35.3003C20.6139 35.1814 20.6737 35.122 20.8529 34.9436C21.3907 35.3598 21.6894 35.5381 22.2272 35.8948C22.2272 35.8948 22.2272 35.9542 22.2869 35.9542C21.5699 36.6081 20.9127 37.262 20.1956 37.8565C19.8969 37.6187 19.7774 37.4404 19.5384 37.1431ZM23.1832 39.9965C23.0039 40.056 22.7649 40.056 22.5857 39.9965C22.3467 39.9371 22.1674 39.8182 21.9284 39.6398C21.7492 39.4615 21.5699 39.2832 21.4504 39.0454C21.3309 38.867 21.3309 38.6293 21.3907 38.4509C21.4504 38.2726 21.5699 38.0348 21.7492 37.8565C21.9284 37.6781 21.9882 37.6187 22.1077 37.4404C22.2869 37.262 22.4662 37.1431 22.6454 37.0837C22.8247 37.0242 23.0637 37.0242 23.2429 37.0837C23.4222 37.1431 23.6014 37.262 23.7807 37.3809C23.9599 37.5592 24.0794 37.6781 24.1989 37.8565C24.2587 38.0348 24.3184 38.2131 24.2587 38.4509C24.2587 38.6293 24.1392 38.867 24.0197 39.0454C23.9002 39.2237 23.8404 39.2832 23.6612 39.4615C23.5417 39.7587 23.3624 39.9371 23.1832 39.9965ZM26.3499 40.7099C26.2304 40.8882 26.1707 41.0071 26.1109 41.1854C26.0512 41.3638 25.8719 41.5421 25.6927 41.661C25.5134 41.7799 25.3342 41.7799 25.0952 41.7799C24.8562 41.7799 24.6769 41.661 24.4379 41.5421C24.1989 41.4232 24.0197 41.2449 23.9002 41.0665C23.7807 40.8882 23.7209 40.6504 23.7209 40.4721C23.7209 40.2937 23.8404 40.056 23.9599 39.8776C24.0794 39.6993 24.1392 39.6398 24.2587 39.4021C24.3782 39.2237 24.5574 39.0454 24.7367 38.9859C24.9159 38.9265 25.0952 38.8671 25.3342 38.8671C25.5134 38.8671 25.7524 38.9859 25.9317 39.1048C26.1109 39.2237 26.2902 39.3426 26.3499 39.521C26.4694 39.6993 26.5292 39.8776 26.5292 40.056C26.5292 40.2343 26.4694 40.4721 26.3499 40.7099ZM29.3972 43.0282C29.3972 43.0877 29.3972 43.0877 29.3375 43.1471C29.2777 43.266 29.218 43.3255 29.1582 43.3849C29.0985 43.4444 28.979 43.5038 28.7997 43.5038C28.6802 43.5038 28.501 43.5038 28.3217 43.4444C28.1425 43.3849 28.023 43.3255 27.9035 43.2066C27.784 43.0877 27.7242 43.0282 27.7242 42.9093C27.7242 42.7905 27.7242 42.731 27.7242 42.6121C27.7242 42.5527 27.784 42.5527 27.784 42.4932C27.9035 42.3743 27.9632 42.3149 28.0827 42.2554C28.1425 42.196 28.262 42.196 28.4412 42.1366C28.5607 42.1366 28.74 42.1366 28.8595 42.196C29.0387 42.2554 29.1582 42.3149 29.218 42.4338C29.3375 42.4932 29.3972 42.6121 29.3972 42.731C29.3972 42.8499 29.3972 42.9093 29.3972 43.0282ZM27.0669 42.6716C26.8877 42.4932 26.8279 42.4338 26.7084 42.3149C27.5449 41.8988 28.3815 41.4827 29.1582 40.9476C29.2777 41.0665 29.3375 41.126 29.457 41.2449C28.6802 41.7799 27.9035 42.2554 27.0669 42.6716ZM32.0262 43.5038C32.086 43.6227 32.2652 43.7416 32.564 43.801C32.6835 43.801 32.7432 43.801 32.8627 43.801C32.9225 43.801 32.9822 43.801 33.042 43.7416C33.042 43.5632 33.042 43.5038 33.1017 43.3849C32.8627 43.3849 32.7432 43.3255 32.564 43.3255C32.6237 43.1471 32.6237 43.0282 32.6237 42.7905C33.1615 42.8499 33.4602 42.9094 34.0577 42.9688C33.998 43.4444 33.998 43.6821 33.9382 44.1577C33.8785 44.336 33.759 44.3955 33.5797 44.4549C33.4602 44.5144 33.281 44.5144 33.042 44.5144C32.8627 44.5144 32.6237 44.5144 32.3847 44.4549C32.0262 44.3955 31.7872 44.2766 31.5482 44.1577C31.3092 44.0388 31.1897 43.801 31.13 43.5633C31.0702 43.3255 31.0702 43.0877 31.13 42.7905C31.13 42.731 31.13 42.731 31.1897 42.6716C31.2495 42.3743 31.369 42.1366 31.5482 41.9582C31.7275 41.7799 31.9067 41.661 32.1457 41.6015C32.3847 41.5421 32.6237 41.5421 32.8627 41.5421C33.281 41.6015 33.5797 41.7204 33.759 41.9582C33.9382 42.1366 34.0577 42.4338 34.0577 42.731C33.6992 42.731 33.5797 42.6716 33.2212 42.6716C33.2212 42.5527 33.1615 42.4338 33.1017 42.3149C33.042 42.2554 32.9225 42.196 32.7432 42.1366C32.564 42.1366 32.3847 42.1366 32.2652 42.2554C32.1457 42.3743 32.0262 42.5527 31.9665 42.7905V42.9093C31.9067 43.1471 31.9067 43.3849 32.0262 43.5038ZM36.0295 44.6927C36.0295 44.5738 36.0295 44.5738 36.0295 44.4549C35.9698 44.5144 35.8503 44.6333 35.7308 44.6333C35.6113 44.6927 35.4918 44.6927 35.3125 44.6927C35.0138 44.6927 34.8345 44.6333 34.6553 44.4549C34.476 44.336 34.4162 44.0983 34.476 43.8605C34.5358 43.3255 34.5358 43.0282 34.5955 42.4932C34.8943 42.4932 35.0735 42.4932 35.432 42.5527C35.432 43.0877 35.432 43.3849 35.3723 43.9199C35.3723 43.9794 35.3723 44.0388 35.432 44.0983C35.4918 44.1577 35.5515 44.1577 35.671 44.1577C35.8503 44.1577 35.9698 44.0983 36.0295 44.0388C36.0295 43.4444 36.0295 43.1471 36.0295 42.6121C36.2088 42.6121 36.388 42.6121 36.7465 42.6121C36.8063 43.3255 36.8063 44.0388 36.866 44.6927C36.5075 44.6927 36.388 44.6927 36.0295 44.6927ZM39.6743 44.3955C39.3158 44.4549 39.1365 44.5144 38.778 44.5144C38.7183 44.4549 38.7183 44.3955 38.6585 44.336C38.5988 44.3955 38.539 44.4549 38.4195 44.5144C38.3 44.5738 38.1805 44.5738 38.061 44.6333C37.8818 44.6333 37.7623 44.6333 37.583 44.5738C37.4635 44.5144 37.344 44.4549 37.2245 44.3955C37.1648 44.336 37.105 44.2171 37.105 44.0983C37.105 43.8605 37.1648 43.6821 37.4038 43.5633C37.583 43.4444 37.8818 43.3255 38.3 43.266C38.3598 43.266 38.4195 43.266 38.539 43.266C38.539 43.2066 38.539 43.2066 38.539 43.1471C38.539 43.0877 38.4793 43.0282 38.4793 42.9688C38.4195 42.9094 38.3598 42.9093 38.2403 42.9093C38.1805 42.9093 38.1208 42.9094 38.061 42.9688C38.0013 43.0282 38.0013 43.0282 38.0013 43.1471C37.6428 43.2066 37.5233 43.2066 37.1648 43.2066C37.1648 43.0877 37.1648 42.9688 37.2843 42.8499C37.344 42.731 37.4635 42.6716 37.6428 42.5527C37.822 42.4932 38.0013 42.4338 38.1805 42.4338C38.3598 42.4338 38.539 42.4338 38.7183 42.4338C38.8975 42.4338 39.017 42.5527 39.1365 42.6121C39.256 42.731 39.3158 42.8499 39.3158 43.0282C39.3755 43.3255 39.3755 43.5038 39.4353 43.8605C39.495 44.0388 39.495 44.0983 39.5548 44.1577C39.5548 44.2172 39.6145 44.2766 39.6743 44.3955C39.6743 44.336 39.6743 44.336 39.6743 44.3955ZM41.168 42.5527C41.1083 42.5527 40.9888 42.5527 40.9888 42.6121C40.8693 42.6121 40.7498 42.6716 40.69 42.731C40.6303 42.7905 40.5705 42.8499 40.5705 42.9093C40.69 43.3849 40.7498 43.6821 40.8693 44.1577C40.5108 44.2172 40.3315 44.2766 39.973 44.336C39.8535 43.6227 39.6743 42.9688 39.5548 42.2554C39.8535 42.196 39.973 42.196 40.2718 42.0771C40.3315 42.196 40.3315 42.2554 40.3913 42.3149C40.451 42.196 40.5108 42.1366 40.5705 42.0177C40.6303 41.9582 40.7498 41.8988 40.8693 41.8393C40.929 41.8988 40.9888 41.8988 41.0485 41.8988C41.1083 42.1366 41.168 42.3149 41.168 42.5527ZM43.3788 43.3255C43.3191 43.3255 43.3191 43.266 43.2593 43.2066C43.1996 43.266 43.1398 43.3849 43.0801 43.4444C43.0203 43.5038 42.9008 43.5633 42.7216 43.6227C42.5423 43.6821 42.4228 43.6821 42.2436 43.6821C42.0643 43.6821 41.9448 43.6227 41.8253 43.5633C41.7058 43.5038 41.6461 43.3849 41.5863 43.266C41.5265 43.0282 41.5863 42.8499 41.7058 42.6716C41.8851 42.4932 42.1241 42.3743 42.5423 42.196C42.6021 42.196 42.6618 42.1366 42.7813 42.1366C42.7813 42.0771 42.7813 42.0771 42.7216 42.0177C42.7216 41.9582 42.6618 41.8988 42.6021 41.8393C42.5423 41.8393 42.4826 41.8393 42.3631 41.8393C42.3033 41.8393 42.2436 41.8988 42.1838 41.9582C42.1241 42.0177 42.1838 42.0771 42.1838 42.1366C41.8851 42.2554 41.7058 42.3149 41.3473 42.3743C41.2875 42.2554 41.3473 42.1366 41.3473 41.9582C41.407 41.8393 41.5265 41.7204 41.646 41.6015C41.7655 41.4827 41.9448 41.4232 42.1838 41.3043C42.3631 41.2449 42.5423 41.1854 42.7216 41.1854C42.9008 41.1854 43.0203 41.1854 43.1398 41.3043C43.2593 41.3638 43.3788 41.4827 43.4386 41.661L43.7373 42.4338C43.9763 42.6716 44.0361 42.7905 44.0361 42.8499C44.0958 42.9093 44.1556 42.9688 44.2153 42.9688C43.8568 43.0877 43.7373 43.2066 43.3788 43.3255ZM45.9481 42.2554C45.7091 41.7799 45.5896 41.5421 45.3506 41.126C45.2908 41.0665 45.2908 41.0071 45.2311 41.0071C45.1713 41.0071 45.1713 41.0071 45.1116 41.0071C45.0518 41.0071 44.9921 41.0665 44.9323 41.0665C44.8128 41.126 44.7531 41.1854 44.6933 41.3043C44.9323 41.8393 45.1116 42.0771 45.3506 42.6121C44.9921 42.7905 44.8726 42.8499 44.5141 43.0282C44.2153 42.3743 43.9166 41.7204 43.6776 41.126C43.9763 41.0071 44.0958 40.9476 44.3946 40.7693C44.4543 40.8288 44.4543 40.8882 44.5141 40.9476C44.5738 40.8288 44.6336 40.7099 44.6933 40.591C44.7531 40.4721 44.8726 40.4126 44.9921 40.3532C45.2311 40.1749 45.4103 40.1154 45.5896 40.1749C45.7688 40.2343 45.9481 40.3532 46.1273 40.6504C46.4261 41.126 46.5456 41.3043 46.7846 41.7799C46.4858 41.9582 46.3066 42.0771 45.9481 42.2554ZM48.0991 40.9476C47.8601 41.126 47.6211 41.1854 47.4418 41.1854C47.2626 41.1854 47.0833 41.0665 46.9638 40.8882C46.7846 40.5315 46.6651 40.4126 46.4261 40.056C46.3066 40.1154 46.2468 40.1749 46.1871 40.2343C46.0676 40.056 46.0078 39.9965 45.9481 39.8182C46.0676 39.7587 46.1273 39.6993 46.1871 39.6398C46.0676 39.4615 46.0078 39.3426 45.8883 39.1643C46.1871 38.9859 46.3066 38.9265 46.5456 38.6887C46.6651 38.867 46.7248 38.9265 46.8443 39.1048C46.9638 38.9859 47.0236 38.9859 47.2028 38.8671C47.3223 39.0454 47.3821 39.1048 47.5016 39.2832C47.3821 39.4021 47.3223 39.4021 47.1431 39.521C47.3223 39.8182 47.4418 39.9371 47.6211 40.2343C47.6211 40.2937 47.6808 40.2937 47.6808 40.2937C47.6808 40.2937 47.7406 40.2937 47.8003 40.2937C47.8601 40.2937 47.8601 40.2343 47.9796 40.2343C48.0393 40.2343 48.0991 40.2343 48.1588 40.1749C48.2783 40.3532 48.3381 40.4126 48.4576 40.591C48.3381 40.7099 48.2186 40.8288 48.0991 40.9476ZM50.4294 38.8671C50.3696 38.9859 50.3099 39.1048 50.2501 39.2237C50.1904 39.3426 50.0709 39.4615 49.8916 39.5804C49.6526 39.7587 49.4136 39.9371 49.1746 39.9965C48.9356 40.056 48.7564 40.056 48.5173 39.9965C48.3381 39.9371 48.1588 39.8182 48.0991 39.6993C48.0991 39.6993 48.0991 39.6398 48.0393 39.6398C47.9198 39.4615 47.8601 39.2832 47.8003 39.1048C47.8003 38.9265 47.8003 38.7482 47.9198 38.5104C48.0393 38.2726 48.1588 38.1537 48.3978 37.9754C48.5771 37.797 48.7564 37.6781 48.9356 37.6187C49.1149 37.5592 49.2941 37.5592 49.4734 37.6187C49.6526 37.6781 49.8319 37.7376 49.9514 37.9159C50.0111 38.0348 50.0709 38.0348 50.1306 38.1537C49.7124 38.5698 49.2941 38.9265 48.8759 39.2832C48.9356 39.3426 49.0551 39.3426 49.1746 39.3426C49.2941 39.3426 49.4136 39.2832 49.5331 39.1643C49.6526 39.1048 49.7124 38.9859 49.7721 38.8671C49.8319 38.7482 49.8916 38.6887 49.8916 38.5698C50.1306 38.5698 50.2501 38.5698 50.4891 38.5698C50.4891 38.6293 50.4891 38.7482 50.4294 38.8671ZM52.4011 36.6676C52.4011 36.7865 52.3414 36.9053 52.2219 37.0837C52.1621 37.2026 52.0426 37.3809 51.9231 37.4998C51.6841 37.7376 51.5049 37.9159 51.2659 38.0348C51.0269 38.1537 50.8476 38.1537 50.6086 38.1537C50.4294 38.1537 50.2501 38.0348 50.1306 37.9159V37.797C50.0111 37.6781 49.8916 37.4998 49.8319 37.3215C49.7721 37.1431 49.7721 36.9648 49.8319 36.727C49.8916 36.5487 50.0111 36.3109 50.1904 36.0731C50.3696 35.8948 50.5489 35.7164 50.7281 35.657C50.9074 35.5381 51.0866 35.5381 51.2659 35.5381C51.4451 35.5381 51.6244 35.5975 51.8036 35.7759C51.9829 35.8353 51.9829 35.8948 52.1024 35.9542C51.7439 36.4298 51.3854 36.8459 50.9671 37.262C51.0866 37.3215 51.1464 37.3215 51.2659 37.262C51.3854 37.2026 51.5049 37.1431 51.5646 37.0242C51.6244 36.9053 51.7439 36.8459 51.7439 36.727C51.8036 36.6081 51.8036 36.4892 51.8036 36.4298C52.0426 36.4298 52.1621 36.3703 52.4011 36.3703C52.4011 36.4298 52.4011 36.5487 52.4011 36.6676ZM54.0741 22.7573C54.3131 22.9356 54.6716 23.0545 55.1497 23.2329C56.0459 23.5301 56.7629 23.8868 57.1812 24.3029C57.6592 24.719 57.8982 25.3135 57.8982 25.9674C57.8982 26.4429 57.7787 26.859 57.5397 27.2157C57.3007 27.5724 56.9422 27.8102 56.4642 27.9885C55.9862 28.1668 55.4484 28.2857 54.8509 28.2857C54.2534 28.2857 53.6559 28.1668 53.1779 27.9885C52.6999 27.8102 52.2219 27.4535 51.8634 27.0374C51.5049 26.6213 51.3854 26.0862 51.3854 25.4323H53.4766C53.4766 25.7296 53.5364 25.9674 53.5961 26.1457C53.7156 26.324 53.8351 26.4429 54.0144 26.5024C54.1936 26.5618 54.4924 26.6213 54.7911 26.6213C55.1496 26.6213 55.3887 26.5618 55.5082 26.4429C55.6874 26.324 55.7472 26.1457 55.7472 25.9674C55.7472 25.789 55.6874 25.6701 55.6277 25.5512C55.5679 25.4323 55.4484 25.3135 55.2094 25.1946C55.0301 25.0757 54.7314 24.9568 54.3131 24.8379C53.8351 24.6596 53.3571 24.4812 52.9986 24.2434C52.5804 24.0057 52.2816 23.7679 51.9829 23.4112C51.7439 23.0545 51.5646 22.6384 51.5646 22.1628C51.5646 21.6873 51.6841 21.2712 51.9829 20.9145C52.2816 20.5578 52.6401 20.32 53.1181 20.0822C53.5961 19.9039 54.1339 19.785 54.7911 19.785C55.3886 19.785 55.9264 19.9039 56.4044 20.0822C56.8824 20.2606 57.2409 20.5578 57.4799 20.9739C57.7189 21.3306 57.8982 21.8062 57.8982 22.3412H55.8069C55.8069 22.0439 55.7472 21.8656 55.5082 21.6873C55.3289 21.5089 55.0899 21.4495 54.7314 21.4495C54.4924 21.4495 54.3131 21.4495 54.1339 21.5684C53.9546 21.6278 53.8351 21.6873 53.7754 21.8062C53.7156 21.9845 53.7156 22.0439 53.7156 22.2223C53.7156 22.4006 53.8351 22.579 54.0741 22.7573Z" fill="#1D3E7C"/>
<path id="Vector_2" d="M25.6929 39.5211C25.5734 39.4617 25.5136 39.4617 25.3941 39.4617C25.2746 39.5211 25.2149 39.5806 25.0954 39.7589C24.9161 39.9967 24.8564 40.1156 24.6771 40.3534C24.5576 40.5317 24.4979 40.6506 24.5576 40.7695C24.6174 40.8884 24.6174 40.9478 24.7369 41.0073C24.8564 41.0667 24.9759 41.0667 25.0356 41.0667C25.1551 41.0073 25.2149 40.9478 25.3344 40.7695C25.4539 40.5317 25.5734 40.4128 25.6929 40.175C25.8124 39.9967 25.8721 39.8778 25.8721 39.7589C25.8721 39.64 25.8124 39.5806 25.6929 39.5211Z" fill="#1D3E7C"/>
<path id="Vector_3" d="M42.8411 6.82589C42.9606 6.82589 43.0203 6.76644 43.0203 6.64755C43.0801 6.40977 43.0203 6.29088 42.7216 6.17199C42.4826 6.11254 42.3631 6.0531 42.1241 5.99365L41.9448 6.58811C42.1838 6.64755 42.2436 6.707 42.4826 6.76644C42.6618 6.82589 42.7813 6.82589 42.8411 6.82589Z" fill="#1D3E7C"/>
<path id="Vector_4" d="M43.1998 5.63693C43.3193 5.63693 43.379 5.57748 43.4388 5.45859C43.4985 5.3397 43.4388 5.22081 43.379 5.16136C43.3193 5.10192 43.14 5.04247 42.9608 4.98302C42.7815 4.92358 42.7218 4.86413 42.5425 4.80469C42.4828 5.04247 42.423 5.16136 42.3633 5.39914C42.5425 5.45859 42.6023 5.45859 42.7815 5.51803C42.901 5.63693 43.0803 5.69637 43.1998 5.63693Z" fill="#1D3E7C"/>
<path id="Vector_5" d="M23.1237 37.7971C23.0042 37.7971 22.8847 37.916 22.7652 38.0349C22.5859 38.2726 22.4664 38.3321 22.2872 38.5699C22.1677 38.6888 22.1079 38.8671 22.1079 38.9266C22.1079 39.0454 22.1677 39.1049 22.2872 39.2238C22.4067 39.2832 22.4664 39.3427 22.5859 39.3427C22.7054 39.3427 22.8249 39.2238 22.9444 39.1049C23.1237 38.8671 23.2432 38.7482 23.4224 38.5699C23.4822 38.3915 23.5419 38.2726 23.5419 38.1538C23.5419 38.0349 23.4822 37.9754 23.4224 37.8565C23.3029 37.7971 23.2432 37.7376 23.1237 37.7971Z" fill="#1D3E7C"/>
<path id="Vector_6" d="M46.3067 6.82593C45.9482 7.06371 45.8287 7.24205 45.4702 7.47983C45.769 7.65817 45.8885 7.71761 46.1275 7.89595C46.1872 7.47983 46.247 7.24205 46.3067 6.82593Z" fill="#1D3E7C"/>
<path id="Vector_7" d="M27.7838 40.4127C27.724 40.4127 27.6643 40.3532 27.6045 40.4127C27.5448 40.4721 27.5448 40.4721 27.485 40.5315C27.485 40.591 27.4253 40.591 27.4253 40.6504C27.4253 40.7693 27.4253 40.7693 27.4253 40.8288C27.4253 40.8882 27.485 40.9477 27.5448 40.9477C27.6045 40.9477 27.6643 41.0071 27.724 40.9477C27.7838 40.9477 27.7838 40.8882 27.8435 40.8288C27.8435 40.7693 27.9033 40.7693 27.9033 40.7099C27.9033 40.6504 27.9033 40.591 27.9033 40.5315C27.9033 40.4721 27.8435 40.4721 27.7838 40.4127Z" fill="#1D3E7C"/>
<path id="Vector_8" d="M28.6803 42.5527C28.6205 42.5527 28.5608 42.5527 28.501 42.5527C28.4413 42.5527 28.4413 42.6122 28.3815 42.6716C28.3815 42.7311 28.3815 42.7311 28.3218 42.7905C28.3218 42.85 28.3218 42.9094 28.3815 42.9689C28.4413 43.0283 28.4413 43.0877 28.501 43.0877C28.6205 43.1472 28.6803 43.1472 28.6803 43.0877C28.74 43.0877 28.74 43.0283 28.7998 42.9689C28.7998 42.9094 28.7998 42.9094 28.8595 42.85C28.8595 42.7905 28.8595 42.7311 28.8595 42.6716C28.8595 42.6122 28.7998 42.6122 28.6803 42.5527Z" fill="#1D3E7C"/>
<path id="Vector_9" d="M23.5418 21.509C23.243 21.509 23.0638 21.6279 22.8845 21.8657C22.765 22.1035 22.6455 22.5196 22.6455 23.0546V25.1352C22.6455 25.7297 22.7053 26.0863 22.8845 26.3241C23.004 26.5619 23.243 26.6808 23.5418 26.6808C23.8405 26.6808 24.0198 26.5619 24.199 26.3241C24.3185 26.0863 24.438 25.6702 24.438 25.1352V23.0546C24.438 22.4602 24.3185 22.1035 24.199 21.8657C24.0198 21.6279 23.8405 21.509 23.5418 21.509Z" fill="#1D3E7C"/>
<path id="Vector_10" d="M33.0418 21.6279H32.4443V26.443H33.1016C33.6393 26.443 33.9978 26.2647 34.2966 25.8486C34.5954 25.4324 34.7149 24.8974 34.7149 24.1841V23.8869C34.7149 23.1735 34.5954 22.5791 34.2966 22.2224C33.9978 21.8657 33.5796 21.6279 33.0418 21.6279Z" fill="#1D3E7C"/>
<path id="Vector_11" d="M41.1679 22.5195L40.3911 25.1351H42.0044L41.1679 22.5195Z" fill="#1D3E7C"/>
<path id="Vector_12" d="M23.3025 9.26331C23.4818 9.5011 23.6611 9.61999 23.8403 9.67943C24.0196 9.73888 24.1988 9.67943 24.4378 9.56054C24.6171 9.44165 24.7366 9.26331 24.7366 9.08498C24.7366 8.90664 24.6768 8.66886 24.4976 8.43108C24.4976 8.37163 24.4378 8.37163 24.4378 8.31219C24.2586 7.95551 24.0793 7.83662 23.9001 7.77717C23.7208 7.71773 23.4818 7.77717 23.3025 7.95551C22.8843 8.25274 22.8843 8.66886 23.2428 9.14442C23.2428 9.20387 23.3025 9.20387 23.3025 9.26331Z" fill="#1D3E7C"/>
<path id="Vector_13" d="M49.1151 38.3322C49.0553 38.2727 48.8761 38.2727 48.6968 38.4511C48.5773 38.5105 48.5773 38.6294 48.5176 38.6889C48.5176 38.7483 48.5176 38.8672 48.5773 38.9266C48.8163 38.7483 48.9358 38.6294 49.1151 38.3322C49.1748 38.3916 49.1748 38.3916 49.1151 38.3322Z" fill="#1D3E7C"/>
<path id="Vector_14" d="M51.0866 36.3109C51.0268 36.2514 50.8476 36.2514 50.6683 36.4892C50.6086 36.6081 50.5488 36.6675 50.5488 36.727C50.5488 36.7864 50.5488 36.9053 50.6086 36.9648C50.8476 36.727 50.9073 36.6081 51.1463 36.3703C51.1463 36.3703 51.1463 36.3703 51.0866 36.3109Z" fill="#1D3E7C"/>
<path id="Vector_15" d="M42.7218 42.6122C42.6023 42.6716 42.5426 42.7311 42.4828 42.7905C42.4231 42.85 42.4231 42.9094 42.4828 43.0283C42.4828 43.0877 42.5426 43.0877 42.6023 43.0877C42.6621 43.0877 42.7218 43.0877 42.7816 43.0877C42.8413 43.0877 42.9011 43.0283 42.9608 42.9689C43.0206 42.9094 43.0206 42.85 43.0803 42.85C43.0206 42.7311 43.0206 42.6716 42.9608 42.5527C42.8413 42.6122 42.8413 42.6122 42.7218 42.6122Z" fill="#1D3E7C"/>
<path id="Vector_16" d="M38.2402 43.6228C38.1207 43.6228 38.0012 43.6822 38.0012 43.7417C37.9414 43.8011 37.9414 43.8606 37.9414 43.92C37.9414 43.9795 37.9414 43.9795 38.0012 44.0389C38.0609 44.0389 38.1207 44.0389 38.1804 44.0389C38.2999 44.0984 38.3597 44.0984 38.4194 44.0389C38.4792 43.9795 38.5389 43.9795 38.5389 43.92C38.5389 43.8011 38.5389 43.7417 38.4792 43.6228C38.3597 43.6228 38.3597 43.6228 38.2402 43.6228Z" fill="#1D3E7C"/>
<path id="Vector_17" d="M40.8691 36.0731L41.7056 35.5976L42.5421 36.0731L42.3031 35.122L43.0201 34.4681L42.0641 34.3492L41.6459 33.4575L41.3471 34.3492L40.3911 34.4681L41.1081 35.122L40.8691 36.0731Z" fill="#1D3E7C"/>
<path id="Vector_18" d="M40.8691 14.6727L41.7056 14.1972L42.5421 14.6727L42.3031 13.7216L43.0201 13.0677L42.0641 12.9488L41.6459 12.0571L41.3471 12.9488L40.3911 13.0677L41.1081 13.7216L40.8691 14.6727Z" fill="#1D3E7C"/>
<path id="Vector_19" d="M30.3532 34.3492L29.9349 33.4575L29.6362 34.3492L28.6802 34.4681L29.3972 35.122L29.1582 36.0731L29.9947 35.5976L30.8312 36.0731L30.5922 35.122L31.3092 34.4681L30.3532 34.3492Z" fill="#1D3E7C"/>
<path id="Vector_20" d="M29.1582 14.6727L29.9947 14.1972L30.8312 14.6727L30.5922 13.7216L31.3092 13.0677L30.3532 12.9488L29.9349 12.0571L29.6362 12.9488L28.6802 13.0677L29.3972 13.7216L29.1582 14.6727Z" fill="#1D3E7C"/>
<path id="Vector_21" d="M35.7903 36.7865L37.0451 37.4404L36.7463 36.0731L37.8218 35.122L36.3878 35.0031L35.7903 33.6953L35.1928 35.0626L33.7588 35.1815L34.8343 36.1326L34.5355 37.4998L35.7903 36.7865Z" fill="#1D3E7C"/>
<path id="Vector_22" d="M34.5355 14.4945L35.7903 13.7811L37.0451 14.435L36.7463 13.0678L37.8218 12.1166L36.3878 11.9977L35.7903 10.6899L35.1928 12.0572L33.7588 12.1761L34.8343 13.1272L34.5355 14.4945Z" fill="#1D3E7C"/>
<path id="Vector_23" d="M81.3799 13.9595H82.6346L82.8736 19.3096V21.4496H81.3799V13.9595ZM82.0371 13.9595H83.2919L85.1442 19.4285L86.9964 13.9595H88.2512L85.6222 21.3902H84.6064L82.0371 13.9595ZM87.7134 13.9595H88.9682V21.3902H87.4744V19.3096L87.7134 13.9595Z" fill="#1D3E7C"/>
<path id="Vector_24" d="M96.258 17.5261V17.8828C96.258 18.4772 96.1982 18.9528 96.019 19.4283C95.8397 19.9039 95.6605 20.2606 95.3617 20.5578C95.063 20.855 94.7642 21.0928 94.4057 21.2712C94.0472 21.4495 93.629 21.5089 93.151 21.5089C92.673 21.5089 92.2547 21.4495 91.8962 21.2712C91.5377 21.0928 91.1792 20.855 90.9402 20.5578C90.7012 20.2606 90.4622 19.8445 90.283 19.4283C90.1037 18.9528 90.0439 18.4772 90.0439 17.8828V17.5261C90.0439 16.9316 90.1037 16.4561 90.283 15.9805C90.4622 15.5049 90.6414 15.1483 90.9402 14.851C91.239 14.5538 91.5377 14.316 91.8962 14.1377C92.2547 13.9593 92.673 13.8999 93.151 13.8999C93.629 13.8999 94.0472 13.9593 94.4057 14.1377C94.7642 14.316 95.1227 14.5538 95.3617 14.851C95.6605 15.1483 95.8397 15.5644 96.019 15.9805C96.1385 16.4561 96.258 16.9316 96.258 17.5261ZM94.7045 17.8828V17.5261C94.7045 17.11 94.6447 16.8127 94.585 16.4561C94.5252 16.1588 94.4057 15.9211 94.2862 15.6833C94.1667 15.5049 93.9875 15.3266 93.8082 15.2077C93.629 15.0888 93.39 15.0294 93.151 15.0294C92.912 15.0294 92.673 15.0888 92.4937 15.2077C92.3145 15.3266 92.1352 15.4455 92.0157 15.6833C91.8962 15.8616 91.7767 16.1588 91.717 16.4561C91.6572 16.7533 91.5975 17.11 91.5975 17.5261V17.8828C91.5975 18.2989 91.6572 18.5961 91.717 18.8933C91.7767 19.1906 91.8962 19.4283 92.0157 19.6661C92.1352 19.8445 92.3145 20.0228 92.4937 20.1417C92.673 20.2606 92.912 20.32 93.151 20.32C93.39 20.32 93.629 20.2606 93.8082 20.1417C93.9875 20.0228 94.1667 19.9039 94.2862 19.6661C94.4057 19.4878 94.5252 19.1906 94.585 18.8933C94.7045 18.5961 94.7045 18.2394 94.7045 17.8828Z" fill="#1D3E7C"/>
<path id="Vector_25" d="M103.189 13.9595V21.3902H101.695L98.7672 16.3967V21.3902H97.2734V13.9595H98.7672L101.695 18.9529V13.9595H103.189Z" fill="#1D3E7C"/>
<path id="Vector_26" d="M105.997 13.9595V21.3902H104.503V13.9595H105.997ZM109.343 13.9595V15.1484H105.519V13.9595H109.343ZM108.865 16.9912V18.1801H105.519V16.9912H108.865ZM109.343 20.2013V21.3902H105.459V20.2013H109.343Z" fill="#1D3E7C"/>
<path id="Vector_27" d="M111.195 13.9595L112.689 17.3479L114.183 13.9595H115.796L113.406 18.7151V21.4496H111.912V18.7151L109.522 13.9595H111.195Z" fill="#1D3E7C"/>
<path id="Vector_28" d="M121.891 18.1801H120.039V17.1101H121.592C121.891 17.1101 122.07 17.0506 122.249 16.9912C122.429 16.9318 122.548 16.8129 122.668 16.694C122.727 16.5751 122.787 16.3967 122.787 16.159C122.787 15.9212 122.727 15.7428 122.668 15.6239C122.608 15.5051 122.429 15.3862 122.249 15.3267C122.07 15.2673 121.891 15.1484 121.592 15.1484H120.576V21.3902H119.083V13.9595H121.592C122.01 13.9595 122.369 14.0189 122.727 14.0784C123.086 14.1378 123.325 14.2567 123.564 14.435C123.803 14.6134 123.982 14.7917 124.102 15.0889C124.221 15.3267 124.281 15.6239 124.281 15.9806C124.281 16.2779 124.221 16.5751 124.102 16.8129C123.982 17.0506 123.743 17.2884 123.444 17.4668C123.146 17.6451 122.787 17.7045 122.309 17.764L121.891 18.1801ZM121.831 21.3902H119.62L120.218 20.2013H121.831C122.07 20.2013 122.309 20.1418 122.488 20.0824C122.668 20.0229 122.787 19.904 122.847 19.7257C122.907 19.5474 122.966 19.4285 122.966 19.1907C122.966 18.9529 122.907 18.7746 122.847 18.5962C122.787 18.4179 122.668 18.299 122.488 18.2396C122.309 18.1801 122.13 18.1207 121.891 18.1207H120.457V17.0506H122.249L122.608 17.4668C123.026 17.4668 123.385 17.5262 123.683 17.7045C123.982 17.8829 124.161 18.0612 124.281 18.3584C124.4 18.5962 124.46 18.8935 124.46 19.1907C124.46 19.6662 124.341 20.0824 124.161 20.3796C123.982 20.6768 123.683 20.9741 123.265 21.0929C122.847 21.3307 122.429 21.3902 121.831 21.3902Z" fill="#1D3E7C"/>
<path id="Vector_29" d="M128.523 15.2673L126.551 21.4496H124.938L127.627 14.0189H128.643L128.523 15.2673ZM130.077 18.6557V19.8446H126.252V18.6557H130.077ZM130.136 21.3902L128.165 15.2078L127.985 13.9595H129.001L131.69 21.3902H130.136Z" fill="#1D3E7C"/>
<path id="Vector_30" d="M136.53 18.9529H138.023C137.964 19.4285 137.844 19.904 137.605 20.2607C137.366 20.6768 137.067 20.974 136.589 21.1524C136.171 21.3902 135.633 21.5091 135.036 21.5091C134.558 21.5091 134.14 21.4496 133.781 21.2713C133.423 21.0929 133.124 20.8552 132.825 20.5579C132.586 20.2607 132.347 19.8446 132.228 19.4285C132.108 19.0123 132.048 18.4773 132.048 17.9423V17.4073C132.048 16.8723 132.108 16.3967 132.287 15.9212C132.407 15.5051 132.646 15.0889 132.885 14.7917C133.124 14.4945 133.482 14.2567 133.841 14.0784C134.199 13.9 134.618 13.8406 135.096 13.8406C135.693 13.8406 136.231 13.9595 136.649 14.1972C137.067 14.435 137.366 14.7323 137.605 15.1484C137.844 15.5645 137.964 15.9806 138.023 16.5156H136.53C136.53 16.2184 136.47 15.9806 136.35 15.7428C136.231 15.5051 136.111 15.3862 135.872 15.2673C135.693 15.1484 135.394 15.0889 135.096 15.0889C134.857 15.0889 134.618 15.1484 134.438 15.2078C134.259 15.3267 134.08 15.4456 133.96 15.6239C133.841 15.8023 133.721 16.0401 133.662 16.3373C133.602 16.6345 133.542 16.9912 133.542 17.3479V17.8829C133.542 18.2396 133.542 18.5962 133.602 18.8935C133.662 19.1907 133.721 19.4285 133.841 19.6068C133.96 19.7851 134.14 19.9635 134.319 20.0824C134.498 20.2013 134.737 20.2607 134.976 20.2607C135.275 20.2607 135.574 20.2013 135.753 20.0824C135.932 19.9635 136.111 19.8446 136.231 19.6068C136.47 19.4879 136.53 19.2501 136.53 18.9529Z" fill="#1D3E7C"/>
<path id="Vector_31" d="M140.473 13.9595V21.3902H138.979V13.9595H140.473ZM144.835 13.9595L141.967 17.6451L140.294 19.4879L140.055 18.0612L141.19 16.5156L143.043 14.0189H144.835V13.9595ZM143.102 21.3902L140.951 17.9423L142.027 16.9912L144.835 21.3902H143.102Z" fill="#1D3E7C"/>
<path id="Vector_32" d="M84.7259 26.5024V33.9331H83.2918V28.2264L81.5591 28.7614V27.5725L84.5466 26.5024H84.7259Z" fill="#1D3E7C"/>
<path id="Vector_33" d="M91.9559 29.5935V30.9013C91.9559 31.4363 91.8961 31.9119 91.7766 32.328C91.6571 32.7441 91.4779 33.0413 91.2986 33.3386C91.0596 33.5763 90.8206 33.8141 90.5219 33.933C90.2231 34.0519 89.8646 34.1114 89.5061 34.1114C89.2073 34.1114 88.9683 34.0519 88.6696 33.9925C88.4306 33.933 88.1916 33.8141 88.0123 33.6358C87.8331 33.4574 87.6538 33.2791 87.4746 33.0413C87.3551 32.8035 87.2356 32.5063 87.1161 32.1496C87.0563 31.793 86.9966 31.3769 86.9966 30.9607V29.6529C86.9966 29.1179 87.0563 28.6424 87.1758 28.2262C87.2953 27.8101 87.4746 27.5129 87.6538 27.2157C87.8928 26.9779 88.1318 26.7995 88.4306 26.6212C88.7293 26.5023 89.0878 26.4429 89.4463 26.4429C89.7451 26.4429 89.9841 26.5023 90.2829 26.5618C90.5219 26.6212 90.7609 26.7401 90.9401 26.9184C91.1194 27.0968 91.2986 27.2751 91.4779 27.5129C91.5974 27.7507 91.7169 28.0479 91.8364 28.4046C91.8961 28.7612 91.9559 29.1774 91.9559 29.5935ZM90.5219 31.0796V29.4152C90.5219 29.1179 90.5219 28.9396 90.4621 28.7018C90.4621 28.5235 90.4024 28.3451 90.3426 28.1668C90.2829 28.0479 90.2231 27.929 90.1633 27.8101C90.1036 27.6912 89.9841 27.6318 89.8646 27.6318C89.7451 27.6318 89.6256 27.5723 89.5061 27.5723C89.3268 27.5723 89.2073 27.6318 89.0878 27.6912C88.9683 27.7507 88.8488 27.8696 88.7891 27.9885C88.7293 28.1073 88.6098 28.3451 88.6098 28.5235C88.5501 28.7612 88.5501 29.0585 88.5501 29.3557V31.0202C88.5501 31.3174 88.5501 31.5552 88.6098 31.7335C88.6098 31.9119 88.6696 32.0902 88.7293 32.2685C88.7891 32.4469 88.8488 32.5063 88.9683 32.6252C89.0281 32.7441 89.1476 32.8035 89.2671 32.8035C89.3866 32.863 89.5061 32.863 89.6256 32.863C89.8048 32.863 89.9243 32.8035 90.0438 32.7441C90.1633 32.6847 90.2829 32.5658 90.3426 32.4469C90.4024 32.328 90.5219 32.0902 90.5219 31.8524C90.4621 31.7335 90.5219 31.4363 90.5219 31.0796Z" fill="#1D3E7C"/>
<path id="Vector_34" d="M97.7518 29.5935V30.9013C97.7518 31.4363 97.692 31.9119 97.5725 32.328C97.453 32.7441 97.2738 33.0413 97.0945 33.3386C96.8555 33.5763 96.6165 33.8141 96.3178 33.933C96.019 34.0519 95.6605 34.1114 95.302 34.1114C95.0032 34.1114 94.7642 34.0519 94.4655 33.9925C94.2265 33.933 93.9875 33.8141 93.8082 33.6358C93.629 33.4574 93.4497 33.2791 93.2705 33.0413C93.151 32.8035 93.0315 32.5063 92.912 32.1496C92.8522 31.793 92.7925 31.3769 92.7925 30.9607V29.6529C92.7925 29.1179 92.8522 28.6424 92.9717 28.2262C93.0912 27.8101 93.2705 27.5129 93.4497 27.2157C93.6887 26.9779 93.9277 26.7995 94.2265 26.6212C94.5252 26.5023 94.8837 26.4429 95.2422 26.4429C95.541 26.4429 95.78 26.5023 96.0788 26.5618C96.3178 26.6212 96.5568 26.7401 96.736 26.9184C96.9153 27.0968 97.0945 27.2751 97.2738 27.5129C97.3933 27.7507 97.5128 28.0479 97.6323 28.4046C97.7518 28.7612 97.7518 29.1774 97.7518 29.5935ZM96.3178 31.0796V29.4152C96.3178 29.1179 96.3178 28.9396 96.258 28.7018C96.258 28.5235 96.1982 28.3451 96.1385 28.1668C96.0787 28.0479 96.019 27.929 95.9593 27.8101C95.8995 27.6912 95.78 27.6318 95.6605 27.6318C95.541 27.6318 95.4215 27.5723 95.302 27.5723C95.1227 27.5723 95.0032 27.6318 94.8837 27.6912C94.7642 27.7507 94.6447 27.8696 94.585 27.9885C94.5252 28.1073 94.4057 28.3451 94.4057 28.5235C94.346 28.7612 94.346 29.0585 94.346 29.3557V31.0202C94.346 31.3174 94.346 31.5552 94.4057 31.7335C94.4057 31.9119 94.4655 32.0902 94.5252 32.2685C94.585 32.4469 94.6447 32.5063 94.7642 32.6252C94.824 32.7441 94.9435 32.8035 95.063 32.8035C95.1825 32.863 95.302 32.863 95.4215 32.863C95.6007 32.863 95.7202 32.8035 95.8397 32.7441C95.9592 32.6847 96.0787 32.5658 96.1385 32.4469C96.1982 32.328 96.3178 32.0902 96.3178 31.8524C96.3178 31.7335 96.3178 31.4363 96.3178 31.0796Z" fill="#1D3E7C"/>
<path id="Vector_35" d="M98.7075 28.3452V27.9291C98.7075 27.6319 98.7673 27.3941 98.8868 27.1563C99.0063 26.9186 99.1855 26.7402 99.4245 26.6213C99.6635 26.5024 99.9623 26.3835 100.261 26.3835C100.62 26.3835 100.918 26.443 101.157 26.6213C101.396 26.7402 101.576 26.9186 101.695 27.1563C101.815 27.3941 101.874 27.6319 101.874 27.9291V28.3452C101.874 28.6425 101.815 28.8803 101.695 29.118C101.576 29.3558 101.396 29.5342 101.157 29.6531C100.918 29.7719 100.62 29.8908 100.321 29.8908C99.9623 29.8908 99.6635 29.8314 99.4245 29.6531C99.1855 29.5342 99.0063 29.3558 98.8868 29.118C98.7673 28.8803 98.7075 28.6425 98.7075 28.3452ZM99.6635 27.9886V28.4047C99.6635 28.5236 99.6635 28.6425 99.7233 28.7614C99.783 28.8803 99.8428 28.9397 99.9025 28.9991C100.022 29.0586 100.142 29.118 100.261 29.118C100.381 29.118 100.5 29.0586 100.62 28.9991C100.679 28.9397 100.799 28.8208 100.799 28.7614C100.859 28.6425 100.859 28.5236 100.859 28.4047V27.9886C100.859 27.8697 100.859 27.7508 100.799 27.6319C100.739 27.513 100.679 27.4536 100.62 27.3941C100.5 27.3347 100.44 27.2752 100.261 27.2752C100.082 27.2752 100.022 27.3347 99.9025 27.3941C99.783 27.4536 99.7233 27.5725 99.7233 27.6319C99.7233 27.7508 99.6635 27.8697 99.6635 27.9886ZM104.145 27.5725L100.62 33.3981L99.9025 33.0414L103.428 27.2158L104.145 27.5725ZM102.173 32.5659V32.1498C102.173 31.8525 102.233 31.6148 102.352 31.377C102.472 31.1392 102.651 30.9609 102.89 30.842C103.129 30.7231 103.428 30.6042 103.727 30.6042C104.085 30.6042 104.384 30.6636 104.563 30.842C104.802 30.9609 104.981 31.1392 105.101 31.377C105.22 31.6148 105.28 31.8525 105.28 32.1498V32.5659C105.28 32.8631 105.22 33.1009 105.101 33.3387C104.981 33.5765 104.802 33.7548 104.563 33.8737C104.324 33.9926 104.025 34.1115 103.727 34.1115C103.368 34.1115 103.069 34.052 102.83 33.8737C102.591 33.7548 102.412 33.5765 102.293 33.3387C102.233 33.1009 102.173 32.8037 102.173 32.5659ZM103.129 32.1498V32.5659C103.129 32.6848 103.129 32.8037 103.189 32.9226C103.249 33.0415 103.308 33.1009 103.428 33.1603C103.547 33.2198 103.607 33.2792 103.786 33.2792C103.966 33.2792 104.085 33.2198 104.145 33.1603C104.205 33.1009 104.324 32.982 104.324 32.9226C104.384 32.8037 104.384 32.6848 104.384 32.5659V32.1498C104.384 32.0309 104.384 31.912 104.324 31.7931C104.264 31.6742 104.205 31.6148 104.145 31.5553C104.025 31.4959 103.966 31.4364 103.786 31.4364C103.667 31.4364 103.547 31.4959 103.428 31.5553C103.308 31.6148 103.249 31.7336 103.249 31.7931C103.189 31.912 103.129 32.0309 103.129 32.1498Z" fill="#1D3E7C"/>
<path id="Vector_36" d="M114.721 30.0692V33.0414C114.601 33.1603 114.422 33.3387 114.183 33.517C113.944 33.6954 113.645 33.8142 113.287 33.9331C112.928 34.052 112.45 34.1115 111.912 34.1115C111.434 34.1115 111.016 34.052 110.658 33.8737C110.299 33.6954 109.941 33.4576 109.642 33.1603C109.343 32.8631 109.164 32.5064 108.985 32.0309C108.865 31.6148 108.746 31.0797 108.746 30.4853V30.0097C108.746 29.4153 108.805 28.9397 108.985 28.4641C109.164 27.9886 109.343 27.6319 109.582 27.3347C109.881 27.0374 110.18 26.7997 110.538 26.6213C110.897 26.443 111.315 26.3835 111.793 26.3835C112.45 26.3835 112.928 26.5024 113.346 26.6808C113.765 26.9186 114.063 27.1563 114.302 27.5725C114.541 27.9291 114.661 28.3452 114.721 28.8208H113.287C113.227 28.583 113.167 28.3452 113.048 28.1669C112.928 27.9886 112.809 27.8102 112.629 27.7508C112.45 27.6319 112.211 27.5725 111.912 27.5725C111.673 27.5725 111.434 27.6319 111.255 27.7508C111.076 27.8697 110.897 27.9886 110.777 28.2264C110.658 28.4047 110.538 28.7019 110.478 28.9991C110.419 29.2964 110.359 29.6531 110.359 30.0097V30.4853C110.359 30.9014 110.419 31.1986 110.478 31.4959C110.538 31.7931 110.658 32.0309 110.777 32.2687C110.897 32.447 111.076 32.6253 111.315 32.7442C111.554 32.8631 111.793 32.9226 112.032 32.9226C112.271 32.9226 112.45 32.9226 112.629 32.8631C112.809 32.8037 112.928 32.7442 112.988 32.6848C113.107 32.6253 113.167 32.5659 113.227 32.5064V31.1986H111.853V30.1286H114.721V30.0692Z" fill="#1D3E7C"/>
<path id="Vector_37" d="M119.142 31.4957H119.56C119.56 31.8524 119.501 32.2091 119.441 32.5063C119.381 32.8035 119.262 33.1007 119.082 33.3385C118.903 33.5763 118.724 33.7546 118.485 33.8735C118.246 33.9924 117.947 34.0519 117.589 34.0519C117.35 34.0519 117.111 33.9924 116.872 33.933C116.633 33.8735 116.453 33.7546 116.334 33.5763C116.155 33.398 116.035 33.2196 115.975 32.9224C115.916 32.6252 115.856 32.3279 115.856 31.9713V28.4045H117.29V31.9713C117.29 32.1496 117.29 32.2685 117.35 32.3874C117.409 32.5063 117.469 32.5657 117.529 32.6846C117.589 32.7441 117.708 32.8035 117.768 32.863C117.887 32.9224 117.947 32.9224 118.067 32.9224C118.365 32.9224 118.604 32.863 118.784 32.7441C118.963 32.6252 119.082 32.4468 119.142 32.2685C119.142 32.0307 119.142 31.7929 119.142 31.4957ZM119.023 32.6252V28.4045H120.457V33.933H119.082L119.023 32.6252Z" fill="#1D3E7C"/>
<path id="Vector_38" d="M124.639 30.604V31.4363H123.863C123.683 31.4363 123.504 31.4363 123.385 31.4957C123.265 31.5552 123.146 31.6146 123.026 31.674C122.907 31.7335 122.847 31.8524 122.847 31.9713C122.787 32.0902 122.787 32.2091 122.787 32.328C122.787 32.4468 122.787 32.5657 122.847 32.6846C122.907 32.8035 122.966 32.863 123.086 32.9224C123.205 32.9819 123.325 32.9819 123.444 32.9819C123.683 32.9819 123.863 32.9224 123.982 32.863C124.161 32.8035 124.281 32.6846 124.341 32.5063C124.4 32.3874 124.46 32.2685 124.46 32.1496L124.819 32.7441C124.759 32.863 124.699 33.0413 124.58 33.1602C124.46 33.3385 124.4 33.4574 124.221 33.5763C124.102 33.6952 123.922 33.8141 123.743 33.8735C123.564 33.933 123.325 33.9924 123.026 33.9924C122.668 33.9924 122.369 33.933 122.07 33.7546C121.771 33.5763 121.592 33.398 121.413 33.1602C121.234 32.9224 121.174 32.6252 121.174 32.328C121.174 32.0307 121.234 31.7929 121.353 31.5552C121.473 31.3174 121.592 31.139 121.831 30.9607C122.01 30.7824 122.309 30.6635 122.608 30.604C122.907 30.5446 123.265 30.4851 123.683 30.4851H124.639V30.604ZM124.46 32.7441V30.3068C124.46 30.1285 124.46 29.9501 124.4 29.8312C124.341 29.7123 124.281 29.5935 124.161 29.534C124.042 29.4746 123.863 29.4151 123.683 29.4151C123.504 29.4151 123.385 29.4151 123.265 29.4746C123.146 29.534 123.086 29.5935 123.026 29.7123C122.966 29.8312 122.907 29.9501 122.907 30.069H121.473C121.473 29.8312 121.532 29.5935 121.652 29.4151C121.771 29.1773 121.891 28.999 122.13 28.8801C122.309 28.7018 122.548 28.5829 122.847 28.5234C123.146 28.4045 123.444 28.4045 123.803 28.4045C124.221 28.4045 124.58 28.464 124.938 28.6423C125.237 28.7612 125.536 28.999 125.715 29.2962C125.894 29.5935 126.014 29.9501 126.014 30.3662V32.7441C126.014 33.0413 126.014 33.2791 126.073 33.5169C126.133 33.6952 126.133 33.8735 126.253 33.9924V34.0519H124.819C124.759 33.8735 124.699 33.6952 124.639 33.4574C124.46 33.1602 124.46 32.9819 124.46 32.7441Z" fill="#1D3E7C"/>
<path id="Vector_39" d="M128.404 29.6529V33.9924H126.97V28.464H128.344L128.404 29.6529ZM130.017 28.4045V29.7718C129.957 29.7718 129.838 29.7718 129.778 29.7718C129.658 29.7718 129.599 29.7718 129.539 29.7718C129.36 29.7718 129.18 29.7718 129.001 29.8312C128.882 29.8907 128.702 29.9501 128.643 30.069C128.523 30.1879 128.463 30.3068 128.404 30.4257C128.344 30.5446 128.344 30.7229 128.344 30.9013L128.045 30.7824C128.045 30.4257 128.105 30.069 128.165 29.7718C128.224 29.4746 128.344 29.1773 128.463 28.999C128.583 28.7612 128.762 28.5829 128.941 28.464C129.121 28.3451 129.36 28.2856 129.599 28.2856C129.658 28.2856 129.778 28.2856 129.838 28.2856C129.897 28.4045 129.957 28.4045 130.017 28.4045Z" fill="#1D3E7C"/>
<path id="Vector_40" d="M133.662 30.604V31.4363H132.885C132.706 31.4363 132.527 31.4363 132.407 31.4957C132.288 31.5552 132.168 31.6146 132.049 31.674C131.929 31.7335 131.869 31.8524 131.869 31.9713C131.81 32.0902 131.81 32.2091 131.81 32.328C131.81 32.4468 131.81 32.5657 131.869 32.6846C131.929 32.8035 131.989 32.863 132.108 32.9224C132.228 32.9819 132.347 32.9819 132.467 32.9819C132.706 32.9819 132.885 32.9224 133.005 32.863C133.124 32.8035 133.303 32.6846 133.363 32.5063C133.423 32.3874 133.483 32.2685 133.483 32.1496L133.841 32.7441C133.781 32.863 133.722 33.0413 133.602 33.1602C133.483 33.3385 133.423 33.4574 133.244 33.5763C133.124 33.6952 132.945 33.8141 132.766 33.8735C132.586 33.933 132.347 33.9924 132.049 33.9924C131.69 33.9924 131.391 33.933 131.093 33.7546C130.794 33.5763 130.615 33.398 130.435 33.1602C130.256 32.9224 130.196 32.6252 130.196 32.328C130.196 32.0307 130.256 31.7929 130.376 31.5552C130.495 31.3174 130.615 31.139 130.854 30.9607C131.033 30.7824 131.332 30.6635 131.63 30.604C131.929 30.5446 132.288 30.4851 132.706 30.4851H133.662V30.604ZM133.483 32.7441V30.3068C133.483 30.1285 133.483 29.9501 133.423 29.8312C133.363 29.7123 133.303 29.5935 133.184 29.534C133.064 29.4746 132.885 29.4151 132.706 29.4151C132.527 29.4151 132.407 29.4151 132.288 29.4746C132.168 29.534 132.108 29.5935 132.049 29.7123C131.989 29.8312 131.929 29.9501 131.929 30.069H130.495C130.495 29.8312 130.555 29.5935 130.674 29.4151C130.794 29.1773 130.913 28.999 131.152 28.8801C131.332 28.7018 131.571 28.5829 131.869 28.5234C132.168 28.4045 132.467 28.4045 132.825 28.4045C133.244 28.4045 133.602 28.464 133.961 28.6423C134.319 28.8207 134.558 28.999 134.737 29.2962C134.917 29.5935 135.036 29.9501 135.036 30.3662V32.7441C135.036 33.0413 135.036 33.2791 135.096 33.5169C135.156 33.6952 135.156 33.8735 135.275 33.9924V34.0519H133.841C133.781 33.8735 133.722 33.6952 133.662 33.4574C133.483 33.1602 133.483 32.9819 133.483 32.7441Z" fill="#1D3E7C"/>
<path id="Vector_41" d="M137.426 29.653V33.9925H135.992V28.4641H137.307L137.426 29.653ZM137.187 31.0203H136.829C136.829 30.6041 136.888 30.2475 137.008 29.8908C137.127 29.5341 137.247 29.2963 137.426 29.0586C137.605 28.8208 137.844 28.6424 138.083 28.5236C138.322 28.4047 138.621 28.3452 138.92 28.3452C139.159 28.3452 139.398 28.4047 139.637 28.4641C139.876 28.5236 140.055 28.6424 140.175 28.8208C140.354 28.9991 140.414 29.1775 140.533 29.4747C140.593 29.7719 140.653 30.0691 140.653 30.4853V33.9925H139.219V30.4853C139.219 30.2475 139.159 30.0691 139.099 29.8908C139.039 29.7719 138.92 29.653 138.8 29.5936C138.681 29.5341 138.502 29.5341 138.322 29.5341C138.143 29.5341 137.964 29.5936 137.844 29.653C137.725 29.7125 137.605 29.8314 137.486 29.9502C137.366 30.0691 137.307 30.2475 137.307 30.4258C137.247 30.6041 137.187 30.7825 137.187 31.0203Z" fill="#1D3E7C"/>
<path id="Vector_42" d="M144.357 28.4642V29.5342H141.25V28.4642H144.357ZM141.967 27.0969H143.401V32.3281C143.401 32.5065 143.401 32.6254 143.461 32.6848C143.521 32.7443 143.58 32.8037 143.64 32.8631C143.7 32.9226 143.819 32.9226 143.939 32.9226C144.058 32.9226 144.118 32.9226 144.178 32.9226C144.238 32.9226 144.297 32.9226 144.357 32.9226V33.9926C144.238 34.0521 144.118 34.0521 143.939 34.1115C143.819 34.1115 143.64 34.1709 143.461 34.1709C143.162 34.1709 142.863 34.1115 142.624 33.9926C142.385 33.8737 142.206 33.6954 142.087 33.4576C141.967 33.2198 141.907 32.9226 141.907 32.5065V27.0969H141.967Z" fill="#1D3E7C"/>
<path id="Vector_43" d="M147.643 34.0519C147.225 34.0519 146.867 33.9924 146.508 33.8735C146.15 33.7546 145.911 33.5169 145.672 33.2791C145.433 33.0413 145.253 32.7441 145.134 32.4468C145.014 32.1496 144.955 31.7929 144.955 31.4363V31.1985C144.955 30.7824 145.014 30.4257 145.134 30.069C145.253 29.7123 145.433 29.4151 145.612 29.1773C145.851 28.9396 146.09 28.7018 146.389 28.5829C146.687 28.464 147.046 28.4045 147.464 28.4045C147.823 28.4045 148.181 28.464 148.48 28.5829C148.779 28.7018 149.018 28.8801 149.197 29.1179C149.376 29.3557 149.555 29.6529 149.675 29.9501C149.794 30.2474 149.854 30.6635 149.854 31.0796V31.674H145.552V30.6635H148.42V30.5446C148.42 30.3662 148.36 30.1285 148.301 30.0096C148.241 29.8312 148.121 29.7123 148.002 29.6529C147.882 29.534 147.703 29.534 147.464 29.534C147.285 29.534 147.106 29.5935 146.986 29.6529C146.867 29.7123 146.747 29.8312 146.628 30.0096C146.568 30.1879 146.508 30.3662 146.448 30.5446C146.389 30.7229 146.389 30.9607 146.389 31.1985V31.3768C146.389 31.6146 146.448 31.7929 146.508 31.9713C146.568 32.1496 146.687 32.3279 146.747 32.4468C146.807 32.5657 146.986 32.6846 147.165 32.7441C147.345 32.8035 147.524 32.863 147.703 32.863C147.942 32.863 148.181 32.8035 148.42 32.6846C148.659 32.5657 148.838 32.4468 149.018 32.2091L149.735 32.9819C149.615 33.1602 149.496 33.3385 149.257 33.4574C149.077 33.6358 148.838 33.7546 148.54 33.8141C148.301 34.0519 148.002 34.0519 147.643 34.0519Z" fill="#1D3E7C"/>
<path id="Vector_44" d="M153.14 34.0519C152.722 34.0519 152.364 33.9924 152.005 33.8735C151.647 33.7546 151.408 33.5169 151.169 33.2791C150.93 33.0413 150.75 32.7441 150.631 32.4468C150.511 32.1496 150.452 31.7929 150.452 31.4363V31.1985C150.452 30.7824 150.511 30.4257 150.631 30.069C150.75 29.7123 150.93 29.4151 151.109 29.1773C151.348 28.9396 151.587 28.7018 151.886 28.5829C152.184 28.464 152.543 28.4045 152.961 28.4045C153.32 28.4045 153.678 28.464 153.977 28.5829C154.276 28.7018 154.515 28.8801 154.694 29.1179C154.873 29.3557 155.052 29.6529 155.172 29.9501C155.291 30.2474 155.351 30.6635 155.351 31.0796V31.674H151.049V30.6635H153.917V30.5446C153.917 30.3662 153.857 30.1285 153.798 30.0096C153.738 29.8312 153.618 29.7123 153.499 29.6529C153.379 29.534 153.2 29.534 152.961 29.534C152.782 29.534 152.603 29.5935 152.483 29.6529C152.364 29.7123 152.244 29.8312 152.125 30.0096C152.065 30.1879 152.005 30.3662 151.945 30.5446C151.886 30.7229 151.886 30.9607 151.886 31.1985V31.3768C151.886 31.6146 151.945 31.7929 152.005 31.9713C152.065 32.1496 152.184 32.3279 152.244 32.4468C152.304 32.5657 152.483 32.6846 152.662 32.7441C152.842 32.8035 153.021 32.863 153.2 32.863C153.439 32.863 153.678 32.8035 153.917 32.6846C154.156 32.5657 154.335 32.4468 154.515 32.2091L155.232 32.9819C155.112 33.1602 154.993 33.3385 154.754 33.4574C154.574 33.6358 154.335 33.7546 154.037 33.8141C153.798 34.0519 153.499 34.0519 153.14 34.0519Z" fill="#1D3E7C"/>
</g>
<defs>
<clipPath id="clip0_55_3204">
<rect width="155.351" height="47.5565" fill="white" transform="translate(0 0.286865)"/>
</clipPath>
</defs>
</svg>
