<svg width="86" height="44" viewBox="0 0 86 44" fill="none" xmlns="http://www.w3.org/2000/svg">
<g id="&#208;&#168;&#208;&#176;&#209;&#128;_1" clip-path="url(#clip0_55_3280)">
<g id="&#208;&#161;&#208;&#179;&#209;&#128;&#209;&#131;&#208;&#191;&#208;&#191;&#208;&#184;&#209;&#128;&#208;&#190;&#208;&#178;&#208;&#176;&#209;&#130;&#209;&#140;_532">
<g id="&#208;&#161;&#208;&#179;&#209;&#128;&#209;&#131;&#208;&#191;&#208;&#191;&#208;&#184;&#209;&#128;&#208;&#190;&#208;&#178;&#208;&#176;&#209;&#130;&#209;&#140;_271">
<g id="&#208;&#161;&#208;&#179;&#209;&#128;&#209;&#131;&#208;&#191;&#208;&#191;&#208;&#184;&#209;&#128;&#208;&#190;&#208;&#178;&#208;&#176;&#209;&#130;&#209;&#140;_268">
<path id="&#208;&#154;&#208;&#190;&#208;&#189;&#209;&#130;&#209;&#131;&#209;&#128;_522" d="M58.8411 25.5201L59.6598 25.7927C59.6598 25.9745 59.4779 26.2471 59.3869 26.4289C59.296 26.6106 59.114 26.7015 58.9321 26.7923C58.7501 26.8832 58.4772 26.9741 58.2043 26.8832C57.9314 26.8832 57.6585 26.8832 57.3856 26.7015C57.1127 26.6106 56.9308 26.4289 56.8398 26.1562C56.6579 25.8836 56.5669 25.5201 56.5669 25.2475C56.5669 24.7932 56.6579 24.3388 57.0217 24.0662C57.2946 23.7936 57.7495 23.6118 58.2043 23.6118C58.5682 23.6118 58.8411 23.7027 59.114 23.8844C59.3869 24.0662 59.5689 24.3388 59.5689 24.6114L58.7501 24.7932C58.7501 24.7023 58.6592 24.6114 58.6592 24.6114C58.5682 24.5205 58.5682 24.5205 58.4772 24.4297C58.3863 24.4297 58.2953 24.3388 58.2043 24.3388C58.0224 24.3388 57.8405 24.4297 57.7495 24.6114C57.6585 24.7932 57.5675 24.9749 57.6585 25.2475C57.6585 25.5201 57.6585 25.7019 57.8405 25.9745C57.9314 26.0654 58.1134 26.1562 58.2953 26.1562C58.4772 26.1562 58.5682 26.0654 58.7501 25.9745C58.7501 25.7927 58.8411 25.7019 58.8411 25.5201Z" fill="#1D3E7C"/>
<path id="&#208;&#154;&#208;&#190;&#208;&#189;&#209;&#130;&#209;&#131;&#209;&#128;_523" d="M60.0238 25.2475C59.9328 24.4297 60.5696 23.7027 61.3883 23.6118C61.4793 23.6118 61.5703 23.6118 61.6612 23.6118C62.1161 23.6118 62.5709 23.7027 62.8438 24.0662C63.1167 24.3388 63.2987 24.7932 63.2987 25.2475C63.2987 25.5201 63.2077 25.8836 63.1167 26.1562C63.0258 26.4289 62.8438 26.6106 62.5709 26.7015C62.298 26.8832 62.0251 26.8832 61.6612 26.8832C61.3883 26.8832 61.0245 26.7923 60.7516 26.7015C60.4787 26.6106 60.2967 26.4289 60.2057 26.1562C60.1148 25.7928 60.0238 25.5201 60.0238 25.2475ZM61.0245 25.2475C61.0245 25.5201 61.0245 25.7019 61.2064 25.9745C61.2974 26.1562 61.4793 26.1562 61.6612 26.1562C61.8432 26.1562 62.0251 26.0654 62.1161 25.9745C62.2071 25.7927 62.298 25.5201 62.298 25.2475C62.298 24.9749 62.298 24.7932 62.1161 24.6114C62.0251 24.4297 61.8432 24.4297 61.6612 24.4297C61.4793 24.4297 61.2974 24.5205 61.2064 24.6114C61.0245 24.7023 60.9335 24.9749 61.0245 25.2475Z" fill="#1D3E7C"/>
<path id="&#208;&#154;&#208;&#190;&#208;&#189;&#209;&#130;&#209;&#131;&#209;&#128;_524" d="M63.7537 23.6118H65.0273L65.4821 25.5201L65.937 23.6118H67.2105V26.7015H66.3918V24.3388L65.755 26.7015H65.0273L64.3905 24.3388V26.7015H63.5718L63.7537 23.6118Z" fill="#1D3E7C"/>
<path id="&#208;&#154;&#208;&#190;&#208;&#189;&#209;&#130;&#209;&#131;&#209;&#128;_525" d="M67.938 23.6118H69.5754C69.8483 23.6118 70.1212 23.7027 70.3941 23.8844C70.5761 24.0662 70.6671 24.3388 70.6671 24.6114C70.6671 24.884 70.5761 25.1566 70.3941 25.3384C70.1212 25.5201 69.8483 25.611 69.4845 25.611H68.9386V26.7923H67.938V23.6118ZM68.9386 24.9749H69.2115C69.3935 24.9749 69.4845 24.9749 69.5754 24.884C69.6664 24.7932 69.6664 24.7023 69.6664 24.6114C69.6664 24.5205 69.6664 24.4297 69.5754 24.3388C69.4845 24.2479 69.3025 24.2479 69.2115 24.2479H68.9386V24.9749Z" fill="#1D3E7C"/>
<path id="&#208;&#154;&#208;&#190;&#208;&#189;&#209;&#130;&#209;&#131;&#209;&#128;_526" d="M71.1221 23.6118H72.1227V25.9745H73.6692V26.7015H71.213L71.1221 23.6118Z" fill="#1D3E7C"/>
<path id="&#208;&#154;&#208;&#190;&#208;&#189;&#209;&#130;&#209;&#131;&#209;&#128;_527" d="M74.0332 23.6118H75.0339V26.7015H74.0332V23.6118Z" fill="#1D3E7C"/>
<path id="&#208;&#154;&#208;&#190;&#208;&#189;&#209;&#130;&#209;&#131;&#209;&#128;_528" d="M77.6722 26.2471H76.5805L76.3986 26.7923H75.3979L76.5805 23.7026H77.6722L78.8548 26.7923H77.8541L77.6722 26.2471ZM77.4902 25.611L77.1264 24.5205L76.7625 25.611H77.4902Z" fill="#1D3E7C"/>
<path id="&#208;&#154;&#208;&#190;&#208;&#189;&#209;&#130;&#209;&#131;&#209;&#128;_529" d="M79.1274 23.6118H80.0371L81.2197 25.3384V23.6118H82.1294V26.7015H81.2197L80.0371 24.9749V26.7015H79.1274V23.6118Z" fill="#1D3E7C"/>
<path id="&#208;&#154;&#208;&#190;&#208;&#189;&#209;&#130;&#209;&#131;&#209;&#128;_530" d="M82.5845 23.6118H85.4955V24.3388H84.4948V26.7015H83.5851V24.3388H82.5845V23.6118Z" fill="#1D3E7C"/>
<path id="&#208;&#154;&#208;&#190;&#208;&#189;&#209;&#130;&#209;&#131;&#209;&#128;_531" d="M56.4762 11.7075H61.1156C61.8434 11.7075 62.6621 11.7984 63.2989 12.071C63.8447 12.3436 64.2995 12.7071 64.6634 13.1615C65.0273 13.6158 65.3002 14.1611 65.4821 14.7972C65.6641 15.4333 65.755 16.0694 65.755 16.7964C65.755 17.6142 65.6641 18.5229 65.3912 19.3408C65.2092 19.886 64.8454 20.4313 64.3905 20.8856C64.0266 21.2491 63.4808 21.5217 62.935 21.7035C62.2982 21.8852 61.6614 21.9761 61.0247 21.9761H56.3853L56.4762 11.7075ZM59.6601 13.9793V19.5225H60.3879C60.8427 19.5225 61.2976 19.5225 61.7524 19.3408C62.0253 19.159 62.2982 18.8864 62.3892 18.6138C62.5711 18.0686 62.6621 17.4325 62.6621 16.8872C62.7531 16.0694 62.5711 15.3424 62.1163 14.7063C61.6614 14.2519 61.0247 14.0702 60.3879 14.0702L59.6601 13.9793Z" fill="#1D3E7C"/>
<path id="&#208;&#154;&#208;&#190;&#208;&#189;&#209;&#130;&#209;&#131;&#209;&#128;_532" d="M66.7559 18.5229L69.7578 18.3412C69.7578 18.7047 69.9398 19.1591 70.1217 19.4317C70.4856 19.886 70.9404 20.0678 71.4862 20.0678C71.8501 20.0678 72.214 19.9769 72.4869 19.7952C72.8508 19.5225 72.9417 18.8864 72.6688 18.5229C72.5779 18.4321 72.5779 18.4321 72.4869 18.3412C72.0321 18.0686 71.4862 17.796 70.8495 17.796C69.7578 17.6142 68.7572 17.1599 67.9385 16.5238C67.3926 16.0694 67.0288 15.3424 67.0288 14.5246C67.0288 13.9793 67.2107 13.525 67.4836 13.0706C67.8475 12.6163 68.3023 12.1619 68.8481 11.9801C69.6669 11.7075 70.4856 11.5258 71.3043 11.6167C72.305 11.5258 73.3966 11.7984 74.3063 12.3436C75.034 12.8889 75.4889 13.7067 75.4889 14.6154L72.4869 14.7972C72.4869 14.4337 72.305 14.0702 72.0321 13.7976C71.7591 13.6158 71.3953 13.4341 71.0314 13.525C70.7585 13.525 70.4856 13.6158 70.2127 13.7976C70.0307 13.9793 69.9398 14.1611 69.9398 14.3428C69.9398 14.5246 70.0307 14.7063 70.2127 14.7972C70.5766 14.9789 70.8495 15.1607 71.3043 15.1607C72.305 15.3424 73.3056 15.615 74.2153 16.0694C74.7611 16.342 75.216 16.7055 75.4889 17.1599C75.7618 17.6142 75.9437 18.1595 75.8527 18.7047C75.8527 19.3408 75.6708 19.9769 75.3069 20.5221C74.9431 21.0674 74.3972 21.5217 73.7605 21.7943C72.9417 22.067 72.123 22.2487 71.3043 22.2487C69.5759 22.2487 68.3933 21.8852 67.6655 21.2491C67.2107 20.3404 66.7559 19.4317 66.7559 18.5229Z" fill="#1D3E7C"/>
<path id="&#208;&#154;&#208;&#190;&#208;&#189;&#209;&#130;&#209;&#131;&#209;&#128;_533" d="M76.7622 18.5229L79.7642 18.3412C79.7642 18.7047 79.9461 19.1591 80.128 19.4317C80.4919 19.886 80.9468 20.0678 81.4926 20.0678C81.8565 20.0678 82.2203 19.9769 82.4932 19.7952C82.8571 19.5225 82.9481 18.8864 82.6752 18.5229C82.6752 18.4321 82.6752 18.3412 82.5842 18.3412C82.1294 18.0686 81.5836 17.796 80.9468 17.796C79.8551 17.6142 78.8545 17.1599 78.0358 16.5238C77.49 16.0694 77.1261 15.3424 77.1261 14.5246C77.1261 13.9793 77.308 13.525 77.5809 13.0706C77.9448 12.6163 78.3996 12.1619 78.9455 11.9801C79.7642 11.7075 80.5829 11.5258 81.4016 11.6167C82.4023 11.5258 83.4939 11.7984 84.4036 12.3436C85.1313 12.8889 85.5862 13.7067 85.5862 14.6154L82.6752 14.7063C82.6752 14.3428 82.4932 13.9793 82.2203 13.7067C81.9474 13.525 81.5836 13.3432 81.2197 13.4341C80.9468 13.4341 80.6739 13.525 80.401 13.7067C80.219 13.8885 80.128 14.0702 80.128 14.252C80.128 14.4337 80.219 14.6154 80.401 14.7063C80.7648 14.8881 81.0377 15.0698 81.4926 15.0698C82.4932 15.2515 83.4939 15.5242 84.4036 15.9785C84.9494 16.2511 85.4042 16.6146 85.6772 17.069C85.9501 17.5234 86.132 18.0686 86.041 18.6138C86.041 19.2499 85.8591 19.886 85.4952 20.4313C85.1313 20.9765 84.5855 21.4309 83.9487 21.7035C83.13 21.9761 82.3113 22.1578 81.4926 22.1578C79.7642 22.1578 78.5816 21.7943 77.8538 21.1582C77.217 20.3404 76.7622 19.4317 76.7622 18.5229Z" fill="#1D3E7C"/>
</g>
<g id="&#208;&#161;&#208;&#179;&#209;&#128;&#209;&#131;&#208;&#191;&#208;&#191;&#208;&#184;&#209;&#128;&#208;&#190;&#208;&#178;&#208;&#176;&#209;&#130;&#209;&#140;_270">
<path id="Path-7" d="M39.5625 36.352C40.0174 36.352 40.3813 36.2612 40.7451 36.0794C42.4735 35.1707 48.4775 20.5403 54.7543 16.0875L54.8453 15.9967V15.9058C54.8453 15.9058 54.8453 15.6332 53.9356 15.6332C48.2955 15.4514 42.4735 27.2648 39.4716 31.8993C39.4716 31.9902 39.1987 31.8993 39.1987 31.8993C38.107 30.6271 36.8335 29.4458 35.378 28.537C35.196 28.4462 35.1051 28.4462 34.9231 28.4462C34.4683 28.537 33.9225 28.7188 33.5586 28.9914C33.1947 29.3549 33.0128 29.8092 33.1037 30.3545C33.1037 30.4453 33.1038 30.6271 33.1947 30.718C34.3773 32.5354 35.7418 34.1711 37.2883 35.7159C38.0161 36.1703 38.8348 36.4429 39.5625 36.352Z" fill="#1D3E7C"/>
<g id="&#208;&#161;&#208;&#179;&#209;&#128;&#209;&#131;&#208;&#191;&#208;&#191;&#208;&#184;&#209;&#128;&#208;&#190;&#208;&#178;&#208;&#176;&#209;&#130;&#209;&#140;_269">
<path id="&#208;&#154;&#208;&#190;&#208;&#189;&#209;&#130;&#209;&#131;&#209;&#128;_534" d="M14.1821 19.8132H12.9995V23.2664H14.364C15.1828 23.2664 15.9105 22.6303 16.0925 21.8124C16.0925 21.5398 16.0925 21.3581 16.0925 21.0854C15.9105 19.9041 14.1821 19.8132 14.1821 19.8132Z" fill="#1D3E7C"/>
<path id="&#208;&#154;&#208;&#190;&#208;&#189;&#209;&#130;&#209;&#131;&#209;&#128;_535" d="M46.2031 19.1772L40.745 6.90942L0.445801 9.18123L11.635 39.6234L33.1036 32.808C32.5578 31.9902 32.1029 31.0814 31.921 30.0818C31.7391 30.0818 30.3745 30.1727 29.5558 30.0818C22.0054 29.6275 22.0054 24.266 22.0054 24.0843V22.8121C22.0054 22.5394 22.2783 17.3597 29.5558 16.7236C30.3745 16.6328 31.1023 16.6328 31.921 16.7236C32.8307 16.7236 33.7404 16.9054 34.5591 17.2689L34.6501 17.3597V20.6311C34.6501 20.6311 34.6501 20.722 34.5591 20.6311C33.7404 20.1768 32.8307 19.9042 31.921 19.7224H30.6474C27.3726 19.995 27.0997 22.6303 27.0997 22.6303C27.0997 22.7212 27.0997 22.7212 27.0997 22.8121V23.7208C27.0997 23.7208 27.0997 23.8117 27.0997 23.9025C27.0997 23.9025 27.2816 26.3561 30.6474 26.9013C31.1023 26.9922 31.4662 26.9922 31.921 26.9013C34.2862 26.6287 34.832 26.2652 34.832 26.2652H34.923V26.8104C35.6507 26.9922 36.3785 27.2648 37.0153 27.7192V16.8145H42.0185V24.9021C43.7469 22.6303 45.5663 19.995 46.2031 19.1772ZM13.1814 26.1743C13.0905 26.1743 13.0905 26.1743 13.1814 26.1743L13.0905 29.991C13.0905 29.991 13.0905 30.0818 12.9995 30.0818H8.17815C8.17815 30.0818 8.08717 30.0818 8.08717 29.991V17.0871C8.08717 17.0871 8.08718 16.9962 8.17815 16.9962H14.455C16.0924 16.9054 20.9138 17.3597 20.9138 21.449C20.9138 26.7196 13.1814 26.1743 13.1814 26.1743ZM39.4714 15.724C37.9249 15.6332 36.6514 14.2701 36.7423 12.7252C36.8333 11.1804 38.1978 9.90821 39.7443 9.99908C41.2908 10.09 42.4734 11.3622 42.4734 12.907C42.4734 14.5427 41.1088 15.8149 39.4714 15.724Z" fill="#1D3E7C"/>
</g>
</g>
</g>
</g>
</g>
<defs>
<clipPath id="clip0_55_3280">
<rect width="85.6016" height="42.8008" fill="white" transform="translate(0.398438 0.664795)"/>
</clipPath>
</defs>
</svg>
