<svg width="98" height="48" viewBox="0 0 98 48" fill="none" xmlns="http://www.w3.org/2000/svg">
<g id="Frame" clip-path="url(#clip0_55_3249)">
<g id="Group">
<g id="Group_2">
<path id="Vector" d="M46.2486 14.2207C46.2486 13.9178 46.148 13.7158 45.9467 13.5139C45.7455 13.312 45.3431 13.211 44.7394 13.0091C44.1358 12.8071 43.7333 12.6052 43.4315 12.5042C42.526 11.9994 42.1236 11.3936 42.1236 10.5858C42.1236 10.182 42.2242 9.77805 42.526 9.47514C42.7272 9.17223 43.1297 8.86934 43.5321 8.6674C43.9345 8.46546 44.4376 8.3645 45.0412 8.3645C45.6449 8.3645 46.148 8.46546 46.5504 8.6674C46.9529 8.86934 47.3553 9.17227 47.5565 9.57614C47.7578 9.98002 47.9589 10.3839 47.9589 10.8887H46.3492C46.3492 10.4849 46.2486 10.2829 46.0473 10.081C45.8461 9.87905 45.5443 9.77809 45.0412 9.77809C44.6388 9.77809 44.337 9.87901 44.1358 9.97998C43.9346 10.1819 43.8339 10.3839 43.8339 10.6868C43.8339 10.9897 43.9345 11.1917 44.2364 11.2926C44.5382 11.4946 44.84 11.5955 45.3431 11.7975C46.2485 12.1004 46.9528 12.4033 47.3552 12.8072C47.7577 13.211 47.9589 13.7159 47.9589 14.3217C47.9589 15.0285 47.6571 15.5333 47.1541 15.9372C46.651 16.3411 45.9467 16.543 45.0412 16.543C44.4376 16.543 43.9346 16.442 43.4315 16.2401C42.9285 16.0381 42.526 15.7353 42.3248 15.3314C42.0229 14.9275 41.9224 14.5236 41.9224 14.0187H43.5321C43.5321 14.9275 44.0351 15.3314 45.0412 15.3314C45.4437 15.3314 45.7455 15.2304 45.9467 15.1294C46.148 14.7256 46.2486 14.5236 46.2486 14.2207Z" fill="#1D3E7C"/>
<path id="Vector_2" d="M53.0899 14.2207C53.0899 13.9178 52.9893 13.7158 52.7881 13.5139C52.5868 13.312 52.1845 13.211 51.5808 13.0091C50.9771 12.8071 50.5746 12.6052 50.2728 12.5042C49.3673 11.9994 48.9648 11.3936 48.9648 10.5858C48.9648 10.182 49.0655 9.77805 49.3673 9.47514C49.5685 9.17223 49.971 8.86934 50.3734 8.6674C50.7758 8.46546 51.2789 8.3645 51.8825 8.3645C52.4862 8.3645 52.9893 8.46546 53.3917 8.6674C53.7941 8.86934 54.1966 9.17227 54.3978 9.57614C54.599 9.98002 54.8003 10.3839 54.8003 10.8887H53.1905C53.1905 10.4849 53.0899 10.2829 52.8886 10.081C52.6874 9.87905 52.3856 9.77809 51.9831 9.77809C51.5807 9.77809 51.279 9.87901 51.0777 9.97998C50.8765 10.1819 50.7759 10.3839 50.7759 10.6868C50.7759 10.9897 50.8765 11.1917 51.1783 11.2926C51.4802 11.3936 51.782 11.5955 52.285 11.7975C53.1905 12.1004 53.8948 12.4033 54.2972 12.8072C54.6996 13.211 54.9008 13.7159 54.9008 14.3217C54.9008 15.0285 54.5991 15.5333 54.096 15.9372C53.593 16.3411 52.8886 16.543 51.9831 16.543C51.3795 16.543 50.7758 16.442 50.3734 16.2401C49.8704 16.0381 49.4679 15.7353 49.2667 15.3314C48.9649 14.9275 48.8643 14.5236 48.8643 14.0187H50.474C50.474 14.9275 50.977 15.3314 51.9831 15.3314C52.3856 15.3314 52.6874 15.2304 52.8886 15.1294C52.9893 14.7256 53.0899 14.5236 53.0899 14.2207Z" fill="#1D3E7C"/>
<path id="Vector_3" d="M57.4164 15.0283H60.8371V16.341H55.8066V8.46533H57.4164V15.0283Z" fill="#1D3E7C"/>
</g>
<g id="Group_3">
<path id="Vector_4" d="M46.2486 27.3467C46.2486 27.0438 46.148 26.8418 45.9467 26.6399C45.7455 26.4379 45.3431 26.337 44.7394 26.135C44.1358 25.9331 43.7333 25.7312 43.4315 25.6302C42.526 25.1253 42.1236 24.5196 42.1236 23.7118C42.1236 23.3079 42.2242 22.904 42.526 22.6011C42.7272 22.2982 43.1297 21.9953 43.5321 21.7934C43.9345 21.5914 44.4376 21.4905 45.0412 21.4905C45.6449 21.4905 46.148 21.5914 46.5504 21.7934C46.9529 21.9953 47.3553 22.2982 47.5565 22.7021C47.7578 23.106 47.9589 23.5099 47.9589 24.0147H46.3492C46.3492 23.6108 46.2486 23.4089 46.0473 23.207C45.8461 23.005 45.5443 22.9041 45.0412 22.9041C44.6388 22.9041 44.337 23.005 44.1358 23.106C43.9346 23.3079 43.8339 23.5098 43.8339 23.8128C43.8339 24.1157 43.9345 24.3176 44.2364 24.4186C44.5382 24.6205 44.84 24.7215 45.3431 24.9235C46.2485 25.2264 46.9528 25.5293 47.3552 25.9331C47.7577 26.337 47.9589 26.8419 47.9589 27.4477C47.9589 28.1545 47.6571 28.6593 47.1541 29.0632C46.651 29.467 45.9467 29.669 45.0412 29.669C44.4376 29.669 43.9346 29.568 43.4315 29.3661C42.9285 29.1641 42.526 28.8613 42.3248 28.4574C42.0229 28.0535 41.9224 27.6496 41.9224 27.1447H43.5321C43.5321 28.0534 44.0351 28.4574 45.0412 28.4574C45.4437 28.4574 45.7455 28.3564 45.9467 28.2554C46.148 27.8515 46.2486 27.6496 46.2486 27.3467Z" fill="#1D3E7C"/>
<path id="Vector_5" d="M51.5808 29.568C50.6753 29.568 50.0715 29.2651 49.4679 28.7603C48.9648 28.2554 48.6631 27.5486 48.6631 26.6399V26.539C48.6631 25.9331 48.7636 25.4283 48.9648 24.9235C49.1661 24.4186 49.4679 24.1157 49.9709 23.8128C50.3734 23.6108 50.8764 23.4089 51.3795 23.4089C52.1844 23.4089 52.7881 23.7118 53.2911 24.2167C53.7942 24.7215 53.9953 25.4283 53.9953 26.337V26.9429H50.2728C50.3734 27.3467 50.474 27.6496 50.7759 27.8515C51.0777 28.0535 51.3795 28.1544 51.782 28.1544C52.3856 28.1544 52.8887 27.9525 53.1905 27.4477L53.9953 28.3564C53.7941 28.6593 53.4924 28.9622 53.0899 29.1641C52.4863 29.467 52.0838 29.568 51.5808 29.568ZM51.3795 24.7215C51.0777 24.7215 50.7759 24.8225 50.6753 25.0244C50.4741 25.2264 50.3734 25.5293 50.2728 25.9332H52.4862V25.8322C52.4862 25.5293 52.3856 25.2264 52.1844 25.0244C51.9832 24.8225 51.6813 24.7215 51.3795 24.7215Z" fill="#1D3E7C"/>
<path id="Vector_6" d="M57.3155 28.2555C57.6174 28.2555 57.8185 28.1545 58.0198 28.0535C58.221 27.8516 58.3216 27.6497 58.3216 27.4477H59.8308C59.8308 27.8516 59.7301 28.2554 59.5289 28.5584C59.3277 28.8613 59.0259 29.1642 58.6235 29.3661C58.2211 29.568 57.8186 29.669 57.4161 29.669C56.6112 29.669 55.907 29.3661 55.4039 28.8612C54.9009 28.3564 54.6997 27.5486 54.6997 26.6399V26.539C54.6997 25.6302 54.9009 24.9235 55.4039 24.4186C55.907 23.9138 56.5106 23.6108 57.4161 23.6108C58.1204 23.6108 58.7241 23.8128 59.1266 24.2167C59.529 24.6206 59.8308 25.2264 59.8308 25.9332H58.3216C58.3216 25.6303 58.221 25.4283 58.0198 25.2264C57.8185 25.0244 57.6174 24.9235 57.3155 24.9235C56.9131 24.9235 56.7118 25.0244 56.5106 25.3273C56.3094 25.6302 56.2089 26.0341 56.2089 26.6399V26.8419C56.2089 27.4477 56.3094 27.8515 56.5106 28.1545C56.7118 28.4574 56.9131 28.2555 57.3155 28.2555Z" fill="#1D3E7C"/>
<path id="Vector_7" d="M64.1571 28.8612C63.7546 29.3661 63.2515 29.568 62.5472 29.568C61.9436 29.568 61.4406 29.3661 61.1388 29.0632C60.837 28.6593 60.6357 28.1545 60.6357 27.4477V23.6108H62.2455V27.4477C62.2455 28.0535 62.5472 28.3564 63.0503 28.3564C63.5533 28.3564 63.9559 28.1545 64.1571 27.8516V23.7118H65.7668V29.568H64.2577L64.1571 28.8612Z" fill="#1D3E7C"/>
<path id="Vector_8" d="M70.093 25.0243H69.4894C68.8857 25.0243 68.4833 25.2262 68.2821 25.6301V29.467H66.6724V23.6107H68.1815V24.3175C68.4833 23.8127 68.8857 23.5098 69.4894 23.5098C69.6906 23.5098 69.7912 23.5097 69.9924 23.6107L70.093 25.0243Z" fill="#1D3E7C"/>
<path id="Vector_9" d="M73.5139 29.568C72.6084 29.568 72.0048 29.2651 71.4011 28.7603C70.8981 28.2554 70.5962 27.5486 70.5962 26.6399V26.539C70.5962 25.9331 70.6969 25.4283 70.8981 24.9235C71.0993 24.4186 71.4011 24.1157 71.9042 23.8128C72.3066 23.6108 72.8097 23.4089 73.3127 23.4089C74.1176 23.4089 74.7213 23.7118 75.2243 24.2167C75.7274 24.7215 75.9286 25.4283 75.9286 26.337V26.9429H72.206C72.206 27.3467 72.4073 27.6496 72.7091 27.8515C73.0109 28.0535 73.3128 28.1544 73.7152 28.1544C74.3188 28.1544 74.8218 27.9525 75.1236 27.4477L75.9286 28.3564C75.7273 28.6593 75.4255 28.9622 75.023 29.1641C74.52 29.467 74.0169 29.568 73.5139 29.568ZM73.4133 24.7215C73.1115 24.7215 72.8097 24.8225 72.7091 25.0244C72.5079 25.2264 72.4072 25.5293 72.3066 25.9332H74.52V25.8322C74.52 25.5293 74.4195 25.2264 74.2182 25.0244C73.9164 24.8225 73.7151 24.7215 73.4133 24.7215Z" fill="#1D3E7C"/>
</g>
<g id="Group_4">
<path id="Vector_10" d="M48.3613 39.9679C48.2607 40.7757 47.9589 41.4825 47.4558 41.9873C46.8522 42.4922 46.148 42.6941 45.2425 42.6941C44.2364 42.6941 43.4315 42.3912 42.8278 41.6844C42.2242 40.9776 41.9224 40.0689 41.9224 38.8573V38.3524C41.9224 37.5447 42.0229 36.9389 42.3248 36.3331C42.6266 35.7272 42.9285 35.3234 43.4315 35.0205C43.9346 34.7176 44.5382 34.5156 45.1419 34.5156C46.0474 34.5156 46.7516 34.7175 47.3552 35.2224C47.9589 35.7272 48.2607 36.434 48.3613 37.2417H46.7516C46.7516 36.7369 46.5504 36.333 46.3492 36.1311C46.1479 35.9292 45.7455 35.8282 45.2425 35.8282C44.7394 35.8282 44.337 36.0301 44.0351 36.434C43.7333 36.8379 43.6327 37.4437 43.6327 38.2514V38.8573C43.6327 39.665 43.7333 40.3718 44.0351 40.7757C44.337 41.1795 44.7394 41.3815 45.2425 41.3815C45.7455 41.3815 46.1479 41.2806 46.3492 41.0786C46.5504 40.8767 46.7516 40.4728 46.7516 39.9679H48.3613Z" fill="#1D3E7C"/>
<path id="Vector_11" d="M49.0659 39.5641C49.0659 38.9583 49.1665 38.4535 49.3677 38.0496C49.5689 37.6457 49.8707 37.2418 50.3738 37.0399C50.8768 36.8379 51.2793 36.636 51.8829 36.636C52.6878 36.636 53.2915 36.8379 53.7945 37.3428C54.2976 37.8476 54.5994 38.4534 54.5994 39.3622V39.766C54.5994 40.6747 54.3982 41.3815 53.8951 41.8864C53.3921 42.3912 52.6878 42.6941 51.8829 42.6941C51.078 42.6941 50.3738 42.3912 49.8707 41.8864C49.3677 41.3815 49.0659 40.5738 49.0659 39.5641ZM50.6756 39.6651C50.6756 40.2709 50.7762 40.6747 50.9774 40.9776C51.1786 41.2806 51.4805 41.3815 51.8829 41.3815C52.2854 41.3815 52.5872 41.2806 52.7884 40.9776C52.9896 40.6747 53.0903 40.1699 53.0903 39.5641C53.0903 39.0593 52.9896 38.5544 52.7884 38.2515C52.5872 37.9486 52.2854 37.8476 51.8829 37.8476C51.4805 37.8476 51.1786 37.9486 50.9774 38.2515C50.7762 38.6553 50.6756 39.0592 50.6756 39.6651Z" fill="#1D3E7C"/>
<path id="Vector_12" d="M57.014 36.7369V37.4437C57.4165 36.9389 58.0202 36.636 58.7245 36.636C59.3281 36.636 59.8312 36.8379 60.133 37.1408C60.4349 37.5447 60.6361 38.0495 60.6361 38.7563V42.5932H59.0262V38.8573C59.0262 38.5544 58.9257 38.2515 58.8251 38.1505C58.7244 38.0496 58.4227 37.9486 58.1208 37.9486C57.7184 37.9486 57.316 38.1505 57.1147 38.5544V42.6941H55.5049V36.8379H57.014V36.7369Z" fill="#1D3E7C"/>
<path id="Vector_13" d="M63.2513 36.7369V37.4437C63.6538 36.9389 64.2574 36.636 64.9616 36.636C65.5653 36.636 66.0684 36.8379 66.3702 37.1408C66.672 37.5447 66.8733 38.0495 66.8733 38.7563V42.5932H65.2635V38.8573C65.2635 38.5544 65.1628 38.2515 65.0622 38.1505C64.9616 38.0496 64.6598 37.9486 64.358 37.9486C63.9556 37.9486 63.5531 38.1505 63.3519 38.5544V42.6941H61.7422V36.8379H63.2513V36.7369Z" fill="#1D3E7C"/>
<path id="Vector_14" d="M70.697 42.6943C69.7915 42.6943 69.1878 42.3914 68.5841 41.8865C68.0811 41.3817 67.7793 40.6748 67.7793 39.7661V39.6652C67.7793 39.0594 67.8798 38.5545 68.0811 38.0497C68.2823 37.5448 68.5841 37.2419 69.0871 36.939C69.4896 36.7371 69.9927 36.5352 70.4957 36.5352C71.3006 36.5352 71.9043 36.8381 72.4073 37.3429C72.9104 37.8477 73.1115 38.5545 73.1115 39.4632V40.0691H69.389C69.389 40.473 69.5902 40.7758 69.8921 40.9778C70.1939 41.1797 70.4957 41.2807 70.8982 41.2807C71.5018 41.2807 72.0049 41.0788 72.3067 40.5739L73.1115 41.4826C72.9103 41.7855 72.6086 42.0884 72.2061 42.2903C71.6025 42.5933 71.0994 42.6943 70.697 42.6943ZM70.4957 37.8477C70.1939 37.8477 69.8921 37.9487 69.7915 38.1506C69.5903 38.3526 69.4896 38.6555 69.389 39.0594H71.6024V38.9584C71.6024 38.6555 71.5019 38.3526 71.3006 38.1506C71.0994 37.9487 70.7975 37.8477 70.4957 37.8477Z" fill="#1D3E7C"/>
<path id="Vector_15" d="M76.3312 41.3814C76.633 41.3814 76.8342 41.2805 77.0354 41.1795C77.2366 40.9775 77.3373 40.7756 77.3373 40.5737H78.8464C78.8464 40.9776 78.7457 41.3814 78.5445 41.6843C78.3433 41.9872 78.0414 42.2901 77.639 42.4921C77.2366 42.694 76.8342 42.795 76.4317 42.795C75.6269 42.795 74.9226 42.4921 74.4196 41.9872C73.9165 41.4824 73.7153 40.6746 73.7153 39.7659V39.6649C73.7153 38.7562 73.9165 38.0495 74.4196 37.5446C74.9226 37.0398 75.5263 36.7368 76.4317 36.7368C77.136 36.7368 77.7396 36.9388 78.1421 37.3427C78.5445 37.7465 78.8464 38.3524 78.8464 39.0592H77.3373C77.3373 38.7562 77.2366 38.5543 77.0354 38.3524C76.8342 38.1504 76.633 38.0495 76.3312 38.0495C75.9287 38.0495 75.7275 38.1504 75.5262 38.4533C75.325 38.7562 75.2245 39.1601 75.2245 39.7659V39.9678C75.2245 40.5737 75.325 40.9775 75.5262 41.2804C75.7275 41.5833 76.0293 41.3814 76.3312 41.3814Z" fill="#1D3E7C"/>
<path id="Vector_16" d="M81.5625 35.2222V36.6358H82.5686V37.7464H81.5625V40.6745C81.5625 40.8765 81.5625 41.0784 81.6631 41.1794C81.7637 41.2803 81.8643 41.2803 82.1661 41.2803H82.6692V42.492C82.3673 42.5929 82.0656 42.593 81.7638 42.593C80.6571 42.593 80.1539 42.0881 80.0533 40.9774V37.8474H79.2485V36.7367H80.0533V35.3232H81.5625V35.2222Z" fill="#1D3E7C"/>
<path id="Vector_17" d="M83.4741 35.2223C83.4741 35.0204 83.5747 34.8184 83.6753 34.6165C83.8765 34.4146 84.0778 34.4146 84.279 34.4146C84.5809 34.4146 84.7821 34.5155 84.8827 34.6165C85.0839 34.8184 85.0839 34.9194 85.0839 35.2223C85.0839 35.4242 84.9833 35.6262 84.8827 35.8281C84.7821 36.0301 84.4803 36.0301 84.279 36.0301C83.9772 36.0301 83.7759 35.9291 83.6753 35.8281C83.5747 35.7272 83.4741 35.4242 83.4741 35.2223ZM85.0839 42.5931H83.4741V36.7368H85.0839V42.5931Z" fill="#1D3E7C"/>
<path id="Vector_18" d="M86.1904 39.5641C86.1904 38.9583 86.2911 38.4535 86.4923 38.0496C86.6935 37.6457 86.9954 37.2418 87.4984 37.0399C88.0015 36.8379 88.4039 36.636 89.0075 36.636C89.8124 36.636 90.4161 36.8379 90.9192 37.3428C91.4222 37.8476 91.724 38.4534 91.724 39.3622V39.766C91.724 40.6747 91.5228 41.3815 91.0197 41.8864C90.5167 42.3912 89.8124 42.6941 89.0075 42.6941C88.2027 42.6941 87.4984 42.3912 86.9954 41.8864C86.3917 41.3815 86.1904 40.5738 86.1904 39.5641ZM87.6996 39.6651C87.6996 40.2709 87.8002 40.6747 88.0015 40.9776C88.2027 41.2806 88.5045 41.3815 88.907 41.3815C89.3094 41.3815 89.6113 41.2806 89.8125 40.9776C90.0137 40.6747 90.1142 40.1699 90.1142 39.5641C90.1142 39.0593 90.0137 38.5544 89.8125 38.2515C89.6113 37.9486 89.3094 37.8476 88.907 37.8476C88.5045 37.8476 88.2027 37.9486 88.0015 38.2515C87.8002 38.6553 87.6996 39.0592 87.6996 39.6651Z" fill="#1D3E7C"/>
<path id="Vector_19" d="M94.0384 36.7369V37.4437C94.4409 36.9389 95.0445 36.636 95.7488 36.636C96.3524 36.636 96.8555 36.8379 97.1573 37.1408C97.4591 37.5447 97.6604 38.0495 97.6604 38.7563V42.5932H96.0506V38.8573C96.0506 38.5544 95.9501 38.2515 95.8495 38.1505C95.7489 38.0496 95.447 37.9486 95.1451 37.9486C94.7427 37.9486 94.3402 38.1505 94.139 38.5544V42.6941H92.5293V36.8379H94.0384V36.7369Z" fill="#1D3E7C"/>
</g>
<g id="Group_5">
<path id="Vector_20" d="M30.0105 47.8435H3.75134C1.73915 47.8435 0.129395 46.228 0.129395 44.2086V23.8129C0.129395 21.7935 1.73915 20.178 3.75134 20.178H30.0105C32.0227 20.178 33.6324 21.7935 33.6324 23.8129V44.2086C33.733 46.228 32.1233 47.8435 30.0105 47.8435ZM3.75134 22.0964C2.84586 22.0964 2.04098 22.9041 2.04098 23.8129V44.2086C2.04098 45.1174 2.84586 45.9251 3.75134 45.9251H30.0105C30.916 45.9251 31.7208 45.1174 31.7208 44.2086V23.8129C31.7208 22.9041 30.916 22.0964 30.0105 22.0964H3.75134Z" fill="#1D3E7C"/>
<path id="Vector_21" d="M32.3242 41.6843H1.13525V43.7037H32.3242V41.6843Z" fill="#1D3E7C"/>
<path id="Vector_22" d="M28.803 22.0962H22.867V12.2013C22.867 8.86929 20.2511 6.24409 16.931 6.24409C13.6109 6.24409 10.9951 8.86929 10.9951 12.2013V22.0962H5.05908V12.2013C5.15969 5.63828 10.492 0.286911 17.0316 0.38788C23.4706 0.48885 28.7024 5.73925 28.803 12.2013V22.0962ZM24.7786 20.0769H26.7908V12.1003C26.7908 6.64797 22.3639 2.20533 16.931 2.20533C11.4981 2.20533 7.07128 6.64797 7.07128 12.1003V20.0769H9.08347V12.1003C9.08347 7.75863 12.6048 4.12374 17.0316 4.12374C21.3578 4.12374 24.9798 7.65766 24.9798 12.1003L24.7786 20.0769Z" fill="#1D3E7C"/>
<path id="Vector_23" d="M10.2908 36.7368C9.2847 36.7368 8.27861 36.3329 7.47373 35.7271C7.07129 35.4242 6.97068 34.8183 7.27251 34.3135C7.57434 33.8087 8.178 33.8086 8.68104 34.1116C9.18409 34.4145 9.68714 34.6164 10.2908 34.6164C10.9951 34.6164 11.4981 34.2125 11.4981 33.9096C11.4981 33.6067 10.9951 33.2028 10.2908 33.2028C8.68104 33.3038 7.27251 32.1931 7.07129 30.5776C7.1719 28.9621 8.68104 27.7505 10.2908 27.9524C11.3975 27.9524 12.4036 28.5583 12.9066 29.467C13.2085 29.9718 13.0073 30.5776 12.5042 30.7796C12.0012 31.0825 11.4981 30.8805 11.1963 30.4767C11.1963 30.4767 11.1963 30.3757 11.0957 30.3757C10.8945 30.0728 10.5926 29.9718 10.2908 29.9718C9.58653 29.9718 9.08348 30.3757 9.08348 30.6786C9.08348 30.9815 9.58653 31.3854 10.2908 31.3854C11.9006 31.1835 13.3091 32.3951 13.5103 34.0106C13.3091 35.6261 11.9006 36.8377 10.2908 36.7368Z" fill="#1D3E7C"/>
<path id="Vector_24" d="M17.1326 36.7368C16.1265 36.7368 15.1204 36.3329 14.3155 35.7271C13.9131 35.4242 13.8125 34.8183 14.1143 34.3135C14.4162 33.9096 15.0198 33.8086 15.4223 34.1116C15.9253 34.4145 16.4283 34.6164 17.032 34.6164C17.7363 34.6164 18.2393 34.2125 18.2393 33.9096C18.2393 33.6067 17.7363 33.2028 17.032 33.2028C15.4223 33.3038 14.0137 32.1931 13.8125 30.5776C13.9131 28.9621 15.4223 27.7505 17.032 27.9524C18.1387 27.9524 19.1448 28.5583 19.6479 29.467C19.9497 29.9718 19.7485 30.5776 19.2454 30.7796C18.7424 31.0825 18.2393 30.8805 17.9375 30.4767C17.9375 30.4767 17.9375 30.3757 17.8369 30.3757C17.6357 30.0728 17.3338 29.9718 17.032 29.9718C16.3277 29.9718 15.8247 30.3757 15.8247 30.6786C15.8247 30.9815 16.3277 31.3854 17.032 31.3854C18.6418 31.1835 20.0503 32.3951 20.2515 34.0106C20.2515 35.6261 18.7424 36.8377 17.1326 36.7368Z" fill="#1D3E7C"/>
<path id="Vector_25" d="M25.7847 36.7368H22.4646C21.9615 36.7368 21.4585 36.3329 21.4585 35.7271V29.0632C21.4585 28.5583 21.8609 28.0535 22.4646 28.0535C22.9676 28.0535 23.4707 28.4573 23.4707 29.0632V29.1641V34.8184H25.7847C26.2878 34.8184 26.7908 35.2223 26.7908 35.8281C26.8914 36.232 26.3884 36.7368 25.7847 36.7368Z" fill="#1D3E7C"/>
</g>
</g>
</g>
<defs>
<clipPath id="clip0_55_3249">
<rect width="97.4908" height="47.5565" fill="white" transform="translate(0.129395 0.286865)"/>
</clipPath>
</defs>
</svg>
