<svg width="48" height="48" viewBox="0 0 48 48" fill="none" xmlns="http://www.w3.org/2000/svg">
<path fill-rule="evenodd" clip-rule="evenodd" d="M46.125 27.1167C47.1605 27.1167 48 27.9562 48 28.9917V37.1249C48 38.1604 47.1605 38.9999 46.125 38.9999C45.0895 38.9999 44.25 38.1604 44.25 37.1249V28.9917C44.25 27.9562 45.0895 27.1167 46.125 27.1167Z" fill="#C7F74A"/>
<path fill-rule="evenodd" clip-rule="evenodd" d="M9.375 22.1265C10.4105 22.1265 11.25 22.9659 11.25 24.0015V37.1251C11.25 38.1606 12.0895 39.0001 13.125 39.0001H34.875C35.9105 39.0001 36.75 38.1606 36.75 37.1251V32.1254C36.75 31.0898 37.5895 30.2504 38.625 30.2504C39.6605 30.2504 40.5 31.0898 40.5 32.1254V37.1251C40.5 40.2316 37.9816 42.7501 34.875 42.7501H13.125C10.0184 42.7501 7.5 40.2316 7.5 37.1251V24.0015C7.5 22.9659 8.33947 22.1265 9.375 22.1265Z" fill="#7A4AF7"/>
<path d="M26.7421 29.0509L9.8085 21.8379C8.45297 21.273 7.5 19.9353 7.5 18.375C7.5 16.8147 8.45297 15.477 9.80859 14.9121C9.80859 14.9121 26.7892 7.68122 26.8125 7.67175C25.919 7.30988 24.964 7.12422 24 7.125C22.9785 7.125 22.0046 7.32928 21.1171 7.69913L4.18359 14.9121C2.82797 15.477 1.875 16.8147 1.875 18.375C1.875 19.9353 2.82797 21.273 4.18359 21.8379L21.1172 29.0509C22.0046 29.4207 22.9785 29.625 24 29.625C24.964 29.6258 25.919 29.4401 26.8125 29.0783C26.7892 29.0688 26.7652 29.0605 26.7421 29.0509Z" fill="#CEE1F2"/>
<path fill-rule="evenodd" clip-rule="evenodd" d="M20.3957 5.96845C21.5079 5.50488 22.7266 5.25 24 5.25C25.2734 5.25 26.4921 5.50488 27.6043 5.96845C27.6088 5.97031 27.6132 5.9722 27.6177 5.9741L44.5451 13.1845C46.5709 14.0321 48 16.0345 48 18.375C48 20.7156 46.5708 22.718 44.5449 23.5656L27.6177 30.7759C27.6153 30.7769 27.613 30.7779 27.6106 30.7789C27.6085 30.7798 27.6064 30.7807 27.6043 30.7816C26.4921 31.2451 25.2734 31.5 24 31.5C22.7266 31.5 21.5079 31.2451 20.3957 30.7816C20.3912 30.7797 20.3868 30.7778 20.3823 30.7759L3.45502 23.5656C1.42916 22.718 0 20.7156 0 18.375C0 16.0345 1.42907 14.0321 3.45483 13.1845L20.3823 5.9741C20.3868 5.9722 20.3912 5.97031 20.3957 5.96845ZM21.8447 9.4272L4.91838 16.6371C4.91388 16.639 4.90937 16.6409 4.90485 16.6428C4.22334 16.9268 3.75 17.5979 3.75 18.375C3.75 19.1521 4.22334 19.8232 4.90485 20.1072C4.90937 20.1091 4.91388 20.111 4.91838 20.1129L21.8447 27.3228C22.5059 27.5975 23.2328 27.75 24 27.75C24.7673 27.75 25.4942 27.5974 26.1554 27.3227L43.0816 20.1129C43.0861 20.111 43.0906 20.1091 43.0951 20.1072C43.7767 19.8232 44.25 19.1521 44.25 18.375C44.25 17.5979 43.7767 16.9268 43.0951 16.6428C43.0906 16.6409 43.0861 16.639 43.0816 16.6371L26.1554 9.42724C25.4941 9.15254 24.7673 9 24 9C23.2328 9 22.506 9.15253 21.8447 9.4272Z" fill="#7A4AF7"/>
</svg>
