<svg width="48" height="48" viewBox="0 0 48 48" fill="none" xmlns="http://www.w3.org/2000/svg">
<path d="M14.25 35.25V24C14.25 18.825 16.35 14.175 19.7624 10.7624C22.544 7.98103 26.1476 6.072 30.1875 5.46094C29.2566 5.32027 28.3165 5.24976 27.375 5.25C22.2 5.25 17.55 7.35 14.1374 10.7624C10.725 14.175 8.625 18.825 8.625 24V35.25C8.625 39.3749 5.99991 42.75 1.875 42.75H7.5C11.6249 42.75 14.25 39.3749 14.25 35.25Z" fill="#CEE1F2"/>
<path fill-rule="evenodd" clip-rule="evenodd" d="M6.75 24C6.75 12.652 16.027 3.375 27.375 3.375C38.723 3.375 48 12.652 48 24C48 35.348 38.723 44.625 27.375 44.625C26.3395 44.625 25.5 43.7855 25.5 42.75C25.5 41.7145 26.3395 40.875 27.375 40.875C36.652 40.875 44.25 33.277 44.25 24C44.25 14.723 36.652 7.125 27.375 7.125C18.098 7.125 10.5 14.723 10.5 24V27.75C10.5 28.7855 9.66053 29.625 8.625 29.625C7.58947 29.625 6.75 28.7855 6.75 27.75V24Z" fill="#7A4AF7"/>
<path fill-rule="evenodd" clip-rule="evenodd" d="M8.625 25.875C9.66053 25.875 10.5 26.7145 10.5 27.75V35.25C10.5 37.2993 9.94256 39.2722 8.89771 40.875H27.375C28.4105 40.875 29.25 41.7145 29.25 42.75C29.25 43.7855 28.4105 44.625 27.375 44.625H1.875C0.839466 44.625 0 43.7855 0 42.75C0 41.7145 0.839466 40.875 1.875 40.875C4.7297 40.875 6.75 38.6279 6.75 35.25V27.75C6.75 26.7145 7.58947 25.875 8.625 25.875Z" fill="#7A4AF7"/>
<path fill-rule="evenodd" clip-rule="evenodd" d="M27.375 12.75C28.4105 12.75 29.25 13.5895 29.25 14.625V16.5H36.75C37.7855 16.5 38.625 17.3395 38.625 18.375C38.625 19.4105 37.7855 20.25 36.75 20.25H24.1343C25.6601 25.1992 29.148 29.3526 33.8385 31.698C34.7647 32.1611 35.1402 33.2873 34.677 34.2135C34.2139 35.1397 33.0877 35.5152 32.1615 35.052C26.2037 32.0731 21.8676 26.6561 20.2403 20.25H18C16.9645 20.25 16.125 19.4105 16.125 18.375C16.125 17.3395 16.9645 16.5 18 16.5H21.7173C21.7406 16.4996 21.7638 16.4996 21.787 16.5H25.5V14.625C25.5 13.5895 26.3395 12.75 27.375 12.75Z" fill="#C7F74A"/>
<path fill-rule="evenodd" clip-rule="evenodd" d="M33.3358 16.5303C34.3546 16.7156 35.0304 17.6917 34.8452 18.7105C33.5593 25.7831 29.0184 31.8373 22.5889 35.0521C21.6627 35.5152 20.5365 35.1398 20.0734 34.2136C19.6103 33.2874 19.9857 32.1611 20.9119 31.698C26.2857 29.0111 30.0809 23.9509 31.1557 18.0397C31.3409 17.0208 32.317 16.3451 33.3358 16.5303Z" fill="#C7F74A"/>
</svg>
