<svg width="48" height="48" viewBox="0 0 48 48" fill="none" xmlns="http://www.w3.org/2000/svg">
<path d="M10.8084 17.7925C10.4142 17.9556 10.0059 18.0827 9.58875 18.1722C9.96943 17.9739 10.3825 17.8453 10.8084 17.7925ZM11.25 37.0778H5.625C3.55406 37.0778 1.875 35.3987 1.875 33.3278V22.0778C1.875 20.0069 3.55406 18.3278 5.625 18.3278H8.11219C8.61188 18.3278 9.10594 18.2753 9.58781 18.1722C8.35031 18.8125 7.5 20.1353 7.5 21.609V33.3278C7.5 35.3986 9.17906 37.0778 11.25 37.0778Z" fill="#CEE1F2"/>
<path d="M42.375 16.4528H37.876C36.7377 16.4528 35.584 15.9254 34.4468 14.8849C31.1407 11.8603 26.0672 11.9746 22.8965 15.1451L16.071 21.9706C13.8778 24.1637 13.8778 27.7322 16.071 29.9255C18.2692 32.1237 21.8274 32.1242 24.0261 29.9255L29.0303 24.9213C29.7624 24.1891 29.7624 23.0019 29.0303 22.2697C28.298 21.5374 27.1107 21.5374 26.3785 22.2697L21.3743 27.2739C20.6416 28.0067 19.4556 28.0067 18.7228 27.2739C17.9917 26.5428 17.9917 25.3533 18.7228 24.6223L25.5483 17.7968C27.2963 16.0485 30.0933 15.9846 31.9157 17.6518C33.7399 19.3206 35.8009 20.2028 37.8761 20.2028H42.3751C43.409 20.2028 44.2501 21.0439 44.2501 22.0778V33.3278C44.2501 34.3617 43.409 35.2028 42.3751 35.2028H36.9367C37.8227 33.1478 37.4291 30.6687 35.753 28.9923L34.333 27.5724C33.6007 26.8402 32.4136 26.8402 31.6814 27.5724C30.9492 28.3046 30.9492 29.4918 31.6815 30.2241L33.1014 31.644C33.8325 32.375 33.8325 33.5646 33.1015 34.2957L31.6456 35.7515L31.6448 35.7523L25.1464 42.2506C24.7923 42.6047 24.3214 42.7997 23.8206 42.7997C23.3197 42.7997 22.8489 42.6047 22.4948 42.2506L18.1927 37.9486C16.422 36.1778 14.0677 35.2026 11.5636 35.2026H5.625C4.59113 35.2026 3.75 34.3615 3.75 33.3276V22.0776C3.75 21.0437 4.59113 20.2026 5.625 20.2026H8.112C10.3668 20.2026 12.5206 19.3599 14.1768 17.8297C15.1344 16.9431 16.3917 16.4512 17.6967 16.4526C18.7323 16.4526 19.5717 15.6132 19.5717 14.5776C19.5717 13.5421 18.7323 12.7026 17.6967 12.7026C15.4418 12.7026 13.288 13.5453 11.632 15.0754C10.6744 15.9621 9.41706 16.454 8.112 16.4526H5.625C2.52338 16.4526 0 18.976 0 22.0776V33.3276C0 36.4292 2.52338 38.9526 5.625 38.9526H11.5636C13.066 38.9526 14.4787 39.5377 15.541 40.6002L19.843 44.9022C20.9396 45.9988 22.3801 46.547 23.8206 46.547C25.261 46.547 26.7014 45.9988 27.798 44.9022L33.7476 38.9527H42.375C45.4766 38.9527 48 36.4293 48 33.3277V22.0777C48 18.9762 45.4766 16.4528 42.375 16.4528Z" fill="#7A4AF7"/>
<path d="M19.3497 7.56735L18.0671 4.04347C17.713 3.07035 16.6368 2.56869 15.6639 2.92279C14.6908 3.27697 14.1891 4.35294 14.5432 5.32597L15.8258 8.84985C16.1795 9.82148 17.2544 10.3252 18.229 9.97054C19.2021 9.61635 19.7038 8.54038 19.3497 7.56735ZM32.3374 2.92279C31.3641 2.5686 30.2885 3.07044 29.9342 4.04347L28.6516 7.56735C28.2975 8.54038 28.7991 9.61635 29.7723 9.97054C30.7472 10.3254 31.8219 9.8211 32.1755 8.84985L33.4581 5.32597C33.8121 4.35294 33.3105 3.27697 32.3374 2.92279ZM24.0006 8.95288C25.0362 8.95288 25.8756 8.11344 25.8756 7.07788V3.32788C25.8756 2.29232 25.0362 1.45288 24.0006 1.45288C22.9651 1.45288 22.1256 2.29232 22.1256 3.32788V7.07788C22.1256 8.11335 22.9651 8.95288 24.0006 8.95288Z" fill="#B4E730"/>
</svg>
